<svg width="322" height="482" viewBox="0 0 322 482" fill="none" xmlns="http://www.w3.org/2000/svg">
<path d="M321 366.306C321 297.586 321 228.854 321 160.133C319.981 155.959 317.735 152.842 315.017 150.147C312.544 147.69 310.024 145.302 307.703 142.606C305.541 140.104 304.72 140.263 302.937 143.084C300.917 146.291 300.313 150.101 299.728 153.9C299.398 156.027 299.247 158.188 299.275 160.361C299.294 161.816 299.067 163.261 298.652 164.58C298.18 164.739 298.105 164.376 298.076 164.103C297.633 159.439 295.509 155.902 292.735 152.888C290.121 150.045 287.308 147.451 284.656 144.642C284.222 144.187 283.722 143.812 283.222 143.482C281.598 142.413 281.23 142.583 280.457 144.642C278.692 149.328 278.39 154.332 278.116 159.36C278.069 160.304 278.437 161.828 277.484 161.964C276.587 162.089 276.776 160.531 276.682 159.712C275.643 151.25 271.33 145.324 266.215 140.036C264.318 138.079 262.629 135.793 260.317 134.485C259.694 134.132 259.024 133.518 258.335 134.064C257.618 134.633 257.863 135.588 257.976 136.407C258.561 140.684 259.203 144.949 260.251 149.1C260.628 150.59 261.157 151.989 261.997 153.206C262.365 153.741 262.742 154.276 262.846 155.003C262.903 155.402 262.846 155.8 262.572 156.05C262.261 156.323 261.969 156.13 261.714 155.857C261.563 155.709 261.402 155.549 261.327 155.345C260.175 152.274 257.825 151.705 255.419 150.886C250.275 149.146 245.878 145.62 241.659 141.787C238.441 138.864 235.128 136.1 232.07 132.87C229.805 130.481 226.531 129.788 223.492 129.151C222.331 128.9 221.925 129.765 222.491 130.993C223.303 132.768 224.483 134.212 225.691 135.6C227.975 138.238 230.542 140.399 233.307 142.265C233.996 142.731 235.024 143.118 234.486 144.46C234.024 145.643 233.127 145.37 232.297 145.074C228.465 143.743 224.577 142.754 220.679 141.753C220.236 141.639 219.811 141.491 219.358 141.457C218.773 141.423 218.122 141.378 217.782 142.037C217.357 142.868 217.877 143.516 218.301 144.085C220.557 147.076 222.34 150.488 224.285 153.752C224.766 154.56 225.398 155.413 224.794 156.471C224.143 157.608 223.265 156.982 222.539 156.618C219.707 155.197 216.706 154.867 213.714 154.401C210.883 153.968 208.562 155.549 206.382 157.29C202.795 160.156 199.426 163.375 196.265 166.9C194.613 168.743 194.632 169.3 196.5 170.961C198.624 172.849 200.644 174.851 202.531 177.08C204.4 179.275 205.485 181.925 206.174 184.86C206.787 187.464 206.155 188.135 203.956 187.965C198.624 187.567 193.971 189.523 190.262 194.323C189.422 195.403 189.743 196.609 190.007 197.826C191.64 205.276 191.046 212.885 191.008 220.448C191.008 220.892 190.923 221.381 190.413 221.768C187.573 214.625 181.844 212.236 176.351 209.495C173.917 208.278 173.322 208.915 173.624 212.043C173.983 215.785 173.671 219.447 172.614 222.996C172.388 223.747 172.152 224.873 171.284 224.691C170.491 224.532 170.264 223.394 170.368 222.609C170.755 219.709 169.283 217.992 167.82 216.217C165.555 213.476 163.281 210.747 161.016 208.006C159.798 206.527 159.27 206.607 158.675 208.449C156.844 214.159 156.014 220.073 156.523 226.192C156.618 227.364 157.042 228.422 157.448 229.468C157.929 230.696 157.675 231.8 156.863 232.607C155.872 233.597 155.221 232.527 154.579 231.811C150.323 227.045 145.878 222.632 140.168 220.574C139.857 220.46 139.564 220.323 139.253 220.232C137.45 219.721 136.969 220.221 137.309 222.405C137.969 226.738 138.847 231.026 139.319 235.405C139.517 237.248 139.621 239.101 139.838 240.933C139.942 241.797 140.102 242.775 139.328 243.719C137.96 240.978 135.931 239.352 133.505 238.408C128.881 236.622 124.672 237.043 121.133 241.604C119.245 244.038 117.358 246.46 115.791 249.213C114.489 251.499 114.517 251.726 116.433 253.182C120.189 256.049 123.681 259.301 126.767 263.18C127.305 263.851 127.833 264.522 128.211 265.341C128.569 266.126 128.777 266.945 128.305 267.741C127.748 268.685 127.059 268.128 126.399 267.889C122.105 266.342 117.745 265.785 113.281 266.706C111.403 267.093 110.176 268.082 109.553 270.425C108.798 273.291 108.062 273.553 105.863 272.108C101.748 269.413 97.2936 267.547 93.377 264.363C92.1313 263.35 91.3951 263.783 90.961 265.58C90.508 267.434 90.1777 269.333 90.1871 271.29C90.1871 272.836 90.2154 274.383 90.1777 275.93C90.1399 277.181 90.1115 278.557 89.0357 279.171C87.9976 279.774 87.4502 278.489 86.7519 277.898C82.1558 273.951 76.9085 271.983 71.4914 270.505C70.3306 270.186 69.6983 270.823 69.3019 272.097C67.6315 277.397 69.1697 284.904 72.756 288.726C73.1901 289.192 73.6243 289.647 73.9924 290.181C74.568 290.989 74.7001 291.865 74.0584 292.672C73.3506 293.559 72.7655 292.877 72.2464 292.297C70.0381 289.863 67.4805 288.134 64.8002 286.587C61.4782 284.665 57.9109 284.244 54.3152 283.96C53.6923 283.914 52.8806 283.858 52.5975 284.665C52.3049 285.484 52.9467 286.098 53.3902 286.621C55.5797 289.158 57.5994 291.842 58.9018 295.186C59.1755 295.891 59.4963 296.562 59.6851 297.301C59.9116 298.245 60.5061 299.531 59.6851 300.077C58.8829 300.623 58.5621 299.133 58.0902 298.507C55.4005 294.958 51.833 294.492 48.1996 294.492C47.0577 294.492 45.3967 293.969 44.8399 295.447C44.2548 297.017 45.6704 298.234 46.4537 299.371C48.3223 302.135 50.4175 304.638 52.7863 306.799C53.3054 307.276 54.2397 307.743 53.7395 308.743C53.2771 309.687 52.4466 309.107 51.8237 308.778C46.8407 306.127 41.6594 304.501 36.2046 304.148C35.8837 304.126 35.5722 304.001 35.2514 303.989C34.6757 303.989 33.9867 303.864 33.7131 304.603C33.4299 305.354 33.9585 305.934 34.3832 306.355C36.1291 308.072 37.7146 309.983 39.2906 311.917C39.6965 312.417 40.1117 312.895 40.4987 313.407C41.2254 314.373 41.8105 315.409 41.0838 316.716C40.3194 318.115 39.3284 317.604 38.3469 317.092C35.242 315.477 31.9483 314.885 28.6075 314.555C26.182 314.317 23.7565 313.896 21.3122 314.101C20.576 314.157 19.6228 313.907 19.302 314.999C19 316.034 19.755 316.728 20.3024 317.319C23.0204 320.277 25.88 323.018 28.6924 325.838C29.8343 326.976 30.8724 328.238 31.9011 329.512C32.3824 330.115 33.0336 330.775 32.5051 331.707C31.9578 332.674 31.2405 332.094 30.6082 331.741C26.7671 329.649 22.8222 329.262 18.7735 330.661C16.9332 331.298 15.31 332.299 14.6588 334.744C14.0831 336.928 14.3757 337.895 16.1782 338.713C19.6984 340.317 22.8128 342.751 25.8894 345.288C26.8993 346.118 27.7486 347.187 28.5697 348.279C29.2492 349.166 29.7965 350.156 29.2491 351.407C28.6451 352.783 27.5693 352.737 26.55 352.396C24.5398 351.725 22.5014 351.589 20.444 351.714C19.7739 351.759 18.8773 351.532 18.6414 352.555C18.4526 353.374 19.1133 353.943 19.6135 354.409C20.9914 355.695 22.171 357.23 23.3885 358.709C24.1152 359.596 24.7285 360.585 25.0872 361.78C25.6912 363.793 25.3137 365.055 23.681 365.908C22.6901 366.42 22.1428 366.739 22.9355 368.183C23.6056 369.411 23.0204 370.572 21.8029 370.947C21.5576 371.027 21.2839 371.106 21.0386 371.027C15.6214 369.275 11.7049 373.574 7.33529 375.997C6.0046 376.736 4.87213 377.953 3.71132 379.057C3.00351 379.739 2.36166 380.49 1.96529 381.491C1.21029 383.401 1.65395 384.891 3.36214 385.437C8.9397 387.257 13.8094 390.942 18.9811 393.831C19.8305 394.309 19.8966 395.003 19.5568 395.912C19.1132 397.107 18.2734 397.823 17.3957 398.483C15.4327 399.95 13.413 401.315 11.5916 403.044C9.62861 404.898 8.09032 407.139 7.37307 410.073C6.80682 412.405 7.1371 413.201 9.10954 413.769C13.045 414.895 16.9427 416.192 20.9442 416.943C22.6241 417.25 22.9732 418.035 21.9634 419.684C20.5572 421.981 18.934 424.086 17.273 426.133C15.6969 428.066 14.1586 430.034 12.743 432.138C12.2616 432.866 11.6482 433.639 11.9313 434.618C12.2522 435.71 13.1865 435.516 13.9321 435.55C15.6025 435.63 17.273 435.493 18.934 435.721C19.991 435.869 20.7271 435.027 21.5104 434.356C24.1624 432.093 27.1541 431.092 30.3628 430.933C30.9196 430.91 31.684 430.751 31.9199 431.49C32.2125 432.411 31.4387 432.809 30.9196 433.219C30.0513 433.912 29.0416 434.219 28.0223 434.401C23.4735 435.243 20.0381 437.905 17.9336 443C16.8483 445.628 15.376 448.005 14.1302 450.53C13.4319 451.951 12.96 453.464 12.809 455.102C12.6297 457.092 13.0921 457.65 14.7248 457.445C17.1691 457.149 19.5002 456.262 21.8313 455.42C22.8128 455.068 23.7754 454.624 24.7474 454.215C25.4458 453.919 26.3236 453.271 26.8426 454.272C27.2768 455.113 26.5122 455.819 26.0404 456.421C24.8984 457.889 23.6811 459.253 22.6996 460.914C21.6048 462.768 20.8309 464.792 20.3873 466.999C19.8494 469.683 20.3496 470.548 22.5863 470.331C24.5021 470.15 26.4274 470.024 28.3337 469.808C32.8826 469.296 37.422 469.24 41.9614 469.831C43.2449 470.002 44.5285 469.956 45.812 469.911C48.7565 469.797 51.55 470.434 54.1642 472.14C54.8059 472.561 55.5987 473.3 56.2781 472.504C56.9388 471.73 56.3914 470.752 56.146 469.899C54.3529 463.655 51.7859 457.854 48.983 452.202C48.8225 451.872 48.6338 451.553 48.5017 451.201C48.1336 450.234 47.4258 449.21 48.0298 448.187C48.596 447.242 49.5681 447.698 50.3703 447.857C52.2672 448.232 54.2114 448.061 56.0989 448.642C58.4111 449.347 60.6949 450.063 62.6768 451.781C63.177 452.213 63.7526 453.02 64.366 452.497C65.0361 451.929 64.6681 450.928 64.5076 450.12C63.3562 444.16 61.8652 438.326 60.2985 432.502C60.0532 431.581 59.4209 430.591 60.1004 429.67C60.8365 428.681 61.7896 429.215 62.6201 429.568C65.8289 430.955 68.9622 432.57 71.9067 434.64C75.106 436.892 77.4181 440.111 79.0414 444.115C80.089 446.685 80.3815 446.651 82.2313 444.774C85.1286 441.84 88.243 439.19 91.4706 436.847C94.6511 434.538 98.3789 434.777 101.965 434.675C102.343 434.675 102.796 434.731 102.956 435.22C103.154 435.846 102.72 436.21 102.39 436.562C102.059 436.926 101.672 437.222 101.295 437.518C96.3497 441.362 92.4899 446.481 89.3283 452.395C89.1207 452.782 88.8942 453.168 88.7337 453.589C88.1675 455.159 88.4978 455.864 89.8945 455.693C92.3955 455.386 94.8963 455.523 97.3973 455.534C102.569 455.557 106.75 458.434 110.582 462.279C111.261 462.961 111.223 463.678 110.855 464.542C110.251 465.952 109.175 466.362 108.014 466.635C103.711 467.67 99.634 469.558 95.5381 471.355C95.1795 471.514 94.8114 471.674 94.4717 471.89C93.8111 472.322 92.7729 472.629 92.9428 473.675C93.1221 474.79 94.1885 474.517 94.9152 474.517C104.928 474.551 114.951 474.733 124.955 474.437C128.862 474.324 132.769 474.13 136.676 474.062C137.252 474.062 137.837 474.062 138.328 473.596C138.696 472.788 138.281 472.106 138.064 471.401C137.705 470.275 137.544 469.126 138.064 468.045C138.658 466.817 138.309 465.987 137.412 465.35C135.798 464.201 135.204 462.176 134.468 460.311C133.911 458.889 134.26 457.616 135.515 456.808C141.301 453.066 147.397 450.632 154.013 450.405C155.24 450.359 156.438 450.177 157.637 449.915C158.958 449.62 159.015 448.88 158.288 447.686C155.919 443.796 153.088 440.418 149.974 437.45C144.632 432.343 138.828 428.1 132.58 424.768C131.92 424.415 131.325 423.994 130.919 423.255C130.013 421.64 130.297 420.446 131.825 419.911C136.771 418.205 141.782 416.92 146.925 416.545C149.03 416.397 151.125 417.011 153.239 417.182C153.805 417.227 154.504 417.5 154.815 416.772C155.155 415.987 154.475 415.555 154.079 415.1C152.078 412.757 150.625 410.152 151.097 406.558C149.86 405.956 148.898 406.979 147.85 407.423C147.133 407.73 146.482 408.276 145.764 408.606C145.085 408.913 144.264 409.868 143.698 409.027C143.188 408.264 144.009 407.343 144.321 406.524C144.708 405.523 145.425 404.83 145.953 403.954C146.755 402.634 146.557 402.066 145.179 401.872C144.028 401.713 142.867 401.85 141.716 401.793C140.715 401.747 139.517 402.02 139.054 400.542C138.611 399.109 139.574 398.256 140.3 397.414C142.15 395.264 143.849 392.955 145.529 390.612C145.944 390.032 146.623 389.429 146.368 388.656C146.057 387.689 145.104 387.553 144.368 387.632C142.018 387.917 139.64 387.814 137.337 388.736C134.968 389.691 134.6 389.191 135.176 386.256C135.336 385.414 135.412 384.561 135.27 383.72C134.666 380.228 133.836 376.827 132.712 373.529C132.495 372.892 132.231 372.118 131.533 372.255C130.976 372.357 130.834 373.108 130.693 373.699C129.985 376.679 129.872 379.796 129.353 382.821C129.202 383.72 129.164 384.664 128.437 385.858C127.078 382.901 124.851 381.468 122.548 380.16C121.321 379.466 120.028 379 118.698 378.749C118.122 378.647 117.49 378.601 117.122 379.273C116.735 379.989 117.15 380.615 117.49 381.161C119.462 384.402 121.444 387.644 123.417 390.885C124.407 392.512 125.295 394.206 126.05 396.004C126.361 396.754 126.805 397.641 126.21 398.369C125.549 399.177 124.879 398.449 124.332 397.983C121.935 395.958 119.236 395.583 116.423 395.787C114.64 395.912 114.366 396.493 115.404 398.108C116.64 400.041 117.414 402.225 118.141 404.466C118.585 405.83 118.962 407.229 119.717 408.424C120.066 408.981 120.481 409.618 119.953 410.278C119.349 411.017 118.764 410.471 118.245 410.027C117.509 409.413 116.773 408.788 116.027 408.185C114.621 407.07 113.149 406.149 111.422 406.024C110.836 405.978 110.147 405.922 110.204 404.955C110.251 404.045 110.931 403.999 111.516 403.954C112.979 403.863 114.262 404.591 115.546 405.307C116.169 405.648 116.895 406.297 117.499 405.569C118.103 404.852 117.565 403.965 117.339 403.192C116.688 400.962 115.64 399.063 114.29 397.346C113.299 396.083 113.441 395.583 114.857 395.287C117.301 394.775 119.708 395.23 122.114 395.822C122.765 395.981 123.596 396.629 124.039 395.685C124.426 394.866 123.785 394.093 123.369 393.422C120.255 388.315 117.32 383.049 113.564 378.556C113.243 378.181 112.847 377.76 113.007 377.168C113.215 376.406 113.828 376.543 114.319 376.531C119 376.44 123.379 377.487 127.003 381.422C128.503 383.049 129.117 382.787 129.485 380.41C129.891 377.828 130.127 375.212 130.778 372.687C130.948 372.028 131.042 371.174 131.721 371.118C132.41 371.061 132.637 371.902 132.807 372.539C133.958 376.952 135.619 381.217 135.855 385.915C135.94 387.519 136.648 387.462 137.544 387.121C140.357 386.063 143.254 386.245 146.133 386.267C146.321 386.267 146.519 386.268 146.708 386.302C147.463 386.427 148.341 386.393 148.7 387.405C149.077 388.451 148.379 389.134 147.86 389.793C146.218 391.852 144.434 393.763 143.028 396.083C142.66 396.697 141.952 397.255 142.235 398.062C142.565 398.972 143.443 398.767 144.122 398.79C145.982 398.847 147.841 398.745 149.7 398.847C150.342 398.881 151.078 398.938 151.314 399.814C151.55 400.69 150.993 401.27 150.483 401.736C149.105 402.998 147.605 404.068 146.387 405.58C145.972 406.092 145.283 406.706 145.802 407.525C146.199 408.139 146.907 407.866 147.407 407.525C149.398 406.183 151.71 406.115 153.805 405.159C155.561 404.363 156.627 405.273 157.146 407.571C157.684 408.196 158.392 408.344 159.071 408.549C165.168 410.346 170.849 413.337 176.144 417.386C176.672 417.796 177.295 418.524 177.871 418.103C178.607 417.568 178.163 416.545 178.012 415.76C176.484 408.162 174.917 400.587 172.171 393.456C171.935 392.83 171.586 392.148 172.048 391.511C172.558 390.794 173.228 391.045 173.832 391.306C177.125 392.705 180.098 394.832 182.911 397.3C188.96 402.623 194.594 408.424 198.501 416.283C199.039 417.375 199.69 417.739 200.719 417.557C204.843 416.818 208.958 416.09 213.129 415.828C216.565 415.623 219.906 415.987 223.105 417.568C224.7 418.353 224.955 419.422 224.03 421.208C223.133 422.959 221.67 423.778 220.16 424.472C217.82 425.541 215.451 426.508 213.177 427.782C212.667 428.066 211.94 428.26 211.94 429.056C211.94 429.897 212.695 430 213.205 430.216C216.046 431.433 218.915 432.536 221.689 433.969C225.011 435.687 228.022 438.03 231.023 440.418C231.504 440.805 231.938 441.408 232.476 441.521C234.741 441.954 235.713 444.012 236.704 446.117C237.724 448.289 237.233 449.711 235.204 450.086C230.438 450.973 225.757 452.258 221.17 454.078C220.679 454.272 220.179 454.397 219.736 454.738C219.094 455.238 219.018 455.784 219.66 456.364C220.387 457.024 221.208 457.456 222.02 457.911C224.747 459.458 226.946 461.767 228.852 464.553C230.683 467.238 232.552 469.876 234.203 472.731C235.109 473.289 236.091 473.118 237.044 473.118C246.161 473.129 255.268 473.118 264.384 473.118C265.791 473.118 267.206 473.061 268.612 473.368C269.235 473.505 270.094 473.675 270.321 472.856C270.566 471.981 269.698 471.617 269.179 471.23C266.272 469.08 263.611 466.521 260.968 463.951C260.043 463.052 258.609 462.108 259.014 460.55C259.439 458.912 261.034 459.663 262.091 459.708C266.395 459.856 270.679 459.367 274.964 459.14C277.153 459.026 279.267 458.287 281.249 457.115C281.768 456.808 282.401 456.41 282.363 455.659C282.316 454.715 281.523 454.545 280.91 454.431C278.626 454.01 276.313 454.169 274.011 453.873C268.254 453.146 262.591 451.872 257.004 450.063C253.437 448.903 250.257 446.674 246.953 444.82C244.962 443.705 244.707 441.954 246.132 439.929C249.483 435.175 251.993 429.511 256.58 426.11C256.938 425.848 257.429 425.462 257.287 424.859C257.089 423.983 256.344 423.892 255.749 423.687C250.483 421.856 245.472 419.24 240.64 416.203C232.646 411.187 225.813 404.363 219.821 396.242C216.451 391.681 212.903 387.325 209.383 382.924C208.42 381.718 206.872 380.444 207.495 378.704C208.052 377.134 209.807 378.056 211.025 377.953C216.716 377.441 222.425 377.487 228.135 377.441C235.043 377.385 241.81 378.579 248.558 380.137C249.52 380.353 250.917 381.252 251.398 380.035C251.965 378.613 250.408 377.953 249.634 377.191C242.32 369.98 235.289 362.462 229.513 353.34C224.53 345.47 221.887 336.78 222.293 326.816C222.35 325.452 222.897 324.997 223.898 325.213C236.667 327.874 249.502 330.229 261.289 337.371C265.357 339.84 269.603 341.864 273.643 344.4C277.078 346.55 280.258 349.143 283.09 352.339C283.184 352.442 283.269 352.567 283.373 352.658C284.128 353.306 284.883 354.671 285.808 353.898C286.515 353.295 285.779 352.021 285.506 351.111C284.279 347.073 284.231 342.922 284.609 338.736C284.779 336.882 284.864 335.051 284.666 333.197C284.43 331.013 284.968 330.377 286.817 330.718C288.412 331.013 289.951 331.571 291.329 332.64C296.453 336.621 301.436 340.863 306.325 345.242C308.448 347.142 310.119 349.655 311.563 352.305C314.035 356.843 317.168 360.767 319.688 365.249C319.962 365.738 320.254 366.318 320.906 366.158L321 366.306Z" fill="#098A6C"/>
<path d="M321 469.854C321 437.04 321 404.227 321 371.413C320.33 368.217 318.527 365.863 316.81 363.486C314.658 360.517 312.459 357.583 310.496 354.432C308.382 351.054 305.834 348.267 302.871 346.027C298.954 343.07 295.075 340.044 291.168 337.076C290.517 336.586 289.847 336.12 289.12 335.79C287.308 334.96 286.968 335.369 286.572 337.599C285.185 345.435 287.176 352.419 290.139 359.186C290.404 359.8 290.743 360.369 290.97 361.347C289.837 360.756 289.026 359.937 288.224 359.118C284.156 354.967 280.07 350.838 275.351 347.767C272.472 345.89 269.49 344.275 266.47 342.751C258.892 338.929 251.361 334.96 243.282 332.833C237.95 331.423 232.533 330.604 227.154 329.592C225.191 329.228 224.785 329.876 224.879 332.219C225.2 340.499 228.673 346.994 232.91 353.067C240.224 363.554 248.784 372.38 258.127 380.114C260.515 382.093 263.176 383.481 265.611 385.369C267.282 386.665 268.914 388.053 270.273 389.839C270.811 390.544 271.746 391.283 270.934 392.352C270.17 393.376 269.349 392.5 268.735 391.909C262.006 385.403 253.88 383.424 245.726 381.547C240.668 380.387 235.543 379.784 230.438 379.727C224.879 379.67 219.301 380.057 213.743 380.592C213.243 380.637 212.639 380.637 212.45 381.342C212.271 382.014 212.705 382.514 213.035 382.957C214.243 384.561 215.451 386.176 216.697 387.723C222.18 394.536 227.248 401.895 233.864 407.263C242.905 414.599 252.512 420.377 263.469 421.936C269.009 422.72 274.624 422.061 280.438 422.186C275.2 424.631 270.028 426.03 264.592 425.257C261.657 424.836 259.062 425.257 256.683 427.679C254.249 430.159 252.191 432.968 250.53 436.221C249.822 437.609 248.992 438.894 248.227 440.225C247.463 441.555 247.727 442.5 248.945 443.148C253.465 445.582 258.071 447.629 262.997 448.641C269.981 450.063 276.993 450.757 284.062 450.495C285.487 450.438 286.883 450.575 288.242 451.121C289.734 451.724 289.998 452.406 289.205 454.044C287.959 456.626 285.798 457.968 283.816 459.503C280.438 462.097 276.578 462.461 272.718 462.699C270.538 462.836 268.358 462.665 266.178 462.768C265.668 462.79 265.036 462.802 264.847 463.45C264.658 464.133 265.215 464.553 265.602 464.929C268.631 467.875 272.104 469.865 275.672 471.651C277.861 472.754 280.032 473.971 282.268 474.892C289.818 478.009 297.444 478.452 305.079 475.177C306.891 474.403 308.297 473.072 309.241 470.957C310.883 467.283 312.78 463.769 313.78 459.719C313.884 459.299 313.96 458.798 314.498 458.525C315.385 460.152 315.111 461.835 314.696 463.53C313.827 467.09 313.875 467.329 316.829 468.523C318.188 469.069 319.433 470.297 321.019 469.831L321 469.854Z" fill="#DBCE02"/>
<path d="M321 89.091C316.385 85.9064 311.732 82.7104 308.693 77.2168C305.069 70.6428 301.049 64.3757 298.133 57.2329C296.481 53.1839 296.094 48.6912 294.518 44.608C292.593 39.6149 291.074 34.4172 290.356 28.9122C290.139 27.2403 290.385 25.5683 290.036 23.3276C288.299 28.4004 286.761 32.9613 285.93 37.852C285.562 40.0244 285.817 42.2651 285.241 44.4034C285.005 45.2678 285.09 46.1548 285.977 46.7008C286.364 46.9396 287.082 47.3946 286.459 48.3159C285.93 49.1121 285.43 48.8278 284.845 48.5093C279.447 45.5862 275.492 40.4452 271.104 35.8842C266.753 31.3575 263.846 25.7958 260.911 20.0861C259.458 17.2654 257.759 14.6266 256.079 11.749C255.07 18.1639 254.569 24.4536 254.258 30.823C254.05 35.1109 254.05 39.4329 253.692 43.7322C253.267 48.8391 254.022 53.9915 254.824 59.0301C255.74 64.7398 256.23 70.6542 258.288 75.9657C261.789 84.9738 264.394 94.6756 270.981 101.489C271.84 102.376 272.567 103.502 273.208 104.639C274.322 106.618 275.483 108.358 277.908 107.551C277.531 109.735 276.285 110.121 275.077 110.417C271.755 111.213 268.433 110.701 265.196 109.917C254.437 107.323 243.782 104.207 233.392 99.8508C227.229 97.2575 221.302 94.1638 215.659 88.8636C218.405 97.5418 219.32 106.277 222.397 114.227C223.407 116.832 224.888 119.061 226.483 121.131C228.918 124.304 231.344 127.535 233.958 130.458C239.866 137.066 246.604 142.355 253.616 147.132C254.768 147.917 255.834 148.883 257.127 149.316C257.995 149.611 258.363 149.293 258.099 148.178C256.797 142.776 256.325 137.191 255.542 131.675C255.315 130.094 255.872 129.343 257.25 129.684C260.128 130.412 262.469 132.312 264.62 134.632C269.037 139.409 273.501 144.14 276.446 151.033C277.135 147.177 277.899 143.879 279.305 140.842C279.985 139.386 280.674 138.931 282.07 139.591C283.231 140.137 284.316 140.831 285.147 141.809C287.856 144.993 290.743 147.939 293.565 150.965C294.99 152.489 296.113 154.343 297.331 156.617C297.812 152.625 297.906 148.929 299.039 145.505C300.039 142.514 301.285 139.739 303.314 137.509C304.456 136.258 305.56 136.156 306.787 136.952C307.504 137.419 308.184 138.021 308.778 138.692C311.581 141.866 314.328 145.107 317.14 148.258C318.593 149.884 319.745 151.818 321 153.638C321 132.118 321 110.61 321 89.091Z" fill="#EC497F"/>
<path d="M138.413 473.493C147.595 473.516 156.778 473.926 165.942 473.471C179.164 472.811 192.386 473.653 205.589 473.004C214.432 472.572 223.275 473.038 232.099 472.424C232.826 472.379 233.59 472.72 234.354 472.561C233.713 469.74 231.74 468.057 230.409 465.827C227.654 461.198 223.983 457.945 219.16 455.75C223.36 453.919 227.191 452.656 231.098 451.758C232.788 451.371 234.496 451.121 236.195 450.803C237.459 450.564 238.507 448.448 237.78 447.152C236.515 444.877 236.034 441.999 233.043 441.169C230.825 440.555 228.966 438.109 226.899 436.585C222.888 433.617 218.471 431.797 214.035 430.011C213.46 429.784 212.894 429.533 211.931 429.135C214.97 427.736 217.65 426.519 220.321 425.257C222.369 424.29 224.341 423.244 225.125 420.378C225.493 419.024 225.304 418.114 224.228 417.557C222.227 416.522 220.179 415.76 217.98 415.498C212.082 414.793 206.325 416.169 200.549 417.159C199.709 417.307 199.539 417 199.134 416.26C192.943 404.886 184.628 396.504 174.332 390.942C173.322 390.396 172.284 390.078 171.472 391.101C170.67 392.125 171.548 393.114 171.897 394.047C174.785 401.656 176.333 409.754 178.05 418.148C171.501 413.11 164.753 409.277 157.269 407.628C155.976 407.582 155.212 408.754 154.343 409.595C153.418 410.482 153.758 411.29 154.825 411.392C158.326 411.711 161.299 413.656 164.253 415.703C164.677 415.999 165.347 416.044 165.329 416.829C165.31 417.693 164.658 417.898 164.102 418.046C162.969 418.353 161.827 418.626 160.997 419.695C160.61 420.196 160.138 420.776 160.449 421.515C160.704 422.129 161.317 422.152 161.818 422.118C163.026 422.015 164.224 421.936 165.385 422.459C163.545 421.651 161.761 422.209 159.968 422.732C159.487 422.869 158.911 423.221 158.552 422.595C158.222 422.027 158.524 421.39 158.779 420.855C159.355 419.65 160.025 418.501 160.893 417.58C162.035 416.351 161.629 415.487 160.515 414.736C158.647 413.485 156.627 412.837 154.523 412.393C152.569 411.984 152.437 411.165 153.701 409.334C154.183 408.628 155.504 408.196 154.674 406.831C153.9 405.557 152.531 405.614 151.144 406.775C150.011 408.048 150.436 409.436 150.974 410.79C151.871 413.064 152.946 415.203 155.249 416.84C153.447 416.84 152.173 416.601 150.974 416.385C145.529 415.384 140.347 417 135.129 418.364C134.128 418.626 133.128 418.876 132.165 419.286C131.287 419.661 129.872 419.456 129.881 421.151C129.881 422.914 130.485 424.563 131.986 425.223C137.025 427.429 141.423 431.035 145.859 434.515C150.804 438.405 155.042 443.285 158.666 449.165C155.919 450.12 153.135 449.972 150.408 450.302C144.67 450.985 139.574 453.748 134.6 456.944C133.222 457.832 133.552 459.765 134.175 461.05C135.1 462.995 135.704 465.338 137.667 466.339C137.96 466.487 138.46 466.737 138.016 467.352C136.403 469.581 137.658 471.514 138.432 473.505L138.413 473.493Z" fill="#00B49C"/>
<path d="M80.7873 369.581C84.449 367.966 88.1296 366.272 92.1311 366.806C95.17 367.216 98.2089 367.557 101.257 367.909C102.239 368.023 102.503 367.523 102.814 366.738C103.088 366.044 102.918 365.566 102.352 365.237C97.8785 362.552 94.2641 358.185 89.5925 355.899C87.6673 354.955 85.7702 353.886 83.6185 352.748C86.6857 349.871 90.036 348.517 93.2259 346.822C97.0292 344.809 100.946 343.137 104.938 341.738C105.485 341.545 106.033 341.261 106.495 340.885C107.09 340.396 107.59 339.634 107.458 338.758C107.344 337.962 106.674 337.644 106.014 337.439C100.776 335.79 95.5381 334.186 90.1493 333.31C85.4777 332.548 80.8628 332.844 76.2479 333.765C74.3698 334.14 73.7563 333.549 73.7375 331.252C73.7092 328.09 73.1618 324.973 73.3128 321.8C73.3883 320.094 73.3978 318.422 74.0206 316.841C74.4831 315.669 75.1342 314.202 73.8696 313.361C72.6994 312.576 71.3215 312.462 70.1324 313.759C67.254 316.921 65.3003 320.913 63.2335 324.803C62.4785 326.224 61.7707 327.714 61.195 329.25C60.5627 330.933 59.7605 331.013 58.7602 329.853C55.1645 325.69 50.6062 323.563 46.1706 321.174C44.2831 320.151 42.2068 320.071 40.2343 319.457C39.5643 319.252 38.9603 319.605 38.5639 320.31C38.092 321.152 38.3751 321.834 38.7715 322.63C42.2162 329.58 45.6326 336.552 47.8221 344.275C47.9826 344.843 48.4827 345.412 48.1146 345.992C47.6805 346.674 47.0766 346.197 46.5197 346.038C42.7259 344.957 38.8659 345.526 35.0437 345.469C33.496 345.446 33.0241 346.549 33.6659 348.233C33.9584 349.006 34.2416 349.802 34.8645 350.291C37.3937 352.27 38.8376 355.41 40.7251 358.253C38.2147 357.309 35.8081 358.412 33.3827 358.435C32.3351 358.446 31.1649 358.594 31.0233 360.164C30.8912 361.733 31.5424 363.019 32.8354 363.553C35.2608 364.531 37.6862 365.51 40.1494 366.34C43.3393 367.409 46.2365 369.081 48.6714 371.822C50.0682 373.71 51.9935 374.347 53.9282 374.586C55.4287 374.768 55.9666 373.687 55.5419 371.89C55.0417 369.797 54.2774 367.853 53.0128 366.237C52.5031 365.589 51.7103 364.918 52.1067 363.894C52.503 362.859 53.4658 363.246 54.1924 363.235C56.1083 363.212 58.0335 363.167 59.9587 363.292C61.6292 363.405 62.035 362.825 61.6103 360.835C61.2328 359.038 60.6571 357.32 60.1003 355.58C59.8738 354.875 59.5057 354.067 60.0436 353.408C60.5438 352.794 61.2611 352.998 61.8746 353.214C64.2906 354.056 66.6971 354.977 68.4147 357.354C69.4528 358.799 70.2551 358.537 71.2932 357.4C72.4446 356.126 73.2751 354.431 75.0682 353.158C74.0206 357.059 73.7658 360.676 72.7277 364.076C72.0388 366.328 72.3407 366.931 74.332 366.897C76.7952 366.852 79.0508 367.307 80.8061 369.604L80.7873 369.581Z" fill="#301902"/>
<path d="M256.287 226.545C257.382 225.794 257.504 224.679 257.042 223.394C256.202 221.074 255.711 218.674 255.777 215.899C256.834 216.331 257.835 216.74 258.845 217.139C260.817 217.923 261.987 217.104 262.034 214.613C262.072 212.748 262.469 212.509 263.979 212.919C266.3 213.544 268.546 214.17 270.547 215.808C271.406 216.513 272.453 216.854 273.237 215.467C272.737 214.784 272.812 214.5 273.614 214.511C276.379 214.511 279.126 214.784 281.853 215.262C282.108 215.307 281.787 215.285 282.042 215.296C283.099 215.364 284.411 216.354 285.137 215.239C285.959 213.988 285.034 212.441 284.656 211.088C284.392 210.132 284.033 209.131 283.297 208.608C279.579 205.981 276.408 202.011 271.755 201.659C271.632 201.659 271.519 201.545 271.406 201.397C271.359 200.453 272.057 200.135 272.529 199.714C274.237 198.178 275.681 196.302 277.304 194.675C278.692 193.276 278.635 192.548 277.304 191.161C275.124 188.875 272.557 188.806 270.028 189.602C266.574 190.683 263.45 192.662 260.911 195.79C259.684 197.303 259.439 197.246 259.062 195.198C257.806 188.329 253.229 185.371 248.69 182.403C247.699 181.755 246.963 182.426 247.18 183.768C248.048 189.284 247.076 195.119 249.218 200.419C249.454 200.999 249.803 201.829 249.237 202.33C248.746 202.762 248.303 202.045 247.907 201.727C245.302 199.623 242.423 198.77 239.309 199.031C237.629 199.179 237.337 199.828 238.309 201.488C239.488 203.513 241.262 205.207 241.8 207.55C242.65 211.213 244.896 213.021 247.208 214.966C249.435 216.831 251.323 219.095 252.72 221.984C253.588 223.781 254.409 225.817 256.287 226.545Z" fill="#00B49C"/>
<path d="M131.476 310.586C133.018 312.019 134.603 311.902 136.233 310.234C136.865 309.585 137.535 308.994 138.167 308.357C139.319 307.197 140.385 306.878 141.357 308.675C142.197 310.234 143.717 309.824 144.868 309.995C151.295 310.95 157.476 312.838 163.365 316.103C164.177 316.558 164.932 316.956 165.432 315.636C165.489 314.465 164.668 314.112 164.073 313.6C161.695 311.542 159.015 310.279 156.231 309.278C155.57 309.039 154.692 308.903 154.673 307.845C154.664 306.628 155.617 306.526 156.344 306.321C157.863 305.889 159.411 306.162 160.949 306.059C161.893 306.003 163.139 306.173 163.422 304.854C163.705 303.534 162.544 302.932 161.77 302.317C159.524 300.532 157.014 299.667 154.371 299.303C153.616 299.201 152.71 299.349 152.427 298.223C152.173 297.211 153.012 296.801 153.456 296.176C154.947 294.049 156.655 292.161 158.024 289.909C158.364 289.351 158.845 288.794 158.571 288.043C158.26 287.179 157.524 287.258 156.891 287.247C155.041 287.224 153.399 288.146 151.72 288.93C149.568 289.931 149.511 289.897 149.672 287.27C149.992 282.106 146.897 278.137 144.037 275.885C142.971 275.043 142.32 275.646 142.225 277.079C142.103 278.853 142.027 280.65 142.263 282.402C142.735 285.985 142.122 289.476 141.801 292.991C141.744 293.582 141.735 294.401 141.168 294.56C140.508 294.742 140.451 293.833 140.206 293.355C139.13 291.308 137.261 290.705 135.638 289.658C134.675 289.044 133.609 288.68 132.571 288.316C131.976 288.1 131.287 287.645 130.759 288.316C130.202 289.01 130.683 289.772 130.919 290.466C131.165 291.182 131.448 291.876 131.769 292.547C133.26 295.675 134.034 299.099 134.647 302.59C134.751 303.182 135.034 303.887 134.524 304.308C134.005 304.74 133.581 304.08 133.156 303.796C131.448 302.625 129.589 302.079 127.654 301.885C126.767 301.794 125.53 302.261 126.257 303.432C127.824 305.968 129.409 308.562 131.485 310.586H131.476Z" fill="#DBCE02"/>
<path d="M1.79546 378.897C4.77771 375.052 8.21289 372.027 12.2238 370.014C13.6111 369.32 13.7999 368.376 13.1676 366.954C12.7523 366.033 12.139 365.214 11.8464 364.259C11.4878 363.087 10.2514 361.961 11.3273 360.562C12.2994 359.288 13.3847 360.107 14.4417 360.528C16.9993 361.563 19.689 361.654 22.5674 362.291C21.2084 359.277 18.9434 357.798 17.2824 355.648C14.7154 352.316 15.1306 350.03 18.7452 348.836C19.3492 348.631 20.0098 348.688 20.6421 348.676C21.8596 348.654 23.0865 348.676 24.8041 348.676C20.8026 345.696 17.4239 342.819 13.3092 341.704C12.7712 341.556 12.6863 341.022 12.5164 340.533C11.0442 336.45 13.6017 330.376 17.4333 328.715C20.4156 327.43 23.5206 327.908 26.9275 327.737C26.3707 327.112 26.0876 326.725 25.7573 326.429C22.7939 323.825 19.8965 321.106 17.3201 317.956C16.4518 316.886 15.6308 315.556 16.1215 313.679C16.4896 312.246 17.4617 311.598 18.3394 311.598C22.0389 311.598 25.7478 311.166 29.4473 311.825C31.1838 312.132 32.9392 312.246 34.8456 312.462C32.4768 309.596 29.8531 307.56 28.5035 304.102C28.1166 303.101 28.0316 301.941 29.2113 301.839C30.542 301.725 31.7973 301.088 33.1751 301.293C36.1763 301.759 39.2151 301.794 42.1879 302.578C43.7734 302.999 45.3872 303.306 47.2558 303.727C45.5288 301.088 43.7734 299.018 42.8202 296.209C42.2917 294.651 42.7165 293.673 43.8207 293.127C45.8309 292.148 47.9637 291.784 50.1154 292.103C51.9368 292.365 53.73 292.899 55.8157 293.365C53.7583 289.885 51.2952 287.394 48.4167 285.597C47.2654 284.881 46.7274 284.062 46.8217 282.663C46.9067 281.298 47.8881 281.502 48.6809 281.286C49.2188 281.139 49.7286 280.866 50.3137 280.866C56.2027 280.877 62.1766 280.195 67.7164 284.289C67.3861 281.992 67.0651 280.081 66.8481 278.147C66.4328 274.508 68.2638 271.243 68.0844 267.604C68.0467 266.808 68.9621 266.318 69.736 266.512C71.7462 267.024 73.7469 267.626 75.7571 268.161C79.9285 269.287 83.8262 271.232 87.5257 273.848C87.8371 272.426 87.6578 271.13 87.7994 269.844C88.1769 266.398 89.0357 263.088 89.5453 259.688C89.6774 258.823 89.2433 257.629 90.2059 257.265C91.1402 256.912 92.0462 257.31 92.8295 258.118C93.594 258.903 94.2452 259.824 95.0946 260.552C98.7091 263.634 102.947 265.158 106.807 267.615C107.505 268.059 107.769 267.672 108.052 267.194C109.789 264.26 112.318 263.714 115.045 263.714C117.301 263.714 119.557 263.714 122.237 263.714C119.179 260.495 116.244 258.175 113.149 256.127C111.554 255.07 111.034 252.715 112.044 251.225C114.3 247.916 116.48 244.538 118.905 241.387C121.935 237.452 125.38 234.813 130.023 235.404C132.873 235.768 135.572 236.815 137.997 238.851C138.262 237.179 137.95 235.78 137.724 234.358C136.884 229.126 136.469 223.792 134.76 218.799C134.373 217.661 134.468 216.763 135.893 216.785C139.592 216.842 143.113 217.559 146.482 219.549C148.964 221.017 151.125 223.018 153.418 224.952C154.022 220.641 154.032 216.49 154.966 212.452C155.664 209.415 156.976 206.629 157.325 203.49C157.42 202.625 157.297 201.692 158.25 201.533C159.213 201.374 159.949 201.863 160.383 202.966C160.647 203.637 160.855 204.377 161.223 204.957C163.705 208.892 167.018 211.815 170.085 215.705C170 211.974 169.585 208.824 168.745 205.742C168.462 204.695 168.207 203.603 168.896 202.727C169.689 201.727 170.623 202.011 171.68 202.352C173.114 202.807 173.313 204.672 174.681 205.309C177.333 206.538 179.853 208.232 182.363 209.87C185.053 211.633 187.676 213.555 189.724 216.967C189.658 212.475 189.838 208.38 189.366 204.251C189.035 201.328 188.818 198.474 187.318 195.949C186.761 195.005 186.421 193.549 188.054 192.98C188.743 192.741 189.451 192.241 189.97 191.627C193.49 187.464 197.888 186.053 202.72 185.61C201.937 183.324 200.398 181.686 198.86 180.412C196.076 178.103 193.547 175.248 189.97 174.361C188.498 173.997 188.384 171.518 188.167 169.698C187.969 168.083 188.781 167.503 189.819 167.161C190.706 166.866 191.414 166.252 192.027 165.501C194.264 162.783 196.784 160.474 199.285 158.131C203.947 153.763 208.901 150.829 215.083 151.727C216.857 151.989 218.575 152.728 220.472 152.705C220.33 152.364 220.264 152.148 220.16 151.966C217.867 148.133 215.621 144.232 212.525 141.24C211.685 140.433 211.487 139.398 211.459 138.283C211.45 137.794 211.799 137.328 212.384 137.396C213.969 137.578 215.545 137.226 217.15 137.646C219.613 138.295 222.123 138.693 224.907 139.261C222.765 136.543 220.528 134.348 219.726 130.879C219.32 129.139 218.877 127.581 220.613 126.364C222.51 125.033 224.162 124.851 225.436 126.454C225.955 127.103 226.314 127.364 227.125 126.955C222.699 122.519 219.33 117.139 217.952 110.565C216.159 101.978 212.809 93.8685 212.393 84.849C212.356 83.9846 211.714 83.1089 212.516 82.3582C213.318 81.6076 214.149 81.562 215.149 82.1079C216.602 82.8927 217.952 83.8254 219.207 84.9741C223.246 88.6934 227.654 91.6051 232.391 93.8002C242.386 98.418 252.512 102.478 262.95 105.413C266.064 106.289 269.094 107.665 272.765 107.699C268.594 104.446 265.196 100.818 262.676 96.3026C260.421 92.2649 258.618 87.8404 256.768 83.4842C251.936 72.099 250.747 59.6788 249.813 47.2017C249.624 44.7222 250.294 42.3109 250.181 39.8655C249.992 35.6913 250.606 31.5741 250.681 27.4226C250.719 25.6255 250.813 23.7602 251.021 21.9517C251.785 15.2867 253.56 8.78087 253.286 1.9452C253.248 0.876063 253.645 0.443885 254.541 0.409764C255.9 0.352895 256.853 0.716896 257.155 2.5822C257.788 6.44931 259.477 9.67948 261.374 12.83C263.299 16.0033 265.036 19.3245 266.404 22.9186C267.386 25.4891 268.622 27.9117 270.472 29.7201C273.161 32.3589 275.379 35.5207 277.578 38.7281C279.107 40.9574 281.108 42.5498 283.175 44.1762C283.637 40.3546 283.58 36.7037 284.42 33.1778C285.751 27.5819 287.61 22.3157 290.253 17.4363C290.8 16.4355 290.847 15.0706 292.452 15.628C294.028 16.1739 293.254 17.4592 293.301 18.3691C293.518 22.475 293.103 26.6037 293.914 30.721C294.943 35.9644 297 40.6845 298.614 45.6321C299.567 48.5666 299.832 51.8308 301.191 54.5492C304.532 61.2597 308.061 67.8452 311.449 74.5217C313.837 79.2304 317.593 82.1421 321.075 85.4177C321.075 86.6575 321.075 87.8973 321.075 89.137C320.462 89.4896 319.924 89.1369 319.452 88.773C316.64 86.6233 313.658 84.6784 311.364 81.7099C307.372 76.5461 304.211 70.6204 301.162 64.6377C299.294 60.964 297.217 57.3586 296.33 53.0706C295.575 49.3741 294.49 45.8368 293.244 42.3337C291.338 36.9766 289.885 31.4717 289.743 25.6824C289.658 26.0918 289.498 26.5923 289.328 27.0927C287.572 32.518 286.072 38.0116 285.959 43.9147C285.94 44.6994 285.836 45.4501 286.27 46.1325C286.789 46.94 287.393 47.759 286.6 48.7827C285.864 49.7381 285.071 49.2035 284.307 48.8055C283.958 48.6235 283.618 48.396 283.269 48.1912C276.068 43.7782 271.076 36.2488 265.338 29.7657C264.828 29.197 264.451 28.4235 264.148 27.6614C262.034 22.4294 259.062 17.8799 256.363 13.1825C256.363 14.8659 255.928 16.5037 255.702 18.1757C254.966 23.5327 254.834 28.958 254.654 34.3378C254.503 38.8874 253.88 43.4369 254.239 47.9978C254.579 52.3085 255.183 56.5851 255.608 60.8731C256.797 72.9634 261.61 83.2909 266.045 93.8344C266.281 94.3917 266.659 94.8238 266.97 95.3129C268.971 98.5545 271.699 100.988 273.633 104.298C274.501 105.777 275.455 106.994 277.125 107.255C278.258 107.426 278.446 108.575 277.635 109.633C276.955 110.52 276.021 110.804 275.058 111.066C272.104 111.862 269.169 111.407 266.281 110.736C257.269 108.632 248.312 106.277 239.545 102.933C231.646 99.9194 223.85 96.712 216.678 90.5701C218.528 96.6892 219.679 102.626 221.095 108.473C222.378 113.807 224.804 118.288 228.05 122.178C229.692 124.146 231.448 125.977 232.882 128.161C234.619 130.799 236.666 132.983 238.998 134.814C240.932 136.338 242.81 137.965 244.641 139.66C248.124 142.856 252.002 145.301 255.777 147.94C256.212 148.247 256.731 148.713 257.203 148.338C257.722 147.917 257.363 147.2 257.259 146.62C256.41 141.855 255.711 137.055 255.258 132.21C255.032 129.821 255.881 128.854 257.825 129.275C259.373 129.617 260.77 130.435 262.016 131.539C267.14 136.122 271.84 141.229 275.407 147.689C275.662 148.156 275.813 148.747 276.351 149.088C276.917 145.995 277.729 143.242 278.946 140.66C279.739 138.989 280.834 138.477 282.353 139.136C283.967 139.83 285.289 141.024 286.468 142.469C289.847 146.62 293.971 149.828 297.029 154.787C297.208 153.388 297.387 152.33 297.482 151.249C297.859 147.166 299.011 143.424 300.936 140.046C303.852 134.939 306.089 134.689 309.779 139C311.808 141.366 313.809 143.754 315.923 146.029C317.961 148.224 320.113 150.396 321.066 153.695C321.066 155.867 321.066 158.028 321.066 160.201C320.302 158.733 319.603 157.221 318.754 155.822C315.356 150.214 310.279 146.814 306.259 142.025C305.305 140.888 304.805 141.366 304.145 142.287C302.163 145.028 301.342 148.36 300.634 151.795C299.785 155.924 300.068 160.178 299.511 164.329C299.379 165.285 299.029 166.138 298.322 166.104C297.586 166.07 297.529 165.046 297.576 164.261C297.689 162.225 296.915 160.519 296.123 158.87C293.141 152.694 288.025 149.179 283.722 144.675C281.749 142.605 281.532 142.912 280.626 145.836C279.107 150.704 278.805 155.788 278.71 160.917C278.692 162.111 278.446 163.351 277.446 163.408C276.427 163.465 276.493 162.134 276.37 161.145C275.898 157.278 275.049 153.524 273.265 150.214C270.415 144.914 266.347 141.013 262.44 136.964C261.27 135.747 259.987 134.723 258.25 134.246C258.826 138.363 259.326 142.253 260.138 146.074C260.742 148.895 261.28 151.67 263.091 153.854C263.988 154.935 263.96 156.334 262.827 157.232C261.676 158.142 261.412 156.675 261.062 155.913C259.911 153.388 258.25 151.943 255.815 151.807C255.202 151.773 254.607 151.375 254.013 151.113C246.548 147.86 240.489 141.843 234.401 136.054C231.646 133.427 228.881 131.482 225.568 130.492C224.596 130.197 223.68 129.366 222.378 129.798C225.37 135.554 229.607 139.227 234.298 142.275C234.996 142.73 235.987 143.026 235.374 144.437C234.855 145.631 234.364 146.643 232.891 146.131C229.702 145.005 226.483 143.902 223.228 143.163C221.519 142.776 219.811 141.673 217.792 142.332C218.103 142.89 218.273 143.311 218.528 143.629C221.17 146.973 223.105 150.942 225.37 154.627C226.021 155.685 225.719 156.311 225.247 157.255C224.681 158.392 224.02 158.062 223.322 157.789C222.539 157.482 221.802 157.005 221.01 156.754C216.574 155.299 212.006 153.82 207.769 157.073C203.229 160.565 198.982 164.591 195.189 169.266C198.378 171.893 201.417 174.623 203.956 178.092C205.645 180.401 206.41 183.233 207.004 186.11C207.401 187.998 206.344 189.374 205.013 189.011C200.766 187.862 196.963 189.431 193.396 191.956C192.169 192.832 190.989 194.083 190.215 195.505C189.639 196.574 190.734 197.905 190.876 199.179C190.97 200.009 191.168 200.817 191.244 201.658C191.848 207.573 191.574 213.521 191.65 219.458C191.659 220.402 191.451 221.267 191.272 222.165C191.149 222.757 190.961 223.257 190.47 223.28C189.941 223.303 189.809 222.757 189.705 222.188C189.281 219.913 188.12 218.196 186.638 216.82C183.222 213.669 179.324 211.679 175.332 209.825C173.784 209.108 173.671 209.995 173.973 211.133C174.823 214.374 174.039 217.547 173.869 220.732C173.784 222.472 173.143 224.156 172.123 225.475C171.529 226.248 170.859 226.556 170.415 225.157C170.123 224.235 169.424 223.28 169.726 222.37C170.444 220.232 169.358 219.072 168.33 217.843C165.432 214.386 162.507 210.962 159.581 207.504C157.439 213.453 156.608 219.868 157.005 226.51C157.061 227.375 157.307 228.421 157.788 229.024C159.336 230.98 157.995 232.379 157.118 233.539C155.91 235.131 155.117 233.414 154.334 232.527C150.021 227.613 145.463 223.155 139.621 221.142C139.045 220.937 138.328 220.152 137.846 220.744C137.384 221.312 137.799 222.256 137.931 223.064C139.026 229.558 140.13 236.053 140.404 242.706C140.451 243.73 140.281 244.799 139.498 245.004C138.686 245.209 138.545 244.117 138.432 243.298C138.403 243.093 138.233 242.911 138.111 242.741C135.015 238.305 127.031 236.269 123.03 240.466C120.179 243.457 117.735 246.915 115.612 250.714C115.215 251.419 115.036 251.749 115.829 252.26C118.905 254.262 121.661 256.833 124.285 259.585C125.965 261.348 127.644 263.157 128.89 265.454C129.589 266.739 129.164 267.797 128.607 268.855C128.23 269.571 127.588 269.549 127.059 269.219C123.284 266.853 119.188 266.899 115.13 267.126C112.752 267.263 110.223 267.638 109.817 271.55C109.751 272.176 109.336 272.813 108.958 273.302C108.458 273.939 107.75 274.383 107.061 273.837C102.579 270.345 97.2935 268.684 92.9806 264.851C91.9896 263.975 91.7632 264.351 91.4706 265.522C90.5929 269.037 90.6684 272.642 90.7344 276.236C90.7628 277.453 90.5174 278.511 89.9512 279.467C89.3094 280.558 88.5921 280.9 87.6295 279.819C83.0428 274.712 77.2105 272.984 71.397 271.232C70.6986 271.016 70.1796 271.05 69.8493 272.244C68.3298 277.726 69.3396 282.651 71.9916 287.189C72.7466 288.475 73.964 289.362 74.9077 290.511C75.9647 291.819 74.8323 292.842 74.3604 293.729C73.898 294.617 73.0958 294.389 72.4635 293.57C70.1796 290.59 67.2822 288.657 64.2622 287.087C60.6099 285.176 56.7311 284.608 52.3615 284.699C55.6458 288.452 58.5054 291.853 59.9777 296.539C60.3363 297.688 60.7327 298.779 60.6855 300.042C60.6572 300.849 60.2607 301.418 59.7605 301.68C59.0621 302.055 58.9584 301.031 58.7507 300.633C57.7409 298.688 56.4291 297.153 54.6455 296.391C51.4933 295.037 48.2563 294.901 44.755 295.583C47.1898 300.156 50.1815 303.761 53.579 306.889C54.2774 307.537 55.306 307.81 54.5793 309.277C53.9753 310.495 53.2393 310.324 52.2955 309.812C48.1808 307.594 43.9245 305.911 39.4322 305.228C37.6108 304.955 35.7611 304.876 33.9207 304.705C34.2322 305.615 34.638 306.127 35.1004 306.514C37.4881 308.538 39.2717 311.313 41.3763 313.679C42.471 314.919 42.2445 316.102 41.4801 317.569C40.8195 318.831 39.9607 318.866 39.2152 318.377C34.8645 315.533 30.0324 315.601 25.3325 314.93C23.4262 314.657 21.4349 314.635 19.2926 315.09C20.142 316.488 21.0291 317.433 21.9445 318.377C25.6251 322.175 29.5417 325.644 32.9109 329.887C33.5715 330.729 33.9207 331.411 33.194 332.435C32.5712 333.31 32.0427 333.629 31.0895 332.912C28.3337 330.831 25.2382 330.33 22.0861 330.694C20.2835 330.899 18.4809 331.32 16.8293 332.435C15.3476 333.447 14.9702 335.153 14.9042 336.87C14.8381 338.463 16.282 338.11 17.0653 338.554C21.3782 341.01 25.5685 343.672 28.9472 347.857C29.9287 349.063 30.7308 350.269 29.8531 352.077C29.0132 353.806 27.7957 353.578 26.5122 353.124C23.9924 352.248 21.4443 352.373 18.5281 352.6C19.3681 353.442 19.906 353.977 20.4345 354.522C22.2182 356.399 24.0397 358.242 25.2854 360.71C26.9747 364.065 25.9366 366.556 22.6806 366.977C23.4734 367.75 24.6153 368.387 23.898 369.889C23.3601 371.015 22.8976 371.981 21.3027 371.856C19.6983 371.742 18.2544 370.469 16.2442 371.765C13.7433 373.392 10.9026 374.415 8.39226 376.156C6.25939 377.646 4.06044 379.147 2.59762 381.649C1.484 383.548 1.83321 384.299 3.68296 385.016C6.68408 386.187 9.58143 387.666 12.4504 389.258C14.9042 390.612 16.971 392.909 19.7362 393.512C20.5667 393.694 20.878 394.524 20.4816 395.434C19.972 396.617 19.6229 397.88 18.4527 398.596C16.82 399.586 15.3288 400.905 13.7905 402.111C10.9026 404.363 8.50552 407.013 7.6939 411.335C7.4674 412.563 7.81656 412.995 8.49606 413.155C12.9506 414.178 17.2446 416.1 21.8029 416.51C23.2657 416.635 23.6338 417.374 23.077 418.887C22.775 419.706 22.4824 420.548 21.935 421.23C19.7078 424.005 17.4617 426.769 15.3571 429.669C14.1869 431.285 12.7146 432.706 12.1011 435.117C14.0924 435.117 15.9139 434.879 17.6598 435.186C19.3303 435.481 20.5383 434.947 21.7086 433.628C22.1521 433.127 22.7844 432.831 23.3601 432.524C26.0026 431.137 28.7301 430.272 31.6463 430.466C32.2691 430.511 32.8542 430.761 33.1185 431.364C33.4205 432.058 32.7127 432.445 32.4201 432.831C31.3631 434.23 29.9758 434.879 28.4186 435.14C24.3322 435.823 20.9725 437.881 18.9056 442.476C17.641 445.286 16.1782 447.97 14.8004 450.7C13.9321 452.417 13.3563 454.248 13.3092 456.284C13.2903 456.853 13.1488 457.387 14.102 457.205C17.7826 456.489 21.3689 455.374 24.823 453.691C25.8894 453.179 27.1257 452.667 27.758 453.953C28.3337 455.113 27.305 456.159 26.5689 457.001C26.1065 457.535 25.6441 458.07 25.1911 458.627C23.0676 461.232 21.5481 464.155 20.8308 467.829C20.4061 469.978 21.0196 470.081 22.3126 469.944C25.0966 469.648 27.8807 469.239 30.6742 469.034C36.6198 468.625 42.556 469.592 48.5016 469.489C48.8697 469.489 49.2377 469.694 49.6152 469.739C52.0123 470.047 54.0604 471.605 56.5707 472.879C54.9097 467.658 53.4847 462.835 51.3612 458.331C49.9928 455.42 48.3412 452.679 47.3503 449.528C46.869 448.004 47.2936 447.197 48.7376 447.162C49.7191 447.14 50.6156 447.617 51.5499 447.617C56.2592 447.663 60.6193 448.982 64.602 452.815C63.1958 445.638 61.6292 438.928 59.7512 432.331C59.4586 431.319 58.6375 430.238 59.6567 429.18C60.5438 428.259 61.5159 428.521 62.5163 429.021C63.9036 429.726 65.357 430.25 66.7348 430.977C70.7552 433.104 74.6906 435.391 77.4653 439.781C78.6827 441.714 79.4188 443.955 80.5325 446.082C82.5426 443.511 85.138 442.021 87.2048 439.803C91.4423 435.231 96.4441 434.128 101.833 434.185C102.654 434.185 103.786 433.969 104.041 434.992C104.315 436.061 103.418 436.835 102.626 437.438C97.5389 441.271 93.4241 446.309 90.1399 452.337C89.6303 453.27 88.8375 454.123 88.8375 455.397C92.5936 454.919 96.2177 454.885 99.8417 455.317C104.4 455.863 107.873 459.105 111.403 462.199C111.893 462.631 112.242 463.131 111.922 463.95C111.318 465.486 110.761 466.885 109.071 467.203C104.957 467.954 101.097 469.887 97.1613 471.457C95.8023 472.003 94.2924 472.469 93.0184 474.107C108.354 474.187 123.407 474.232 138.45 473.595C139.262 472.742 140.262 472.947 141.206 472.924C150.823 472.697 160.44 472.901 170.066 472.571C185.515 472.037 200.983 472.719 216.432 472.014C221.557 471.787 226.701 472.071 231.825 471.9C232.731 471.866 233.628 471.946 234.383 472.662C246.359 472.992 258.354 472.355 270.321 473.026C268.339 471.389 266.272 469.808 264.337 468.022C262.469 466.305 260.515 464.712 258.901 462.608C258.335 461.869 258.042 460.993 258.316 460.06C258.618 459.014 259.458 459.264 260.147 459.275C265.139 459.366 270.132 459.31 275.105 458.764C277.682 458.479 280.23 457.854 282.523 455.693C281.646 455.443 281.023 455.113 280.409 455.124C274.671 455.17 269.065 453.941 263.431 452.815C257.306 451.587 251.757 448.561 246.264 445.32C244.622 444.353 244.283 442.34 245.481 440.554C249.133 435.083 251.965 428.703 257.552 425.074C253.777 424.017 250.549 422.333 247.265 420.775C239.215 416.931 231.929 411.551 225.719 404.374C219.566 397.277 213.875 389.599 207.976 382.184C207.429 381.501 207.203 380.637 206.901 379.795C206.353 378.237 206.816 377.52 208.109 377.589C211.44 377.771 214.743 377.202 218.056 377.122C222.095 377.031 226.144 377.088 230.192 377.1C234.968 377.122 239.658 377.93 244.368 378.84C246.736 379.295 249.067 380.17 251.682 379.966C251.502 379.477 251.125 379.329 250.813 379.056C246.765 375.541 243.084 371.492 239.375 367.511C235.458 363.303 232.061 358.446 228.909 353.408C225.606 348.142 223.218 342.353 222.34 335.676C221.963 332.81 222.359 329.978 221.963 327.169C221.689 325.224 222.397 324.279 224.001 324.678C224.983 324.916 225.936 325.36 226.927 325.553C232.278 326.6 237.62 327.635 242.905 329.091C248.822 330.717 254.494 333.208 260.015 336.233C266.347 339.702 272.803 342.864 278.682 347.425C281.24 349.416 283.335 352.111 285.968 354.147C284.043 349.746 283.835 345.037 284.109 340.294C284.232 338.156 284.684 336.006 284.401 333.879C283.948 330.444 284.694 329.693 287.591 330.421C290.875 331.252 293.499 333.526 296.066 335.824C300.804 340.066 306.362 343.183 310.034 348.892C313.761 354.682 317.48 360.494 321.047 366.42C321.047 368.126 321.047 369.82 321.047 371.526C320.415 371.06 320.302 370.173 319.943 369.49C317.508 364.873 314.186 361.131 311.393 356.877C309.618 354.17 307.957 351.383 305.617 349.256C301.181 345.23 296.293 342.068 291.715 338.303C290.375 337.2 288.95 336.222 287.563 335.915C285.071 345.731 288.337 354.193 292.367 362.905C290.97 362.291 290.215 361.836 289.498 361.176C286.053 358.048 282.939 354.409 279.296 351.588C269.82 344.252 259.326 339.68 248.756 335.346C243.395 333.151 237.761 332.298 232.203 331.161C230.277 330.763 228.333 330.49 226.389 330.239C225.927 330.183 224.964 329.932 225.275 331.127C225.842 333.322 225.634 335.608 226.153 337.86C227.899 345.458 232.061 351.099 236.214 356.763C239.734 361.574 243.726 365.794 247.822 369.9C252.21 374.302 256.57 378.703 261.648 381.979C265.054 384.174 268.452 386.46 271.104 389.998C271.812 390.942 272.605 391.601 271.604 393.046C270.604 394.479 269.802 393.649 268.98 393.012C267.244 391.647 265.659 389.941 263.828 388.826C255.192 383.583 245.774 382.059 236.317 380.842C230.627 380.114 224.926 380.796 219.235 380.876C217.112 380.898 214.979 381.456 212.884 381.274C212.695 381.979 213.035 382.206 213.233 382.457C217.405 387.802 221.557 393.194 225.794 398.46C227.304 400.336 229.013 401.974 230.683 403.646C236.138 409.083 242.225 413.2 248.756 416.498C253.786 419.035 258.882 421.275 264.337 421.628C269.396 421.958 274.473 421.651 279.55 421.742C280.372 421.753 281.683 420.582 281.919 421.89C282.099 422.902 280.475 423.004 279.664 423.346C274.634 425.45 269.537 426.962 264.092 425.95C262.157 425.586 260.185 425.654 258.269 427.19C253.748 430.795 251.351 436.437 248.256 441.419C247.671 442.363 248.341 442.34 248.784 442.601C258.146 447.959 268.131 449.699 278.352 450.006C280.73 450.074 283.099 450.051 285.477 450.006C286.836 449.983 288.073 450.518 289.347 450.961C290.479 451.359 290.574 452.258 290.243 453.452C289.592 455.806 287.912 457.012 286.44 458.411C282.552 462.085 277.984 463.325 273.161 463.461C270.462 463.541 267.754 463.472 264.828 463.472C268.782 467.59 273.265 469.671 277.616 472.094C285.232 476.336 293.056 478.167 301.351 475.995C304.673 475.131 307.863 473.993 309.439 469.774C310.723 466.339 312.582 463.222 313.393 459.503C313.591 458.604 314.045 457.786 314.479 456.66C316.064 459.617 315.96 462.346 314.903 465.076C314.375 466.43 314.63 467.089 315.8 467.556C317.584 468.272 319.32 469.148 321.075 469.955C321.075 471.195 321.075 472.435 321.075 473.675C318.905 472.526 316.678 471.491 314.582 470.172C313.393 469.421 313.044 469.626 312.506 471.093C311.279 474.425 309.769 477.69 306.73 479.077C298.435 482.853 290.083 482.273 281.778 479.066C278.475 477.792 275.738 475.21 271.698 475.802C264.488 476.859 257.146 476.279 249.87 476.894C245.349 477.269 240.81 476.791 236.261 477.303C231.24 477.872 226.172 477.303 221.104 477.758C214.658 478.338 208.175 477.712 201.701 478.236C194.292 478.827 186.846 478.122 179.4 478.702C171.538 479.305 163.649 478.577 155.759 479.18C148.218 479.76 140.64 479.066 133.062 479.635C125.2 480.215 117.301 479.544 109.411 480.101C103.201 480.533 96.9632 480.192 90.7344 480.192C88.9319 480.192 87.0726 477.041 88.1957 475.472C89.6019 473.516 90.3286 470.968 92.3199 469.489C96.4818 466.396 101.097 464.758 105.702 462.665C105.391 462.324 105.108 461.891 104.749 461.618C99.785 457.876 94.2358 458.297 88.7431 458.457C88.1014 458.479 87.403 459.241 86.8368 458.422C86.1761 457.456 86.497 456.386 86.9406 455.442C90.4324 448.072 94.6415 441.453 100.946 436.607C97.9541 436.391 95.1323 436.073 92.9711 438.029C88.611 441.965 83.1561 444.535 80.9289 451.325C80.6835 452.076 80.1455 452.781 79.3528 452.77C78.4656 452.758 78.5789 451.792 78.343 451.12C77.2105 447.856 76.0213 444.615 73.9357 442.033C71.2648 438.712 67.8579 436.914 63.8376 435.14C64.7813 436.255 64.6398 437.279 64.8286 438.188C66.1781 444.649 67.2162 451.189 67.6409 457.842C67.6975 458.684 67.6975 459.526 67.2728 460.265C66.9897 460.754 66.7443 461.402 66.1969 461.3C65.7345 461.22 65.5363 460.583 65.3948 460.083C63.7621 454.51 57.4484 450.347 52.6258 451.735C52.9089 452.485 53.1449 453.247 53.4752 453.953C56.8067 461.038 58.8262 468.704 60.2702 476.62C60.44 477.565 60.1097 478.213 59.5529 478.748C59.1943 479.089 58.9018 479.111 58.4582 478.668C54.9003 475.096 51.2008 473.436 46.1612 473.857C38.8754 474.471 31.5236 475.051 24.1812 475.074C23.1242 475.074 22.0861 475.028 21.0007 475.449C19.4813 476.041 17.8109 474.607 17.6411 472.606C17.4901 470.786 17.4617 468.932 17.726 467.078C18.1412 464.166 19.3397 461.653 20.5949 458.957C18.1223 459.457 15.9328 460.163 13.6395 460.242C11.9973 460.299 11.5255 459.275 11.4217 457.649C11.1952 454.294 11.903 451.234 13.3281 448.334C14.9702 444.99 16.4802 441.544 18.0468 438.143C17.9807 437.961 17.9147 437.79 17.8487 437.608C15.7063 438.734 13.4507 437.995 11.2895 438.677C10.0626 439.064 9.26049 438.905 8.95849 437.096C8.46774 434.173 9.62856 431.956 10.9781 429.908C12.8373 427.088 14.9136 424.494 16.8766 421.776C17.5089 420.9 18.4527 420.15 16.4425 419.672C13.715 419.012 11.0725 417.772 8.40171 416.76C5.92908 415.816 4.80597 413.814 5.28729 410.778C5.92904 406.694 7.52403 403.282 10.1854 400.473C11.7143 398.869 13.5641 397.766 14.9231 395.787C10.9687 392.625 6.68401 390.327 2.31445 388.212C1.31408 387.723 0.398731 387.097 0.285481 385.778C0.0778562 383.31 0.313738 380.989 1.88036 378.988L1.79546 378.897Z" fill="#301902"/>
<path d="M288.261 217.684C288.148 219.697 287.195 220.311 285.836 219.219C285.138 218.651 284.354 218.389 283.543 218.173C280.107 217.274 276.606 216.683 273.227 215.466C272.501 215.364 271.765 215.284 271.161 214.135C275.993 213.396 280.532 214.533 284.996 215.193C284.911 210.507 282.533 208.062 279.4 206.31C278.663 205.901 277.937 205.377 277.333 204.729C275.785 203.046 273.945 202.511 271.953 202.386C271.378 202.352 270.651 202.727 270.434 201.579C270.255 200.634 270.887 200.487 271.283 200.077C273.614 197.711 275.936 195.346 278.267 192.969C276.144 190.432 275.021 189.682 272.652 189.829C267.82 190.114 263.95 192.855 260.732 197.052C260.383 197.507 260.109 198.223 259.59 198.098C259.015 197.95 258.807 197.154 258.637 196.494C258.467 195.846 258.59 195.164 258.42 194.458C256.844 188.191 252.446 185.507 248.18 182.687C247.067 181.947 247.491 183.21 247.557 183.744C247.85 185.928 248.284 188.089 248.19 190.307C248.039 193.662 248.473 196.847 249.671 199.895C249.936 200.566 250.002 201.351 250.115 202.09C250.209 202.739 250.096 203.376 249.577 203.694C249.02 204.035 248.831 203.307 248.511 203C245.396 199.986 241.857 199.156 237.808 199.77C238.545 200.862 239.158 201.738 239.734 202.648C241.064 204.763 242.555 206.845 243.103 209.438C243.358 210.632 243.754 211.246 244.5 211.906C246.755 213.896 249.256 215.557 251.059 218.184C252.899 220.88 254.192 224.065 256.287 226.544C256.325 227.192 257.297 227.374 256.74 228.671C255.334 226.976 253.73 225.6 252.748 223.746C251.2 220.823 249.086 218.992 246.585 217.593C245.151 216.797 243.763 215.932 242.404 214.954C240.224 213.385 237.837 212.384 235.364 211.747C234.251 211.462 233.099 211.303 233.882 213.623C234.317 214.92 234.194 216.478 234.392 217.9C234.534 218.935 234.26 219.686 233.429 219.106C229.787 216.569 225.861 217.445 222.048 217.229C221.897 217.991 222.246 218.162 222.435 218.457C224.332 221.449 225.577 224.747 225.455 228.591C225.408 230.15 225.058 231.446 223.246 230.798C221.642 230.218 219.953 229.99 218.263 229.604C218.018 230.423 218.339 231.446 217.782 232.22C217.461 232.663 217.235 233.425 216.659 233.243C216.168 233.084 216.215 232.39 216.225 231.844C216.244 230.604 216.149 229.353 216.3 228.148C216.574 225.93 217.065 225.725 218.849 226.521C220.17 227.113 221.519 227.682 222.973 227.386C222.888 226.817 222.869 226.339 222.737 225.919C221.887 223.177 220.981 220.482 218.565 219.128C217.744 218.662 217.433 217.741 217.414 216.694C217.405 216.103 217.763 216.012 218.169 215.887C221.916 214.761 225.653 214.784 229.447 215.671C230.504 215.921 231.929 217.058 232.618 215.989C233.344 214.863 232.07 213.339 231.919 211.917C231.919 211.849 231.853 211.792 231.825 211.724C230.542 208.79 230.589 208.539 233.222 208.084C234.392 207.88 235.619 207.811 236.836 208.266C237.818 208.63 238.875 208.744 240.29 209.051C238.582 206.162 237.271 203.512 235.241 201.601C234.477 200.873 234.326 200.054 234.335 199.042C234.354 197.837 235.26 197.996 235.817 197.598C236.365 197.2 236.94 197.393 237.506 197.336C240.734 197.029 243.848 197.666 247.029 199.304C245.802 195.687 245.887 192.218 245.5 188.851C245.198 186.247 245.179 183.494 243.367 181.515C242.961 181.071 242.942 180.412 242.716 179.889C242.027 178.239 242.593 177.807 243.877 177.83C246.821 177.887 249.464 179.115 251.833 181.094C255.494 184.142 259.241 187.122 260.506 192.809C260.817 194.197 261.449 193.003 261.836 192.718C264.46 190.739 267.131 189.01 270.16 187.975C273.756 186.758 276.53 188.601 279.428 190.603C281.797 192.241 281.853 193.151 279.626 195.084C277.588 196.87 275.625 198.792 273.388 200.885C276.927 201.851 279.607 204.069 282.504 205.696C285.468 207.368 288.478 213.76 288.261 217.729V217.684Z" fill="#301902"/>
<path d="M112.931 378.931C112.365 378.351 112.158 377.532 112.261 376.622C112.318 376.11 112.639 376.03 112.95 376.042C114.743 376.087 116.546 375.973 118.311 376.258C122.284 376.906 125.861 378.726 128.73 382.718C128.786 381.331 129.107 380.443 129.239 379.465C129.589 376.781 129.787 374.04 130.731 371.515C130.938 370.958 130.919 370.014 131.703 370.048C132.42 370.082 132.816 370.742 133.043 371.492C133.949 374.563 134.987 377.589 135.657 380.728C136.091 382.786 136.912 384.857 136.308 387.256C139.923 385.346 143.575 385.766 147.18 385.869C148.001 385.892 149.209 385.892 149.568 387.291C149.908 388.61 149.134 389.417 148.435 390.248C146.321 392.75 144.188 395.229 142.395 398.346C144.896 398.346 147.199 398.369 149.502 398.346C150.549 398.334 151.823 398.312 152.163 399.574C152.522 400.894 151.587 401.838 150.625 402.634C148.917 404.033 147.076 405.295 145.963 407.695C148.284 406.08 151.05 406.251 153.39 404.727C154.825 403.794 156.136 404.647 157.335 405.42C158.137 405.944 157.627 406.888 157.269 407.627C156.184 408.605 155.098 409.583 153.72 410.812C157.052 410.846 159.789 411.915 162.327 413.712C163.252 414.372 164.12 415.168 165.177 415.498C165.593 415.634 166.102 415.463 166.178 416.248C166.263 417.101 165.951 417.818 165.423 418.216C164.96 418.568 164.338 418.728 163.781 418.751C162.205 418.819 161.233 419.763 160.572 421.469C162.459 421.799 164.271 421.173 166.017 421.992C166.442 422.185 167.027 422.174 166.848 422.902C166.687 423.539 166.187 422.982 165.904 422.925C163.743 422.492 161.629 422.515 159.581 423.539C159.024 423.812 158.477 424.13 158.005 423.493C157.514 422.834 157.665 422.117 157.986 421.366C158.845 419.342 159.93 417.545 161.506 416.157C159.043 413.996 156.316 413.371 153.588 412.722C151.899 412.324 151.625 411.323 152.682 409.731C153.286 408.833 153.871 407.923 154.419 407.104C153.635 406.501 152.493 405.716 151.144 406.774C148.7 407.115 146.869 409.276 144.547 409.993C144.037 410.152 143.566 410.869 143.037 410.061C142.565 409.344 143.047 408.764 143.235 408.161C143.896 406.069 145.057 404.385 146.689 402.52C144.604 402.52 142.895 402.497 141.197 402.52C140.149 402.531 139.054 402.52 138.583 401.178C138.101 399.813 138.583 398.721 139.498 397.732C142.018 395.002 144.141 391.817 146.529 388.689C145.321 388.485 144.321 388.303 143.207 388.417C140.923 388.655 138.677 388.86 136.497 389.884C135.94 390.145 135.091 390.384 134.562 389.508C134.053 388.655 134.043 387.745 134.628 386.961C135.034 386.426 135.015 385.823 134.968 385.22C134.628 380.728 133.26 376.61 131.778 371.89C131.467 373.278 131.25 374.029 131.136 374.802C130.608 378.317 130.07 381.831 129.617 385.368C129.513 386.164 129.183 386.813 128.692 386.961C128.23 387.097 127.824 386.381 127.711 385.789C127.371 383.992 126.106 383.241 125.011 382.434C122.671 380.716 120.227 379.226 117.037 379.397C117.83 380.671 118.452 381.615 119.028 382.593C121.671 387.074 124.681 391.249 126.795 396.173C127.258 397.243 127.644 398.346 126.795 399.335C125.908 400.382 125.106 399.461 124.445 398.835C121.68 396.196 118.509 396.378 114.989 396.617C116.65 398.733 117.594 400.939 118.396 403.271C119.085 405.272 119.349 407.559 120.887 409.06C121.265 409.435 121.133 409.993 120.868 410.527C120.01 412.245 119.132 411.71 118.084 410.755C115.876 408.73 113.715 406.535 110.619 406.853C109.911 406.922 109.562 406.16 109.553 405.25C109.553 404.306 109.657 403.555 110.629 403.475C112.242 403.35 113.771 403.623 115.234 404.533C115.961 404.988 116.64 405.693 117.745 405.727C116.735 402.839 116.008 400.086 114.158 398.039C113.583 397.402 112.478 396.822 112.799 395.775C113.12 394.729 114.357 395.025 115.168 394.672C115.451 394.547 115.8 394.672 116.121 394.638C118.811 394.445 121.435 394.968 124.53 396.173C120.396 390.111 117.546 383.685 112.941 378.953L112.931 378.931Z" fill="#301902"/>
<path d="M159.373 309.278C160.345 309.824 161.299 310.404 162.233 311.03C164.385 312.486 166.414 314.101 167.716 317.103C166.65 316.887 166.065 316.216 165.432 315.636C162.582 312.497 159.1 310.859 155.447 309.688C154.532 309.392 153.871 308.983 153.862 307.811C153.852 306.628 154.494 306.219 155.41 305.889C157.363 305.206 159.326 305.548 161.289 305.491C162.016 305.468 162.931 305.411 163.139 304.774C163.347 304.137 162.507 303.591 161.969 303.17C159.373 301.135 156.589 299.781 153.447 299.918C152.399 299.963 151.918 299.349 151.616 298.348C151.295 297.302 151.965 296.949 152.493 296.346C154.702 293.855 156.665 291.091 158.675 287.964C158.156 287.895 157.929 287.85 157.693 287.827C155.051 287.554 152.814 289.147 150.483 290.216C149.03 290.887 148.7 290.17 148.869 288.703C149.558 282.971 147.208 277.978 142.669 275.839C142.669 276.658 142.669 277.409 142.669 278.171C142.631 282.152 143.264 286.132 142.669 290.113C142.348 292.217 142.754 294.629 140.838 296.164C139.12 290.5 134.657 290.102 130.778 288.43C132.712 293.036 134.326 297.643 135.27 302.647C135.581 304.331 135.223 305.002 134.392 305.866C132.127 302.989 129.268 302.454 125.653 302.465C128.145 305.206 130.079 307.629 131.476 310.586C131.656 311.553 131.278 312.247 130.646 312.736C130.098 313.157 129.777 312.543 129.56 312.156C127.965 309.221 125.691 307.049 123.634 304.661C122.652 303.523 122.322 302.215 122.756 300.953C123.143 299.827 124.313 299.485 125.351 299.463C127.635 299.406 129.928 299.303 132.127 300.35C132.448 300.498 132.863 301.237 133.288 300.577C133.552 300.179 133.26 299.736 133.175 299.303C132.495 295.766 130.976 292.695 129.626 289.522C129.221 288.578 127.928 287.827 128.607 286.599C129.315 285.325 130.627 286.189 131.665 286.019C131.891 285.985 132.127 286.246 132.373 286.292C135.374 286.929 138.007 288.692 140.546 290.364C141.168 288.066 141.121 285.769 141.14 283.46C141.159 280.389 140.574 277.363 140.706 274.27C140.791 272.404 141.272 272.12 142.556 272.939C144.726 274.338 146.538 276.203 148.058 278.523C149.832 281.23 150.597 284.335 150.417 288.112C153.494 286.087 156.485 285.803 159.562 285.973C161.374 286.076 161.582 286.405 160.742 288.407C160.138 289.84 159.355 291.137 158.439 292.32C157.344 293.753 156.344 295.289 155.221 296.892C156.297 297.177 157.118 297.324 157.892 297.62C160.865 298.746 163.479 300.577 165.461 303.546C166.083 304.479 166.489 305.559 166.017 306.742C165.602 307.8 164.753 307.857 163.875 307.822C162.469 307.766 161.053 307.8 159.647 307.822C159.204 307.822 158.6 307.8 158.496 308.391C158.364 309.096 158.996 309.073 159.392 309.29L159.373 309.278Z" fill="#301902"/>
<path d="M88.1957 382.127C88.6109 382.514 88.9413 382.969 88.5732 383.708C88.1768 384.516 87.5729 384.049 87.2237 383.879C86.2328 383.412 85.2418 382.844 84.3736 382.104C81.2686 379.42 77.975 377.521 74.0112 377.896C73.0958 377.987 72.0765 377.748 71.8689 376.452C71.6141 374.927 71.6707 373.335 72.9259 372.311C73.8696 371.538 74.8605 370.878 75.9553 370.446C76.682 370.162 77.4936 369.923 78.0787 369.002C76.1724 367.728 74.2377 368.308 72.3786 368.16C71.8312 368.114 71.1044 368.501 70.7647 367.853C70.3966 367.136 70.8497 366.477 71.1989 365.783C72.2747 363.645 72.8881 361.313 72.8975 358.458C71.8122 359.505 70.9062 360.335 70.0474 361.233C68.981 362.348 68.0844 362.143 68.0278 360.471C67.9617 358.731 67.103 358.06 66.112 357.355C64.5549 356.252 62.941 355.342 61.1574 354.921C60.9214 355.433 61.1196 355.808 61.28 356.24C62.1011 358.538 62.8372 360.881 62.9411 363.417C62.9977 364.771 62.856 365.487 61.2988 365.135C59.2698 364.668 57.1369 364.077 54.9852 365.1C56.4669 367.603 57.0236 370.594 57.7692 373.483C58.2222 375.212 57.6372 375.963 56.1932 375.667C55.3533 375.496 54.6832 375.928 54.0509 376.452C53.126 377.225 52.2389 378.055 51.2196 378.976C50.8421 377.759 50.9553 376.986 51.767 376.269C52.6824 375.462 52.5503 375.03 51.3894 374.598C49.2283 373.801 47.1426 372.732 44.8021 371.675C46.3404 370.958 47.4635 372.209 48.6809 371.822C50.1248 372.562 51.5877 373.267 53.0222 374.063C53.8527 374.529 54.6171 374.052 55.1928 373.642C55.8723 373.165 55.1645 372.346 55.0041 371.697C54.4473 369.445 53.5601 367.443 52.0218 365.908C51.3801 365.271 51.1913 364.384 51.3045 363.417C51.3895 362.757 51.7765 362.598 52.2861 362.598C54.9191 362.621 57.5805 362.314 60.1664 362.735C61.9406 363.019 61.4782 362.212 61.1668 361.142C60.5251 358.913 59.8172 356.707 59.2037 354.466C58.8357 353.124 59.0338 352.168 60.4967 352.384C64.1867 352.93 67.3955 354.602 69.802 358.276C71.0478 356.581 72.6049 355.308 73.5676 353.329C73.9545 352.532 74.6529 352.066 75.3702 352.532C75.8704 352.851 75.691 353.624 75.4834 354.204C74.0772 358.049 74.3321 362.439 72.4351 366.317C73.9829 366.317 75.1908 366.272 76.4083 366.317C78.6261 366.408 80.4853 367.819 80.7967 369.582C79.3622 372.198 76.9368 373.085 74.6529 374.404C75.2852 374.825 75.71 375.075 76.2574 375.143C80.9195 375.746 84.6189 378.806 88.2051 382.127H88.1957Z" fill="#301902"/>
<path d="M96.5197 364.031C92.7824 360.619 89.0451 358.367 85.0531 356.672C84.0905 356.263 83.0995 355.91 82.184 355.364C80.2871 354.238 80.1645 352.919 81.5613 351.031C84.1849 347.494 87.7994 345.981 91.2063 344.059C94.3207 342.307 97.5295 340.817 101.333 339.316C97.7843 337.849 94.6416 337.178 91.4895 336.609C85.7987 335.574 80.1645 336.052 74.5964 337.849C72.5201 338.52 71.3404 337.724 70.6987 335.13C69.8871 331.821 69.3963 328.408 69.1131 324.962C69.0565 324.257 69.0754 323.313 68.5752 323.097C67.9335 322.824 67.7731 323.859 67.405 324.348C65.3665 327.055 64.2057 330.478 62.3465 333.322C61.7708 334.209 62.1955 334.38 62.6957 334.869C66.2159 338.327 68.7923 342.512 69.6511 348.051C69.8304 349.211 70.0003 350.371 69.7644 351.475C69.5756 352.362 69.6134 352.987 70.2457 353.465C70.9629 354.011 71.2365 353.112 71.6895 352.771C72.6616 352.043 73.5771 351.304 74.4076 350.28C75.3607 349.109 76.8519 349.2 77.9938 350.007C79.2113 350.872 78.881 352.555 78.5979 353.818C78.2298 355.433 77.6069 357.002 76.8991 358.458C75.1059 362.098 76.1535 365.453 79.5038 366.431C79.7303 366.5 80.0229 366.431 80.2305 366.317C85.2796 363.246 90.6212 362.974 96.5197 364.043V364.031Z" fill="#DBCE02"/>
</svg>
