<svg width="1566" height="410" viewBox="0 0 1566 410" fill="none" xmlns="http://www.w3.org/2000/svg">
<path d="M197.461 284.267C198.438 284.144 199.414 284.022 200.378 283.885C207.364 212.715 202.782 112.513 202.732 111.45L199.865 111.613C199.915 112.663 204.509 213.316 197.461 284.267Z" fill="#7C2F6D" stroke="#301904" stroke-width="2" stroke-linecap="round" stroke-linejoin="round"/>
<path d="M197.674 279.808C194.745 213.616 221.172 61.7851 221.447 60.2578L224.264 60.8443C224.001 62.3716 197.637 213.834 200.541 279.658L197.674 279.808Z" fill="#E682D6" stroke="#301904" stroke-width="2" stroke-linecap="round" stroke-linejoin="round"/>
<path d="M203.595 283.49C227.569 226.271 248.187 102.272 248.4 101.018L245.583 100.472C245.383 101.727 224.727 225.957 200.816 282.631L202.744 283.585C203.032 283.558 203.307 283.517 203.595 283.49Z" fill="#7C2F6D" stroke="#301904" stroke-width="2" stroke-linecap="round" stroke-linejoin="round"/>
<path d="M222.035 68.4127C218.931 67.9218 216.765 64.758 217.228 61.3761L224.577 7.14316C225.027 3.7749 227.944 1.41574 231.049 1.92029C234.154 2.41121 236.319 5.57488 235.856 8.95677L228.508 63.1762C228.044 66.5444 225.14 68.9036 222.035 68.399V68.4127Z" fill="#D9CC43" stroke="#301904" stroke-width="2" stroke-linecap="round" stroke-linejoin="round"/>
<g style="mix-blend-mode:screen">
<path d="M230.585 7.41565C230.636 6.0929 230.46 4.60654 229.196 4.04744C228.532 3.74743 227.944 3.96566 227.531 4.4293C226.166 5.00204 225.628 7.27935 225.328 8.58847C224.902 10.4703 224.589 12.4885 224.576 14.4249C224.576 15.4749 224.664 16.9613 225.415 17.7386C226.317 18.6795 227.531 17.4659 228.094 16.6887C229.947 14.1659 230.46 10.5522 230.585 7.40209V7.41565Z" fill="#C76157"/>
</g>
<g style="mix-blend-mode:screen">
<path d="M225.791 23.5067C226.192 22.8385 226.279 21.9794 225.916 21.2566C225.854 21.1475 225.703 21.1475 225.603 21.1748C225.516 21.1885 225.428 21.2294 225.353 21.2839C225.228 21.3248 225.115 21.4066 225.015 21.5021C224.602 21.8839 224.351 22.5248 224.414 23.1249C224.376 23.493 224.426 23.8613 224.614 24.1886C224.702 24.3522 224.977 24.284 225.102 24.2158C225.178 24.1749 225.24 24.1067 225.315 24.0521C225.403 23.9976 225.478 23.9567 225.528 23.8885C225.578 23.834 225.603 23.7658 225.653 23.6976C225.703 23.6294 225.753 23.5613 225.791 23.4931V23.5067Z" fill="#C76157"/>
</g>
<path d="M200.578 122.455C197.436 122.4 194.92 119.564 194.97 116.155L195.784 61.3489C195.834 57.9397 198.438 55.1987 201.58 55.2532C204.722 55.3078 207.238 58.1442 207.188 61.5397L206.387 116.345C206.337 119.755 203.733 122.496 200.591 122.441L200.578 122.455Z" fill="#D9CC43" stroke="#301904" stroke-width="2" stroke-linecap="round" stroke-linejoin="round"/>
<g style="mix-blend-mode:screen">
<path d="M201.78 60.763C201.68 59.4539 201.329 57.9947 199.99 57.6129C199.289 57.4084 198.738 57.7083 198.387 58.2265C197.111 58.9765 196.835 61.322 196.697 62.6584C196.497 64.5812 196.435 66.6267 196.647 68.5495C196.773 69.5858 197.048 71.045 197.874 71.7132C198.888 72.5177 199.94 71.1405 200.403 70.295C201.943 67.5268 202.018 63.8721 201.768 60.7493L201.78 60.763Z" fill="#C76157"/>
</g>
<g style="mix-blend-mode:screen">
<path d="M198.938 77.3859C199.251 76.6632 199.239 75.804 198.788 75.1358C198.713 75.0267 198.563 75.0676 198.475 75.0949C198.388 75.1221 198.312 75.1768 198.237 75.2449C198.112 75.3131 198.024 75.4085 197.924 75.5176C197.561 75.954 197.399 76.6358 197.524 77.2222C197.524 77.5904 197.636 77.9449 197.849 78.2586C197.962 78.4086 198.225 78.2995 198.337 78.2177C198.413 78.1632 198.463 78.095 198.525 78.0268C198.6 77.9722 198.663 77.904 198.713 77.8359C198.763 77.7677 198.776 77.6995 198.813 77.6314C198.851 77.5632 198.888 77.4813 198.926 77.4131L198.938 77.3859Z" fill="#C76157"/>
</g>
<path d="M245.546 105.518C242.479 104.822 240.488 101.522 241.127 98.1813L251.467 44.5346C252.106 41.1936 255.148 39.039 258.215 39.7345C261.282 40.4299 263.272 43.73 262.634 47.071L252.294 100.718C251.655 104.045 248.613 106.213 245.546 105.504V105.518Z" fill="#D9CC43" stroke="#301904" stroke-width="2" stroke-linecap="round" stroke-linejoin="round"/>
<g style="mix-blend-mode:screen">
<path d="M257.476 45.1891C257.601 43.88 257.513 42.38 256.274 41.7391C255.623 41.3982 255.022 41.5755 254.597 42.0119C253.207 42.4891 252.544 44.7256 252.168 46.021C251.63 47.8756 251.217 49.8666 251.091 51.803C251.029 52.853 251.041 54.3393 251.755 55.1575C252.606 56.153 253.883 55.0212 254.484 54.2849C256.474 51.8848 257.188 48.3119 257.488 45.1891H257.476Z" fill="#C76157"/>
</g>
<g style="mix-blend-mode:screen">
<path d="M251.793 60.926C252.231 60.2851 252.356 59.4396 252.043 58.6895C251.993 58.5668 251.83 58.5668 251.743 58.5804C251.655 58.5804 251.567 58.635 251.48 58.6759C251.342 58.7168 251.242 58.785 251.129 58.8668C250.691 59.2214 250.416 59.8486 250.441 60.4486C250.378 60.8032 250.416 61.1851 250.578 61.526C250.666 61.7033 250.941 61.6351 251.067 61.5805C251.142 61.5396 251.217 61.4851 251.292 61.4305C251.38 61.3896 251.455 61.335 251.517 61.2805C251.567 61.2259 251.605 61.1578 251.655 61.1033C251.705 61.0351 251.755 60.9805 251.805 60.9123L251.793 60.926Z" fill="#C76157"/>
</g>
<path d="M220.996 257.88C225.616 247.148 230.736 236.662 236.407 226.543C241.239 217.925 246.384 209.497 252.043 201.479C257.539 193.693 263.498 186.288 270.07 179.551C273.112 176.442 276.304 173.483 279.647 170.742C267.178 177.479 256.462 187.461 247.273 198.793C236.457 212.102 227.306 227.021 219.745 242.744C217.291 247.844 215.012 253.053 212.884 258.33C214.674 251.512 216.277 244.625 217.942 237.766C219.306 232.121 220.746 226.502 221.973 220.816C223.062 215.77 224.101 210.711 225.027 205.625C225.791 201.425 226.605 196.584 225.265 192.411C225.14 192.738 225.027 193.065 224.902 193.393C222.323 200.579 220.846 208.134 218.705 215.484C216.264 223.87 214.512 232.475 211.92 240.807C211.883 240.93 211.82 241.012 211.745 241.08C209.917 247.626 208.115 254.185 205.836 260.567C204.835 263.349 203.871 266.103 203.095 268.967C202.757 270.208 202.406 271.435 201.943 272.622C201.843 272.894 201.718 273.181 201.592 273.467C203.483 264.467 205.073 255.371 206.124 246.207C207.263 236.389 207.802 226.475 207.501 216.575C207.351 211.652 206.988 206.729 206.387 201.847C205.786 197.006 204.91 192.206 204.033 187.406C202.969 181.57 201.805 175.719 200.315 169.978C199.677 168.219 199.038 166.46 198.388 164.715C196.322 159.178 194.006 153.778 191.064 148.732C189.624 146.251 187.984 143.946 186.37 141.6C185.118 139.787 183.966 137.891 182.727 136.078C182.676 136.009 182.639 135.955 182.589 135.887C185.794 142.391 189.011 148.91 190.876 156.055C193.28 165.233 195.258 174.547 196.51 183.997C197.762 193.42 198.225 202.979 198.337 212.484C198.45 222.207 198.062 231.984 196.748 241.612C195.821 248.389 194.469 255.085 193.004 261.739C192.729 261.821 192.466 262.012 192.416 262.244C191.903 264.958 190.751 267.453 189.762 269.99C189.599 270.412 189.449 270.849 189.286 271.272C189.186 271.353 189.111 271.449 189.086 271.572C189.049 271.803 188.986 272.049 188.936 272.308C188.786 272.785 188.623 273.263 188.498 273.753C188.347 274.353 188.21 274.967 188.135 275.581C188.085 275.922 187.872 276.672 188.185 276.931C188.498 277.203 188.961 276.972 189.199 276.699C189.387 276.494 189.437 276.453 189.124 276.603C189.236 276.549 189.311 276.481 189.374 276.413C189.662 276.699 190 276.917 190.338 277.108C191.352 277.667 192.466 278.049 193.555 278.431C198.187 280.067 203.245 280.899 208.09 280.013C209.88 279.685 211.545 279.017 213.034 278.035C215.526 271.244 218.167 264.521 221.009 257.894L220.996 257.88Z" fill="#E682D6" stroke="#301904" stroke-width="2" stroke-linecap="round" stroke-linejoin="round"/>
<path d="M174.652 176.96C178.508 187.297 181.513 198.029 184.104 208.802C186.745 219.834 188.836 231.071 189.825 242.416C190.526 250.407 190.726 258.426 190.776 266.458C190.488 266.635 190.226 266.921 190.238 267.208C190.363 270.453 189.687 273.644 189.224 276.822C189.149 277.354 189.086 277.885 189.011 278.431C188.924 278.554 188.861 278.69 188.861 278.826C188.861 279.099 188.874 279.399 188.886 279.699C188.836 280.285 188.786 280.872 188.773 281.472C188.761 282.194 188.773 282.931 188.823 283.654C188.861 284.063 188.798 284.976 189.224 285.181C189.65 285.386 190.113 284.99 190.313 284.608C190.476 284.308 190.526 284.254 190.201 284.526C190.313 284.431 190.376 284.335 190.438 284.24C190.839 284.472 191.277 284.622 191.715 284.731C192.053 284.813 192.391 284.854 192.729 284.908C199.452 283.981 206.187 283.081 212.947 282.481C214.787 281.581 216.402 280.367 217.779 278.867C218.856 270.385 220.12 261.93 221.648 253.53C224.126 239.907 227.231 226.421 231.062 213.179C234.317 201.902 238.01 190.733 242.366 179.906C246.598 169.378 251.467 159.124 257.201 149.469C259.855 144.996 262.709 140.66 265.814 136.541C253.37 148.01 243.768 162.628 236.232 178.31C227.381 196.747 220.809 216.507 216.277 236.689C214.8 243.248 213.561 249.848 212.509 256.503C212.784 248.198 212.822 239.88 212.935 231.575C213.035 224.743 213.223 217.911 213.135 211.066C213.06 204.997 212.935 198.915 212.684 192.861C212.471 187.842 212.146 182.088 209.542 177.751C209.492 178.16 209.429 178.57 209.379 178.979C208.303 187.938 208.578 196.993 208.052 205.993C207.439 216.275 207.677 226.598 206.876 236.866C206.876 237.016 206.813 237.139 206.75 237.234C206.362 245.239 206.012 253.244 205.073 261.208C204.66 264.685 204.259 268.108 204.121 271.599C204.059 273.113 203.984 274.626 203.771 276.113C203.721 276.453 203.671 276.808 203.596 277.176C203.42 266.362 202.87 255.535 201.705 244.789C200.453 233.266 198.513 221.825 195.609 210.657C194.156 205.106 192.479 199.624 190.526 194.252C188.586 188.92 186.345 183.738 184.116 178.542C181.387 172.215 178.558 165.928 175.378 159.846C174.202 158.046 173.012 156.246 171.823 154.446C168.042 148.787 164.011 143.346 159.367 138.491C157.088 136.105 154.635 133.991 152.181 131.809C150.291 130.132 148.488 128.332 146.598 126.641C146.535 126.573 146.46 126.518 146.397 126.464C151.73 132.887 157.063 139.323 161.044 146.864C166.14 156.574 170.809 166.569 174.677 176.92L174.652 176.96Z" fill="#7C2F6D" stroke="#301904" stroke-width="2" stroke-linecap="round" stroke-linejoin="round"/>
<path d="M63.348 281.308C63.9489 282.086 64.4997 282.904 65.0756 283.708C74.3269 287.213 84.4546 288.045 94.1566 288.563C111.683 289.49 129.159 290.009 146.623 289.381C149.665 277.136 154.397 265.422 161.082 254.976C165.814 247.585 171.861 240.017 179.384 235.721C173.288 236.485 167.404 238.789 161.77 241.353C158.828 242.689 155.949 244.176 153.208 245.949C151.818 246.849 150.453 247.79 149.164 248.826C148.163 249.617 147.236 250.681 146.097 251.24C150.266 239.771 158.228 230.621 163.836 220.025C164.187 219.357 163.485 219.18 163.022 219.343C156.362 221.771 150.516 226.039 144.52 229.912C138.448 233.826 133.14 238.585 127.895 243.685C125.328 246.18 122.724 248.621 120.033 250.94C120.108 244.953 122.937 239.048 125.116 233.716C128.045 226.53 130.674 219.207 133.603 212.021C133.929 211.23 133.052 211.134 132.564 211.448C127.018 215.048 122.549 220.257 118.456 225.603C116.377 228.303 114.262 231.03 112.384 233.921C110.193 237.289 108.478 240.985 106.826 244.68C105.386 247.885 103.959 251.09 102.294 254.144C101.943 247.094 103.721 240.058 105.424 233.321C107.552 224.921 109.267 216.412 111.357 207.998C111.921 205.761 112.497 203.579 113.235 201.411C113.874 199.529 114.562 197.579 114.525 195.547C114.512 194.811 113.436 195.288 113.173 195.493C100.216 205.53 93.8061 221.975 89.1491 237.917C88.3354 240.712 87.5718 243.521 86.8081 246.33C86.4826 238.244 87.0585 230.144 86.9083 222.057C86.8081 217.23 86.7455 212.389 87.1336 207.575C87.3339 205.12 87.6844 202.707 88.1602 200.307C88.6233 198.002 89.0865 195.697 89.1491 193.325C89.1742 192.37 87.697 193.338 87.5092 193.625C82.7896 200.539 79.2093 208.393 76.5302 216.48C73.701 225.003 71.8357 234.044 71.6855 243.139C71.6354 246.262 71.8357 249.371 72.2864 252.453C66.2649 243.685 58.666 235.012 48.7887 232.394C48.313 232.271 46.7606 233.116 47.4867 233.703C56.9384 241.271 67.717 252.181 68.6184 265.708C59.4922 259.272 50.2033 252.917 39.8753 249.003C31.8258 245.949 23.1378 243.453 14.6 243.017C10.1684 242.798 5.61151 243.221 1.55544 245.308C1.41773 245.376 1.26752 245.539 1.14233 245.717C3.23296 246.317 5.31108 247.053 7.40171 247.476C12.4968 248.485 17.4918 249.603 22.4492 251.28C30.987 254.185 39.2619 258.249 46.4978 264.017C52.7446 268.995 58.4156 274.899 63.3605 281.377L63.348 281.308Z" fill="#E682D6" stroke="#301904" stroke-width="2" stroke-linecap="round" stroke-linejoin="round"/>
<path d="M78.5332 244.203C87.071 247.107 95.3459 251.171 102.582 256.94C108.829 261.917 114.5 267.822 119.445 274.299C123.125 279.126 126.367 284.281 129.284 289.64C145.095 289.695 160.882 289.04 176.68 287.09C185.268 286.027 193.831 284.704 202.419 283.64C205.448 270.931 210.256 258.78 217.166 247.967C221.898 240.575 227.945 233.007 235.468 228.712C229.372 229.475 223.488 231.793 217.854 234.344C214.912 235.68 212.033 237.166 209.292 238.939C207.902 239.839 206.537 240.78 205.248 241.816C204.247 242.607 203.32 243.671 202.181 244.23C206.35 232.762 214.312 223.611 219.92 213.016C220.27 212.348 219.569 212.17 219.106 212.334C212.446 214.761 206.6 219.03 200.604 222.902C194.532 226.816 189.224 231.575 183.979 236.675C181.412 239.157 178.808 241.612 176.117 243.93C176.192 237.944 179.021 232.039 181.199 226.707C184.129 219.521 186.758 212.198 189.687 205.011C190.013 204.22 189.136 204.125 188.648 204.452C183.102 208.052 178.633 213.261 174.527 218.607C172.449 221.307 170.333 224.048 168.455 226.925C166.265 230.293 164.55 233.989 162.897 237.685C161.457 240.889 160.03 244.094 158.365 247.148C158.015 240.098 159.792 233.062 161.495 226.325C163.623 217.925 165.338 209.416 167.429 201.002C167.98 198.765 168.568 196.584 169.307 194.415C169.945 192.534 170.634 190.583 170.596 188.552C170.596 187.815 169.507 188.293 169.257 188.497C156.3 198.52 149.878 214.979 145.233 230.921C144.419 233.716 143.656 236.525 142.892 239.335C142.567 231.248 143.143 223.148 142.992 215.061C142.905 210.234 142.83 205.393 143.218 200.579C143.418 198.125 143.756 195.711 144.244 193.311C144.707 191.006 145.171 188.702 145.233 186.329C145.258 185.374 143.781 186.343 143.593 186.629C138.874 193.556 135.293 201.397 132.614 209.484C129.785 218.007 127.92 227.048 127.769 236.144C127.719 239.266 127.92 242.376 128.37 245.457C122.349 236.689 114.75 228.016 104.873 225.398C104.397 225.275 102.845 226.121 103.571 226.707C113.022 234.275 123.801 245.185 124.702 258.712C115.576 252.276 106.287 245.921 95.9593 242.007C87.9098 238.953 79.2218 236.444 70.684 236.021C66.2523 235.803 61.6955 236.225 57.6394 238.312C57.5017 238.38 57.3515 238.544 57.2263 238.721C59.3169 239.321 61.3951 240.057 63.4857 240.466C68.5808 241.476 73.5758 242.594 78.5332 244.271V244.203Z" fill="#A43F92" stroke="#301904" stroke-width="2" stroke-linecap="round" stroke-linejoin="round"/>
<g style="mix-blend-mode:multiply" opacity="0.37">
<path d="M119.444 274.285C123.125 279.113 126.367 284.267 129.284 289.627C145.095 289.681 160.882 289.027 176.68 287.077C185.268 286.013 193.831 284.69 202.419 283.626C205.448 270.917 210.255 258.767 217.166 247.953C221.898 240.562 227.944 232.994 235.468 228.698C229.372 229.462 223.488 231.78 217.854 234.33C214.912 235.666 212.033 237.153 209.292 238.925C207.902 239.825 206.537 240.766 205.248 241.803C204.246 242.594 203.32 243.657 202.181 244.216C205.098 236.198 209.867 229.312 214.387 222.275C207.113 227.457 200.478 233.73 194.407 240.466C185.781 250.012 178.145 260.54 170.671 271.149C170.371 271.572 169.582 271.517 169.444 270.944C168.781 268.053 168.593 265.108 168.781 262.135C169.419 252.126 174.114 242.826 174.577 232.83C167.266 243.862 164.224 257.349 159.392 269.731C159.091 270.508 158.177 270.181 158.027 269.499C155.248 256.503 157.839 243.357 158.353 230.266C152.807 242.457 151.805 256.353 147.612 269.103C147.411 269.703 146.435 269.703 146.285 269.063C143.944 259.067 144.507 248.676 143.092 238.544C143.017 238.803 142.942 239.062 142.88 239.321C142.88 239.103 142.88 238.871 142.867 238.653C141.002 243.139 140.288 248.171 139.913 253.039C139.449 259.067 139.6 265.122 139.612 271.163C139.612 272.022 138.573 272.376 138.235 271.531C135.644 265.217 132.99 258.576 128.596 253.489C129.923 256.803 131.2 260.13 132.226 263.567C133.566 268.04 134.705 272.99 133.866 277.694C133.741 278.404 132.99 278.513 132.577 278.035C128.621 273.467 124.264 269.308 119.595 265.626C111.62 259.326 102.757 254.458 93.5056 250.789C93.3053 250.708 93.1175 250.639 92.9172 250.571C96.2848 252.439 99.5271 254.553 102.569 256.98C108.816 261.958 114.487 267.862 119.432 274.34L119.444 274.285Z" fill="#606060"/>
</g>
<path d="M166.002 268.312C172.611 269.962 177.957 274.053 182.952 278.867C185.068 280.899 187.083 283.067 188.848 285.454C198.55 284.104 208.265 282.726 218.017 282.085C222.912 281.758 227.832 281.54 232.752 281.199C235.969 280.394 239.174 279.535 242.341 278.567C243.743 275.717 245.108 272.853 246.848 270.221C249.076 266.826 251.805 263.976 254.872 261.48C257.777 259.108 260.944 256.98 264.311 255.467C262.509 254.948 260.556 254.989 258.715 255.139C256.086 255.371 253.395 255.767 250.829 256.462C245.621 257.867 240.901 260.689 235.931 262.803C238.923 259.571 242.278 256.735 245.771 254.171C248.475 252.194 251.655 250.83 254.196 248.58C250.403 247.789 246.347 248.007 242.591 248.375C242.378 248.389 242.166 248.43 241.953 248.457C241.177 248.757 240.4 249.057 239.649 249.357C234.154 251.526 228.695 253.653 223.588 256.803C221.347 258.18 219.231 259.748 217.166 261.412C219.194 258.18 221.71 255.317 224.201 252.439C226.955 247.789 229.747 243.153 232.539 238.516C227.531 239.116 223.05 242.444 219.131 245.662C217.041 247.38 214.912 249.126 212.997 251.062C210.969 253.107 209.191 255.426 207.576 257.867C206.099 260.103 204.747 262.449 203.395 264.78C203.42 261.971 203.858 259.189 204.434 256.462C205.06 253.489 205.686 250.489 206.4 247.53C206.5 247.135 206.6 246.753 206.7 246.357C207.038 242.73 207.439 239.13 207.877 235.516C206.049 237.616 204.497 240.112 203.157 242.348C201.655 244.871 200.278 247.394 199.314 250.216C198.225 253.407 197.486 256.721 196.51 259.953C196.472 260.089 196.397 260.185 196.322 260.267C196.184 261.017 196.022 261.767 195.921 262.53C195.759 263.676 195.633 264.835 195.571 265.98C195.533 266.812 195.496 267.63 195.333 268.421C194.344 267.317 193.493 266.09 192.541 264.944C191.339 263.485 189.95 262.339 188.31 261.549C184.604 259.762 180.473 259.708 176.48 259.612C176.067 259.612 175.153 260.58 175.854 260.771C178.871 261.603 181.775 263.158 184.254 265.203C186.319 266.908 188.197 269.171 188.886 271.899C184.73 269.321 180.886 266.13 176.004 265.367C171.472 264.658 166.678 265.19 162.258 266.403C160.982 266.758 159.705 267.194 158.478 267.726C160.982 267.685 163.485 267.671 165.977 268.285L166.002 268.312Z" fill="#E682D6" stroke="#301904" stroke-width="2" stroke-linecap="round" stroke-linejoin="round"/>
<path d="M129.234 289.64C123.651 221.866 108.466 143.101 108.278 142.173L105.474 142.814C105.649 143.728 120.772 222.139 126.355 289.627C127.319 289.627 128.27 289.627 129.234 289.627V289.64Z" fill="#7C2F6D" stroke="#301904" stroke-width="2" stroke-linecap="round" stroke-linejoin="round"/>
<path d="M127.419 289.626C118.693 218.102 122.224 89.9175 122.261 88.4993L119.395 88.4038C119.357 89.822 115.827 217.652 124.527 289.613C125.491 289.613 126.455 289.613 127.419 289.626Z" fill="#E682D6" stroke="#301904" stroke-width="2" stroke-linecap="round" stroke-linejoin="round"/>
<path d="M138.573 289.572C149.865 224.893 151.868 125.237 151.893 124.105L149.026 124.037C149.001 125.168 146.998 225.303 135.644 289.627C136.62 289.627 137.596 289.586 138.573 289.572Z" fill="#7C2F6D" stroke="#301904" stroke-width="2" stroke-linecap="round" stroke-linejoin="round"/>
<path d="M121.159 96.3814C118.017 96.4223 115.426 93.6677 115.388 90.2585L114.85 35.4528C114.812 32.0437 117.354 29.2345 120.496 29.1936C123.638 29.1527 126.23 31.9209 126.255 35.3164L126.793 90.1222C126.83 93.5313 124.289 96.3405 121.147 96.3814H121.159Z" fill="#D9CC43" stroke="#301904" stroke-width="2" stroke-linecap="round" stroke-linejoin="round"/>
<g style="mix-blend-mode:screen">
<path d="M120.846 34.6756C120.709 33.3665 120.321 31.9209 118.981 31.58C118.28 31.4028 117.729 31.7164 117.391 32.2482C116.127 33.0391 115.927 35.3846 115.814 36.7346C115.664 38.6574 115.639 40.7029 115.914 42.6257C116.064 43.6621 116.365 45.1213 117.229 45.7485C118.255 46.5258 119.269 45.1212 119.72 44.2621C121.184 41.453 121.172 37.7984 120.846 34.6756Z" fill="#C76157"/>
</g>
<g style="mix-blend-mode:screen">
<path d="M118.418 51.3666C118.718 50.6302 118.68 49.7847 118.217 49.1165C118.142 49.021 117.992 49.0484 117.904 49.0893C117.817 49.1166 117.741 49.1847 117.666 49.2393C117.541 49.3075 117.454 49.4029 117.366 49.512C117.003 49.962 116.865 50.6439 117.003 51.2166C117.015 51.5848 117.128 51.9393 117.353 52.2394C117.466 52.3894 117.729 52.2666 117.842 52.1848C117.917 52.1302 117.967 52.062 118.029 51.9938C118.105 51.9393 118.167 51.8712 118.217 51.803C118.267 51.7348 118.28 51.6666 118.317 51.5984C118.355 51.5302 118.392 51.4484 118.43 51.3666H118.418Z" fill="#C76157"/>
</g>
<path d="M107.739 153.396C104.635 153.873 101.73 151.501 101.292 148.132L94.2067 93.8585C93.7685 90.4902 95.9468 87.3401 99.0515 86.8628C102.156 86.3856 105.06 88.7584 105.499 92.1267L112.584 146.401C113.022 149.769 110.844 152.919 107.739 153.396Z" fill="#D9CC43" stroke="#301904" stroke-width="2" stroke-linecap="round" stroke-linejoin="round"/>
<g style="mix-blend-mode:screen">
<path d="M100.053 92.2498C99.7651 90.968 99.2017 89.6043 97.8372 89.4406C97.1236 89.3588 96.6103 89.7543 96.3474 90.3271C95.1957 91.2953 95.2583 93.6407 95.3209 94.9908C95.396 96.9272 95.6339 98.959 96.1221 100.827C96.385 101.836 96.8732 103.227 97.7996 103.745C98.9138 104.359 99.7525 102.832 100.091 101.918C101.217 98.9318 100.754 95.3044 100.066 92.2498H100.053Z" fill="#C76157"/>
</g>
<g style="mix-blend-mode:screen">
<path d="M99.64 109.159C99.8528 108.396 99.7151 107.55 99.1768 106.964C99.0892 106.868 98.939 106.923 98.8638 106.964C98.7887 107.005 98.7136 107.073 98.651 107.155C98.5384 107.236 98.4632 107.346 98.3881 107.468C98.0877 107.959 98.0251 108.655 98.2379 109.214C98.3005 109.568 98.4507 109.909 98.7136 110.182C98.8388 110.318 99.0892 110.155 99.1893 110.059C99.2519 109.991 99.302 109.923 99.3521 109.841C99.4147 109.773 99.4772 109.691 99.5148 109.623C99.5524 109.555 99.5649 109.473 99.5899 109.405C99.615 109.323 99.6525 109.241 99.665 109.159H99.64Z" fill="#C76157"/>
</g>
<path d="M149.728 129.027C146.598 128.864 144.157 125.932 144.307 122.536L146.811 67.7987C146.961 64.4031 149.652 61.7576 152.795 61.9213C155.924 62.0849 158.365 65.0168 158.215 68.4123L155.724 123.15C155.574 126.545 152.882 129.205 149.74 129.027H149.728Z" fill="#D9CC43" stroke="#301904" stroke-width="2" stroke-linecap="round" stroke-linejoin="round"/>
<g style="mix-blend-mode:screen">
<path d="M152.819 67.417C152.757 66.0942 152.444 64.6351 151.129 64.2124C150.441 63.9805 149.865 64.267 149.502 64.7715C148.2 65.4806 147.862 67.7988 147.674 69.1488C147.411 71.058 147.286 73.1035 147.449 75.0399C147.536 76.0899 147.762 77.549 148.588 78.2445C149.577 79.0763 150.666 77.7399 151.167 76.9217C152.794 74.2217 152.97 70.567 152.819 67.4306V67.417Z" fill="#C76157"/>
</g>
<g style="mix-blend-mode:screen">
<path d="M149.477 83.9313C149.815 83.2222 149.828 82.3631 149.402 81.6812C149.339 81.5721 149.177 81.5994 149.089 81.6267C149.001 81.654 148.926 81.7085 148.851 81.763C148.726 81.8176 148.626 81.913 148.538 82.0221C148.163 82.4449 147.975 83.113 148.075 83.6994C148.075 84.0676 148.163 84.4358 148.375 84.7495C148.488 84.8995 148.751 84.804 148.864 84.7222C148.939 84.6676 149.001 84.5995 149.064 84.545C149.139 84.4904 149.214 84.4222 149.264 84.354C149.314 84.2995 149.339 84.2176 149.377 84.1495C149.415 84.0813 149.465 84.0131 149.49 83.9313H149.477Z" fill="#C76157"/>
</g>
<path d="M145.972 289.422C146.448 287.513 146.898 285.59 147.399 283.694C150.416 272.308 153.959 261.085 158.103 250.121C161.633 240.794 165.514 231.589 169.945 222.711C174.252 214.093 179.071 205.761 184.605 198.002C187.159 194.415 189.888 190.952 192.792 187.679C181.438 196.447 172.299 208.12 164.85 220.87C156.087 235.857 149.189 252.139 143.981 268.953C142.291 274.408 140.789 279.944 139.45 285.508C140.238 278.472 140.827 271.394 141.478 264.344C142.016 258.535 142.629 252.739 143.017 246.916C143.368 241.748 143.656 236.566 143.856 231.398C144.019 227.116 144.119 222.193 142.191 218.293C142.116 218.634 142.041 218.975 141.978 219.316C140.464 226.857 140.088 234.575 139.037 242.184C137.835 250.885 137.346 259.68 135.969 268.353C135.944 268.49 135.894 268.585 135.832 268.653C134.968 275.431 134.129 282.208 132.802 288.904C132.752 289.149 132.715 289.381 132.677 289.627C137.121 289.613 141.553 289.558 145.997 289.408L145.972 289.422Z" fill="#E682D6" stroke="#301904" stroke-width="2" stroke-linecap="round" stroke-linejoin="round"/>
<path d="M112.559 214.856C115.151 223.952 116.991 233.307 118.468 242.689C119.983 252.275 120.997 261.998 121.084 271.735C121.134 277.68 120.859 283.612 120.458 289.544C123.964 289.613 127.469 289.64 130.974 289.64C131.099 284.663 131.162 279.671 131.012 274.694C130.724 264.794 129.835 254.907 128.107 245.184C127.244 240.343 126.18 235.557 124.878 230.825C123.588 226.134 122.023 221.552 120.471 216.97C118.581 211.379 116.59 205.802 114.287 200.388C113.41 198.765 112.522 197.129 111.62 195.52C108.791 190.406 105.724 185.456 102.093 180.969C100.316 178.76 98.3629 176.769 96.435 174.724C94.9453 173.142 93.5307 171.464 92.0409 169.883C91.9908 169.828 91.9282 169.774 91.8782 169.719C95.9843 175.61 100.09 181.487 102.97 188.224C106.663 196.883 109.955 205.747 112.559 214.87V214.856Z" fill="#E682D6" stroke="#301904" stroke-width="2" stroke-linecap="round" stroke-linejoin="round"/>
<path d="M72.1864 184.243C78.621 192.956 84.6676 202.038 89.9755 211.625C95.271 221.184 99.7902 231.262 103.896 241.476C108.103 251.921 111.771 262.667 114.387 273.713C115.626 278.922 116.628 284.186 117.517 289.477C121.673 289.572 125.829 289.627 129.973 289.627C128.909 284.404 127.77 279.195 126.443 274.04C123.551 262.871 119.983 251.894 115.514 241.367C113.285 236.13 110.832 231.003 108.128 226.025C105.449 221.089 102.494 216.343 99.5399 211.598C95.9345 205.816 92.2289 200.075 88.2229 194.62C86.7958 193.038 85.3686 191.456 83.929 189.888C79.3847 184.938 74.615 180.247 69.3321 176.251C66.7282 174.288 64.0116 172.61 61.2826 170.879C59.1794 169.529 57.1388 168.069 55.0232 166.719C54.9481 166.665 54.873 166.624 54.7979 166.583C60.9821 172.024 67.1914 177.465 72.1989 184.256L72.1864 184.243Z" fill="#7C2F6D" stroke="#301904" stroke-width="2" stroke-linecap="round" stroke-linejoin="round"/>
<path d="M127.144 234.643C128.02 244.898 129.735 255.058 130.424 265.34C130.424 265.503 130.399 265.612 130.348 265.721C131.112 273.685 131.913 281.622 132.139 289.627C137.159 289.627 142.179 289.531 147.199 289.354C147.236 285.999 147.286 282.645 147.399 279.29C147.887 265.422 149.014 251.58 150.904 237.835C152.507 226.148 154.535 214.489 157.289 203.047C159.955 191.933 163.285 180.983 167.567 170.469C169.545 165.601 171.748 160.828 174.214 156.233C163.573 169.665 156.2 185.729 151.004 202.516C144.908 222.234 141.265 242.853 139.7 263.567C139.187 270.29 138.911 277.04 138.824 283.776C137.897 275.526 136.733 267.303 135.656 259.08C134.768 252.317 133.966 245.539 132.902 238.789C131.963 232.803 130.962 226.83 129.835 220.884C128.909 215.961 127.757 210.343 124.552 206.497C124.552 206.907 124.552 207.316 124.565 207.738C124.79 216.766 126.367 225.671 127.131 234.643H127.144Z" fill="#7C2F6D" stroke="#301904" stroke-width="2" stroke-linecap="round" stroke-linejoin="round"/>
<path d="M105.836 312.481H98.0371C100.391 307.013 100.265 301.613 100.14 296.363C99.99 290.417 100.441 284.444 99.5894 278.485C98.0371 267.63 93.9184 257.621 89.3741 247.734C88.7732 246.412 88.1848 245.089 87.6215 243.752C87.1583 242.634 86.3821 242.143 85.1428 242.334C84.0161 242.511 83.5028 243.152 83.4152 244.216C83.0396 249.071 81.5624 253.694 80.1228 258.316C79.5594 260.144 79.5093 261.916 79.9725 263.798C80.3356 265.257 80.5484 266.839 79.6846 268.298C79.6846 268.571 79.6846 268.83 79.6721 269.103C79.7848 269.498 80.0351 269.908 79.9851 270.289C79.259 275.88 79.259 281.485 79.5719 287.103C79.647 288.521 80.5734 289.844 79.8724 291.794C74.5144 282.753 69.0562 274.135 62.9595 265.926C58.8409 259.898 54.0712 254.43 48.2375 249.889C47.8244 249.562 47.4113 249.234 46.9981 248.921C45.9215 248.075 44.7698 248.457 43.6932 248.853C42.5039 249.289 42.4413 250.298 42.4538 251.416C42.5039 254.566 43.6682 257.444 44.5194 260.403C44.9451 261.889 45.4583 263.348 45.9341 264.807C47.2736 269.867 49.0387 274.789 50.9791 279.658C51.7052 281.458 52.7818 283.149 52.7818 285.181C54.8474 287.826 55.6736 291.044 57.1759 293.826C56.7753 294.372 56.4498 294.167 56.1994 294.031C50.8664 291.29 44.9951 290.24 39.224 288.89C36.7203 288.303 34.1789 288.262 31.6251 288.222C26.2421 288.126 20.8465 287.922 15.4634 287.935C11.7328 287.935 8.10238 288.863 4.57209 289.967C2.54406 290.594 2.31872 291.917 3.73334 293.54C4.34676 294.235 5.01026 294.999 5.81146 295.435C12.2211 298.872 18.5555 302.499 25.541 304.736C28.0448 305.54 30.7238 305.84 33.2901 306.467C34.0287 306.645 34.9676 306.645 35.6186 307.736C32.5515 308.404 29.6096 309.154 26.6176 309.236C22.1234 309.372 17.8295 310.654 13.3978 311.158C12.7468 311.24 12.0583 311.404 11.9957 312.14C11.9331 312.822 12.5465 313.231 13.0974 313.545C14.0363 314.09 15.0753 314.24 16.1519 314.295C23.9887 314.677 31.8254 315.29 39.6621 315.386C47.0732 315.468 54.4969 315.727 61.9205 315.018C67.917 314.445 73.9886 314.622 79.9976 314.104C84.7046 313.695 89.3115 313.845 93.9059 314.827C94.7447 315.004 95.7462 315.209 96.2845 314.445C97.4612 312.795 99.1012 313.013 100.816 312.918C102.481 312.836 104.234 313.422 105.824 312.522L105.836 312.481Z" fill="#D9CC43" stroke="#301904" stroke-width="3" stroke-linecap="round" stroke-linejoin="round"/>
<path d="M101.204 233.824C101.204 233.824 101.204 233.811 101.204 233.798V233.824Z" stroke="#301904" stroke-width="3" stroke-linecap="round" stroke-linejoin="round"/>
<path d="M101.217 233.811C101.618 234.384 102.356 234.956 103.621 235.529C109.767 238.352 120.033 240.602 128.145 242.661C136.257 244.707 139.75 244.229 148.826 241.775C157.902 239.32 164.887 239.457 170.158 235.775C175.441 232.093 183.077 231.056 185.18 228.452C187.283 225.847 191.965 219.397 191.965 219.397C191.965 219.397 195.959 214.883 195.684 212.511C195.621 211.951 195.321 211.501 194.67 211.27C191.277 210.029 168.318 204.301 159.442 202.842C150.578 201.383 137.697 198.874 134.542 202.078C134.542 202.078 128.258 208.679 123.538 212.524C118.818 216.37 112.396 218.279 110.756 221.402C109.129 224.524 108.766 224.729 105.899 227.347C103.871 229.215 100.478 231.125 100.867 233.102C100.917 233.334 101.017 233.566 101.167 233.797C101.167 233.797 101.167 233.797 101.167 233.811H101.217Z" fill="#EDDB49" stroke="#301904" stroke-width="3" stroke-linecap="round" stroke-linejoin="round"/>
<path d="M136.081 297.509C128.971 298.79 123.863 298.6 113.71 298.45C103.558 298.3 96.1592 293.609 92.2909 294.045C88.4226 294.481 84.7671 293.308 76.3795 286.613C67.992 279.917 65.7887 280.708 65.7511 278.895C62.4337 284.69 63.5478 286.408 62.5213 293.24C61.4822 300.072 62.0581 302.391 62.5213 306.822C62.9845 311.254 58.3901 314.404 65.1001 316.914C71.8102 319.423 73.4501 325.518 79.5843 323.268C85.706 321.018 90.05 318.223 94.369 323.759C98.688 329.296 97.9493 331.505 109.404 329.5C120.859 327.496 119.532 327.618 127.268 327.318C134.992 327.005 146.109 326.473 146.109 326.473C146.109 326.473 147.674 321.305 153.069 313.982C158.465 306.659 163.21 303.181 166.389 298.572C169.569 293.963 172.624 287.104 172.624 287.104C169.532 289.286 161.657 291.127 159.517 291.522C157.376 291.918 143.205 296.24 136.094 297.522L136.081 297.509Z" fill="#AB9530" stroke="#301904" stroke-width="3" stroke-linecap="round" stroke-linejoin="round"/>
<path d="M180.022 259.135C172.436 261.753 170.558 263.103 163.285 265.203C156.011 267.303 146.66 272.158 140.939 271.489C135.218 270.835 134.241 272.99 127.356 276.208C120.47 279.426 121.259 276.33 109.554 272.771C97.8491 269.212 96.2467 266.948 93.8306 265.203C92.9793 264.589 92.466 263.744 92.3283 262.244C92.0529 262.244 91.8025 262.244 91.6147 262.23C89.474 262.067 90.0374 262.067 86.8326 262.244C83.6403 262.421 81.5872 262.353 77.3559 264.208C73.1246 266.048 69.0184 267.958 67.391 273.426C65.7635 278.881 65.726 277.067 65.7635 278.881C65.8011 280.694 68.0044 279.903 76.392 286.599C84.7795 293.294 88.435 294.481 92.3033 294.031C96.1716 293.595 103.57 298.286 113.723 298.436C123.876 298.586 128.983 298.79 136.094 297.495C143.205 296.213 157.363 291.89 159.516 291.495C161.657 291.099 169.531 289.258 172.624 287.076C175.716 284.894 179.697 274.135 185.242 268.285C190.801 262.421 198.325 249.371 198.325 249.371C197.799 250.966 187.621 256.516 180.035 259.135H180.022Z" fill="#EDDB49" stroke="#301904" stroke-width="3" stroke-linecap="round" stroke-linejoin="round"/>
<path d="M203.808 224.238C202.03 220.57 197.674 214.979 195.696 212.524C195.971 214.897 191.978 219.411 191.978 219.411C191.978 219.411 187.296 225.861 185.193 228.466C183.09 231.07 175.441 232.093 170.17 235.789C164.9 239.47 157.914 239.334 148.838 241.789C139.762 244.243 136.269 244.721 128.157 242.675C120.045 240.63 109.78 238.366 103.633 235.543C102.369 234.97 101.63 234.384 101.229 233.825C101.229 233.825 101.229 233.825 101.229 233.811C101.067 233.579 100.967 233.348 100.929 233.116C100.466 233.307 99.3266 235.42 96.4723 244.407C93.28 254.457 92.1158 259.475 92.3536 262.257C92.4788 263.757 93.0046 264.603 93.8559 265.216C96.272 266.962 97.8744 269.226 109.579 272.785C121.284 276.344 120.483 279.44 127.381 276.221C134.266 273.003 135.243 270.848 140.964 271.503C146.685 272.158 156.037 267.317 163.31 265.216C170.583 263.116 172.461 261.766 180.047 259.148C187.634 256.53 197.812 250.98 198.337 249.384C198.863 247.789 201.354 238.816 203.833 234.698C206.312 230.579 206.162 229.052 203.833 224.238H203.808Z" fill="#AB9530" stroke="#301904" stroke-width="3" stroke-linecap="round" stroke-linejoin="round"/>
<path d="M209.504 244.039C207.539 244.23 200.065 241.802 200.065 241.802C200.065 241.802 197.323 252.739 193.768 257.375C190.225 262.012 181.737 273.071 175.027 284.158C168.33 295.244 164.236 296.813 166.364 298.558C168.493 300.304 182.401 313.163 188.498 320.772C194.594 328.381 196.71 333.482 202.156 335.486C207.601 337.491 206.8 335.895 206.8 335.895C206.8 335.895 206.587 305.226 208.728 300.522C210.856 295.831 212.258 288.453 214.211 284.144C216.164 279.835 215.976 274.394 216.765 272.73C217.554 271.067 216.101 263.812 216.101 263.812L209.492 244.039H209.504Z" fill="#AB9530" stroke="#301904" stroke-width="3" stroke-linecap="round" stroke-linejoin="round"/>
<path d="M242.616 251.075C242.616 251.075 262.058 253.748 263.61 257.989C265.15 262.23 267.403 270.589 268.029 272.253C268.655 273.917 265.851 281.144 264.461 287.076C263.072 292.995 263.672 291.29 261.682 297.508C259.691 303.726 261.419 304.954 259.641 309.018C257.864 313.081 259.416 312.631 256.537 316.9C253.657 321.168 256.725 325.572 250.453 326.991C244.193 328.395 234.729 331.177 232.213 332.555C229.697 333.932 206.825 335.895 206.825 335.895C206.825 335.895 200.215 309.454 201.429 306.168C202.656 302.881 205.31 282.658 206.825 280.967C208.34 279.262 210.03 260.798 218.292 259.844C226.554 258.889 242.628 251.075 242.628 251.075H242.616Z" fill="#907A26" stroke="#301904" stroke-width="3" stroke-linecap="round" stroke-linejoin="round"/>
<path d="M238.66 213.588C238.66 213.588 207.426 222.684 205.611 228.684C203.808 234.684 199.026 241.352 199.764 244.68C200.503 248.007 203.533 262.516 206.812 265.953C210.092 269.376 214.712 268.039 225.052 265.953C235.393 263.866 239.849 263.594 246.034 263.825C252.218 264.057 267.891 261.862 263.773 251.907C259.654 241.952 256.562 232.625 254.884 227.293C253.194 221.961 243.655 212.047 238.66 213.588Z" fill="#EDDB49" stroke="#301904" stroke-width="3" stroke-linecap="round" stroke-linejoin="round"/>
<path d="M215.3 327.7C212.196 328.491 208.953 328.204 205.824 328.818C205.223 328.941 204.547 328.818 203.946 328.695C203.257 328.545 202.381 328.654 202.081 327.781C201.768 326.881 202.619 326.581 203.045 326.036C205.849 322.436 209.166 319.122 210.093 314.458C210.193 313.968 210.33 313.449 209.955 312.74C207.964 313.531 205.974 314.227 204.059 315.331C199.589 317.909 194.97 320.227 190.388 322.599C189.311 323.145 188.448 322.545 188.573 321.399C188.648 320.704 188.999 320.022 189.224 319.34C190.551 315.277 191.302 311.158 190.864 306.863C190.626 304.626 190.501 302.363 190.513 300.113C190.551 292.285 189.387 284.703 185.844 277.571C182.476 277.721 180.623 280.299 178.646 282.276C173.613 287.294 169.544 293.103 165.463 298.872C163.686 301.381 162.496 304.067 161.77 307.013C161.157 309.481 160.293 311.881 158.54 314.308C155.649 309.304 151.517 305.758 147.637 301.995C144.782 299.226 141.44 296.963 138.761 294.003C137.784 292.926 136.545 292.694 135.306 293.308C133.828 294.044 134.141 295.422 134.554 296.594C136.107 300.972 137.722 305.336 139.387 309.672C140.125 311.595 141.077 313.449 141.928 315.345C142.429 316.436 142.992 317.513 143.055 318.931C141.052 318.74 139.449 317.963 137.784 317.39C131.162 315.099 124.364 313.667 117.304 313.572C115.689 313.545 113.736 313.463 113.047 315.018C112.334 316.64 114.061 317.745 115.113 318.836C118.693 322.559 123 325.381 127.306 328.218C129.034 329.354 129.443 330.827 128.533 332.636C130.761 334.954 133.478 336.113 136.77 335.895C137.183 335.868 137.722 335.759 138.01 335.963C140.964 337.995 144.407 337.095 147.561 337.245C152.106 337.45 156.675 336.877 161.232 336.618C164.837 336.413 168.443 336.291 172.061 336.332C176.617 336.373 181.174 336.277 185.744 336.086C190.901 335.854 196.109 336.018 201.292 335.95C206.45 335.882 211.445 335.05 216.214 333.154C217.178 332.772 218.192 332.486 218.518 331.245C219.131 328.886 218.468 328.122 215.3 327.741V327.7Z" fill="#7C2F6D" stroke="#301904" stroke-width="3" stroke-linecap="round" stroke-linejoin="round"/>
<path d="M248.512 328.75C248.512 328.75 242.541 321.481 240.801 313.04C239.073 304.613 245.495 311.649 251.266 315.645C257.038 319.64 253.57 315.604 254.446 306.222C255.323 296.84 260.28 293.049 260.28 293.049C260.28 293.049 267.591 302.554 265.913 312.29C264.236 322.027 271.634 316.804 277.831 316.299C284.028 315.795 287.996 317.186 287.996 317.186C287.996 317.186 285.58 318.413 281.925 321.822C278.282 325.232 282.025 326.309 273.688 327.823L265.35 329.336L248.5 328.75H248.512Z" fill="#D9CC43" stroke="#301904" stroke-width="3" stroke-linecap="round" stroke-linejoin="round"/>
<path d="M255.348 268.789C253.837 269.38 252.586 268.953 251.592 267.508C251.204 266.948 250.779 266.417 250.391 265.857C249.677 264.848 248.888 264.412 247.762 265.353C246.785 266.185 245.646 265.571 244.682 265.435C239.324 264.63 233.991 264.48 228.633 265.285C227.894 265.394 227.218 265.489 227.056 264.521C227.231 263.744 227.957 263.703 228.533 263.498C230.836 262.694 233.227 262.462 235.656 262.435C236.232 262.435 236.971 262.53 237.183 261.848C237.421 261.057 236.67 260.785 236.132 260.485C234.993 259.871 233.691 259.694 232.476 259.298C231.725 259.053 230.699 258.889 230.711 257.962C230.724 257.048 231.788 256.912 232.526 256.68C234.667 256.025 236.858 256.012 239.061 256.366C239.687 256.462 240.388 256.762 240.826 256.094C241.227 255.494 240.626 255.044 240.388 254.539C239.587 252.834 238.573 251.225 237.897 249.453C237.734 249.016 237.446 248.553 237.809 248.13C238.222 247.639 238.798 247.857 239.312 247.98C240.801 248.375 241.953 249.344 243.155 250.216C244.695 251.348 244.745 251.334 245.12 249.589C245.834 246.166 249.089 244.284 251.818 243.452C252.832 243.139 253.245 243.684 253.045 244.625C252.807 245.798 252.531 246.984 252.006 248.075C250.941 250.298 250.779 252.698 250.366 255.057C250.29 255.453 250.153 255.985 250.578 256.216C251.079 256.489 251.292 255.903 251.58 255.657C252.832 254.566 254.447 254.594 255.961 254.28C256.85 254.089 257.777 254.103 258.691 254.089C259.216 254.089 259.842 253.939 260.143 254.498C260.456 255.071 259.93 255.453 259.604 255.848C259.266 256.257 258.916 256.653 258.528 257.007C256.738 258.712 255.461 260.757 254.309 262.885C254.109 263.253 253.746 263.635 254.084 264.03C254.422 264.426 254.885 264.098 255.285 264.003C256.888 263.621 258.49 263.676 260.08 263.976C260.806 264.112 261.72 264.685 260.906 265.285C259.166 266.58 257.401 267.917 255.348 268.762V268.789Z" fill="#7C2F6D"/>
<path d="M233.14 261.753C232.251 261.89 231.375 262.053 230.511 262.258C228.508 262.721 226.567 263.321 224.952 264.985C225.854 265.081 226.455 264.781 227.068 264.535C229.96 263.131 233.077 262.844 236.232 262.899C237.033 262.899 237.634 262.79 237.859 262.026C238.085 261.262 237.646 260.853 236.97 260.444C235.531 259.571 233.878 259.353 232.313 258.876C231.738 258.699 231.011 258.453 230.961 258.003C230.911 257.539 231.7 257.376 232.213 257.226C234.679 256.476 237.183 256.217 239.687 257.008C240.513 257.267 241.026 256.98 241.465 256.394C241.915 255.794 241.452 255.412 241.139 254.894C239.837 252.794 238.773 250.558 237.747 248.076C238.172 248.144 238.372 248.171 238.56 248.212C240.739 248.621 242.241 250.148 243.906 251.362C244.945 252.112 245.358 251.73 245.496 250.735C246.034 246.862 248.863 244.148 252.919 243.766C252.769 244.298 252.619 244.789 252.481 245.28C251.755 247.871 250.491 250.312 250.228 253.026C250.09 254.458 249.301 255.944 250.553 257.362C253.007 254.062 256.675 254.798 260.118 254.58C257.689 257.144 255.511 259.776 253.808 262.803C253.232 263.826 253.395 264.344 253.908 265.081C256.274 263.717 258.678 264.003 261.582 264.808C259.053 266.035 257.038 267.181 255.36 268.79C255.035 269.376 255.21 269.908 255.623 270.372C255.986 270.767 256.362 270.44 256.6 270.235C258.44 268.681 260.681 267.781 262.784 266.69C263.786 266.171 264.299 265.394 264.199 264.481C264.099 263.662 263.222 263.185 262.383 262.94C260.556 262.394 258.728 261.821 256.763 262.012C256.475 262.04 255.999 262.421 255.786 261.903C255.648 261.59 255.974 261.371 256.124 261.099C257.338 258.958 259.154 257.294 260.831 255.535C261.332 255.003 262.521 254.812 262.208 253.858C261.883 252.876 260.656 253.135 259.855 252.808C259.679 252.739 259.442 252.848 259.229 252.821C256.687 252.562 254.246 253.135 251.88 253.653C251.818 252.03 252.281 250.544 252.706 249.044C253.27 247.039 254.321 245.212 254.797 243.18C255.085 241.953 254.747 241.653 253.558 241.912C251.555 242.335 249.727 243.153 248.075 244.312C246.134 245.676 244.932 247.517 244.356 250.012C242.266 248.021 239.912 247.162 237.396 246.603C235.919 246.262 235.693 246.426 235.981 247.926C236.194 248.989 236.582 249.998 237.096 250.98C237.709 252.153 238.222 253.38 238.811 254.662C237.884 254.608 237.208 254.526 236.52 254.539C233.916 254.608 231.462 255.221 229.309 256.708C228.633 257.171 228.107 257.785 228.257 258.658C228.395 259.435 229.059 259.667 229.772 259.83C230.911 260.103 232.051 260.444 233.177 260.771C233.528 260.88 234.028 260.99 234.003 261.399C233.978 261.89 233.465 261.726 233.115 261.78L233.14 261.753Z" fill="#301904"/>
<path d="M1340.4 339.278C1334.11 262.994 1317.01 174.342 1316.81 173.306L1313.66 174.029C1313.86 175.065 1330.87 263.308 1337.16 339.278C1338.23 339.278 1339.31 339.278 1340.4 339.278Z" fill="#7C2F6D" stroke="#301904" stroke-miterlimit="10"/>
<path d="M1338.35 339.277C1328.52 258.78 1332.5 114.504 1332.54 112.909L1329.32 112.8C1329.27 114.395 1325.31 258.276 1335.09 339.264C1336.18 339.264 1337.26 339.264 1338.35 339.277Z" fill="#E682D6" stroke="#301904" stroke-miterlimit="10"/>
<path d="M1350.9 339.21C1363.62 266.404 1365.87 154.242 1365.9 152.974L1362.67 152.906C1362.64 154.174 1360.38 266.881 1347.61 339.278C1348.71 339.278 1349.8 339.223 1350.9 339.21Z" fill="#7C2F6D" stroke="#301904" stroke-miterlimit="10"/>
<path d="M1331.31 121.759C1327.78 121.8 1324.86 118.691 1324.82 114.859L1324.22 53.1668C1324.19 49.3349 1327.04 46.1575 1330.57 46.1166C1334.1 46.0757 1337.02 49.1849 1337.06 53.0168L1337.66 114.709C1337.69 118.541 1334.84 121.718 1331.31 121.759Z" fill="#EDDB49" stroke="#301904" stroke-width="2" stroke-miterlimit="10"/>
<g style="mix-blend-mode:screen">
<path d="M1330.95 52.308C1330.8 50.8352 1330.36 49.2125 1328.86 48.8307C1328.07 48.6261 1327.44 48.9807 1327.07 49.5807C1325.65 50.4671 1325.41 53.1126 1325.29 54.6263C1325.11 56.7945 1325.1 59.0991 1325.4 61.2673C1325.56 62.4401 1325.91 64.0628 1326.88 64.7855C1328.04 65.6583 1329.18 64.0764 1329.68 63.1082C1331.33 59.9445 1331.31 55.8263 1330.95 52.3217V52.308Z" fill="#C76157"/>
</g>
<g style="mix-blend-mode:screen">
<path d="M1328.22 71.0991C1328.56 70.2809 1328.51 69.3127 1327.99 68.5764C1327.92 68.4673 1327.74 68.4945 1327.63 68.5354C1327.54 68.5763 1327.44 68.6309 1327.37 68.7127C1327.23 68.7945 1327.13 68.9037 1327.03 69.0264C1326.63 69.5309 1326.46 70.2946 1326.61 70.9491C1326.63 71.3582 1326.75 71.7674 1327.02 72.0946C1327.14 72.2583 1327.43 72.1218 1327.55 72.0264C1327.63 71.9582 1327.69 71.8764 1327.77 71.8082C1327.84 71.7401 1327.93 71.6719 1327.98 71.5901C1328.03 71.5219 1328.05 71.4264 1328.09 71.3582C1328.14 71.2764 1328.18 71.1946 1328.22 71.0991Z" fill="#C76157"/>
</g>
<path d="M1316.2 185.933C1312.71 186.465 1309.44 183.806 1308.94 180.015L1300.96 118.937C1300.46 115.146 1302.93 111.6 1306.42 111.055C1309.91 110.523 1313.18 113.182 1313.68 116.973L1321.66 178.051C1322.16 181.842 1319.7 185.388 1316.2 185.933Z" fill="#EDDB49" stroke="#301904" stroke-width="2" stroke-miterlimit="10"/>
<g style="mix-blend-mode:screen">
<path d="M1307.55 117.123C1307.22 115.691 1306.6 114.136 1305.06 113.973C1304.26 113.877 1303.68 114.327 1303.38 114.968C1302.08 116.059 1302.15 118.705 1302.22 120.218C1302.3 122.4 1302.57 124.678 1303.12 126.778C1303.42 127.909 1303.96 129.478 1305 130.064C1306.25 130.759 1307.19 129.041 1307.57 128.005C1308.84 124.637 1308.33 120.559 1307.54 117.123H1307.55Z" fill="#C76157"/>
</g>
<g style="mix-blend-mode:screen">
<path d="M1307.09 136.132C1307.32 135.273 1307.16 134.318 1306.56 133.664C1306.47 133.555 1306.3 133.623 1306.2 133.664C1306.11 133.718 1306.02 133.787 1305.96 133.882C1305.83 133.978 1305.75 134.1 1305.66 134.237C1305.32 134.796 1305.26 135.573 1305.48 136.2C1305.55 136.609 1305.72 136.991 1306.02 137.291C1306.17 137.441 1306.45 137.264 1306.55 137.141C1306.62 137.073 1306.67 136.978 1306.72 136.896C1306.8 136.814 1306.86 136.732 1306.91 136.65C1306.95 136.569 1306.96 136.487 1306.99 136.405C1307.02 136.309 1307.05 136.228 1307.07 136.132H1307.09Z" fill="#C76157"/>
</g>
<path d="M1363.46 158.51C1359.93 158.319 1357.19 155.033 1357.36 151.201L1360.18 89.5902C1360.35 85.7583 1363.38 82.7856 1366.91 82.9765C1370.44 83.1674 1373.18 86.4538 1373.01 90.2857L1370.19 151.896C1370.02 155.728 1366.99 158.701 1363.46 158.51Z" fill="#EDDB49" stroke="#301904" stroke-width="2" stroke-miterlimit="10"/>
<g style="mix-blend-mode:screen">
<path d="M1366.94 89.1677C1366.86 87.6813 1366.53 86.0449 1365.04 85.554C1364.26 85.2949 1363.62 85.6221 1363.21 86.1812C1361.74 86.9722 1361.35 89.5905 1361.15 91.1041C1360.87 93.2587 1360.72 95.5633 1360.9 97.7315C1361 98.9043 1361.27 100.554 1362.18 101.345C1363.3 102.286 1364.52 100.786 1365.07 99.8452C1366.9 96.8042 1367.1 92.6859 1366.94 89.154V89.1677Z" fill="#C76157"/>
</g>
<g style="mix-blend-mode:screen">
<path d="M1363.17 107.741C1363.56 106.936 1363.56 105.982 1363.08 105.205C1363.01 105.082 1362.83 105.109 1362.73 105.15C1362.63 105.177 1362.54 105.232 1362.46 105.3C1362.32 105.368 1362.21 105.464 1362.11 105.586C1361.68 106.064 1361.47 106.814 1361.59 107.482C1361.59 107.891 1361.68 108.3 1361.93 108.655C1362.06 108.832 1362.34 108.709 1362.48 108.627C1362.57 108.573 1362.63 108.491 1362.71 108.423C1362.79 108.355 1362.87 108.286 1362.93 108.218C1362.98 108.15 1363.01 108.068 1363.06 107.986C1363.11 107.905 1363.14 107.823 1363.19 107.741H1363.17Z" fill="#C76157"/>
</g>
<path d="M1359.23 339.032C1359.76 336.878 1360.27 334.723 1360.83 332.582C1364.22 319.764 1368.21 307.136 1372.88 294.795C1376.85 284.295 1381.22 273.931 1386.2 263.949C1391.05 254.253 1396.48 244.871 1402.7 236.13C1405.58 232.093 1408.65 228.193 1411.92 224.511C1399.15 234.384 1388.86 247.517 1380.46 261.876C1370.59 278.745 1362.82 297.072 1356.96 315.986C1355.06 322.136 1353.37 328.355 1351.87 334.614C1352.75 326.691 1353.42 318.727 1354.16 310.791C1354.76 304.259 1355.46 297.727 1355.9 291.181C1356.28 285.372 1356.62 279.535 1356.84 273.713C1357.01 268.899 1357.12 263.349 1354.96 258.971C1354.87 259.353 1354.79 259.735 1354.72 260.13C1353.02 268.612 1352.59 277.299 1351.41 285.863C1350.06 295.654 1349.51 305.554 1347.97 315.318C1347.95 315.468 1347.9 315.577 1347.82 315.659C1346.85 323.295 1345.91 330.918 1344.4 338.459C1344.35 338.732 1344.32 339.005 1344.25 339.278C1349.25 339.264 1354.24 339.196 1359.24 339.032H1359.23Z" fill="#E682D6" stroke="#301904" stroke-miterlimit="10"/>
<path d="M1321.62 255.112C1324.54 265.34 1326.6 275.881 1328.27 286.436C1329.97 297.222 1331.12 308.173 1331.21 319.123C1331.27 325.819 1330.96 332.487 1330.51 339.169C1334.45 339.251 1338.4 339.278 1342.35 339.278C1342.5 333.673 1342.55 328.055 1342.39 322.45C1342.06 311.309 1341.06 300.182 1339.12 289.245C1338.16 283.804 1336.96 278.404 1335.49 273.085C1334.04 267.808 1332.29 262.64 1330.53 257.485C1328.41 251.199 1326.16 244.912 1323.57 238.817C1322.58 236.989 1321.58 235.162 1320.58 233.335C1317.39 227.58 1313.93 222.016 1309.85 216.957C1307.85 214.475 1305.66 212.225 1303.48 209.92C1301.8 208.134 1300.21 206.252 1298.54 204.479C1298.47 204.411 1298.41 204.357 1298.35 204.289C1302.97 210.916 1307.6 217.543 1310.83 225.125C1314.99 234.862 1318.69 244.844 1321.62 255.112Z" fill="#E682D6" stroke="#301904" stroke-miterlimit="10"/>
<path d="M1276.18 220.652C1283.41 230.47 1290.22 240.684 1296.21 251.471C1302.17 262.217 1307.25 273.576 1311.87 285.072C1316.6 296.826 1320.73 308.922 1323.67 321.359C1325.06 327.222 1326.19 333.141 1327.2 339.1C1331.89 339.209 1336.55 339.264 1341.22 339.277C1340.02 333.4 1338.75 327.536 1337.24 321.741C1333.99 309.168 1329.98 296.826 1324.94 284.963C1322.43 279.058 1319.67 273.29 1316.62 267.685C1313.61 262.135 1310.28 256.789 1306.96 251.457C1302.9 244.953 1298.74 238.489 1294.22 232.352C1292.61 230.566 1291.01 228.793 1289.38 227.034C1284.28 221.457 1278.91 216.179 1272.95 211.679C1270.02 209.47 1266.95 207.574 1263.88 205.624C1261.5 204.111 1259.21 202.461 1256.85 200.947C1256.76 200.893 1256.67 200.838 1256.58 200.783C1263.55 206.906 1270.53 213.043 1276.16 220.679L1276.18 220.652Z" fill="#7C2F6D" stroke="#301904" stroke-miterlimit="10"/>
<path d="M1338.03 277.381C1339.02 288.931 1340.95 300.359 1341.72 311.936C1341.72 312.114 1341.7 312.25 1341.64 312.373C1342.5 321.332 1343.4 330.278 1343.65 339.278C1349.3 339.278 1354.96 339.169 1360.6 338.964C1360.64 335.187 1360.7 331.41 1360.83 327.632C1361.38 312.018 1362.66 296.431 1364.77 280.981C1366.57 267.822 1368.87 254.717 1371.96 241.83C1374.96 229.325 1378.71 216.998 1383.52 205.161C1385.75 199.693 1388.23 194.32 1391.01 189.138C1379.03 204.261 1370.73 222.343 1364.9 241.23C1358.04 263.417 1353.94 286.627 1352.17 309.945C1351.59 317.514 1351.28 325.096 1351.18 332.691C1350.14 323.405 1348.82 314.145 1347.62 304.886C1346.62 297.263 1345.72 289.64 1344.53 282.058C1343.46 275.322 1342.34 268.599 1341.07 261.903C1340.02 256.367 1338.73 250.026 1335.13 245.703C1335.13 246.167 1335.13 246.63 1335.15 247.094C1335.42 257.253 1337.18 267.276 1338.04 277.381H1338.03Z" fill="#7C2F6D" stroke="#301904" stroke-miterlimit="10"/>
<path d="M1317.45 342.509C1317.45 342.509 1316.12 336.959 1311.27 330.032C1307.21 324.25 1309.94 324.659 1315.26 327.686C1320.58 330.714 1320.68 331.545 1320.68 331.545C1320.68 331.545 1320.26 323.159 1319.15 321.577C1318.04 320.009 1321.37 321.372 1323.45 323.486C1325.53 325.6 1326.36 326.854 1326.36 326.854C1326.36 326.854 1328.39 321.522 1329.82 319.177C1331.36 316.668 1332.5 317.118 1334.41 322.859C1336.34 328.6 1335.37 322.368 1338.63 315.931C1340.99 311.281 1345.52 307.886 1347.85 306.372C1348.3 306.072 1348.84 306.549 1348.69 307.095C1348.28 308.486 1347.87 310.804 1348.11 314.104C1348.52 319.982 1348.65 323.486 1348.65 323.486C1348.65 323.486 1352.18 320.022 1357.21 317.118C1360.37 315.29 1363.28 315.195 1365.01 315.359C1365.5 315.413 1365.65 316.095 1365.22 316.368C1363.93 317.213 1362.13 318.945 1361.48 322.245C1360.43 327.618 1356.1 331.368 1356.1 331.368C1356.1 331.368 1357.65 330.891 1360.54 330.891C1363.43 330.891 1358.21 332.827 1357.1 335.241C1355.98 337.655 1355.09 342.509 1355.09 342.509H1317.44H1317.45Z" fill="#EA497F" stroke="#301904" stroke-width="2" stroke-miterlimit="10"/>
<path d="M1426.48 335.446C1423.65 329.459 1425.81 332.909 1425.48 325.096C1425.14 317.295 1420.14 316.204 1417.45 313.477C1417.89 316.491 1416.6 320.404 1415.65 323.636C1414.15 328.723 1413.32 330.168 1412.48 331.082C1411.64 331.996 1405.32 336.168 1401.31 337.791C1397.32 339.428 1392.99 341.787 1385.82 340.328C1378.66 338.882 1374.65 341.241 1371.82 341.964C1368.99 342.687 1350.49 342.51 1345.83 341.964C1341.16 341.419 1341.34 337.968 1339.3 335.064C1337.97 333.168 1338.53 332.65 1339 331.014C1338.81 331.218 1338.63 331.423 1338.47 331.614C1333.11 338.146 1338.83 351.578 1338.47 352.301C1338.11 353.023 1344.49 353.569 1346.83 353.746C1349.16 353.923 1363.5 361.192 1367.83 362.01C1372.16 362.842 1378.99 365.174 1392.65 365.896C1406.31 366.619 1409.15 365.174 1419.14 364.451C1429.14 363.728 1429.64 358.096 1431.81 351.019C1433.98 343.941 1429.31 341.405 1426.48 335.405V335.446Z" fill="#907A26" stroke="#301904" stroke-width="2" stroke-miterlimit="10"/>
<path d="M1339.3 335.091C1341.32 337.996 1341.16 341.446 1345.83 341.991C1350.5 342.537 1368.99 342.714 1371.82 341.991C1374.65 341.268 1378.66 338.909 1385.82 340.355C1392.98 341.8 1397.31 339.441 1401.31 337.818C1405.31 336.182 1411.64 332.009 1412.48 331.109C1413.32 330.195 1414.15 328.75 1415.65 323.664C1416.6 320.418 1417.9 316.518 1417.45 313.504C1417.2 311.786 1416.39 310.368 1414.65 309.509C1409.81 307.15 1402.98 303.699 1397.98 302.977C1392.99 302.254 1388.98 302.254 1383.65 299.158C1378.32 296.077 1367.65 293.349 1360.49 294.617C1357.89 295.081 1355 299.704 1353.33 300.795C1351.67 301.886 1351 302.24 1349 305.336C1347 308.418 1344.5 310.054 1342.84 314.772C1341.17 319.491 1339.01 321.673 1339.33 327.114C1339.45 328.996 1339.23 330.182 1339 331.041C1338.53 332.691 1337.97 333.196 1339.3 335.091Z" fill="#EDDB49" stroke="#301904" stroke-width="2" stroke-miterlimit="10"/>
<path d="M1367.86 357.046C1367.9 352.041 1367.15 354.319 1366.31 349.778C1365.47 345.237 1362.99 341.664 1362.82 341.296C1362.82 341.296 1362.82 341.296 1362.81 341.296C1364.42 344.664 1364.41 349.301 1364.66 352.328C1365 356.501 1363.5 356.323 1360.67 359.405C1357.84 362.487 1352.83 361.396 1350.66 361.219C1348.5 361.042 1344.5 361.942 1335.83 359.405C1327.17 356.869 1323.66 364.492 1316.16 361.219C1313.97 360.264 1312.79 359.187 1312.24 358.014C1312.59 360.578 1316.19 367.669 1318.44 370.137C1320.71 372.606 1320.34 371.692 1328.92 372.865C1337.49 374.037 1336.18 373.26 1347.61 372.346C1359.04 371.433 1360.59 371.951 1361.3 370.396C1362.02 368.842 1362.86 367.806 1366.42 364.955C1369.99 362.105 1367.81 362.051 1367.85 357.046H1367.86Z" fill="#AB9530" stroke="#301904" stroke-width="2" stroke-linecap="round" stroke-linejoin="round"/>
<path d="M1316.17 361.219C1323.67 364.492 1327.17 356.869 1335.84 359.405C1344.5 361.942 1348.51 361.042 1350.68 361.219C1352.84 361.396 1357.84 362.487 1360.68 359.405C1363.51 356.323 1365.01 356.501 1364.67 352.328C1364.43 349.301 1364.45 344.664 1362.82 341.296C1362.21 340.014 1361.37 338.923 1360.17 338.173C1355.83 335.446 1341.17 332.364 1341.17 332.364C1339.85 332.541 1337.18 332.909 1333.01 334.355C1328.84 335.8 1323.85 337.982 1321.18 340.341C1318.52 342.7 1315.02 344.146 1314.02 348.687C1313.32 351.891 1310.94 355.191 1312.27 358.014C1312.82 359.173 1314 360.264 1316.19 361.219H1316.17Z" fill="#EDDB49" stroke="#301904" stroke-width="2" stroke-miterlimit="10"/>
<path d="M1403.32 306.849C1402.47 307.222 1401.76 306.954 1401.2 306.045C1400.99 305.69 1400.74 305.349 1400.53 305.008C1400.12 304.367 1399.67 304.095 1399.05 304.695C1398.5 305.213 1397.86 304.831 1397.31 304.749C1394.29 304.245 1391.27 304.149 1388.26 304.654C1387.84 304.722 1387.46 304.79 1387.37 304.177C1387.47 303.686 1387.88 303.658 1388.21 303.536C1389.51 303.017 1390.86 302.881 1392.23 302.867C1392.55 302.867 1392.96 302.922 1393.09 302.499C1393.23 302.008 1392.8 301.831 1392.49 301.64C1391.85 301.245 1391.11 301.149 1390.42 300.89C1390 300.727 1389.42 300.631 1389.42 300.045C1389.42 299.458 1390.02 299.376 1390.45 299.24C1391.66 298.817 1392.89 298.817 1394.13 299.035C1394.48 299.104 1394.88 299.295 1395.13 298.872C1395.36 298.49 1395.02 298.204 1394.88 297.89C1394.43 296.813 1393.85 295.79 1393.48 294.672C1393.39 294.399 1393.23 294.099 1393.43 293.826C1393.67 293.513 1393.99 293.649 1394.28 293.731C1395.12 293.976 1395.77 294.59 1396.44 295.149C1397.31 295.858 1397.35 295.858 1397.55 294.754C1397.95 292.585 1399.79 291.399 1401.31 290.867C1401.89 290.676 1402.12 291.004 1402 291.604C1401.86 292.354 1401.71 293.104 1401.41 293.785C1400.81 295.19 1400.73 296.704 1400.49 298.19C1400.45 298.435 1400.36 298.776 1400.6 298.926C1400.88 299.09 1401 298.736 1401.16 298.572C1401.88 297.89 1402.78 297.89 1403.63 297.699C1404.13 297.576 1404.66 297.576 1405.17 297.576C1405.46 297.576 1405.82 297.481 1406 297.835C1406.17 298.204 1405.87 298.449 1405.7 298.695C1405.51 298.954 1405.31 299.199 1405.09 299.431C1404.08 300.508 1403.37 301.804 1402.72 303.154C1402.6 303.386 1402.4 303.631 1402.59 303.877C1402.78 304.122 1403.04 303.917 1403.27 303.863C1404.17 303.617 1405.07 303.658 1405.97 303.863C1406.38 303.945 1406.9 304.313 1406.43 304.695C1405.46 305.513 1404.46 306.358 1403.29 306.89L1403.32 306.849Z" fill="#D9CC43" stroke="#301904" stroke-miterlimit="10"/>
<path d="M1390.79 302.39C1390.29 302.472 1389.8 302.581 1389.3 302.704C1388.17 303.004 1387.07 303.372 1386.15 304.422C1386.67 304.491 1387.01 304.286 1387.34 304.136C1388.97 303.25 1390.72 303.072 1392.51 303.1C1392.96 303.1 1393.3 303.031 1393.43 302.554C1393.55 302.077 1393.31 301.804 1392.93 301.545C1392.11 300.986 1391.19 300.849 1390.3 300.563C1389.97 300.454 1389.56 300.304 1389.53 300.004C1389.51 299.718 1389.95 299.609 1390.23 299.513C1391.62 299.036 1393.04 298.872 1394.45 299.377C1394.93 299.54 1395.2 299.363 1395.46 298.995C1395.71 298.613 1395.46 298.368 1395.27 298.054C1394.53 296.718 1393.93 295.313 1393.35 293.745C1393.59 293.786 1393.7 293.799 1393.82 293.827C1395.04 294.086 1395.89 295.054 1396.83 295.818C1397.42 296.295 1397.65 296.049 1397.72 295.422C1398.02 292.981 1399.62 291.249 1401.9 291.017C1401.81 291.358 1401.73 291.658 1401.65 291.972C1401.24 293.608 1400.53 295.149 1400.38 296.868C1400.3 297.768 1399.86 298.709 1400.56 299.609C1401.95 297.522 1404.02 297.986 1405.96 297.849C1404.59 299.472 1403.37 301.136 1402.4 303.045C1402.08 303.686 1402.18 304.013 1402.45 304.49C1403.79 303.631 1405.14 303.809 1406.78 304.327C1405.36 305.104 1404.22 305.827 1403.27 306.836C1403.08 307.204 1403.18 307.545 1403.42 307.831C1403.62 308.077 1403.83 307.872 1403.97 307.75C1405.01 306.768 1406.27 306.195 1407.46 305.513C1408.02 305.186 1408.31 304.695 1408.25 304.109C1408.2 303.591 1407.7 303.29 1407.22 303.127C1406.2 302.786 1405.16 302.418 1404.06 302.54C1403.89 302.554 1403.63 302.799 1403.5 302.472C1403.43 302.268 1403.6 302.131 1403.69 301.968C1404.38 300.618 1405.4 299.568 1406.35 298.449C1406.63 298.122 1407.3 297.999 1407.12 297.399C1406.93 296.772 1406.25 296.949 1405.8 296.731C1405.7 296.69 1405.56 296.758 1405.45 296.731C1404.02 296.568 1402.63 296.922 1401.3 297.249C1401.26 296.227 1401.53 295.286 1401.76 294.331C1402.09 293.063 1402.68 291.904 1402.94 290.622C1403.1 289.845 1402.92 289.654 1402.24 289.818C1401.11 290.09 1400.09 290.595 1399.15 291.331C1398.06 292.19 1397.37 293.363 1397.06 294.931C1395.88 293.677 1394.55 293.131 1393.14 292.777C1392.3 292.558 1392.18 292.667 1392.35 293.608C1392.48 294.277 1392.69 294.918 1392.98 295.545C1393.33 296.281 1393.62 297.058 1393.95 297.877C1393.43 297.849 1393.05 297.795 1392.66 297.795C1391.2 297.836 1389.81 298.218 1388.6 299.159C1388.22 299.459 1387.92 299.84 1388.01 300.386C1388.08 300.877 1388.46 301.027 1388.86 301.136C1389.51 301.313 1390.13 301.518 1390.77 301.722C1390.97 301.79 1391.25 301.859 1391.24 302.118C1391.22 302.431 1390.94 302.322 1390.74 302.363L1390.79 302.39Z" fill="#301904"/>
<path d="M1462.83 363.824C1462.83 363.824 1464.16 358.274 1469.02 351.346C1473.07 345.565 1470.34 345.974 1465.02 349.001C1459.7 352.028 1459.6 352.86 1459.6 352.86C1459.6 352.86 1460.03 344.474 1461.13 342.892C1462.24 341.323 1458.91 342.687 1456.83 344.801C1454.76 346.915 1453.92 348.169 1453.92 348.169C1453.92 348.169 1451.89 342.837 1450.46 340.492C1448.92 337.982 1447.78 338.433 1445.87 344.174C1443.94 349.915 1444.92 343.683 1441.65 337.246C1439.3 332.596 1434.76 329.2 1432.44 327.687C1431.99 327.387 1431.45 327.864 1431.6 328.41C1432 329.8 1432.41 332.119 1432.17 335.419C1431.76 341.296 1431.63 344.801 1431.63 344.801C1431.63 344.801 1428.1 341.337 1423.07 338.432C1419.92 336.605 1417 336.51 1415.27 336.673C1414.78 336.728 1414.63 337.41 1415.06 337.683C1416.35 338.528 1418.15 340.26 1418.8 343.56C1419.85 348.933 1424.19 352.683 1424.19 352.683C1424.19 352.683 1422.63 352.206 1419.74 352.206C1416.86 352.206 1422.07 354.142 1423.18 356.556C1424.3 358.969 1425.19 363.824 1425.19 363.824H1462.84H1462.83Z" fill="#EA497F" stroke="#301904" stroke-width="2" stroke-miterlimit="10"/>
<path d="M1427.32 359.882C1423.6 362.91 1419.59 362.487 1414.9 362.378C1410.2 362.269 1408.35 361.737 1405.41 361.955C1402.48 362.173 1401.3 361.205 1399.94 357.905C1399.77 357.523 1399.7 357.128 1399.66 356.732C1399.66 356.814 1399.65 356.882 1399.65 356.978C1399.7 359.992 1402 368.228 1401.76 369.346C1401.53 370.464 1406.95 371.023 1411.87 371.351C1416.77 371.692 1423.62 369.673 1426.09 368.678C1428.54 367.669 1428.24 365.364 1430.48 363.742C1432.74 362.105 1432.99 354.946 1432.99 354.946C1432.21 357.291 1431.03 356.882 1427.32 359.91V359.882Z" fill="#AB9530" stroke="#301904" stroke-width="2" stroke-linecap="round" stroke-linejoin="round"/>
<path d="M1424.67 350.868C1422.62 350.65 1418.9 350.228 1414.9 349.082C1410.89 347.937 1410.99 348.741 1408.84 347.623C1406.68 346.518 1403.86 347.664 1402.48 350.119C1402.48 350.119 1399.42 353.623 1399.66 356.719C1399.7 357.128 1399.77 357.523 1399.94 357.891C1401.3 361.191 1402.48 362.146 1405.41 361.941C1408.34 361.723 1410.2 362.255 1414.9 362.364C1419.59 362.473 1423.6 362.896 1427.32 359.869C1431.03 356.841 1432.2 357.251 1432.99 354.905C1433.76 352.56 1426.73 351.073 1424.67 350.855V350.868Z" fill="#EDDB49" stroke="#301904" stroke-width="2" stroke-miterlimit="10"/>
<path d="M1470.05 367.533C1468.05 369.156 1465.9 368.938 1463.38 368.869C1460.85 368.815 1459.33 367.056 1459.3 366.838C1459.3 366.878 1459.3 366.919 1459.3 366.96C1459.33 368.583 1460.68 370.574 1460.55 371.174C1460.43 371.774 1463.34 372.074 1465.99 372.251C1468.63 372.429 1468.08 372.783 1469.4 372.251C1470.72 371.706 1470.56 370.465 1471.77 369.592C1472.98 368.719 1473.12 364.86 1473.12 364.86C1472.7 366.115 1472.07 365.897 1470.07 367.533H1470.05Z" fill="#AB9530" stroke="#301904" stroke-width="2" stroke-linecap="round" stroke-linejoin="round"/>
<path d="M1468.64 362.692C1467.54 362.582 1461.55 361.982 1460.82 363.305C1460.82 363.305 1459.18 365.187 1459.3 366.851C1459.31 367.069 1459.36 367.274 1459.45 367.478C1460.19 369.251 1468.06 369.155 1470.06 367.533C1472.06 365.91 1472.68 366.128 1473.11 364.86C1473.54 363.605 1469.74 362.801 1468.64 362.678V362.692Z" fill="#EDDB49" stroke="#301904" stroke-width="2" stroke-miterlimit="10"/>
<path d="M1329.59 375.224C1329.64 374.392 1330.48 372.933 1328.97 371.256C1328.34 370.574 1327.99 370.301 1327.77 370.247C1328.18 370.833 1327.93 371.665 1327.98 372.279C1328.05 373.383 1327.6 373.301 1327.14 374.106C1326.68 374.911 1325.91 374.747 1324.6 374.897C1323.29 375.047 1322.88 374.951 1322.25 375.156C1321.61 375.361 1321.28 375.088 1320.42 374.651C1319.55 374.229 1319.5 374.938 1318.3 374.651C1317.74 374.515 1317.51 374.256 1317.5 373.915C1317.48 373.942 1317.45 373.983 1317.44 374.011C1317.01 374.692 1317.65 375.374 1317.88 375.865C1318.11 376.356 1321.29 376.861 1322.87 377.011C1324.45 377.161 1324.66 377.188 1326.59 377.365C1328.53 377.556 1327.45 377.174 1328.76 376.656C1330.06 376.138 1329.54 376.07 1329.59 375.224Z" fill="#AB9530" stroke="#301904" stroke-width="2" stroke-linecap="round" stroke-linejoin="round"/>
<path d="M1318.29 374.651C1319.5 374.951 1319.55 374.229 1320.41 374.651C1321.27 375.074 1321.59 375.347 1322.23 375.156C1322.87 374.965 1323.27 375.047 1324.59 374.897C1325.9 374.747 1326.66 374.897 1327.13 374.106C1327.59 373.315 1328.05 373.383 1327.97 372.279C1327.92 371.665 1328.17 370.847 1327.75 370.247C1327.43 369.769 1326.68 369.456 1325.02 369.51C1324.56 369.524 1322.5 369.483 1321.78 369.742C1321.07 370.001 1321.39 369.742 1320.42 370.397C1319.44 371.051 1318.92 371.406 1318.15 372.456C1317.74 373.015 1317.48 373.519 1317.49 373.915C1317.5 374.256 1317.73 374.515 1318.29 374.651Z" fill="#EDDB49" stroke="#301904" stroke-width="2" stroke-miterlimit="10"/>
<path d="M1140.69 271.34C1140.8 269.376 1142.78 265.94 1139.21 262.026C1137.74 260.417 1136.92 259.803 1136.37 259.64C1137.33 261.031 1136.76 262.967 1136.87 264.399C1137.06 266.99 1135.98 266.813 1134.89 268.694C1133.8 270.576 1132.01 270.194 1128.92 270.563C1125.83 270.931 1124.9 270.699 1123.4 271.176C1121.9 271.64 1121.13 271.013 1119.12 270.004C1117.1 268.994 1116.99 270.685 1114.13 269.99C1112.81 269.676 1112.28 269.049 1112.24 268.244C1112.18 268.313 1112.13 268.394 1112.08 268.463C1111.08 270.072 1112.57 271.681 1113.12 272.826C1113.67 273.972 1121.16 275.158 1124.85 275.513C1128.54 275.867 1129.04 275.922 1133.6 276.358C1138.15 276.795 1135.63 275.922 1138.7 274.694C1141.76 273.467 1140.56 273.304 1140.67 271.34H1140.69Z" fill="#AB9530" stroke="#301904" stroke-width="2" stroke-miterlimit="10"/>
<path d="M1114.13 269.99C1116.98 270.686 1117.1 268.995 1119.12 270.004C1121.13 271.013 1121.9 271.654 1123.4 271.177C1124.9 270.713 1125.83 270.931 1128.92 270.563C1132.01 270.195 1133.8 270.576 1134.89 268.695C1135.98 266.813 1137.06 266.99 1136.87 264.399C1136.77 262.967 1137.33 261.031 1136.37 259.64C1135.59 258.535 1133.84 257.772 1129.96 257.922C1128.87 257.963 1124.01 257.84 1122.33 258.453C1120.66 259.067 1121.43 258.453 1119.12 259.994C1116.81 261.522 1115.6 262.367 1113.8 264.822C1112.83 266.145 1112.21 267.317 1112.24 268.245C1112.28 269.049 1112.81 269.663 1114.13 269.99Z" fill="#EDDB49" stroke="#301904" stroke-width="2" stroke-miterlimit="10"/>
<path d="M1203.87 292.695C1203.98 290.8 1205.88 287.5 1202.44 283.722C1201.03 282.168 1200.24 281.581 1199.71 281.418C1200.64 282.754 1200.09 284.622 1200.19 286C1200.38 288.495 1199.34 288.318 1198.29 290.145C1197.23 291.959 1195.52 291.591 1192.54 291.945C1189.56 292.3 1188.66 292.082 1187.22 292.532C1185.77 292.982 1185.03 292.368 1183.09 291.4C1181.15 290.431 1181.03 292.054 1178.29 291.386C1177.02 291.072 1176.5 290.486 1176.48 289.709C1176.43 289.777 1176.37 289.859 1176.33 289.913C1175.36 291.468 1176.8 293.009 1177.33 294.113C1177.85 295.218 1185.08 296.35 1188.63 296.704C1192.19 297.045 1192.68 297.1 1197.06 297.509C1201.44 297.932 1199.01 297.086 1201.97 295.9C1204.92 294.713 1203.76 294.563 1203.88 292.668L1203.87 292.695Z" fill="#AB9530" stroke="#301904" stroke-width="2" stroke-miterlimit="10"/>
<path d="M1178.28 291.399C1181.02 292.068 1181.13 290.445 1183.08 291.413C1185.02 292.381 1185.75 292.995 1187.21 292.545C1188.66 292.095 1189.55 292.313 1192.53 291.959C1195.51 291.604 1197.22 291.972 1198.27 290.159C1199.32 288.345 1200.36 288.509 1200.18 286.013C1200.08 284.636 1200.63 282.768 1199.7 281.431C1198.96 280.368 1197.27 279.631 1193.52 279.767C1192.46 279.808 1187.78 279.686 1186.18 280.286C1184.56 280.872 1185.3 280.286 1183.09 281.772C1180.86 283.245 1179.7 284.063 1177.96 286.422C1177.03 287.69 1176.42 288.836 1176.45 289.722C1176.49 290.5 1177 291.086 1178.27 291.399H1178.28Z" fill="#EDDB49" stroke="#301904" stroke-width="2" stroke-miterlimit="10"/>
<path d="M1128.39 374.993C1128.42 375.879 1127.23 376.452 1126.24 378.634C1124.57 382.302 1120.51 382.616 1117.11 383.707C1113.72 384.798 1115.99 383.925 1112.74 383.707C1109.5 383.489 1107.17 383.693 1104.61 383.638C1102.04 383.584 1095.74 380.42 1089.63 375.538C1083.53 370.656 1085.65 369.102 1085.4 367.561C1085.19 366.306 1085.45 366.115 1085.82 364.943C1085.23 365.134 1084.6 365.693 1083.91 367.152C1082.34 370.479 1080.72 374.434 1080.47 376.602C1080.22 378.784 1080.37 382.084 1080.47 384.92C1080.57 387.757 1081.47 391.425 1088.41 392.448C1095.34 393.47 1092.01 392.052 1099.76 393.593C1107.52 395.134 1105.2 394.834 1109 395.134C1112.81 395.448 1116 395.502 1119.48 395.162C1122.96 394.821 1123.4 394.589 1125.45 392.761C1127.5 390.934 1127.89 388.52 1129.38 385.67C1130.86 382.834 1131.15 377.12 1128.39 374.979V374.993Z" fill="#907A26" stroke="#301904" stroke-width="2" stroke-miterlimit="10"/>
<path d="M1085.39 367.547C1085.64 369.088 1083.51 370.643 1089.62 375.525C1095.73 380.406 1102.04 383.57 1104.59 383.625C1107.16 383.679 1109.49 383.475 1112.73 383.693C1115.97 383.911 1113.72 384.784 1117.1 383.693C1120.48 382.602 1124.56 382.288 1126.23 378.62C1127.22 376.438 1128.41 375.865 1128.38 374.979C1128.37 374.379 1127.79 373.643 1126.23 372.156C1122.32 368.474 1120.76 366.088 1118.83 364.138C1116.9 362.188 1117.39 362.065 1113.71 360.02C1110.03 357.974 1112.17 356.692 1107.16 357.02C1102.15 357.333 1100.39 356.842 1098.91 356.965C1097.43 357.101 1096.21 356.338 1094.86 357.02C1094.28 357.306 1091.85 358.465 1089.71 360.374C1087.57 362.283 1086.53 361.929 1086.05 364.015C1085.97 364.397 1085.89 364.683 1085.8 364.943C1085.44 366.115 1085.18 366.306 1085.39 367.561V367.547Z" fill="#EDDB49" stroke="#301904" stroke-width="2" stroke-miterlimit="10"/>
<path d="M1136.12 403.398C1136.24 401.325 1138.32 397.725 1134.56 393.593C1133.01 391.889 1132.16 391.248 1131.57 391.084C1132.59 392.543 1131.99 394.589 1132.1 396.103C1132.3 398.83 1131.16 398.639 1130.02 400.63C1128.87 402.621 1126.99 402.212 1123.74 402.594C1120.48 402.975 1119.51 402.744 1117.92 403.235C1116.34 403.725 1115.52 403.057 1113.4 401.994C1111.27 400.93 1111.15 402.703 1108.15 401.98C1106.76 401.639 1106.2 400.998 1106.16 400.153C1106.1 400.234 1106.03 400.316 1106 400.385C1104.95 402.075 1106.51 403.78 1107.1 404.98C1107.67 406.18 1115.56 407.435 1119.45 407.803C1123.35 408.185 1123.87 408.226 1128.67 408.689C1133.45 409.153 1130.8 408.226 1134.04 406.93C1137.27 405.635 1136 405.471 1136.13 403.398H1136.12Z" fill="#AB9530" stroke="#301904" stroke-width="2" stroke-miterlimit="10"/>
<path d="M1108.15 401.98C1111.15 402.703 1111.27 400.93 1113.4 401.993C1115.52 403.057 1116.33 403.725 1117.92 403.234C1119.49 402.743 1120.48 402.975 1123.74 402.593C1126.99 402.212 1128.87 402.607 1130.02 400.63C1131.17 398.639 1132.3 398.83 1132.1 396.102C1131.99 394.589 1132.59 392.543 1131.57 391.084C1130.76 389.911 1128.91 389.12 1124.81 389.27C1123.66 389.311 1118.55 389.189 1116.79 389.83C1115.02 390.471 1115.84 389.829 1113.41 391.452C1110.98 393.061 1109.7 393.948 1107.8 396.539C1106.79 397.93 1106.12 399.171 1106.16 400.152C1106.2 400.998 1106.76 401.653 1108.15 401.98Z" fill="#EDDB49" stroke="#301904" stroke-width="2" stroke-miterlimit="10"/>
<path d="M1088.05 391.793C1088.12 390.593 1089.32 388.493 1087.14 386.093C1086.24 385.111 1085.74 384.729 1085.4 384.634C1085.99 385.479 1085.64 386.666 1085.7 387.552C1085.82 389.134 1085.17 389.025 1084.49 390.184C1083.81 391.343 1082.72 391.098 1080.83 391.329C1078.94 391.561 1078.37 391.411 1077.45 391.698C1076.54 391.984 1076.06 391.589 1074.83 390.975C1073.59 390.361 1073.52 391.384 1071.77 390.975C1070.96 390.784 1070.63 390.402 1070.62 389.911C1070.58 389.952 1070.54 390.007 1070.52 390.048C1069.91 391.03 1070.82 392.025 1071.16 392.72C1071.5 393.416 1076.08 394.152 1078.34 394.37C1080.61 394.589 1080.91 394.616 1083.7 394.889C1086.48 395.161 1084.94 394.616 1086.82 393.866C1088.7 393.116 1087.96 393.02 1088.03 391.807L1088.05 391.793Z" fill="#AB9530" stroke="#301904" stroke-width="2" stroke-miterlimit="10"/>
<path d="M1071.8 390.975C1073.54 391.398 1073.61 390.361 1074.85 390.975C1076.09 391.589 1076.55 391.984 1077.48 391.698C1078.41 391.411 1078.97 391.548 1080.86 391.329C1082.75 391.098 1083.85 391.329 1084.52 390.184C1085.18 389.039 1085.84 389.134 1085.73 387.552C1085.67 386.679 1086.02 385.479 1085.43 384.634C1084.95 383.952 1083.88 383.488 1081.5 383.584C1080.83 383.611 1077.86 383.529 1076.83 383.911C1075.8 384.279 1076.28 383.911 1074.86 384.852C1073.45 385.793 1072.71 386.311 1071.61 387.811C1071.02 388.616 1070.63 389.338 1070.66 389.911C1070.68 390.402 1071.01 390.784 1071.81 390.975H1071.8Z" fill="#EDDB49" stroke="#301904" stroke-width="2" stroke-miterlimit="10"/>
<path d="M530.473 243.862C530.448 244.694 531.574 245.24 532.513 247.313C534.078 250.776 537.934 251.076 541.126 252.099C544.319 253.135 542.19 252.304 545.257 252.099C548.325 251.894 550.528 252.099 552.944 252.031C555.36 251.976 561.319 248.99 567.09 244.367C572.861 239.758 570.846 238.285 571.084 236.84C571.284 235.653 571.034 235.476 570.696 234.371C571.246 234.549 571.835 235.08 572.486 236.458C573.975 239.608 575.503 243.331 575.741 245.39C575.978 247.449 575.841 250.572 575.741 253.258C575.64 255.945 574.802 259.408 568.242 260.376C561.695 261.345 564.837 259.995 557.513 261.454C550.19 262.913 552.381 262.626 548.788 262.913C545.195 263.199 542.178 263.267 538.885 262.94C535.593 262.613 535.18 262.408 533.239 260.676C531.299 258.945 530.923 256.667 529.534 253.981C528.132 251.294 527.869 245.908 530.473 243.876V243.862Z" fill="#907A26" stroke="#301904" stroke-width="2" stroke-miterlimit="10"/>
<path d="M571.096 236.839C570.858 238.285 572.874 239.757 567.103 244.367C561.332 248.976 555.373 251.976 552.957 252.03C550.541 252.085 548.337 251.894 545.27 252.099C542.203 252.303 544.344 253.135 541.139 252.099C537.947 251.062 534.091 250.776 532.526 247.312C531.587 245.239 530.46 244.707 530.486 243.862C530.498 243.303 531.036 242.594 532.526 241.189C536.219 237.712 537.696 235.462 539.512 233.621C541.339 231.78 540.876 231.657 544.344 229.721C547.811 227.784 545.796 226.584 550.528 226.884C555.26 227.184 556.925 226.721 558.327 226.843C559.729 226.966 560.881 226.257 562.158 226.884C562.709 227.157 565 228.248 567.015 230.048C569.031 231.848 570.02 231.521 570.47 233.484C570.546 233.839 570.633 234.112 570.708 234.357C571.046 235.462 571.297 235.639 571.096 236.825V236.839Z" fill="#EDDB49" stroke="#301904" stroke-width="2" stroke-miterlimit="10"/>
<path d="M502.143 266.008C502.005 263.717 499.702 259.721 503.87 255.167C505.585 253.285 506.537 252.576 507.175 252.385C506.049 253.994 506.712 256.258 506.599 257.935C506.374 260.949 507.639 260.744 508.903 262.94C510.167 265.135 512.258 264.685 515.851 265.121C519.456 265.544 520.545 265.285 522.286 265.83C524.038 266.376 524.927 265.64 527.28 264.467C529.634 263.294 529.772 265.258 533.089 264.453C534.629 264.085 535.255 263.362 535.293 262.421C535.355 262.503 535.43 262.599 535.48 262.667C536.644 264.549 534.904 266.417 534.266 267.753C533.628 269.09 524.889 270.467 520.595 270.876C516.289 271.299 515.701 271.353 510.405 271.858C505.11 272.363 508.052 271.353 504.471 269.921C500.891 268.49 502.306 268.299 502.155 266.021L502.143 266.008Z" fill="#AB9530" stroke="#301904" stroke-width="2" stroke-miterlimit="10"/>
<path d="M533.089 264.44C529.772 265.244 529.634 263.281 527.281 264.454C524.927 265.626 524.038 266.376 522.286 265.817C520.533 265.272 519.444 265.531 515.851 265.108C512.246 264.685 510.168 265.135 508.903 262.926C507.639 260.731 506.374 260.935 506.6 257.922C506.725 256.244 506.061 253.994 507.176 252.371C508.077 251.076 510.117 250.203 514.649 250.367C515.914 250.408 521.585 250.271 523.525 250.981C525.478 251.69 524.577 250.981 527.268 252.767C529.96 254.553 531.374 255.535 533.478 258.399C534.604 259.94 535.33 261.317 535.293 262.394C535.255 263.335 534.629 264.044 533.089 264.426V264.44Z" fill="#EDDB49" stroke="#301904" stroke-width="2" stroke-miterlimit="10"/>
<path d="M437.233 165.274C437.233 165.274 466.664 142.651 452.819 145.555C438.973 148.446 433.928 150.342 433.928 150.342C433.928 150.342 446.81 121.991 438.309 130.732C429.809 139.473 424.927 146.114 424.927 146.114C424.927 146.114 408.064 110.291 405.836 119.809C403.607 129.314 404.621 151.501 404.621 151.501C404.621 151.501 382.05 139.201 386.72 144.573C391.389 149.933 395.495 156.356 395.495 156.356C395.495 156.356 380.798 153.274 384.228 157.187C387.659 161.101 396.196 165.288 396.196 165.288H437.245L437.233 165.274Z" fill="#7C2F6D"/>
<path d="M837.257 288.74C837.257 288.74 866.689 266.117 852.843 269.021C838.997 271.912 833.952 273.808 833.952 273.808C833.952 273.808 846.834 245.457 838.334 254.198C829.833 262.939 824.951 269.58 824.951 269.58C824.951 269.58 808.088 233.757 805.86 243.275C803.632 252.78 804.646 274.967 804.646 274.967C804.646 274.967 782.074 262.667 786.744 268.04C791.413 273.399 795.519 279.822 795.519 279.822C795.519 279.822 780.822 276.74 784.253 280.654C787.683 284.567 796.221 288.754 796.221 288.754H837.269L837.257 288.74Z" fill="#7C2F6D"/>
<path d="M1546.64 184.27C1546.64 184.27 1576.08 161.647 1562.23 164.551C1548.38 167.442 1543.34 169.338 1543.34 169.338C1543.34 169.338 1556.22 140.987 1547.72 149.728C1539.22 158.469 1534.34 165.11 1534.34 165.11C1534.34 165.11 1517.48 129.287 1515.25 138.805C1513.02 148.31 1514.03 170.497 1514.03 170.497C1514.03 170.497 1491.46 158.196 1496.13 163.569C1500.8 168.929 1504.91 175.351 1504.91 175.351C1504.91 175.351 1490.21 172.27 1493.64 176.183C1497.07 180.097 1505.61 184.283 1505.61 184.283H1546.66L1546.64 184.27Z" fill="#7C2F6D"/>
</svg>
