<svg width="157" height="238" viewBox="0 0 157 238" fill="none" xmlns="http://www.w3.org/2000/svg">
<path d="M156.597 190.13C156.597 189.899 156.512 189.659 156.314 189.678C155.321 189.742 155.756 189.096 155.851 188.736C155.945 188.413 155.992 188.108 155.973 187.795C155.869 186.133 156.399 184.536 156.531 182.893C156.616 181.795 156.777 180.706 156.89 179.607C156.909 179.432 156.739 179.284 156.626 179.275C155.765 179.229 155.888 178.518 155.86 178.057C155.822 177.484 155.68 176.94 155.661 176.367C155.661 176.118 155.624 175.767 155.312 175.73C154.952 175.694 154.952 176.054 154.877 176.303C154.877 177.438 154.886 178.573 154.905 179.709C154.905 180.41 154.839 181.121 155.179 181.804C155.312 182.053 155.331 182.469 155.066 182.764C155.066 182.81 155.066 182.847 155.038 182.884C154.924 184.306 154.442 185.644 154.054 187.001C154.017 187.121 153.998 187.241 153.96 187.361C153.818 187.665 153.676 187.979 153.535 188.284C153.204 189.068 152.873 189.862 152.315 190.527C152.164 190.961 151.899 191.376 151.965 191.865C152.202 192.696 152.665 193.342 153.544 193.647C154.253 193.647 154.47 192.927 155.066 192.65C154.792 194.219 154.47 195.733 153.695 197.108C153.591 197.357 153.535 197.634 153.374 197.847C152.514 198.945 152.949 199.896 153.695 200.828C154.111 200.92 154.433 200.763 154.716 200.44C154.612 201.29 154.073 201.927 153.667 202.628C153.412 203.062 153.175 203.514 152.788 203.856C152.599 204.271 152.722 204.64 152.939 205.009C153.09 205.268 153.185 205.517 152.967 205.831C151.776 207.539 150.33 208.988 148.487 210.049C148.09 210.446 148.014 210.991 148.203 211.415C148.477 211.997 148.25 212.209 147.768 212.412C147.589 212.486 147.485 212.698 147.258 212.68C146.199 213.538 146.001 213.871 146.568 214.711C147.248 215.726 147.125 216.483 146.199 217.194C146.19 217.332 146.171 217.471 146.161 217.609C146.142 218.126 146.388 218.56 146.625 218.994C146.823 219.354 146.757 219.64 146.483 219.907C146.086 220.295 145.689 220.683 145.301 221.07C144.753 221.615 144.299 222.206 144.554 223.037C144.63 223.277 144.507 223.332 144.356 223.433C143.59 223.932 142.824 224.44 142.059 224.947C140.915 225.953 139.913 227.153 138.372 227.643V227.624C138.325 227.67 138.268 227.707 138.211 227.753L138.155 227.772H138.089C138.022 227.92 137.9 227.92 137.758 227.892C136.321 228.501 134.827 228.962 133.447 229.673C132.757 229.969 132.077 230.273 131.339 230.486C129.723 230.938 128.002 230.919 126.414 231.492C125.091 231.972 123.739 232.175 122.321 232.101C121.102 232.036 119.892 232.101 118.701 232.387C118.039 232.544 117.358 232.682 116.687 232.673C114.882 232.655 113.076 232.765 111.271 232.562C108.53 232.258 105.76 232.461 103.019 231.972C101.213 231.649 99.3413 231.658 97.5075 231.464C97.2144 231.436 96.4488 231.593 96.8742 230.79C96.912 230.716 96.7608 230.532 96.6663 230.412C96.1747 229.803 95.4374 229.627 94.7662 229.756C93.3956 230.033 92.0438 230.43 90.7109 230.873C87.998 231.759 85.2282 232.332 82.3829 232.544C81.1351 232.867 79.8969 233.264 78.5924 233.292C78.3939 233.292 78.1765 233.412 78.2427 233.061C78.2521 232.996 78.2237 232.876 78.1764 232.858C76.9003 232.212 77.4013 231.473 78.1575 230.726C77.0421 230.273 76.5128 231.132 75.8416 231.529C75.5202 231.722 75.2744 231.935 74.849 231.953C74.263 231.981 74.074 232.47 74.0929 232.959C74.1118 233.421 73.9133 233.513 73.5163 233.467C73.1854 233.43 72.8545 233.43 72.5237 233.43C72.0605 233.43 71.862 233.264 71.5689 232.812C70.8883 231.778 71.1908 231.067 71.8525 230.273C72.0794 229.996 71.7958 229.886 71.5689 229.849C70.7182 229.701 70.3684 230.366 69.962 230.873C69.6595 231.252 69.4609 231.713 69.1584 231.87C69.1584 229.849 69.1584 227.772 69.1584 225.704C68.9599 224.901 68.7614 224.107 68.5818 223.304C68.544 223.147 68.5157 222.954 68.6669 222.806C69.6784 221.874 70.4818 220.72 71.7958 220.12C72.8923 219.621 73.9794 219.104 75.0948 218.671C76.6545 218.071 78.2143 217.424 79.8307 217.009C82.3168 216.381 84.9069 216.354 87.4592 216.409C88.3667 216.428 89.2835 216.511 90.2004 216.511C90.5029 216.308 90.8055 216.105 91.1175 215.911C91.6941 215.385 92.3273 214.895 92.8 214.268L93.1497 213.372C92.8283 212.772 92.3558 212.301 91.817 211.895C91.0607 211.323 90.1626 210.843 89.6238 210.123C88.7164 208.905 87.8184 207.659 87.2795 206.219H87.289C87.1 206.053 87.0243 205.84 86.9582 205.609C86.6084 205.231 86.4855 204.76 86.3721 204.289C86.0034 202.785 85.2661 201.456 84.4153 200.163C83.6591 199.019 83.281 197.754 83.2715 196.397C83.0447 195.253 82.7894 194.118 82.4397 193.001C81.7213 190.693 81.6267 188.395 82.676 186.142C82.6949 185.939 82.6288 185.718 82.8462 185.57C82.8462 185.238 82.9974 184.961 83.1676 184.684C83.1581 184.398 83.2905 184.149 83.4418 183.918C84.3965 181.675 85.4457 179.487 86.8258 177.466C87.4781 176.506 88.395 175.897 89.5861 175.694C91.1175 175.435 92.6487 175.158 94.1045 174.623C94.9174 174.318 95.7493 174.134 96.6095 174.217C98.3677 174.374 100.145 174.41 101.903 174.65C104.418 174.992 106.563 176.063 108.473 177.65C108.917 177.77 109.21 178.103 109.541 178.38L109.862 178.703C110.675 179.127 111.242 179.838 111.951 180.401C113.417 181.573 114.457 183.078 115.345 184.693C116.602 186.438 117.765 188.238 118.597 190.213C119.164 190.813 119.58 191.515 119.92 192.244C120.951 194.468 121.603 196.859 122.813 199.019C122.964 199.287 123.049 199.637 123.03 199.942C122.841 203.025 123.786 206.034 123.654 209.108C123.635 209.496 123.834 209.819 123.966 210.16C124.165 210.659 124.514 210.815 125.015 210.566C125.138 210.299 125.422 210.262 125.649 210.123C125.686 209.865 125.913 209.782 126.102 209.671C126.263 209.477 126.414 209.274 126.566 209.08C126.896 208.305 127.142 207.529 126.906 206.653C126.764 206.089 126.774 205.48 126.726 204.899C126.358 204.003 126.235 203.043 126.131 202.102C125.932 200.293 125.809 198.474 124.874 196.831C124.817 196.776 124.76 196.72 124.703 196.674V196.693C123.285 194.865 122.699 192.613 121.452 190.693C121.414 190.656 121.376 190.61 121.338 190.573C121.206 190.499 121.14 190.398 121.177 190.25C121.073 190.25 121.045 190.167 121.007 190.102C120.97 190.065 120.922 190.019 120.884 189.982C120.837 189.918 120.799 189.862 120.752 189.798C120.695 189.705 120.639 189.622 120.582 189.53C119.599 188.432 119.013 187.093 118.134 185.93C117.614 185.238 117.103 184.527 116.593 183.835C116.46 183.761 116.338 183.678 116.328 183.503C116.215 183.346 116.092 183.198 115.988 183.032C115.033 181.453 113.757 180.161 112.292 179.035C112.046 178.896 111.838 178.703 111.696 178.463C110.779 177.761 109.853 177.05 108.936 176.349C108.303 176.118 107.802 175.666 107.253 175.315C105.864 174.457 104.332 173.986 102.735 173.617C101.147 173.257 99.5399 173.22 97.9424 173.072C96.9782 172.98 96.0046 172.795 95.0026 173.017C94.1707 173.201 93.3956 173.552 92.5354 173.617C92.4409 173.626 92.3463 173.635 92.2423 173.654C91.694 173.829 91.1363 174.004 90.5407 173.921C90.38 173.967 90.2193 174.023 90.0681 174.069C89.8696 174.069 89.6617 174.069 89.4632 174.069C89.2552 174.115 89.0472 174.17 88.8298 174.217C88.5273 174.281 88.2249 174.346 87.9224 174.41C87.6483 174.604 87.3457 174.761 87.0054 174.844C85.7671 175.804 84.7083 176.903 83.9237 178.25C83.2715 179.376 82.6004 180.484 81.9387 181.61C81.8819 181.952 81.6834 182.219 81.4755 182.487C81.0974 183.419 80.7288 184.352 80.3412 185.284C79.3203 187.749 78.9988 190.287 79.4526 192.927C79.774 194.81 80.3789 196.656 80.256 198.594C80.4545 199.351 80.6531 200.099 80.8516 200.856C81.5227 202.268 82.6477 203.477 82.9691 205.056C83.385 206.413 84.0372 207.677 84.6611 208.96C85.1337 209.865 85.6064 210.769 86.1169 211.739C85.4174 211.785 84.8596 212.089 84.2263 212.062C84.0656 212.108 83.9427 212.265 83.7442 212.209C83.4984 212.255 83.2432 212.311 82.9974 212.357C82.5531 212.421 82.1088 212.486 81.674 212.551C81.3715 212.717 81.0502 212.828 80.7004 212.818C80.4263 212.994 80.1237 213.123 79.7928 213.151C79.5093 213.363 79.2068 213.52 78.857 213.594C78.6207 213.76 78.4317 214.018 78.1009 214.037C77.7606 214.425 77.2879 214.628 76.8625 214.914C76.56 215.126 76.2575 215.338 75.9551 215.541C75.3879 215.985 74.8207 216.428 74.244 216.871C72.7127 218.043 70.9166 218.892 69.65 220.387C69.2151 220.895 68.7897 221.412 68.3265 221.966C67.9862 220.987 67.6177 220.092 67.4853 219.104C67.3057 217.748 67.1922 216.372 66.9275 215.015C66.6534 213.612 66.6062 212.172 66.8709 210.742C67.1828 209.052 67.5703 207.363 67.5136 205.619C67.5042 205.213 67.6271 204.788 67.7783 204.409C68.3644 202.896 68.8465 201.363 69.3002 199.803C70.3778 196.056 71.635 192.364 72.9395 188.69C74.0077 185.681 75.1231 182.69 75.7754 179.561C75.7376 179.164 75.8133 178.786 75.974 178.417C76.0685 177.687 76.1819 176.967 76.248 176.238C76.4844 173.635 76.0968 171.143 74.8869 168.798C74.2252 167.515 73.7053 166.131 72.4197 165.254C72.1078 165.263 71.7864 165.226 71.4933 165.374C71.4461 165.402 71.3988 165.411 71.3421 165.402C70.9828 165.854 71.3326 166.278 71.3799 166.722C71.9187 167.885 72.2496 169.094 72.4292 170.358C72.8073 172.915 71.8904 175.26 71.2665 177.65C70.2267 181.61 68.4779 185.339 67.3341 189.272C66.5684 191.875 65.8877 194.496 65.1788 197.117C65.0748 197.727 64.9803 198.336 64.8763 198.936C64.9709 200.413 64.3374 201.77 64.0822 203.191C64.0444 203.403 63.9688 203.625 63.9877 203.837C64.1295 206.274 63.7514 208.692 63.6758 211.12C63.638 212.311 63.8459 213.474 64.1201 214.628C64.1862 214.914 64.3752 215.181 64.3091 215.495C64.7723 216.566 65.1882 217.655 65.3678 218.809C65.5947 220.231 66.3604 221.467 66.8141 222.815C66.8708 222.981 66.9086 223.138 66.9181 223.314C67.1166 223.618 67.1923 223.95 67.2396 224.301C67.7406 225.409 68.043 226.553 67.9957 227.781C67.9674 228.676 67.9957 229.572 67.9957 230.467C67.9863 231.307 67.4948 231.833 66.644 231.833C66.1997 231.833 65.8026 232.036 65.3678 232.009C64.3091 232.35 63.931 232.092 63.8648 230.892C63.8459 230.513 63.6947 230.172 63.6853 229.802C63.6853 229.461 63.3355 229.378 63.0992 229.332C62.8629 229.286 62.825 229.563 62.7777 229.756C62.7305 229.941 62.6833 230.135 62.6171 230.319C62.3241 231.215 61.3315 231.741 60.3768 231.538C60.027 231.464 60.0081 231.261 60.0176 230.993C60.027 230.402 60.027 229.812 59.8757 229.23C59.7718 228.843 59.5449 228.566 59.2424 228.344C59.006 228.169 58.6752 228.187 58.4484 228.307C58.2215 228.427 58.3444 228.686 58.4294 228.898C58.609 229.35 58.3254 229.747 58.1837 230.153C58.0513 230.513 57.8339 230.846 57.8339 231.252C57.0493 231.003 56.4255 230.569 55.7543 230.227C54.7429 229.701 53.6179 229.378 52.701 228.649C52.5214 228.51 52.3418 228.519 52.1528 228.676C51.8976 228.889 52.1339 229.11 52.219 229.184C52.8901 229.793 52.3513 230.467 52.3135 231.086C52.2946 231.418 51.803 231.547 51.4721 231.492C50.6592 231.362 49.8652 231.169 49.1279 230.781C48.3244 230.606 47.6721 229.987 46.8497 229.932C46.3487 229.895 46.3015 229.682 46.3676 229.332C46.5945 228.123 46.7647 226.895 47.1239 225.713C47.2846 224.163 47.4453 222.612 47.606 221.061C47.6721 218.643 47.7004 216.225 48.088 213.825C48.088 213.788 48.1637 213.76 48.2015 213.732C48.2866 212.329 48.3244 210.926 48.6458 209.551C48.7119 208.656 48.7781 207.769 48.8443 206.874C49.0428 205.563 49.2129 204.253 49.4304 202.951C49.6761 201.474 50.0637 200.016 50.0448 198.502C50.0448 198.391 50.1582 198.29 50.2149 198.179C50.1393 196.96 50.404 195.779 50.6875 194.607C50.7821 193.702 50.8482 192.798 50.9806 191.893C51.1129 190.942 51.2548 189.992 51.2737 189.022C51.2737 188.782 51.3871 188.542 51.4438 188.302C51.5573 187.204 51.7179 186.115 51.7841 185.016C51.8597 183.669 52.2378 182.349 52.2 180.992C52.2 180.872 52.2 180.733 52.1622 180.623C52.0298 180.272 50.2433 179.413 49.8463 179.496C48.8726 179.7 47.899 179.903 46.9253 180.096C46.1124 180.263 45.8855 180.863 45.7532 181.536C45.7343 181.656 45.7532 181.786 45.7532 181.906C45.8099 183.493 45.7059 185.072 45.5736 186.65C45.4885 186.936 45.4412 187.222 45.4412 187.518C45.394 189.475 45.3278 191.422 45.2711 193.379C45.2711 194.441 45.3562 195.493 45.5736 196.536C45.7815 199.351 46.1408 202.157 46.0651 205C46.0462 205.674 45.9895 206.348 46.1219 207.013C46.3487 208.305 46.1691 209.597 46.188 210.899C46.3487 212.56 45.9517 214.212 46.084 215.865C46.2258 217.692 46.2259 219.52 46.188 221.357C46.188 221.809 46.188 222.261 46.188 222.714C46.1219 224.661 46.0935 226.609 45.8855 228.547C45.9328 229.119 45.8855 229.599 45.2428 229.913C44.9686 230.052 44.8268 230.449 44.5905 230.772C44.0044 229.904 43.4372 228.99 42.18 228.981C42.1516 229.055 42.1327 229.092 42.1327 229.129C42.1894 229.581 42.6054 229.913 42.5487 230.43C42.4636 231.159 41.7925 230.726 41.4616 230.993C40.4218 231.842 39.3064 232.599 37.9168 233.089C38.1815 232.073 38.4367 231.132 37.9451 230.199C37.8506 230.024 37.7844 229.839 37.6899 229.673C37.5386 229.406 37.2456 229.276 36.9998 229.341C36.6879 229.433 36.8864 229.766 36.8675 229.987C36.8675 230.098 36.9715 230.209 36.9904 230.329C37.3023 231.861 36.773 232.341 35.3173 231.833C34.2018 231.436 33.1242 230.929 32.0088 230.522C31.6968 230.402 31.7724 230.236 31.8197 230.07C32.0655 229.304 31.763 228.639 31.4794 227.956C31.3282 227.596 30.9689 227.569 30.7421 227.606C30.4396 227.652 30.5341 228.021 30.5719 228.252C30.7326 229.212 30.4963 229.479 29.4659 229.387C29.1446 229.359 29.0311 229.424 28.842 229.71C28.4639 230.292 27.7739 230.467 27.1311 230.642C26.8664 230.716 26.8758 230.476 26.8758 230.301C26.8758 229.978 26.8758 229.655 26.8758 229.332C26.1007 228.769 26.1385 227.864 25.9778 227.08C25.6281 225.409 25.7226 223.757 26.0534 222.067C26.3181 220.729 26.3087 219.335 26.5639 217.978C26.753 216.972 27.0365 216.003 27.4903 215.08C27.6793 214.785 27.8684 214.48 28.0574 214.185C28.152 213.76 28.3316 213.363 28.5679 212.994C28.7286 212.145 28.8893 211.305 29.0595 210.455C29.1067 210.289 29.154 210.132 29.1823 209.966C29.5132 208.471 29.7306 206.929 30.2127 205.48C30.657 204.123 30.8744 202.776 30.8744 201.373C30.8744 199.831 30.8744 198.299 30.8744 196.757C30.8744 196.527 30.7704 196.259 31.0068 196.065C30.7799 195.788 31.47 195.133 30.5908 195.105C30.5719 195.105 30.5341 194.736 30.5625 194.542C30.6664 193.711 30.7798 192.89 30.8933 192.068C30.8555 191.57 30.865 191.09 30.9973 190.601C31.1013 190.213 30.9973 189.678 30.5908 189.585C30.1087 189.484 30.0048 189.964 29.9386 190.388C29.7968 191.21 29.5983 192.022 29.3998 192.973C29.2107 192.105 29.4754 191.404 29.5227 190.693C29.6077 189.373 29.7023 188.044 29.9197 186.733C30.0898 185.718 30.156 184.684 30.2505 183.65C30.2694 183.41 30.3072 183.115 29.9102 183.106C29.6077 183.106 29.3241 183.059 29.1445 183.429C29.0405 183.632 29.1067 183.899 28.7948 184.195C29.0216 183.041 29.2485 182.044 29.3998 181.029C29.6077 179.644 29.7684 178.25 29.9291 176.866C29.948 176.681 30.052 176.386 29.6739 176.367C29.3808 176.349 29.1162 176.367 29.0216 176.718C28.9366 177.05 28.8137 177.373 28.7097 177.697C28.3505 178.85 28.1993 180.06 27.6321 181.158L27.6416 181.149C27.6888 181.712 27.4052 182.183 27.2067 182.681C26.9137 184.019 26.3654 185.284 25.8927 186.567C25.5713 187.435 25.8171 188.081 26.2709 188.736C26.6112 189.225 27.046 189.216 27.4052 188.736C27.5754 188.505 27.7077 188.238 28.0953 188.164C27.8684 189.798 27.6699 191.395 27.4146 192.991C27.2256 194.136 27.2729 195.271 28.1047 196.121C28.5396 196.564 28.5206 196.877 28.3221 197.321C27.9251 198.244 28.0953 199.222 28.8515 199.693C29.6644 200.2 29.3242 200.754 29.2958 201.308C29.2864 201.585 29.258 201.908 29.1635 202.167C28.8893 202.951 29.1634 203.782 28.8515 204.566C28.4828 205.471 28.1331 206.394 27.859 207.336C27.358 209.016 26.6774 210.659 26.5639 212.431C26.5261 212.994 25.8644 215.726 25.6564 216.206C24.1629 219.741 22.9624 223.332 23.1987 227.236C23.2838 228.713 23.7186 230.052 24.5788 231.27C25.4012 232.452 26.5355 232.756 27.8211 232.138C28.0007 232.055 28.1804 231.962 28.3505 231.87C29.1635 231.445 29.9102 231.316 30.7137 232.018C31.366 232.581 32.1411 233.015 32.9067 233.43C33.7953 233.91 34.6555 234.464 35.6953 234.602C36.2153 234.676 36.773 234.113 36.9904 234.242C37.4158 234.501 37.8033 234.63 38.2476 234.565C39.2118 234.418 40.1193 234.085 40.97 233.615C41.3009 233.43 41.5845 233.43 41.9343 233.532C42.5487 233.707 43.1442 233.873 43.8437 233.744C45.1955 233.504 46.1597 232.71 47.0577 231.824C47.2751 231.612 47.3035 231.695 47.4831 231.806C48.2488 232.295 49.0239 232.784 49.8179 233.227C50.3378 233.513 50.5552 234.335 51.2264 234.233C51.8124 234.141 52.115 233.412 52.6632 233.209C53.2682 232.987 53.8543 232.378 54.62 233.172C55.2722 233.845 56.2364 234.196 57.1912 234.427C58.0136 234.63 58.8265 234.879 59.6583 234.999C60.9628 235.193 62.324 235.516 63.4111 234.372C63.5813 234.187 63.8176 234.298 64.0445 234.335C65.037 234.519 66.0295 234.492 66.8425 233.836C67.4758 233.329 67.8917 233.55 68.336 234.039C68.5723 234.298 68.7898 234.556 69.0072 234.833C69.2436 235.129 69.3664 235.802 69.9525 235.562C70.3212 235.415 70.5386 235.562 70.7844 235.692C71.966 236.328 73.2137 236.827 74.556 236.947C76.9571 237.159 79.358 237.095 81.6929 236.365C83.5362 235.793 85.4835 235.701 87.3457 235.23C89.7278 234.63 91.9871 233.633 94.3692 233.033C94.8796 232.904 95.3712 232.913 95.8722 232.969C96.4677 233.033 97.0632 233.135 97.6588 233.227C99.1712 233.458 100.674 233.716 102.187 233.929C104.03 234.196 105.835 234.667 107.726 234.584C108.794 234.538 109.872 234.648 110.931 234.75C113.455 234.999 115.959 234.75 118.464 234.556C119.202 234.501 119.93 234.15 120.667 234.141C122.917 234.113 125.148 234.113 127.341 233.402C128.806 232.932 130.413 232.987 131.935 232.636C133.409 232.295 134.714 231.547 136.16 231.132C137.937 230.615 139.752 230.098 141.246 228.972C142.758 227.827 144.328 226.766 145.916 225.723C146.729 225.187 147.438 224.495 148.165 223.84C148.543 223.498 149.016 222.898 148.818 222.557C148.506 222.021 148.799 221.781 149.007 221.458C149.262 221.061 149.564 220.692 149.82 220.295C150.453 219.28 151.351 218.301 151.247 217.074C151.181 216.252 151.578 215.874 151.975 215.338C152.429 214.711 152.911 214.055 152.759 213.197C152.665 212.689 152.126 212.698 151.776 212.449C152.306 211.914 152.684 211.332 153.024 210.742C153.346 210.178 153.875 209.597 153.648 208.914C153.497 208.462 153.648 208.212 153.828 207.862C154.65 206.191 155.501 204.539 156.427 202.914C156.493 202.794 156.711 202.619 156.541 202.462C156.418 202.351 156.21 202.379 156.04 202.462C155.936 202.508 155.879 202.656 155.699 202.563C155.926 201.723 156.2 200.893 156.351 200.043C156.569 198.853 156.938 197.653 156.323 196.453C156.248 196.314 156.276 196.102 156.314 195.936C156.777 194.044 156.767 192.124 156.767 190.204L156.597 190.13ZM155.567 202.748C155.529 202.794 155.482 202.84 155.444 202.887C155.425 202.85 155.378 202.803 155.387 202.776C155.406 202.72 155.454 202.683 155.491 202.637C155.51 202.674 155.539 202.702 155.567 202.748Z" fill="#2E1D0A"/>
<path d="M8.21589 109.298C7.98902 108.929 7.54474 108.735 7.45021 108.273C7.35568 108.19 7.16663 108.144 7.28007 107.95V107.969C5.79597 107.138 5.09649 105.707 4.7751 104.249C4.22683 101.793 3.31934 99.4213 2.98849 96.9198C2.93178 96.4675 2.79941 95.9045 2.07154 95.9783C1.91084 95.9968 1.75014 95.9506 1.83522 95.7291C2.12825 94.9445 1.9865 94.1138 2.05267 93.3199C2.22282 90.9662 2.74271 88.677 3.27207 86.3971C3.39495 85.8525 3.1681 85.9079 2.81835 86.074C2.75218 86.1663 2.69545 86.2678 2.62928 86.3601C2.5253 86.2032 2.53476 86.0648 2.69546 85.9448C3.48004 83.3972 4.59549 80.9972 6.07013 78.7542C6.25919 78.4681 6.37259 78.1543 6.15517 77.9512C5.93776 77.7481 5.63531 77.9328 5.42734 78.1451C5.36117 78.1913 5.29497 78.2466 5.21935 78.2927C5.13428 78.1635 5.19097 78.0897 5.31386 78.0343C5.34222 77.7482 5.51242 77.5359 5.66367 77.3143C7.4408 74.6652 8.97216 71.8776 10.5602 69.1177C11.7797 66.9854 13.311 65.084 15.2488 63.5056C16.7235 62.3056 18.3682 61.5487 20.2683 61.3087C21.4971 61.1518 22.726 61.0133 23.8793 61.6964C24.0967 61.8256 24.3708 61.9179 24.6733 61.8994C25.4012 61.8717 25.7131 62.1856 25.7415 62.9148C25.751 63.2379 25.751 63.5609 25.7415 63.884C25.7226 64.244 25.8266 64.5671 26.1385 64.8809C26.4126 63.9671 26.9893 63.2379 27.1405 62.2964C27.3768 60.8287 27.7266 59.3796 28.0196 57.9304C28.1236 57.0073 28.1047 56.0658 28.341 55.152C28.3032 53.9613 28.4922 52.7982 28.7664 51.6444C29.2201 49.669 29.9669 47.7676 30.4679 45.8108C31.5172 41.7401 32.6799 37.6972 34.0316 33.7096C34.6271 31.9558 35.2132 30.2021 35.9978 28.5221C36.3098 27.1099 37.0093 25.8452 37.6143 24.5437C38.2476 23.1961 38.9187 21.8669 39.7033 20.5931C40.1571 19.8639 40.7904 19.4024 41.4143 19.0055C42.5014 20.5285 43.494 22.0608 44.9497 23.2884C46.1029 24.2576 47.1805 25.3006 48.4094 26.1775C48.8632 26.5006 49.3736 26.7129 49.8935 26.8698C50.3 26.9898 50.5174 27.2483 50.5836 27.6083C51.094 30.2851 51.3682 32.9712 51.1886 35.7034C51.2169 37.7803 50.9806 39.8479 50.7821 41.9155C50.5741 44.0478 50.4607 46.1984 50.1298 48.3214C49.903 49.7983 49.3641 51.1736 48.4472 52.3736C47.3129 53.832 46.8403 53.8966 45.0064 53.4167C43.5696 53.0474 42.6432 52.0598 41.6223 51.1368C40.2705 49.9091 39.779 48.3584 39.7128 46.6323C39.6844 45.7462 39.6561 44.8508 39.8546 43.9647C39.883 43.817 39.9491 43.5862 39.7128 43.5216C39.4954 43.4662 39.3158 43.5862 39.2591 43.8077C38.9471 45.1369 38.758 46.4845 38.8242 47.8322C38.9093 49.5675 39.6655 51.0629 40.7148 52.4751C42.2367 54.5151 44.6283 55.4843 47.1616 54.8474C47.9084 54.6628 48.5228 54.3767 49.3263 54.9582C49.9975 55.4382 50.9144 55.6412 51.6612 56.0935C51.9353 56.2597 52.2378 56.2873 52.5025 56.0566C53.4856 55.2258 54.6105 54.515 55.1115 53.2505C55.4707 53.5089 55.7732 53.7951 56.1324 53.9705C57.8434 54.8289 59.6299 55.5212 61.5111 54.5889C63.43 53.6382 64.6399 52.0044 65.1598 50.0107C65.8404 47.38 66.1997 44.6938 65.7838 41.9709C65.6609 41.177 65.5663 40.3555 65.0275 39.5525C64.829 40.0048 64.8101 40.3648 64.9424 40.7155C65.037 40.9647 65.0464 41.2048 65.018 41.4448C64.8384 43.1063 64.7155 44.777 64.432 46.4292C64.0633 48.5984 63.3071 50.4075 61.1518 51.4783C59.8568 52.1152 58.4389 52.0414 57.3707 51.0445C56.7657 50.4722 56.1607 49.8906 55.603 49.2814C55.0075 48.6445 54.5727 47.9153 54.2513 47.0846C53.807 45.9492 53.8448 44.7677 53.6936 43.6139C53.5612 42.5893 53.1548 41.574 53.3816 40.5402C53.599 39.5249 53.4762 38.5095 53.514 37.4941C53.5329 36.8941 53.5329 36.3034 53.5423 35.7034C53.1169 34.1066 53.3911 32.4819 53.3532 30.8666C53.3249 29.3066 53.4383 27.7652 53.7786 26.2422C53.8448 25.9561 53.9393 25.7068 54.1851 25.5683C55.6786 24.7468 56.7185 23.51 57.6733 22.1623C58.7225 20.6947 60.0365 19.4301 60.9818 17.8886C61.53 16.9932 62.0026 16.061 62.3713 14.9902C63.0424 15.941 64.0634 16.4301 64.7724 17.2516C64.8858 17.3809 65.0275 17.5009 65.1315 17.6394C65.6703 18.3778 65.6137 18.5439 64.7724 18.8855C64.536 18.9778 64.243 18.9963 64.035 19.3932C64.4887 19.3932 64.8574 19.4301 65.2166 19.3932C65.6136 19.347 65.8027 19.5039 65.9161 19.8547C66.6629 22.2269 67.6744 24.4699 69.2341 26.4453C69.2908 26.5191 69.3002 26.6206 69.3286 26.7129C69.9903 27.7928 70.3211 28.9928 70.6992 30.1743C70.9828 31.0604 70.9261 32.1128 71.5594 32.7958C72.1266 33.405 72.4386 34.0881 72.7884 34.7804C74.2725 37.7341 75.6904 40.7156 76.3048 43.9739C76.6545 45.8477 77.4675 47.4537 78.6964 48.8845C79.1123 49.3737 79.2918 49.9645 79.4336 50.5645C79.5943 51.2291 79.6606 51.9121 79.7646 52.5951C80.2372 53.1028 80.3978 53.8136 80.9839 54.2474C82.0237 54.2751 82.9784 54.8566 84.0466 54.7182C84.2168 54.4967 84.4437 54.5705 84.6705 54.5889C85.0014 54.7828 85.4268 54.5982 85.7576 54.8382C85.9089 54.8566 86.0601 54.875 86.2114 54.8935H88.5084C89.3876 55.0689 90.2761 54.9766 91.1552 55.032C91.9019 55.0781 92.5542 55.2443 92.6865 56.1673C92.7432 56.5458 93.0552 56.9242 93.4995 56.9519C94.5865 57.0165 95.5697 57.3765 96.6379 57.8196C95.8344 57.9027 95.7965 58.3641 95.9005 58.9087C96.0423 59.2041 96.1841 59.4996 96.3259 59.7949C96.8836 60.3211 97.6493 60.5887 98.1787 61.1518C98.226 61.1518 98.2827 61.161 98.3205 61.1795C99.2658 61.6964 100.202 62.2226 101.251 62.8041C100.892 62.8041 100.665 62.7856 100.438 62.8041C99.8991 62.8595 99.5777 63.1086 99.7006 63.6809C99.8802 64.484 100.164 65.1947 100.986 65.6285C101.733 66.0162 102.281 66.6532 102.829 67.5393C102.243 67.3178 101.912 67.5669 101.534 67.5946C101.194 68.1762 101.364 69.1915 101.903 69.81C102.035 69.9577 102.168 70.1053 102.3 70.253C103.529 70.6868 104.077 71.8499 105.004 72.6253C104.663 72.4868 104.332 72.496 104.011 72.5237C103.312 72.5975 103.189 72.8283 103.359 73.5022C103.529 74.1852 103.945 74.6375 104.503 75.0805C105.438 75.8374 106.242 76.7328 106.998 77.6651C107.452 77.342 107.575 76.9821 107.386 76.419C107.187 75.819 106.79 75.3298 106.563 74.7575C106.157 74.2129 105.741 73.659 105.334 73.1144C105.958 73.2252 106.422 73.5391 106.762 74.0099C107.301 73.8899 107.509 73.4837 107.263 72.9576C107.121 72.653 106.904 72.3852 106.715 72.0991C106.176 71.6376 105.694 71.1391 105.401 70.4653C105.665 70.4007 105.93 70.4376 106.119 70.253C106.261 70.0038 106.384 69.7362 106.544 69.4962C107.017 68.7393 106.932 68.3885 106.138 67.9639C105.987 67.8808 105.798 67.8161 105.713 67.6869C104.597 65.9608 102.905 64.604 102.291 62.5641C101.62 61.8903 100.863 61.3087 100.126 60.718C99.3602 60.1088 98.7742 59.3242 98.1125 58.4934C98.4339 58.4934 98.7553 58.6504 98.8971 58.3088C98.8309 57.9766 98.4906 57.8842 98.2637 57.7088C96.5622 56.4073 95.1349 54.792 92.8851 54.1827C91.3443 53.7674 89.9263 52.8905 88.4517 52.2259C87.1094 51.6259 85.8238 50.7767 84.2357 50.8228C83.8009 50.8413 83.2338 50.9983 82.9691 50.7952C82.7044 50.5829 82.7894 49.9921 82.6382 49.5952C82.2789 48.626 82.1561 47.4722 81.3054 46.7984C80.1521 45.8753 79.4242 44.7308 78.8004 43.4569C77.3163 40.4386 75.8321 37.411 74.0077 34.5588C73.2042 33.2942 72.4575 31.9835 71.9565 30.599C71.3704 28.9652 70.7938 27.3406 69.962 25.8175C68.9032 23.8791 67.9579 21.9131 67.542 19.7347C67.4853 19.4486 67.3813 19.3101 67.7972 19.2547C70.4346 18.9224 73.0814 18.6455 75.7282 18.5439C78.8476 18.4239 81.9765 18.4886 85.096 18.7932C85.2472 18.8116 85.3228 18.7101 85.3606 18.5439C84.9636 18.507 84.576 18.4425 84.1979 18.3871C82.0332 18.1009 79.859 17.7778 77.6754 17.6486C74.4898 17.4732 71.3042 17.6486 68.1375 17.9439C66.9559 18.0547 66.6818 17.9717 66.2753 16.8918C67.2017 16.8179 68.128 16.9287 69.0544 16.6425C75.9455 14.5195 82.884 12.5903 90.1248 11.9073C90.6258 11.8611 91.2403 11.9996 91.7035 11.5842C91.4105 11.3812 91.1363 11.335 90.8149 11.335C89.6427 11.3535 88.4706 11.4181 87.3079 11.4642C85.0203 11.5473 82.7422 11.7319 80.483 11.9718C77.6188 12.2857 74.7545 12.655 71.947 13.3011C70.2266 13.698 68.44 13.9472 67.0032 15.0825C66.5873 15.4056 66.1902 15.7564 65.7838 16.0887C65.6987 16.1533 65.6514 16.3378 65.4907 16.2086C64.8951 15.7378 64.3186 15.2487 63.6853 14.741C64.1674 14.501 64.5549 14.7964 64.9803 14.6117C66.6156 13.8918 68.2888 13.2457 69.9525 12.5996C75.9267 10.2735 81.9765 8.19659 88.3382 7.12585C88.2721 6.62741 87.9223 6.71976 87.6293 6.71053C86.3059 6.66437 85.0203 6.95049 83.7253 7.14433C80.9083 7.57816 78.148 8.25204 75.4162 9.04586C73.9604 9.47046 72.5142 9.91345 71.0207 10.3565C71.0963 10.0334 71.2948 9.90422 71.4744 9.77499C73.2043 8.54734 74.8869 7.2459 76.6924 6.13824C79.3203 4.53214 81.7591 2.63062 84.4531 1.13529C84.6233 1.04298 84.9541 0.969141 84.784 0.673766C84.6233 0.396852 84.4248 0.70152 84.2641 0.738442C82.5343 1.1815 81.1352 2.24294 79.6133 3.09214C75.7849 5.23361 71.9848 7.43053 68.336 9.85815C67.3812 10.495 66.2942 11.0211 65.6041 11.9441C64.9991 12.7564 64.2714 13.4302 63.5908 14.1502C63.2977 14.4641 62.9952 14.5749 62.5887 14.4179C62.8061 13.6426 62.7872 13.5688 62.2295 12.8488C61.2653 11.6119 60.3106 10.4396 58.7225 9.82119C56.208 8.84276 53.6179 8.58429 50.9522 8.6489C48.0597 8.72274 45.2711 9.1289 42.8039 10.7442C42.1989 11.1411 41.4238 11.4365 41.3387 12.2118C41.2064 13.3749 40.4974 14.3902 40.6108 15.6548C39.5994 14.4364 25.8927 3.59985 25.231 3.47062C25.231 3.70139 25.4295 3.8306 25.5808 3.92291C26.3464 4.41212 26.9893 5.03055 27.6415 5.63976C28.7759 6.71972 29.9102 7.79964 31.0823 8.82423C33.4455 10.8826 35.856 12.8949 37.9829 15.1748C38.7769 16.024 39.571 16.7071 40.7053 17.0301C41.1213 17.1501 41.2253 17.6025 41.0362 17.9163C40.8377 18.2302 40.4501 18.4332 40.1193 18.7009C39.7317 17.8148 39.3063 16.984 38.5406 16.4486C36.1018 14.7687 33.5212 13.3011 30.8933 11.9165C27.4146 10.0797 24.0494 8.03968 20.3817 6.56281C20.2115 6.49819 20.0603 6.07365 19.8618 6.38748C19.7011 6.65517 20.0508 6.73824 20.2588 6.84901C21.2608 7.40283 22.2723 7.92893 23.2365 8.53814C26.2708 10.4396 29.258 12.3965 32.1694 14.4641C33.8048 15.6179 35.355 16.8733 37.0565 18.2394C30.0425 15.3779 22.9435 13.5041 15.6269 12.2396C15.7026 12.4703 15.8633 12.4887 16.0334 12.5349C17.215 12.821 18.4061 13.0702 19.5593 13.4395C24.2196 14.9071 28.7948 16.5687 33.058 18.9594C34.3058 19.6609 35.4401 20.5746 36.9715 20.7131C37.4158 20.75 37.8695 20.7039 38.1531 20.4639C38.4083 20.2424 38.068 19.8454 37.9451 19.5685C37.7844 19.2177 37.4914 18.9224 37.2645 18.5994C37.2173 18.5255 37.17 18.4517 37.1133 18.3871C37.255 18.304 38.7486 18.9686 39.4481 19.0886C40.0248 19.1901 39.9113 19.4762 39.7033 19.7255C38.8998 20.6947 38.2193 21.7377 37.6143 22.9284C37.3212 22.1807 36.8864 21.8484 36.1207 21.7746C35.2983 21.7008 34.4665 21.59 33.6441 21.4793C31.848 21.2393 30.0426 21.0547 28.2276 20.8885C27.3958 20.8054 26.545 20.87 25.7226 20.7223C23.728 20.3715 21.7713 20.8793 19.7578 20.7593C19.8713 21.0823 20.0603 21.0546 20.2305 21.0638C21.2419 21.0915 22.2534 21.1008 23.2743 21.1838C25.1081 21.3407 26.8853 21.7285 28.6813 22.07C31.3565 22.5777 33.8426 23.6853 36.4799 24.3037C36.9148 24.4053 36.8202 24.553 36.6973 24.8022C36.4137 25.3653 36.1301 25.9375 35.856 26.5098C33.7008 30.8666 31.9993 35.3895 30.6286 40.0232C29.6077 43.4939 28.7853 47.0199 27.84 50.509C27.3107 52.4474 26.8569 54.3858 26.7435 56.3981C26.6868 57.4596 26.3559 58.5027 26.1668 59.5549C26.0912 59.9518 26.044 60.1271 25.5619 59.8225C24.8435 59.3702 24.0022 59.2595 23.142 59.1857C21.9509 59.0842 21.0528 59.7487 20.0225 60.0718C18.0847 60.681 16.4588 61.7148 14.9936 63.0532C14.9275 63.1086 14.9463 63.3117 14.7384 63.1917C14.2846 62.9332 13.9822 63.247 13.6891 63.5147C11.9498 65.1393 10.2577 66.8008 9.095 68.8962C8.26315 70.3915 7.20445 71.776 6.76017 73.4467C6.52385 74.3051 6.46712 75.2006 5.86214 75.939C5.59746 76.2621 5.35172 76.6128 5.12485 76.9636C3.99996 78.6897 2.89397 80.4158 2.27953 82.4003C2.10938 82.9542 2.27951 83.4987 2.02428 84.071C1.30587 85.6402 0.492958 87.2278 0.70092 89.0462C0.729279 89.3139 0.596893 89.6832 0.889931 89.7939C1.15461 89.8955 1.20189 89.4432 1.49493 89.3324C1.11681 92.8492 0.0392073 96.3106 1.04121 99.9105C1.38151 99.4397 1.35312 98.9137 1.54218 98.4614C1.92975 100.446 2.26064 102.421 2.70492 104.378C3.06413 105.966 3.82034 107.396 4.8696 108.67C5.13428 108.993 5.4746 109.252 5.7771 108.762C6.08904 108.255 6.23081 108.449 6.46713 108.799C6.82634 109.326 7.22334 109.843 7.62982 110.332C7.9134 110.673 8.19701 110.609 8.3577 110.202C8.43333 110.027 8.46167 109.824 8.51839 109.639C8.37659 109.566 8.26314 109.473 8.20643 109.316L8.21589 109.298Z" fill="#2E1D0A"/>
<path d="M44.722 129.318L44.7134 129.327L44.722 129.318Z" fill="#2E1D0A"/>
<path d="M28.6624 172.194C28.7475 171.419 28.5868 170.615 28.9082 169.868C28.8704 169.277 29.0973 168.668 28.757 168.105C27.8401 167.911 27.5092 168.419 27.4336 169.231C27.3863 168.096 27.3863 166.997 27.3863 165.908C27.3863 162.622 27.5186 159.336 27.1972 156.068C27.0176 154.167 27.3296 152.339 27.5659 150.484C27.6604 149.708 27.8873 148.942 28.0007 148.167C28.0385 147.909 28.1614 147.53 27.6793 147.456C27.2823 147.392 27.0744 147.595 26.9231 147.927C26.6774 148.462 26.4032 148.979 26.0818 149.644C26.0345 149.413 25.9967 149.339 26.0062 149.284C26.8191 146.081 27.6321 142.878 28.4356 139.666C28.5206 139.343 28.8799 138.881 28.4545 138.678C28.0575 138.493 27.755 138.927 27.547 139.269C27.5375 139.287 27.4714 139.287 27.3863 139.297C27.7455 137.783 28.1236 136.297 28.445 134.792C28.5206 134.441 28.9366 133.887 28.0858 133.786C27.9629 133.767 28.0007 133.527 28.0196 133.38C28.2654 132.06 28.549 130.74 28.7475 129.411C29.1824 126.401 29.5794 123.374 29.9953 120.365C30.1276 119.396 30.2883 118.436 30.4301 117.466C30.4396 117.383 30.4585 117.3 30.468 117.217C30.468 116.793 30.4301 116.377 30.4585 115.953C30.4774 115.583 30.6759 115.316 31.0918 115.445C32.8122 115.99 34.6083 116.193 36.376 116.516C36.9432 116.617 37.1227 116.866 37.0471 117.374C36.0356 116.793 34.4854 116.94 33.663 117.863C33.1526 118.445 32.5476 118.953 32.0088 119.516C31.2809 120.282 30.7326 121.168 30.9406 122.239C31.1107 123.097 31.3659 123.965 31.7913 124.749C33.5117 127.86 35.7332 130.444 39.3725 131.543C40.1382 131.774 40.7526 131.728 41.4332 131.294C42.5109 130.62 43.5034 129.808 44.7039 129.318C44.789 129.235 44.8646 129.143 44.9591 129.069C46.585 127.777 48.5418 126.872 49.9125 125.257C51.5005 123.383 51.9921 120.577 49.8179 118.676C49.4587 118.362 49.1184 118.03 48.7592 117.697H52.5593C54.5065 117.642 56.4632 117.577 58.4105 117.522C58.9115 117.513 59.4126 117.55 59.9041 117.393L60.5374 117.245C61.1329 117.208 61.6907 117.042 62.3429 117.171C63.5529 117.411 64.7912 117.531 66.0296 117.217C66.6251 117.06 67.1922 116.331 67.7594 116.719C68.2698 117.069 68.5062 117.799 68.8654 118.362C68.9032 118.426 68.941 118.491 68.9883 118.546C69.3475 118.925 69.6973 119.303 70.0565 119.682C70.4913 119.922 70.8883 120.226 71.4366 120.217C72.8545 120.189 74.2913 120.291 75.6998 120.051C76.2953 119.949 76.957 119.829 77.2312 119.239C77.5053 118.648 78.0819 118.076 77.458 117.3C77.2217 117.005 77.3068 116.451 77.269 116.008C77.2407 115.777 77.269 115.62 77.6093 115.565C79.4432 115.288 81.2675 114.974 83.1013 114.67C83.2526 114.43 83.4984 114.568 83.7063 114.522C83.8954 114.282 84.2074 114.374 84.4532 114.245C84.9636 113.977 85.2283 114.153 85.5119 114.67C86.1074 115.75 86.873 116.719 87.8183 117.54C88.1208 117.808 88.4517 118.168 88.9338 117.789C88.8865 117.476 88.9338 117.171 88.8298 116.848C88.5179 115.796 87.6576 115.159 86.9959 114.374C86.4004 113.673 86.3531 113.71 87.1377 113.239C87.7049 112.897 88.4706 112.787 88.7731 112.14C88.9999 111.651 89.3591 111.328 89.7183 110.977C90.4179 110.294 90.8149 109.491 90.7771 108.485C90.7393 107.322 90.8527 106.15 90.607 105.005C90.3896 103.972 90.3895 102.919 90.2004 101.876C90.0397 100.972 89.8035 100.085 89.6712 98.9963C90.1721 99.8455 90.5597 100.565 91.1836 101.11C91.3537 101.258 91.5522 101.489 91.7697 101.304C92.299 100.852 92.5543 101.221 92.8662 101.562C93.0836 101.802 93.3389 102.015 93.5846 102.236C94.5772 103.132 94.7946 103.104 95.5413 102.024C95.6737 101.572 95.4846 101.276 95.0782 101.045C94.2558 100.575 93.594 99.9101 92.904 99.2732C92.7054 99.0702 92.4976 98.8671 92.2991 98.6732C91.4767 98.5809 91.1269 97.9717 90.7582 97.3532C89.7468 95.6364 88.7164 93.938 87.6955 92.2396C87.5916 92.1289 87.4875 92.018 87.3835 91.9165C86.4855 91.2796 86.5422 90.1812 86.0506 89.3413C85.7765 88.8613 86.3815 89.1658 86.4572 88.9351C86.6651 88.2889 86.7219 87.6428 86.4761 86.9967C85.8522 85.3721 85.2378 83.7475 85.181 81.9753C85.096 81.8829 85.0676 81.7815 85.1621 81.6707C85.1905 81.7445 85.2188 81.8276 85.2472 81.9014C85.6915 82.566 86.0507 83.2952 86.8353 83.7106C87.2512 82.2614 86.5233 81.1354 85.9467 79.9723C85.0392 78.1355 84.7273 76.0955 84.9258 74.1756C85.0865 72.5971 85.7293 70.9634 86.4572 69.4588V69.4865C86.4666 69.3388 86.4761 69.1912 86.495 69.0435C86.788 68.2681 87.0148 67.4742 87.478 66.7727C87.7522 66.2281 88.0357 65.6835 88.3099 65.1297C88.3288 64.6774 88.6975 64.419 88.9149 64.0775C89.1228 63.7821 89.3308 63.4774 89.5388 63.182C89.5766 62.8221 89.8602 62.5913 90.0209 62.296C90.7299 61.0406 91.4577 59.7945 91.8358 58.3915C91.9776 58.0869 92.1383 57.7823 92.2612 57.4684C92.3936 57.1361 92.6865 56.7392 92.3273 56.4439C92.0154 56.1854 91.5712 56.25 91.1836 56.4346C90.3706 56.8223 89.6428 57.3023 89.293 58.1515C88.5935 59.8407 87.601 61.3729 86.6084 62.9052C86.0224 63.8098 85.9183 64.8989 85.2566 65.7574C85.0392 66.3666 84.8597 67.0034 84.5005 67.5573C83.886 69.1818 83.3849 70.8526 82.7611 72.4587C81.8252 74.8679 81.778 77.3693 81.6268 79.8616C81.5322 81.3292 81.3904 82.7969 81.2676 84.2645C81.2676 84.366 81.2675 84.5229 81.2108 84.5413C80.5396 84.7906 80.7571 85.3722 80.8422 85.7598C81.0313 86.6829 81.0596 87.5782 80.7854 88.4735C81.0123 89.655 81.1163 90.8457 81.1636 92.0365C81.3337 92.1749 81.2675 92.3503 81.2486 92.5165C81.2297 94.1964 81.4093 95.8856 81.1352 97.5655C81.0785 97.9347 81.0123 98.3501 81.2486 98.7286C81.5417 99.1993 81.2391 99.4486 80.861 99.6609C80.3789 99.9378 79.8024 99.947 79.3014 100.159C78.8949 100.335 78.2804 100.427 78.6586 101.128C78.7531 101.313 78.5641 101.415 78.4506 101.461C77.6377 101.729 76.8531 102.098 75.9361 102.245C76.2575 101.581 75.9267 101.332 75.3879 101.202C75.1232 101.138 74.8396 101.11 74.5843 101.009C73.3271 100.519 72.051 100.104 70.6898 100.307C69.5081 100.482 68.336 100.796 67.1639 101.055C67.0032 101.23 66.7952 101.313 66.5589 101.359C66.3036 101.553 66.039 101.756 65.7838 101.95C65.4151 102.227 65.0653 101.812 64.6967 101.913H64.3942C64.035 101.959 63.6758 102.015 63.3071 102.061C62.8345 102.005 62.4092 102.31 61.9365 102.208C61.5773 102.208 61.2181 102.208 60.8494 102.208C60.5942 102.208 60.3484 102.208 60.0931 102.208C59.7623 102.218 59.4314 102.31 59.1195 102.135C58.9304 102.116 58.7414 102.107 58.5523 102.088C58.2971 102.088 58.0419 102.088 57.7867 102.088C56.917 102.079 56.0473 102.07 55.1777 102.061C54.9697 102.061 54.7618 102.061 54.5538 102.061C54.1379 102.116 53.7314 102.098 53.3438 101.913C53.0791 101.913 52.8239 101.913 52.5593 101.913C52.0488 101.913 51.5478 101.913 51.0374 101.913C50.7727 101.867 50.5174 101.812 50.2622 101.765C49.4398 101.848 48.6269 101.784 47.8234 101.618H47.6532C47.0577 101.562 46.4527 101.535 45.8572 101.461C43.9477 101.221 42.0477 100.972 40.1382 100.722C39.8263 100.676 39.5238 100.621 39.2118 100.575C38.881 100.685 38.6068 100.482 38.3043 100.427C37.9735 100.519 37.671 100.381 37.3685 100.279C37.0377 100.39 36.7635 100.178 36.461 100.132C36.2531 100.085 36.0451 100.03 35.8372 99.9839C35.4307 99.8362 35.0242 99.6885 34.6177 99.5316C34.4948 99.5501 34.3625 99.5685 34.3058 99.4208C33.7575 99.2639 33.1998 99.1162 32.6516 98.9593C31.9615 98.7563 31.7441 98.1563 32.1505 97.5655C32.8122 96.5871 32.765 95.858 31.9047 95.1103C31.7157 94.9441 31.7252 94.8887 31.8197 94.7133C32.1316 94.0764 32.0844 93.4303 31.8859 92.7657C31.4227 91.2612 31.2241 89.692 31.1296 88.1413C31.0351 86.5721 30.6948 85.1598 29.5982 83.9968C29.0122 83.3783 28.6341 82.6215 28.1709 81.9292C27.8684 81.5784 27.5659 81.2276 27.254 80.8769C27.1405 80.803 26.9704 80.7662 27.0744 80.5723V80.5907C26.1574 80.0369 25.8077 79.16 25.7321 78.1908C25.6659 77.3785 25.7226 76.5662 25.7226 75.7539C25.7226 73.5755 25.4012 71.4341 24.9285 69.3203C24.5315 67.5481 23.3121 66.0804 22.7355 64.3451C22.5087 63.662 21.1569 63.4221 20.5235 63.8467C19.8807 64.2806 20.3912 64.8159 20.5046 65.2959C21.1001 67.7973 22.6032 69.9849 23.0286 72.5695C23.3594 74.6186 23.9266 76.6124 23.7659 78.7446C23.6146 80.6922 23.5012 82.6584 23.5673 84.6245C23.6146 86.046 23.5768 86.0459 22.1967 86.1474C21.9226 86.2674 21.7713 86.5166 21.5728 86.7105C21.5633 86.7566 21.5444 86.8028 21.535 86.8582C21.5728 86.9874 21.5823 87.1074 21.4216 87.172C20.429 92.3318 20.2211 97.6301 18.4817 102.652C18.2549 102.328 18.5384 101.885 18.0941 101.701C17.8011 101.581 17.5081 101.701 17.2245 101.83C16.9126 101.968 16.8842 102.301 16.8558 102.522C16.5911 104.424 15.5892 105.91 14.228 107.211C14.124 107.313 14.02 107.405 13.916 107.507C13.812 107.701 13.6797 107.885 13.6135 108.088C13.5662 108.264 13.5379 108.485 13.7364 108.624C13.9822 108.799 14.0956 108.568 14.228 108.448C14.521 108.19 14.814 107.913 15.0976 107.645C16.1091 106.63 17.1488 105.633 17.6593 104.092C17.8011 104.931 18.0942 104.922 18.4817 104.442C18.926 103.907 19.2285 103.279 19.5782 102.688C20.8733 100.519 21.5917 98.1194 22.4803 95.7933C23.2271 93.8365 23.8415 91.8519 24.0494 89.7473C24.1723 88.5197 24.2007 87.2644 24.6166 86.0644C24.8057 85.5198 24.8718 84.9291 24.9475 84.3475C25.1176 83.0091 25.354 81.6799 25.5714 80.3046C27.0744 82.3168 27.8589 84.6798 29.5415 86.5074C30.0425 87.0428 30.1655 87.7259 30.1749 88.4735C30.1844 89.655 29.8629 90.8365 30.1465 92.018C30.26 92.498 30.0331 92.7749 29.5699 92.978C28.6057 93.3841 27.7833 94.021 26.9042 94.5749C26.148 95.0548 25.5241 95.701 25.543 96.6332C25.5714 97.9163 25.5052 99.1532 24.7773 100.27C24.7679 100.289 24.7773 100.316 24.7773 100.344C24.5221 101.387 24.3141 102.439 23.9927 103.464C23.6524 104.553 23.4161 105.642 23.5485 106.787C23.6335 107.497 23.6713 108.208 23.5201 108.91C23.0569 111.005 24.0684 112.768 26.1385 113.47C27.1311 113.802 28.0386 114.31 28.9744 114.762C29.2013 114.873 29.3808 115.067 29.1256 115.159C28.3032 115.454 28.5112 116.11 28.464 116.682C28.3505 118.011 28.3788 119.359 28.1236 120.66C27.5564 123.623 26.8097 126.558 26.2236 129.521C25.7226 132.06 24.8057 134.561 25.3823 137.22C25.439 137.478 25.2783 137.82 25.5902 137.958C25.9211 138.106 25.9873 137.626 26.2992 137.589C26.2992 137.69 26.3276 137.792 26.2992 137.875C25.5902 139.896 25.0987 141.973 24.5221 144.032C24.3992 144.456 24.2763 144.946 24.5977 145.379C25.0136 145.952 24.9853 146.487 24.7111 147.17C24.1912 148.425 23.5106 149.644 23.5485 151.065C23.5768 152.025 24.5315 152.764 24.2196 153.798C24.2196 153.798 24.3047 153.825 24.3803 153.853C24.8908 153.068 25.3918 152.275 25.9022 151.49C25.8455 152.579 25.5714 153.631 25.5619 154.684C25.5336 158.616 25.5052 162.539 25.25 166.462C25.1176 168.502 25.2594 170.551 25.1649 172.591C25.1176 173.615 25.0514 174.723 25.8171 175.535C26.2141 175.951 26.2142 176.329 26.1385 176.763C26.0345 177.381 25.8455 177.991 25.7321 178.609C25.5146 179.744 25.3539 180.889 25.8927 181.997C26.252 182.754 26.3748 182.772 26.942 182.08C27.1594 181.757 27.2161 181.341 27.5281 181.074C27.5281 181 27.5186 180.926 27.5281 180.852C28.0385 177.972 28.3221 175.065 28.653 172.157L28.6624 172.194ZM73.8092 117.66C73.1286 117.706 72.4385 117.679 71.7485 117.66C71.3042 117.66 71.153 117.263 70.8505 117.005C71.8052 116.617 72.7789 116.553 73.7147 116.331C73.97 116.267 74.2819 116.313 74.1874 116.682C74.1023 117.014 74.5655 117.605 73.8092 117.66ZM68.2793 103.676C69.2813 103.464 70.2928 103.316 71.3042 103.168C71.6256 103.122 71.947 103.113 72.2684 103.03C72.8923 102.864 73.5068 102.873 74.1779 102.975C75.3028 103.141 76.4183 102.781 77.5148 102.513C78.3561 102.31 79.2163 102.125 80.0104 101.802C82.0994 100.953 83.7159 99.4024 85.5403 98.147C85.9656 97.8517 86.1642 97.381 85.9184 96.8364C85.805 96.5779 85.8616 96.301 85.89 96.0241C86.1547 96.1072 86.4193 96.1903 86.6746 96.2733C87.7711 96.6333 87.8562 96.744 87.8467 97.824C87.8372 99.0147 88.2627 100.141 88.3856 101.313C88.4517 101.913 88.5651 102.559 88.5651 103.132C88.584 104.941 89.0094 106.722 88.9243 108.531C88.8865 109.325 88.4233 109.925 87.6293 110.211C87.2606 110.35 86.8636 110.516 86.58 110.765C85.1432 112.002 83.3283 112.454 81.6173 113.119C79.8969 113.784 78.0819 114.208 76.2953 114.559C74.4615 114.919 72.7789 115.676 70.9923 116.137C70.3779 116.294 70.151 116.211 69.9052 115.759C69.1206 114.291 68.5062 112.768 68.2983 111.116C69.5744 110.996 70.841 111.18 72.1077 111.227C73.1853 111.264 74.1589 110.1 73.8754 109.094C73.7619 108.697 73.3271 108.513 72.9301 108.614C71.446 109.002 69.9052 109.011 68.4022 109.279C68.1565 109.325 67.939 109.344 67.9012 108.947C67.7405 107.424 67.6744 105.901 67.5893 104.378C67.5609 103.824 67.9674 103.741 68.2793 103.676ZM48.8632 121.112C49.3547 121.989 48.9388 123.429 48.1259 124.325C47.2657 125.257 46.1313 125.857 45.1954 126.697C44.0044 127.768 42.6149 128.608 41.282 129.503C40.9417 129.725 40.6581 129.771 40.2422 129.669C37.8128 129.06 36.1113 127.491 34.4949 125.746C33.5685 124.749 32.6421 123.78 32.1033 122.515C31.6968 121.583 31.8008 120.872 32.4814 120.125C32.9824 119.571 33.4645 118.999 33.9277 118.417C34.5799 117.614 35.3456 117.217 36.4327 117.503C36.5745 117.54 36.962 117.909 37.0755 117.402C37.3496 117.891 37.359 118.482 37.6899 118.962C38.3327 119.876 39.1079 120.651 40.1666 121.085C40.5731 121.251 40.8661 120.919 41.1497 120.669C41.4332 120.429 41.3671 120.208 41.1686 119.959C41.0551 119.811 40.8566 119.599 40.9795 119.442C41.1591 119.202 41.282 119.46 41.4427 119.562C41.6507 119.7 41.868 119.488 41.9437 119.35C42.4636 118.316 43.4373 118.417 44.3542 118.445C44.8552 118.463 45.3467 118.639 45.8477 118.657C47.5303 118.713 48.192 119.949 48.8632 121.131V121.112ZM39.1267 117.005C39.883 116.765 40.5541 117.088 41.2442 117.088C41.3292 117.088 41.4899 117.18 41.4805 117.208C41.4143 117.623 41.7357 118.039 41.5183 118.454C41.3576 118.611 41.1969 118.759 41.0457 118.925C40.7432 119.266 40.4596 119.285 40.1949 118.888C39.6845 118.343 39.467 117.66 39.1267 117.005ZM42.6148 117.346C42.9173 117.088 43.2198 117.337 43.5129 117.439C43.1915 117.503 42.9741 117.863 42.6338 117.743C42.577 117.725 42.5487 117.402 42.6148 117.337V117.346ZM27.4997 95.6549C27.7361 95.3779 27.9819 95.1102 28.2276 94.8333C28.3033 94.8887 28.3694 94.9442 28.445 94.9995C28.2465 95.3134 28.0197 95.6087 27.8779 95.9409C27.755 96.2271 27.6415 95.9871 27.5565 95.9687C27.3201 95.9133 27.3958 95.7749 27.5092 95.6549H27.4997ZM26.1196 111.605C25.2499 111.162 24.626 110.174 24.6355 109.03C24.6355 108.042 24.6733 107.055 24.5126 106.067C24.3992 105.393 24.7111 104.728 24.938 104.082C25.231 103.233 25.5146 102.375 25.7037 101.498C25.8833 100.676 26.2141 99.9747 26.8758 99.4301C27.6415 98.8024 27.4525 98.0271 27.2067 97.261C27.1122 96.9563 27.0177 96.7072 27.2729 96.5041C28.7948 98.3687 30.4396 99.9471 32.765 100.99C35.9033 102.402 39.1835 102.975 42.5203 103.473C45.2144 103.87 47.9084 104.248 50.6403 104.396C53.4951 104.544 56.3404 104.599 59.1952 104.701C61.1046 104.765 62.9951 104.461 64.8951 104.516C65.3489 104.535 65.4624 104.655 65.4719 105.107C65.5002 106.565 65.538 108.024 65.7459 109.473C65.7837 109.713 65.6515 109.824 65.4435 109.916C65.2355 110.008 64.9236 110.045 64.9992 110.396C65.0654 110.728 65.245 110.977 65.5853 110.968C66.0201 110.968 66.0296 111.31 66.0485 111.513C66.143 112.62 66.5495 113.645 66.8993 114.799C66.0674 114.55 65.4813 115.187 64.7724 115.177C64.6778 115.177 64.5833 115.279 64.4982 115.279C61.6434 115.067 58.8643 115.879 56.019 115.916C53.4668 115.943 50.9145 115.962 48.3622 115.851C45.7532 115.731 43.1347 115.777 40.5447 115.307C40.072 115.223 39.571 115.288 39.0889 115.288C38.7959 115.288 38.6257 115.205 38.6068 114.863C38.4934 113.193 38.6919 111.577 39.5899 110.11C39.6561 109.999 39.6561 109.584 39.9586 109.824C40.9984 110.636 41.7263 109.796 42.4636 109.334C42.8606 109.085 43.3805 108.762 43.1631 108.07C42.9173 107.304 42.2367 107.064 41.6223 106.796C41.1497 106.584 40.0626 107.488 39.8641 108.264C39.7317 108.799 39.4481 109.122 39.0228 109.482C37.7277 110.562 37.0471 111.974 36.9242 113.636C36.9242 113.71 36.9242 113.783 36.9242 113.857C36.8391 115.02 36.8581 114.928 35.6576 114.753C33.9182 114.494 32.2167 114.134 30.5435 113.636C28.9838 113.165 27.5659 112.353 26.1385 111.614L26.1196 111.605Z" fill="#2E1D0A"/>
<path d="M102.13 142.131C101.979 142.048 101.667 142.048 101.752 141.78C101.894 141.318 101.497 141.245 101.26 141.198C100.977 141.143 100.769 141.411 100.636 141.66C100.315 142.269 100.58 143.045 101.175 143.534C102.385 144.531 103.841 145.103 105.221 145.804C105.438 145.915 105.665 145.989 105.826 146.229C107.093 148.131 108.388 150.023 109.673 151.924C109.806 152.256 110.24 152.395 110.269 152.801C110.373 152.912 110.486 153.013 110.59 153.124C110.723 153.17 110.732 153.29 110.751 153.41C110.76 153.447 110.779 153.475 110.789 153.512C110.789 153.521 110.779 153.54 110.77 153.558C111.536 154.038 111.933 154.878 112.859 155.515C112.32 155.487 111.98 155.515 112.141 155.976C112.292 156.023 112.273 156.133 112.263 156.244C112.32 156.299 112.377 156.364 112.424 156.419V156.401C113.577 157.389 114.296 158.709 115.26 159.992C114.419 159.955 114.494 160.342 114.721 160.795C114.816 160.97 114.929 161.127 115.033 161.302C116.054 162.964 117.179 164.57 118.115 166.296C118.266 166.351 118.313 166.471 118.351 166.61C118.379 166.647 118.398 166.693 118.408 166.739H118.398C118.531 166.97 118.843 167.145 118.72 167.487V167.459C118.88 167.422 118.956 167.505 118.994 167.644C119.4 169.019 120.053 170.284 120.847 171.474C121.159 171.945 121.329 172.296 120.667 172.563C120.629 172.96 120.988 173.228 120.998 173.607C122.274 175.047 123.56 176.477 124.051 178.388C124.146 178.757 124.325 179.126 124.533 179.45C124.77 179.828 124.788 180.151 124.495 180.493C124.656 180.936 124.826 181.379 124.987 181.822C125.138 181.877 125.129 182.006 125.148 182.126C126.178 183.972 127.133 185.865 127.776 187.868C128.645 190.572 129.326 193.332 130.347 195.981C130.999 197.68 131.32 199.433 131.273 201.252C131.254 202.046 131.302 202.849 131.292 203.643C131.292 204.833 131.386 206.052 131.197 207.215C131.056 208.092 131.264 208.802 131.746 209.421C132.058 209.818 132.077 210.196 132.01 210.593C131.746 212.19 131.387 213.768 130.999 215.338C130.876 215.827 130.744 216.464 131.122 216.842C131.528 217.267 131.434 217.682 131.405 218.125C131.368 218.845 131.812 219.565 131.387 220.276C131.339 220.525 131.283 220.783 131.235 221.033C131.056 221.365 131.727 221.467 131.434 221.891C131.084 222.39 131.027 223.017 130.867 223.599C130.81 223.793 130.734 223.986 130.876 224.153C131.103 224.402 131.264 224.079 131.472 224.07C131.557 224.005 131.632 223.94 131.717 223.876C131.736 223.82 131.736 223.746 131.821 223.802C131.821 223.802 131.784 223.894 131.765 223.95C131.746 224.07 131.698 224.162 131.576 224.199C131.481 224.503 131.377 224.817 131.264 225.177C131.689 225.048 131.991 224.873 132.275 224.623C132.587 224.356 132.776 223.931 133.249 223.857C133.362 223.636 133.608 223.433 133.409 223.146C133.079 223.063 132.804 223.248 132.502 223.303C132.464 223.414 132.351 223.479 132.275 223.405C132.171 223.303 132.341 223.266 132.379 223.202C132.852 222.343 133.239 221.448 133.495 220.507C133.58 220.193 133.702 219.74 133.476 219.602C132.946 219.279 133.145 218.928 133.258 218.54C133.372 218.144 133.476 217.747 133.551 217.34C133.655 216.768 133.542 216.353 132.804 216.417C132.804 215.873 132.757 215.328 132.804 214.793C132.918 213.713 132.492 212.43 133.901 211.802C133.958 211.775 133.977 211.673 134.024 211.618C134.979 210.335 135.281 208.83 135.64 207.325C136.406 204.039 137.049 200.744 136.945 197.347C136.907 196.129 136.945 194.91 136.964 193.692C136.888 191.68 137.172 189.677 137.105 187.655C137.058 186.142 136.727 184.674 136.567 183.179C136.359 181.342 135.933 179.542 135.858 177.686C135.81 176.634 135.527 175.591 135.584 174.52C135.272 174.16 135.48 173.717 135.395 173.32C135.187 172.748 135.111 172.148 135.101 171.548C134.799 170.477 134.563 169.388 134.175 168.345C133.504 166.508 133.391 164.413 131.736 163.001C131.67 162.945 131.642 162.825 131.623 162.733C131.491 162.032 131.368 161.33 131.235 160.629C130.744 158.93 130.205 157.25 129.269 155.718C128.078 154.841 127.889 153.521 127.549 152.229C127.171 150.789 126.566 149.414 125.866 148.084L125.857 148.103C124.996 146.921 124.079 145.758 123.522 144.411C122.709 142.454 121.385 140.903 119.788 139.537C119.06 138.909 118.436 138.208 117.954 137.386C117.15 136.02 116.101 134.903 114.456 134.137C117.34 134.156 119.977 134.617 122.539 135.485C122.917 135.503 123.172 135.771 123.456 135.965C123.919 136.205 124.382 136.435 124.845 136.675C125.11 136.685 125.393 136.676 125.611 136.869C126.736 137.072 127.804 137.432 128.683 138.18C129.345 138.623 130.016 139.075 130.678 139.528C130.971 139.546 131.188 139.731 131.434 139.851C131.689 139.832 131.963 139.842 132.19 139.703C132.237 139.685 132.285 139.675 132.332 139.675C132.719 139.343 132.88 138.909 132.823 138.226C133.731 139.251 134.506 140.128 135.291 141.014H135.281C135.385 141.078 135.536 141.125 135.461 141.291C136.113 141.761 136.765 142.223 137.417 142.694C137.871 142.897 137.956 142.657 137.852 142.306C137.739 141.918 137.559 141.54 137.408 141.162C137.087 140.617 136.746 140.082 136.293 139.629C134.96 138.319 133.759 136.814 131.878 136.214C130.971 135.919 130.167 135.513 129.354 135.042C127.227 133.814 125.025 132.706 122.576 132.153C122.142 132.051 121.716 132.116 121.291 132.051C118.795 131.645 116.281 131.663 113.785 131.94C113.284 131.996 112.415 131.848 112.32 132.549C112.235 133.14 112.547 133.786 113.18 134.156C113.691 134.451 114.126 134.839 114.655 135.134C115.742 135.734 116.404 136.759 116.886 137.912C117.226 138.734 117.661 139.537 118.257 140.239C119.164 141.328 120.251 142.288 120.884 143.571C121.461 144.725 121.773 146.026 122.463 147.097C124.07 149.607 125.015 152.34 125.762 155.173C126.093 156.419 126.528 157.638 127.379 158.653C127.587 158.902 127.804 159.346 128.173 159.262C128.513 159.189 128.267 158.709 128.399 158.469C128.607 158.099 128.466 157.739 128.522 157.379C128.56 157.167 128.39 156.89 128.73 156.715C128.872 157.084 129.023 157.416 129.127 157.767C129.865 160.296 130.044 162.927 130.498 165.511C130.668 166.471 130.848 167.431 131.301 168.308C131.453 168.604 131.708 169.01 132.048 168.964C132.36 168.918 132.332 168.465 132.36 168.151C132.37 167.958 132.493 167.764 132.597 167.505C132.918 169.333 133.277 171.05 133.466 172.813C133.75 175.416 133.759 178.01 133.693 180.622C133.674 181.471 133.816 182.302 134.619 182.726C134.988 182.929 135.092 183.169 135.101 183.437C135.13 184.305 135.205 185.163 135.262 186.031C135.376 187.886 135.054 189.714 134.837 191.551C134.601 193.507 134.402 195.492 134.392 197.458C134.392 199.987 134.005 202.443 133.362 204.879C133.116 204.658 133.126 204.353 133.126 204.067C133.126 203.292 133.164 202.516 133.116 201.75C133.069 201.104 133.069 200.495 132.474 199.904C132.077 199.516 131.746 198.658 132.199 197.92C132.634 197.218 132.578 196.535 132.162 195.806C131.793 195.15 131.566 194.421 131.264 193.729C130.309 191.56 129.6 189.308 128.815 187.083C128.418 185.966 127.785 184.942 127.256 183.871C127.038 183.668 126.915 183.428 126.811 183.095C127.17 183.234 127.265 183.483 127.388 183.714C128.021 184.222 128.456 184.951 129.335 185.311C129.193 184.803 129.307 184.379 129.184 183.926C128.891 182.874 128.069 182.209 127.473 181.379C127.293 181.249 127.171 181.074 127.123 180.853C127 180.788 126.821 180.705 126.981 180.557C127.067 180.474 127.152 180.677 127.227 180.751C127.36 180.917 127.501 181.083 127.643 181.249C128.292 181.656 128.825 181.511 129.241 180.816C129.288 180.733 129.354 180.649 129.401 180.566C129.704 179.994 129.647 179.523 129.099 179.071C128.144 178.296 127.114 177.65 126.395 176.533C125.412 175.01 124.098 173.671 122.955 172.231C122.652 171.853 122.69 171.631 122.898 171.29C123.267 170.69 123.333 170.099 122.832 169.518C122.236 168.844 121.603 168.197 121.073 167.487C120.034 166.102 119.051 164.681 117.963 163.158C118.871 163.324 118.984 162.705 119.145 162.262C119.325 161.773 119.145 161.312 118.654 160.979C117.273 160.066 116.252 158.81 115.118 157.518C116.13 157.564 116.262 156.909 116.46 156.272C116.668 155.607 116.082 155.543 115.733 155.358C114.636 154.786 113.662 154.038 112.755 153.216C112.66 153.133 111.743 152.829 112.67 152.506C112.764 152.469 112.689 152.34 112.641 152.247C112.207 151.453 111.838 150.65 111.072 150.05C109.777 149.026 108.728 147.752 107.584 146.414C108.17 146.414 108.633 146.451 109.087 146.404C109.456 146.367 109.654 146.192 109.286 145.832C108.52 145.075 107.65 144.457 106.696 143.931C105.164 143.386 103.576 142.961 102.139 142.158L102.13 142.131ZM132.804 216.408C132.804 216.408 132.757 216.473 132.738 216.501C132.729 216.473 132.719 216.436 132.71 216.408C132.738 216.408 132.776 216.408 132.804 216.408ZM126.783 180.253C126.821 180.317 126.849 180.373 126.887 180.437C126.849 180.456 126.811 180.474 126.745 180.502C126.717 180.437 126.689 180.382 126.679 180.317C126.679 180.299 126.745 180.271 126.774 180.253H126.783Z" fill="#2E1D0A"/>
<path d="M110.75 153.557C110.75 153.557 110.75 153.557 110.75 153.548C110.75 153.548 110.75 153.548 110.741 153.539V153.557H110.75Z" fill="#2E1D0A"/>
<path d="M138.618 141.753C139.365 143.294 140.121 144.826 140.499 146.516C140.821 147.937 140.953 149.442 141.87 150.66C142.569 151.592 142.276 152.414 141.87 153.291C141.633 154.158 142.059 154.851 142.484 155.543C142.815 155.691 143.061 156.198 143.533 155.811L143.997 154.906C144.299 154.555 144.29 154.075 144.564 153.641C145.585 154.952 146.218 156.401 146.596 157.952C146.936 159.327 147.22 160.721 147.523 162.106C147.768 162.66 148.024 163.204 148.269 163.758C148.288 163.841 148.411 163.915 148.335 164.017C148.761 164.146 148.912 163.869 148.997 163.5C149.073 164.561 149.319 165.567 149.035 166.573C149.007 167.127 149.215 167.7 148.912 168.244L148.884 169.269C148.6 169.684 148.94 170.229 148.591 170.626C148.61 171.53 148.685 172.435 149.13 173.275C149.602 172.97 149.829 172.573 150.113 172.195C150.094 172.675 149.905 173.118 149.999 173.589C150.292 173.875 150.264 174.401 150.765 174.53C150.982 174.512 151.171 174.429 151.209 174.207C151.247 173.995 151.294 173.773 151.531 173.792C151.786 173.81 151.691 174.106 151.776 174.262C151.984 174.669 152.117 175.112 152.277 175.545C152.646 176.136 153.015 176.727 153.374 177.318C153.686 177.521 153.988 177.632 154.338 177.382C154.792 177.059 154.518 176.69 154.442 176.33C152.873 174.549 151.332 172.749 151.531 170.173C151.54 169.998 151.531 169.823 151.531 169.647C151.531 169.398 151.578 169.112 151.294 169.001C150.973 168.872 150.803 169.121 150.67 169.379C150.462 168.909 150.774 168.503 150.774 168.059C150.784 166.066 150.595 164.09 150.141 162.143C150.075 161.838 149.943 161.303 149.81 161.294C148.893 161.238 149.167 160.481 149.111 160.084C148.61 157.048 147.504 154.241 145.802 151.666C145.585 151.343 145.292 150.891 144.932 150.909C144.148 150.946 144.214 150.383 144.195 150.005C144.176 149.552 144.129 149.091 143.978 148.712C143.637 147.863 143.912 146.645 142.617 146.294C142.55 146.276 142.513 146.137 142.475 146.054C141.945 144.577 141.18 143.22 140.319 141.9C139.658 140.894 139.062 139.842 138.268 138.919C138.004 138.605 137.635 138.467 137.342 138.67C137.058 138.864 137.295 139.196 137.436 139.464C137.852 140.211 138.334 140.931 138.609 141.753H138.618Z" fill="#2E1D0A"/>
<path d="M148.344 164.034C148.344 164.034 148.344 164.025 148.344 164.016C148.344 164.016 148.344 164.016 148.335 164.016V164.034H148.344Z" fill="#2E1D0A"/>
<path d="M99.814 100.326C99.6912 100.649 99.5967 100.926 99.8424 101.212C100.343 100.99 100.551 100.547 100.75 100.077C101.09 99.2642 101.44 98.4519 101.79 97.6119C102.338 98.2488 102.546 98.2489 103.009 97.5381C103.624 96.5966 104.087 95.5813 104.427 94.5198C104.493 94.3075 104.484 93.9751 104.729 93.9013C105.382 93.7167 105.486 93.1814 105.646 92.6829C106.28 90.6522 106.62 88.5661 106.942 86.4062C107.017 86.5815 107.036 86.7569 107.102 86.7754C107.216 86.8031 107.31 86.6831 107.32 86.5539C107.338 86.4062 107.32 86.2585 107.329 86.1016C107.424 84.1447 107.102 82.2155 106.8 80.2956C106.771 80.1848 106.734 80.0648 106.715 79.9448C106.516 78.8833 106.185 77.9141 104.881 77.7295C104.758 78.431 105.306 78.9849 105.344 79.6495C105.921 80.7941 106.147 82.0494 106.403 83.2862C106.469 83.6185 106.544 84.0063 105.921 84.0432C105.372 84.0801 105.155 84.477 105.183 85.0493C105.221 86.0185 105.145 86.997 105.212 87.9662C105.249 88.5292 104.994 88.7508 104.522 88.7784C103.954 88.8061 103.841 89.1846 103.832 89.5815C103.813 90.2276 103.794 90.8645 103.671 91.5014C103.425 92.766 103.302 94.0489 102.763 95.2489C102.716 95.3966 102.811 95.5905 102.612 95.6921C102.612 96.0797 102.404 96.3751 102.196 96.6797C102.092 96.4858 102.196 96.3473 102.253 96.1812C102.376 95.8766 102.272 95.5259 102.007 95.4336C101.79 95.3597 101.506 95.572 101.383 95.8489C101.232 96.1997 101.071 96.5412 100.92 96.8827C100.892 97.0304 100.977 97.215 100.807 97.3258C100.608 98.3596 100.221 99.3381 99.833 100.317L99.814 100.326Z" fill="#2E1D0A"/>
<path d="M98.0936 138.042C99.4076 139.583 101.043 140.728 102.886 141.577C103.879 142.029 104.928 141.66 105.949 141.577C106.299 141.411 106.441 141.282 106.129 140.876C105.722 140.34 105.183 139.971 104.711 139.519C103 138.771 101.289 138.033 99.814 136.87C99.6533 136.75 99.3036 136.694 99.3887 136.426C99.4738 136.122 99.814 136.242 100.05 136.214C100.126 136.205 100.202 136.196 100.277 136.186C100.929 135.882 100.835 135.393 100.532 134.931C100.353 134.663 100.098 134.423 99.7667 134.248C99.1617 133.934 98.5851 133.556 97.999 133.214C97.1105 132.716 96.1368 132.374 95.5508 131.442C95.3334 131.1 94.8229 131.22 94.4542 131.442C94.3219 132.079 94.596 132.568 95.0497 133.011C95.7303 133.667 96.3826 134.34 97.0443 135.014C97.2522 135.162 97.4413 135.319 97.6587 135.448C98.0558 135.697 98.3111 135.909 97.9708 136.445C97.6494 136.943 97.6777 137.562 98.0842 138.042H98.0936Z" fill="#2E1D0A"/>
<path d="M90.5881 126.79C90.5881 126.836 90.607 126.891 90.6165 126.937C90.8717 127.233 91.3821 126.91 91.5523 127.251C92.006 128.147 92.9702 128.553 93.5374 129.328C94.1329 129.55 94.511 130.057 94.9837 130.436C95.5225 130.86 96.118 131.1 96.7419 131.313C96.8648 131.313 96.9972 131.303 97.12 131.294C97.3375 131.285 97.6494 131.368 97.725 131.119C97.7818 130.934 97.621 130.713 97.4414 130.565C97.1011 130.27 96.7987 129.956 96.4205 129.697C95.7588 129.245 95.0121 128.894 94.426 128.331C93.8399 128.147 93.4617 127.648 92.9418 127.362C92.6488 127.196 92.819 127.011 93.0553 126.984C93.3105 126.956 93.5563 126.937 93.7737 126.79C93.9628 126.651 94.3314 126.614 94.2274 126.291C94.1518 126.061 93.8587 125.913 93.613 125.931C93.0931 125.978 92.6394 125.719 92.1478 125.673C92.7528 125.599 93.3672 125.516 93.9722 125.442C94.303 125.239 94.4071 125.018 94.0668 124.731C93.7643 124.482 93.4807 124.224 93.1782 123.974C91.9493 123.494 90.7299 123.033 89.8981 121.907C89.4443 121.288 89.0851 121.436 88.8299 122.156C88.6314 122.71 89.0851 123.061 89.1891 123.522C89.4538 123.818 89.7184 124.122 89.9926 124.418C90.4747 124.75 90.9473 125.082 91.4483 125.433C90.4558 125.47 90.6826 126.236 90.5786 126.808L90.5881 126.79Z" fill="#2E1D0A"/>
<path d="M91.1836 121.27C91.4199 121.242 91.5995 121.224 91.4766 120.928C91.0607 120.568 90.6447 120.208 90.2193 119.848C89.2173 119.276 88.2248 118.703 87.393 117.909C87.2039 117.734 86.996 117.365 86.7218 117.586C86.5044 117.762 86.5706 118.14 86.7029 118.417C86.788 118.593 86.9014 118.768 87.0432 118.906C87.5537 119.423 88.0642 119.959 88.6219 120.42C89.3497 121.03 90.191 121.399 91.193 121.279L91.1836 121.27Z" fill="#2E1D0A"/>
<path d="M10.201 108.55C9.89854 108.43 9.62438 108.236 9.28407 108.218C9.06666 108.227 8.85868 108.264 8.67908 108.402L8.83036 108.67C9.33136 109.067 9.804 109.51 10.3712 109.843C10.6359 110 10.8627 110.036 11.1369 109.907C11.3826 109.815 11.2408 109.584 11.3165 109.436C11.0801 108.984 10.5602 108.855 10.201 108.541V108.55Z" fill="#2E1D0A"/>
<path d="M25.0891 3.20284C25.0418 3.16583 24.9851 3.12881 24.9379 3.0918C24.8812 3.13807 24.8528 3.16582 24.8151 3.19358C24.8717 3.2306 24.9379 3.2676 25.004 3.29536C25.0229 3.29536 25.0607 3.23987 25.0891 3.21211V3.20284Z" fill="#2E1D0A"/>
<path d="M64.933 22.1994C64.7723 21.627 64.2808 21.4793 63.6758 21.4978C63.2694 21.4516 62.9006 21.5624 63.0046 22.0886C63.118 22.624 62.9291 23.3441 63.6758 23.5749C64.0256 23.6857 65.037 22.5963 64.9236 22.1994H64.933Z" fill="#2E1D0A"/>
<path d="M65.1598 26.2697C65.2165 26.7589 65.2071 27.3313 65.7742 27.5806C66.0106 27.6822 66.8613 26.7128 66.8235 26.3712C66.7668 25.845 66.3224 25.8358 65.8404 25.7988C65.5946 25.8635 65.0936 25.7158 65.1598 26.2697Z" fill="#2E1D0A"/>
<path d="M58.6941 28.762C58.7414 29.2421 58.7319 29.7683 59.2708 29.9991C59.526 30.1098 60.2066 29.2974 60.235 28.9281C60.2917 28.2265 59.6394 28.4296 59.3747 28.2265C58.9115 28.2081 58.6469 28.3189 58.6941 28.762Z" fill="#2E1D0A"/>
<path d="M61.3881 26.5654C61.6528 26.6024 62.4469 25.633 62.3618 25.3745C62.2106 24.8944 61.7095 24.9314 61.3692 24.7744C61.0005 24.8298 60.6225 25.0145 60.7359 25.3099C60.9061 25.7438 60.613 26.4547 61.3881 26.5654Z" fill="#2E1D0A"/>
<path d="M63.2117 19.4948C63.2589 19.0793 62.796 18.9132 62.352 18.9501C61.9836 18.904 61.7569 19.0978 61.8608 19.4209C61.9741 19.7718 61.738 20.381 62.3426 20.4179C62.8999 20.4549 63.1645 19.8917 63.2117 19.4948Z" fill="#2E1D0A"/>
<path d="M63.2784 30.7102C63.6469 30.7102 64.0342 30.3317 64.0626 29.8516C64.0909 29.3624 63.6468 29.3809 63.4862 29.307C62.8817 29.1962 62.8439 29.4732 62.8439 29.8148C62.8439 30.2025 62.8722 30.7102 63.2879 30.7102H63.2784Z" fill="#2E1D0A"/>
<path d="M60.8108 23.2242C60.8674 22.7627 60.3574 22.818 60.159 22.698C59.6016 22.6426 59.611 22.9472 59.6205 23.2611C59.6205 23.6027 59.6205 24.0181 60.0834 24.0089C60.5179 23.9997 60.7635 23.5843 60.8108 23.2242Z" fill="#2E1D0A"/>
<path d="M57.0304 26.1135C57.1154 26.4458 57.002 27.0366 57.5782 26.9905C57.9561 26.9628 58.249 26.6027 58.249 26.1503C58.249 25.6795 57.8523 25.7534 57.6633 25.6888C57.2288 25.6518 56.9359 25.7535 57.0304 26.1135Z" fill="#2E1D0A"/>
<path d="M43.9666 26.0941C43.9382 25.5679 43.4656 25.4848 43.1064 25.4386C42.785 25.4017 42.3596 25.494 42.4636 26.1402C42.5865 26.4172 42.4636 26.9804 42.993 27.1558C43.286 27.2481 43.9855 26.445 43.9666 26.0941Z" fill="#2E1D0A"/>
<path d="M40.2513 22.2269C39.9018 22.1715 39.7696 22.4023 39.7979 22.7993C39.8357 23.2239 39.7223 23.7317 40.3175 23.8794C40.6103 23.9533 41.3849 23.1224 41.2904 22.7993C41.1676 22.3931 40.7803 22.2546 40.2513 22.2269Z" fill="#2E1D0A"/>
<path d="M41.5844 32.5102C41.7545 32.8794 41.4427 33.6088 42.1701 33.5903C42.6708 33.5811 42.9636 33.0548 42.992 32.6394C43.0298 32.1409 42.5102 32.1225 42.0095 32.0948C41.6978 31.9655 41.5089 32.344 41.5844 32.5102Z" fill="#2E1D0A"/>
<path d="M38.2473 32.399C38.7196 32.4082 38.9274 31.9559 39.0219 31.6328C39.1447 31.2081 38.7479 31.0604 38.2473 31.0234C38.0772 31.0604 37.6049 31.0512 37.7277 31.4205C37.8411 31.7528 37.5577 32.3897 38.2473 32.4082V32.399Z" fill="#2E1D0A"/>
<path d="M38.5587 26.9256C38.5965 26.5933 38.247 26.3994 37.8313 26.4363C37.5101 26.3625 37.2078 26.5286 37.3023 26.8517C37.4062 27.1656 37.1417 27.7656 37.7841 27.7749C38.3036 27.7749 38.5115 27.3134 38.5493 26.9349L38.5587 26.9256Z" fill="#2E1D0A"/>
<path d="M45.2608 29.8515C45.3175 29.4361 44.864 29.3531 44.609 29.3161C44.3539 29.27 43.9288 29.4362 44.0233 29.7962C44.1177 30.1286 44.0233 30.627 44.609 30.7562C44.9207 30.5531 45.2041 30.2577 45.2608 29.8608V29.8515Z" fill="#2E1D0A"/>
<path d="M38.9565 35.1589C39.0605 35.4358 38.8621 36.0359 39.4666 35.9805C39.8823 35.9436 40.0807 35.5559 40.109 35.1958C40.1373 34.845 39.8068 34.7988 39.5139 34.7988C39.2305 34.7988 38.8337 34.8173 38.9565 35.1589Z" fill="#2E1D0A"/>
<path d="M40.5919 28.1902C40.5825 28.4671 40.7147 28.7533 40.9414 28.7625C41.2437 28.7718 41.4232 28.4855 41.5271 28.144C41.5271 27.8485 41.2154 27.8208 41.0076 27.7839C40.7336 27.7285 40.6108 27.9224 40.6014 28.1902H40.5919Z" fill="#2E1D0A"/>
<path d="M61.4165 111.541C61.9837 111.541 63.118 110.987 63.4678 110.563C63.6001 110.406 63.5812 110.286 63.5434 110.101C63.3921 109.307 62.7399 109.03 62.116 108.873C61.4827 108.707 61.1045 109.335 60.821 109.732C60.1687 110.664 60.509 111.532 61.4165 111.541Z" fill="#2E1D0A"/>
<path d="M49.1184 110.941C50.1204 110.923 51.2831 110.314 51.302 109.824C51.3303 109.243 50.3473 108.532 49.5343 108.541C48.9104 108.541 48.3622 109.344 48.4283 110.231C48.4567 110.637 48.5039 111.135 49.1184 110.941Z" fill="#2E1D0A"/>
<path d="M55.5085 111.256C56.3593 111.237 57.4463 110.582 57.4652 110.037C57.4841 109.511 56.6239 108.744 55.9528 108.698C55.4234 108.661 54.7145 109.612 54.705 110.369C54.6577 110.932 54.8563 111.265 55.5085 111.246V111.256Z" fill="#2E1D0A"/>
</svg>
