<svg width="1246" height="347" viewBox="0 0 1246 347" fill="none" xmlns="http://www.w3.org/2000/svg">
<path d="M1.08502 0C1.08502 0 -0.315861 138.327 62.3466 228.273C125.009 318.219 229.642 345.422 229.642 345.422C229.642 345.422 204.899 270.629 202.495 224.419C200.09 178.208 206.792 140.518 206.792 140.518C206.792 140.518 217.299 175.45 253.969 198.068C290.638 220.686 317.483 250.08 317.483 250.08C317.483 250.08 325.869 209.549 306.711 172.691C287.553 135.832 304.307 142.81 328.274 172.691C352.241 202.571 375.148 131.227 375.148 131.227C375.148 131.227 364.963 186.12 410.095 231.559C455.227 277.019 466.945 334.082 466.945 334.082C466.945 334.082 519.858 263.205 527.109 207.703C534.359 152.202 501.949 119.137 501.949 119.137C501.949 119.137 542.576 147.354 551.057 179.121C559.538 210.888 540.645 264.361 540.645 264.361C540.645 264.361 604.954 288.562 675.624 238.497C746.295 188.432 763.068 122.971 763.068 122.971C763.068 122.971 763.996 190.481 801.404 225.656C838.793 260.831 918.777 289.84 918.777 289.84C918.777 289.84 876.807 235.069 890.04 184.578C903.613 132.83 943.937 125.527 943.937 125.527C943.937 125.527 898.975 175.125 920.254 212.592C941.533 250.039 954.709 287.263 949.919 301.382C945.13 315.501 925.081 333.433 925.081 333.433C925.081 333.433 983.465 350.169 1025.4 288.541C1067.33 226.934 1092.47 189.041 1130.81 179.101L1169.14 169.161C1169.14 169.161 1117.63 184.558 1100.86 230.768C1084.08 276.979 1092.47 296.23 1092.47 296.23C1092.47 296.23 1123.61 226.752 1169.14 229.409C1214.67 232.046 1244.98 172.65 1244.98 172.65V0.121713L1.00928 0H1.08502Z" fill="#AC9B00" stroke="#301902" stroke-width="2" stroke-linecap="round" stroke-linejoin="round"/>
</svg>
