<?xml version="1.0" encoding="UTF-8"?>
<svg id="Layer_1" xmlns="http://www.w3.org/2000/svg" viewBox="0 0 861.42 861.42">
  <defs>
    <style>
      .cls-1 {
        fill: #dd0309;
      }

      .cls-2 {
        fill: #7e0017;
      }

      .cls-3 {
        fill: #2b9ad4;
      }

      .cls-4 {
        fill: #faa400;
      }

      .cls-5 {
        fill: #dc000a;
      }

      .cls-6 {
        fill: #321b04;
      }

      .cls-7 {
        fill: #dc0;
      }

      .cls-8 {
        fill: #5c4438;
      }

      .cls-9 {
        fill: #e6cea1;
      }

      .cls-10 {
        fill: #7f0017;
      }

      .cls-11 {
        fill: #8b6852;
      }

      .cls-12 {
        fill: #007ab2;
      }
    </style>
  </defs>
  <g>
    <path class="cls-3" d="M849.89,390.55l-24.2-38.4,7.66-44.74c4.87-28.42-7.2-57.55-30.74-74.21l-37.06-26.22-10.04-44.27c-6.38-28.12-28.67-50.42-56.8-56.8l-44.27-10.04-26.22-37.06c-16.66-23.54-45.78-35.61-74.21-30.74l-44.74,7.66-38.4-24.2c-24.4-15.38-55.93-15.38-80.32,0l-38.4,24.2-44.74-7.66c-28.42-4.87-57.55,7.2-74.21,30.74l-26.22,37.06-44.27,10.04c-28.12,6.38-50.42,28.67-56.8,56.8l-10.04,44.27-37.06,26.22c-23.54,16.66-35.61,45.79-30.74,74.21l7.66,44.74-24.2,38.4c-15.37,24.4-15.37,55.93,0,80.32l24.2,38.4-7.66,44.74c-4.87,28.43,7.2,57.56,30.74,74.21l37.06,26.22,10.04,44.27c6.38,28.12,28.67,50.42,56.8,56.8l44.27,10.04,26.22,37.06c16.66,23.54,45.78,35.61,74.21,30.74l44.74-7.66,38.4,24.2c12.2,7.69,26.18,11.53,40.16,11.53s27.96-3.84,40.16-11.53l38.4-24.2,44.74,7.66c28.41,4.87,57.55-7.2,74.21-30.74l26.22-37.06,44.27-10.04c28.12-6.38,50.42-28.67,56.8-56.8l10.04-44.27,37.05-26.22c23.54-16.66,35.61-45.79,30.74-74.21l-7.66-44.74,24.2-38.4c15.37-24.4,15.37-55.93,0-80.32Z"/>
    <path class="cls-7" d="M441.84,11.8l64.15,40.43,74.74-12.8c7.92-1.36,15.92,1.96,20.56,8.52l43.8,61.9,73.95,16.78c7.84,1.78,13.96,7.9,15.74,15.74l16.78,73.95,61.9,43.8c6.56,4.64,9.88,12.64,8.52,20.56l-12.8,74.74,40.43,64.15c4.29,6.8,4.29,15.46,0,22.26l-40.43,64.15,12.8,74.74c1.36,7.92-1.96,15.92-8.52,20.56l-61.9,43.8-16.78,73.95c-1.78,7.84-7.9,13.96-15.74,15.74l-73.95,16.78-43.8,61.9c-4.64,6.56-12.64,9.88-20.56,8.52l-74.74-12.8-64.15,40.43c-6.8,4.29-15.46,4.29-22.26,0l-64.15-40.43-74.74,12.8c-7.92,1.36-15.92-1.96-20.56-8.52l-43.8-61.9-73.95-16.78c-7.84-1.78-13.96-7.9-15.74-15.74l-16.78-73.95-61.9-43.8c-6.56-4.64-9.88-12.64-8.52-20.56l12.8-74.74-40.43-64.15c-4.29-6.8-4.29-15.46,0-22.26l40.43-64.15-12.8-74.74c-1.36-7.92,1.96-15.92,8.52-20.56l61.9-43.8,16.78-73.95c1.78-7.84,7.9-13.96,15.74-15.74l73.95-16.78,43.8-61.9c4.64-6.56,12.64-9.88,20.56-8.52l74.74,12.8,64.15-40.43c6.8-4.29,15.46-4.29,22.26,0Z"/>
  </g>
  <g>
    <path class="cls-1" d="M425,141.9c.77-.98.91-2.24,1.49-3.31.16-.29.24-.64.58-.79,0,.11,0,.23,0,.34.03.61-.19,1.4.65,1.57.65.13,1.2-.27,1.56-.85.42-.68.85-1.35,1.28-2.03.66-1.07,1.32-2.15,2.36-2.87,1.31-.91,2.53-1.93,3.9-2.77.82-.51,1.71-.94,2.44-1.57,2.04-1.76,4.38-3.11,6.82-4.09,3.69-1.47,7.46-2.82,11.33-3.79,1.97-.49,4.09-.81,5.53-2.35,1.25-1.34,2.45-1.44,3.94-.67.51.26,1.05.47,1.57.67,1.33.49,2.53,1.29,3.96,1.56.97.18,1.56-.2,1.99-.95.43-.73.24-1.45-.26-2.07-.31-.38-.78-.66-.71-1.43,1.72.57,3.31,1.23,4.75,2.28,1.25.91,2.6,1.67,4.11,2.04,1.43.35,2.22-.49,1.88-1.9-.14-.57-.49-1.03-.75-1.53-.49-.95-.28-1.26.75-1.21.52.02,1.05.09,1.49.36,2.14,1.31,4.49,2.25,6.56,3.69.8.55,1.64,1.06,2.51,1.49,1.51.74,2.87-.1,2.97-1.76.04-.64,0-1.25-.24-1.85-.14-.36-.26-.77.17-1.15,1.45.33,2.98.43,4.46.93,3.15,1.05,5.85,2.92,8.64,4.62,1.62.99,3.17,2.09,4.68,3.26,1.58,1.22,3.03,2.55,4.27,4.09,1.37,1.7,2.24,3.69,2.96,5.75.81,2.31.88,4.69.77,7.09-.03.72-.41.86-1.02.45-.19-.13-.32-.33-.5-.46-1.62-1.15-3.29-2.23-5.09-3.04-3.01-1.35-6.22-1.25-9.42-.97-.38.03-.71.28-1.14.01-1.2-.73-2.47-.47-3.79-.3-1.14.15-1.91.98-2.99,1.18-1.27.23-2.27.91-3.05,2-.44.61-.9,1.31-1.67,1.61-1.83-2-3.85-3.65-6-5.17-2.85-2.03-5.82-3.78-9.32-4.48-3.18-.63-6.37-.73-9.56-.3-2.24.3-4.44.93-6.65,1.4-2.62.56-4.92,1.74-7.32,2.74-2.32.97-4.33,2.45-6.46,3.73-1.1.66-2.25,1.31-3.24,2.11-2.74,2.21-5.37,4.58-7.69,7.24-.75.86-1.59,1.94-1.35,3.21.47,2.52,2.25,4.51,4.82,4.81.89.1,1.65.41,2.41.76,1.05.49,1.3,1.17,1.08,2.34-.35,1.85-.81,3.68-.77,5.58.02.97-.12,1.92-.31,2.88-.35,1.8-.32,3.71.15,5.41.74,2.66,1.63,5.3,2.96,7.78.96,1.8,1.85,3.54,3.32,5.05,1.8,1.85,3.75,3.34,5.95,4.69,2.83,1.74,5.97,1.56,8.97,2.25.2.05.44-.16.66-.14,1.5.14,2.85-.65,4.36-.65.96,0,1.78.42,2.76.43,1.59.02,3.28.11,4.85.81.58.26.83.47,1.11,1.06.57,1.21,1.27,2.37,2.03,3.49.8,1.18,2.1,1.63,3.06,2.53,1.09,1.02,2.7,1.63,4.4,1.59.94-.02,1.23.37,1.09,1.31-.14.91-.19,1.8-.16,2.71.07,1.95.56,3.81.9,5.71.68,3.82,1.23,7.66,2.41,11.37.7,2.2,1.14,4.42,1.03,6.74-.07,1.47.77,2.73,1.06,4.12.07.32.38.43.64.51,1.76.57,1.92,1.96,1.72,3.45-.19,1.42-.02,2.81.08,4.21.09,1.34,1.4,2.31,2.71,2.15,1.13-.14,1.31.05,1.15,1.17-.05.34-.1.68-.17,1.02-.4,2.13-.67,4.28-.61,6.45.05,1.74.64,2.4,2.33,2.72.46.09.67.17.65.74-.07,2.02.86,2.65,2.7,1.89.05.04.11.08.16.13.03.46,0,.9-.21,1.33-.55,1.13-1.01,2.3-1.61,3.4-.36.66-.39,1.32-.27,1.99.18,1.01.98,1.31,1.9.89.95-.44,1.19-1.29,1.5-2.16.65-1.86,1.25-3.75,2.79-5.14h0c-.15,2.16-1.09,4.07-2.06,5.92-.87,1.65-2.21,3.04-2.91,4.81-.19.48-.59,1.02-.37,1.45.48.97-.07,1.62-.43,2.39-.56,1.17-1.18,2.36-.65,3.77,1.86-.11,2.03-2.1,3.35-3.02-.11,2.05-.2,3.91-.3,5.77-.11,2.04-.21,4.08-.36,6.12-.17,2.27.09,4.55-.57,6.81-.34,1.16-.24,2.48-.37,3.72-.18,1.68-.37,3.37-.59,5.04-.27,2.08-.83,4.12-.98,6.22-.1,1.32-.42,2.6-.88,3.79-.77,1.98-1.35,4.02-2.26,5.96-.81,1.73-1.56,3.54-1.86,5.47-.06.38-.28.75-.48,1.09-.93,1.58-1.58,3.3-2.55,4.88-.77,1.24-1.66,2.53-2.05,3.98-.41,1.54-1.48,2.77-1.75,4.42-.21,1.28-.6,2.75-1.57,3.74-.73.74-1.09,1.57-1.38,2.49-.16.5-.33.99-.67,1.38-.8.93-1.11,2.11-1.58,3.19-1.13,2.59-2.17,5.22-3.36,7.78-.43.92-1.2,1.72-1.35,2.7-.34,2.15-2.21,3.61-2.49,5.76-1.32,1.42-1.77,3.28-2.52,4.98-.72,1.64-1.62,3.19-2.43,4.78-1.41,2.76-2.81,5.53-3.96,8.42-.33.83-.6,1.75-1.08,2.45-.77,1.12-1.14,2.34-1.57,3.58-.2.56-.18,1.29-.86,1.61-1.62-.97-3.34-.49-4.96-.14-1.92.41-3.81,1.04-5.73,1.51-1.62.39-3.22.66-4.3,2.34-.93,1.45-1.83,2.84-2.25,4.51-1.1.11-1.69.76-2.02,1.79-.71,2.21-1.5,4.4-.37,6.71.02.05.01.11.02.17-.52.06-.97-.03-1.44-.36-1.01-.69-2.07-1.35-3.4-1.09-.2-.34-.4-.69-.6-1.04-1.56-2.66-2.91-5.47-5.53-7.37-3.24-2.35-6.55-4.5-10.79-4.36-1.43-1.05-3.07-1.63-4.78-1.99-1.55-.32-3.21.19-4.69-.7-.19-.11-.56,0-.81.11-.36.15-.68.07-.98-.1-1.9-1.11-3.58.64-5.41.43-.08,0-.22.11-.26.2-.36.94-1.31.99-2.03,1.39,0-.8.06-1.61,0-2.41-.09-1.17-.29-2.27-1.78-2.53-.47-.08-.88-.51-1.32-.78-1.23-.73-2.04-.61-2.99.48-.25.28-.33.77-.87.58-.04-.06-.1-.11-.1-.15.1-.9.65-1.7.55-2.66-.12-1.18-1.34-1.31-1.85-2.09-.44-.67-.97-.75-1.77-.52-1.18.33-2.42.63-3.64-.05-.96-.53-1.24-.99-.72-1.91.72-1.26.08-2.87,1.1-4.04.1-.11,0-.46-.09-.65-.21-.42-.09-.79.11-1.14.5-.9.38-1.7-.18-2.57-.36-.56-.47-1.28-.71-1.92-.2-.52-.21-1,.16-1.45.49-.59.55-1.25.25-1.93-.33-.75-.07-1.59-.48-2.34-.22-.4,0-.81.43-.99,1.79-.77,3-2.17,4.05-3.74.29-.44.61-.86,1.08-1.09,1.78-.86,2.1-3.1,3.84-3.98.04-.02.05-.1.08-.15.75-1.38,1.51-2.76,2.25-4.15.4-.75.36-1.55.13-2.34-.15-.51-1.11-.57-.81-1.35.23-.61.93-.63,1.35-1,.29-.26.5-.62.75-.93.61-.74,1.17-1.52,2.01-2.08.66-.44,1.22-1.12.51-2.01-.34-.43-.13-.84-.03-1.3.27-1.28.09-1.61-1.03-2.18-1.03-.53-1.06-.61-.34-1.44.96-1.1,2.23-1.77,3.51-2.4.76-.37,1.15-.92,1.1-1.76-.12-2.38-.95-4.59-2.39-6.4-.74-.93-.39-1.31.04-1.95.31-.46.81-.63,1.26-.85.68-.33,1.21-.81,1.76-1.32,1.63-1.49,3.24-2.97,4.42-4.86.03-.04.1-.06.14-.1,1.67-1.73,1.64-3.23-.05-4.97-.43-.44-.97-1.01-.56-1.64.54-.83.95-1.78,2.03-2.21,1.15-.46,1.97-1.31,2.17-2.63.09-.57.37-1.05.71-1.54.77-1.08.74-2.48.12-3.38-.63-.93-1.17-2.03-2.21-2.63,1.62-1.75,3.1-3.51,4.7-5.11,1.83-1.84,2.93-4.18,4.73-5.99.35-.35.19-.88.33-1.29.52-1.53.19-3.5,2.15-4.31.1-.04.2-.14.24-.24.89-2.24,2.51-4.38,1-6.98-.17-.29-.24-.65-.28-.98-.12-1.03-.87-1.53-1.71-1.69-.86-.16-1.79-.31-2.66.24-.82.51-1.8.48-2.71.63-.17-.67.27-.97.54-1.3,1.09-1.32,3.05-1.77,3.64-3.63.04-.14.4-.17.61-.26.32-.13.68-.25.84-.57.57-1.17,1.63-1.9,2.57-2.69,1.25-1.06,1.75-2.67,2.96-3.73.22-.19.35-.46.21-.77-.17-.36-.1-.68.16-.94.98-.95.69-2.12.17-3.01-.5-.86-.18-1.36.33-1.74.99-.72,1.53-1.83,2.49-2.58.87-.68,1.3-1.67,1.15-2.88-.16-1.26-.61-2.4-1.29-3.43-.31-.46-.41-.67.07-1.1.76-.68.98-1.77,1.39-2.65.36-.76.9-1.89.39-2.78-.53-.92-.5-2.14-1.52-2.8-.25-.16-.24-.39-.16-.73.37-1.59.31-3.07-1.27-4.11-1.03-.68-2-1.36-3.27-.29-.38-1.39.14-2.58.35-3.75.44-2.41,1.28-4.72,1.72-7.14.15-.86-.08-1.44-.56-2.03-.39-.48-.7-1.36-.67-1.92.02-.4.09-.83-.01-1.2-.31-1.16-.61-2.37-2.15-2.48-.63-.05-.85-.46-.94-1.03-.1-.63-.36-1.18-.88-1.61-1.38-1.14-2.89-2.11-3.58-3.94-.23-.62-.91-1.13-1.7-1.35-.71-.2-1.38-.53-2.13-.61-1.59-1.78-3.23-3.49-5.11-5-2.24-1.8-4.66-3.25-7.37-4.17-.8-.27-1.65-.25-2.52-.25-1.56,0-2.58,1.18-3.94,1.58-.56.17-.48.87.07,1.19.7.41,1.45.25,2.16.11,1.09-.21,2.12-.19,3.12.39.69.4,1.44.71,2.14,1.09,2.57,1.42,4.47,3.62,6.29,5.81,1.17,1.41,2.17,3.02,2.74,4.85.39,1.23,1.35,2.32,1.61,3.56.57,2.75,1.07,5.51,1.2,8.34.1,2.18-.34,4.3-.38,6.46-.03,1.64-.17,3.3-.48,4.91-.18.95-.14,1.91-.42,2.87-.74,2.5-1.34,5.05-2.23,7.51-.69,1.92-1.1,3.97-1.96,5.81-1.29,2.77-2.78,5.46-4.31,8.11-1.43,2.46-2.96,4.85-4.62,7.16-1.41,1.95-2.68,4-4.11,5.94-.65.88-1.41.94-2.25.76-.93-.21-1.42-1.03-1.52-1.86-.19-1.53-.58-3.07-.58-4.57,0-2.46.42-4.93.84-7.37.37-2.14.71-4.27.75-6.44.02-1.07.29-2.16-.12-3.2-.2-.52-.35-1.16-1-1.3-.72-.16-1.02.47-1.29.92-.26.43-.64.81-.7,1.36-.42,4.26-1.93,8.33-2.26,12.61-.06.82-.05,1.72-.54,2.49-2.15,3.38-3.84,7.03-6.23,10.26-.78,1.05-1.73,1.97-2.85,2.7-.57.37-.96.36-1.43-.25-.87-1.12-1.44-2.33-1.49-3.74-.06-1.58-.02-3.16-.02-4.74,0-1.17-.45-1.81-1.43-1.98-.83-.14-1.33.32-1.7,1.55-1.14,3.9-3.15,7.32-5.74,10.42-.37.44-.8.92-1.45.66-.61-.24-.98-.72-1.1-1.41-.51-2.82-.65-5.65-.13-8.48.11-.58-.05-1-.44-1.38-1.15-1.12-2.19-1.01-3.07.46-2.68,4.43-5.33,8.88-7.96,13.35-.21.35-.36.71-.71.92-.33.19-.61.59-1.07.39-.45-.2-.4-.67-.42-1.05-.12-3.02.32-6.01.23-9.04-.04-1.41.2-2.95.7-4.37.3-.85.38-1.77.55-2.66.31-1.67.51-3.37.92-5.01,1.37-5.49,3.43-10.75,5.29-16.07.72-2.04,1.12-4.16,1.66-6.25.12-.48.1-1.03.04-1.53-.15-1.14-.68-1.33-1.63-.63-.77.56-1.2,1.38-1.54,2.23-1.11,2.74-2.14,5.51-3.31,8.23-.7,1.63-.86,3.45-1.74,4.99-.57,1.01-.96,2.05-1.22,3.16-.36,1.49-.65,3.02-1.11,4.46-.93,2.94-1.37,5.97-1.93,8.98-.18.99-.3,2.03-1.11,2.82-3.06,3.01-5.9,6.24-9.12,9.1-1.1.97-2.22,2.06-3.95,2.17.14-.58.18-1.1.38-1.56,1.01-2.29,1.59-4.73,2.42-7.08,1.35-3.83,2.84-7.56,5.11-10.95.86-1.28,1.53-2.68,1.57-4.29,0-.36.03-.76-.27-.95-.53-.33-1.11-.58-1.68-.82-.58-.24-.92.34-1.38.49-.89.28-1.5.96-2.52,1.6.75-2.15,2.16-3.47,3.39-4.91,1.37-1.59,3.02-2.94,4.05-4.83.25-.46.32-.79.06-1.25-.27-.47-1.09-.77-.79-1.38.23-.46.85-.72,1.31-1.06.55-.41,1.15-.76,1.65-1.22.83-.77,1.82-1.34,2.41-2.39,1.1-1.92.66-3.05-1.55-3.51.19-.18.35-.33.51-.48,1.11-.98,2.31-1.86,3.39-2.9.89-.86.44-2.28-.64-2.58-.3-.08-.68.09-.92-.3.79-.54,1.6-1.05,2.37-1.61,1.6-1.18,3.05-2.55,4.77-3.58.81-.49,1.52-1.18,2.21-1.87.95-.96,1.72-2.08,2.79-2.95,1.75-1.43,3.38-3.02,4.96-4.63,1.54-1.56,2.86-3.37,4.39-4.96,1.3-1.35,2.51-2.82,3.97-3.96,1.44-1.14,2.68-2.46,4-3.7,1.08-1.01,2.05-2.25,3.3-2.95,2.26-1.27,4.66-2.28,6.84-3.71.59-.38,1.07-.87,1.4-1.49.33-.62-.09-1.07-.43-1.54-.23-.31-.04-.63.03-.97.36-1.81,1.14-3.51,1.31-5.37.1-1.05.18-2.11.67-3.14.91-1.9,2.13-3.58,3.27-5.32,1.38-2.11,1.01-4.21-1.04-5.57-.18-.12-.41-.19-.45-.45.57-1.12,1.38-2.07,2.33-2.87,1.93-1.64,3.9-3.24,5.9-4.8.8-.63,1.03-1.48,1.24-2.36.15-.6-.06-1.11-.69-1.41-.81-.39-1.61-.73-2.77-.21.5-.86.8-1.41,1.47-1.73.73-.35,1.22-1.02,1.79-1.58,1.49-1.48,2.49-3.38,4.15-4.72.31-.25.58-.57.77-.91,1.64-2.96,3.72-5.62,5.72-8.33.51-.69.99-1.4,1.43-2.14.37-.61.07-.96-.57-1.1Z"/>
    <path class="cls-11" d="M467.8,392.46c-.14.48-.17.96.38,1.16.68.25,1.32.71,2.12.5,2.43-.62,4.86-.22,7.3-.07,1.75.11,3.5.08,5.25.39.78.14,1.76-.08,2.48-.46,1.91-1.03,4.03-1.34,6.07-1.67,3.33-.55,6.72-.53,9.84,1.2,1.44.8,2.92,1.54,4.4,2.28,1.8.89,3.14,2.24,4.12,3.98.22.4.48.79.77,1.14.33.41.73.72,1.33.55.62-.18.88-.73.76-1.18-.3-1.09.44-1.21,1.09-1.22,1.04-.03,1.99-.5,3.04-.46.66.02,1.3-.24,1.42-.98.12-.72-.6-.98-1.05-1.2-1.54-.79-3.14-.35-4.68.04-1.28.32-1.3.44-1.96-.64-.58-.94-1.57-1.34-2.41-1.84-2.89-1.71-5.9-3.22-9.08-4.37.23-.6.76-.58,1.21-.61,1.71-.1,3.42-.11,5.13-.22,2.35-.16,4.66.36,6.78,1.33,2.69,1.22,5.5,2.26,7.74,4.32.5.46,1.11.8,1.66,1.2.65.48,1.33.97,1.61,1.74.89,2.36,2.39,4.37,3.72,6.46,1.53,2.42,2.09,5.08,2.46,7.86.34,2.58.23,5.17-.13,7.66-.29,2.04-.66,4.3-2.23,5.97-1.55,1.65-3.35,2.52-5.67,1.82-.38-.12-.78-.18-1.17-.23-.6-.07-1.2,0-1.39.69-.18.67-.3,1.34.4,1.87,1.74,1.3,3.63,1.87,5.8,1.29.37-.1.71-.37,1.25-.19-.69.86-1.26,1.75-1.73,2.69-.47.94-.69,1-1.55.42-.48-.32-.83-.7-1.53-.42-1.32.53-1.59.93-1.25,2.34.08.33.27.64.13.99-1.81-.64-2.93-2.22-4.39-3.33-.71-.53-1.34-1.4-1.29-2.5.04-.75-.36-1.44-.77-1.99-.42-.55-.29-1.07-.31-1.61,1.66-1.38,2.35-3.22,2.79-5.29.42-1.97.76-3.95,1.75-5.83.84-1.6,1.31-3.52.75-5.47-.29-1.03.1-1.52,1.16-1.62.73-.07,1.47.02,2.19-.27,1.05-.43,1.53-2.09.67-2.86-.61-.55-1.33-1.14-2.28-1-.73.1-1.52,0-2.19.37-.78.43-1.14.06-1.44-.6-.16-.36-.34-.73-.57-1.06-.41-.61-.75-1.3-1.35-1.76-.49-.38-1.07-.51-1.57-.06-.46.4-.42.97-.08,1.4.84,1.06,1.15,2.35,1.65,3.56,1.32,3.18.24,5.91-1.56,8.48-.39.55-1.16,1.05-1.89.9-.98-.2-1.94-.11-2.9-.16-.47-.02-.93-.01-1.19-.49-.96-1.78-1.66-3.64-1.35-5.71.11-.74.49-1.58-.4-1.95-.76-.32-1.22.39-1.6.99-.05.08-.19.09-.33.15-1.85-1.44-2.98-3.36-3.6-5.61-.18-.65-.43-1.23-1.25-1.12-.72.1-1.07.64-1.21,1.28-.11.52-.11,1.06-.16,1.73-1.56-1.17-2.48-2.63-3.56-3.93-.82-.98-.88-1.03-1.53,0-.35.56-.77.92-1.4,1.14-2.64.91-5.3,1.76-8.12,1.85-.42.01-.79.14-1.14.33-1.07.54-1.12.72-.66,2.02-.23.12-.47.24-.7.36-.58-.83-1.41-1.08-2.37-1.08-1.9,0-3.73.36-5.56.82-3.18.8-6.35,1.69-9.67,1.65-1.03-.01-2.01.41-3.06.3-2.43-.25-4.88-.43-7.31-.72-1.35-.16-2.05-1.15-1.92-2.56.08-.91.24-1.81.45-2.7.17-.72.04-1.33-.39-1.91.42-1.67,1.32-3.07,2.25-4.51,1.08-1.68,2.68-1.95,4.3-2.34,1.92-.47,3.81-1.09,5.73-1.51,1.62-.35,3.34-.83,4.96.14Z"/>
    <path class="cls-5" d="M392.29,630.85c.22-.36.54-.63.97-.62,2.06.03,3.07-1.45,4.12-2.87.14-.18.22-.41.38-.57,2.71-2.79,4.18-6.3,5.74-9.78,1.14-2.56,2.07-5.17,2.82-7.87.6-2.16.76-4.38,1.13-6.57.3-1.8.5-3.61.81-5.41.06-.36.15-.79.5-1.09.52,2.82.46,5.65.54,8.47.09,3.33.42,6.63,1.13,9.89.63,2.88,1,5.81,1.62,8.69.86,3.98,1.2,8.05,2.27,12,1.04,3.85,1.88,7.77,3.55,11.39.67,1.46,1.65,3.02,3.54,3.42-1.21,1.87-1.1,4.02-1.03,6.07.05,1.58.15,3.18.23,4.77.13,2.89-.15,5.79.28,8.67.3,2,.21,4,.07,6-.03.4-.06.82.03,1.2.78,3.38-.32,6.42-1.67,9.42-1.1,2.44-2.05,4.95-3.55,7.19-.22.33-.43.68-.7.97-.43.45-.99.5-1.3-.06-.94-1.65-2.69-2.83-2.91-4.91-.03-.27-.13-.6-.32-.78-1.17-1.16-1.06-2.83-1.74-4.16-.69-1.34-1.01-2.77-1.39-4.19-.93-3.45-1.68-6.96-2.19-10.49-.46-3.2-.81-6.42-1.47-9.6-.22-1.08-.15-2.26-.89-3.21-.1-.12-.13-.32-.13-.48,0-2.16-.87-4.15-1.25-6.23-.35-1.96-1.11-3.81-1.29-5.81-.08-.87-.65-1.75-.79-2.54-.4-2.18-1.42-4.15-1.83-6.31-.07-.39-.18-.78-.35-1.14-.57-1.19-1.83-1.58-3-1.02-.65.31-1.05.85-1.48,1.38-.14-1.28-.29-2.56-.43-3.85Z"/>
    <path class="cls-11" d="M504.26,415.83c.55.53.71,1.29,1.08,1.92.77,1.33,1.84,2.13,3.42,2.21,1.02.05,2.03.23,2.99.6.34.13.76.27.58.66-.3.65-.46,1.47-1.28,1.7-.69.19-1.36.14-1.83-.54-.27-.39-.69-.58-1.08-.82-.89-.55-1.73-.88-2.57.08-.09.1-.32.08-.49.11-.08-.15-.23-.28-.24-.44-.19-1.83-1.05-3.59-.58-5.49Z"/>
    <path class="cls-11" d="M351.66,417.95c-.01.22-.18.27-.34.24-.15-.03-.35-.1-.42-.21-.1-.18.07-.31.24-.35.26-.05.44.06.51.32Z"/>
    <path class="cls-11" d="M504.96,422.35c.38.52.21,1.13.25,1.7-.52-.5-.38-1.1-.25-1.7Z"/>
    <path class="cls-10" d="M401.57,411.05c-2.7-.97-5.29-.38-7.79.66-1.78.74-3.46,1.73-5.17,2.61-4.02,2.09-8.28,2.96-12.48.21-.34-.23-.69-.34-1.08-.46-.72-.22-1.31-.32-1.71.51-.24.5-.61.55-1.12.21-.85-.56-1.76-1.04-2.68-1.5-1.21-.61-1.8-1.72-1.94-3.05-.07-.68-.28-1.28-.67-2.08-.62.93-.23,1.77-.48,2.61-1.61-.6-2.56-1.75-2.95-3.36-.12-.51-.26-.99-.48-1.45-.81-1.66-.82-1.69-2.41-.69-.72.45-1.28.18-1.62-.37-.85-1.41-2.05-2.59-2.65-4.15-.65-1.69-.38-3.32.27-4.98,1.16-2.97,2.97-5.63,4.02-8.64.45-1.28,1.02-2.51,1.45-3.8.17-.52.51-.89.78-1.31.5-.77.81-1.63,1.22-2.44.66-1.29,1.02-2.71,1.85-3.93.48-.71.55-1.6.8-2.39.76-2.41,1.87-4.61,3.13-6.78.92-1.6,1.34-3.44,1.46-5.24.08-1.29.41-2.47.87-3.59,1.02-2.48,1.63-5.08,2.52-7.59.45-1.27,1.2-2.16,2.02-3.1.74-.84,2-1.32,1.73-2.88-.08-.48.74-.96,1.23-1.35.98-.78,1.97-1.56,3.02-2.23.84-.53,1.18-1.19,1.05-2.15.61-.22,1.13-.52.98-1.31.49-1.21,1.74-1.78,2.4-2.85.3-.49.68-.93.74-1.52.04-.46.04-.91-.45-1.2-.59-.35-.56-.79-.14-1.27.24-.27.26-.61.28-.97.07-1.23-.07-1.44-1.28-1.84-.21-.07-.43-.12-.69-.19.18-1.65,1.24-2.83,1.98-4.13.75-1.31,1.77-2.46,2.63-3.72,1.32-1.93,2.37-4.03,3.14-6.22.98-2.78,2.09-5.51,3.16-8.26.51-1.32,1.14-2.6,1.83-3.83.61-1.09.91-2.3,1.56-3.39,1.03-1.74,1.94-3.56,2.8-5.4.76-1.62,1.98-2.92,2.97-4.36,1.69-2.48,2.87-5.15,3.88-7.93.31-.86.64-1.7,1.2-2.41.65-.82,1.08-1.76,1.47-2.7.26-.64.49-1.26.9-1.83.8-1.12.89-2.38.23-3.56-.4-.71-.26-1.12.22-1.65,1.32-1.43,2.38-3.04,3.28-4.77.46-.87,1.12-1.65,1.67-2.46,1.16-1.68,2.19-3.42,3.21-5.17,1-1.71,2.12-3.52,2.4-5.41.3-2.02,1.63-3.59,1.76-5.66.08-1.29.91-2.56,1.43-3.79.71-1.69.68-3.44,1.14-5.12.69-2.48.38-5.11.93-7.53.48-2.13.46-4.19.39-6.24-.07-2.22-.14-4.46-.8-6.69-.72-2.43-1.5-4.82-2.47-7.15-.4-.96-1.04-1.74-1.57-2.6-.19-.31-.25-.63-.29-.96.74.08,1.42.42,2.13.61.78.22,1.47.73,1.7,1.35.68,1.83,2.2,2.8,3.58,3.94.52.43.79.98.88,1.61.09.57.3.99.94,1.03,1.54.11,1.84,1.33,2.15,2.48.1.37.03.8.01,1.2-.03.55.28,1.44.67,1.92.48.59.72,1.17.56,2.03-.44,2.42-1.28,4.73-1.72,7.14-.21,1.18-.73,2.37-.35,3.75,1.27-1.06,2.24-.39,3.27.29,1.58,1.04,1.64,2.52,1.27,4.11-.08.34-.09.57.16.73,1.02.65.99,1.88,1.52,2.8.51.89-.03,2.02-.39,2.78-.41.88-.63,1.96-1.39,2.65-.49.44-.38.64-.07,1.1.69,1.03,1.14,2.17,1.29,3.43.15,1.21-.28,2.21-1.15,2.88-.96.75-1.51,1.86-2.49,2.58-.51.38-.84.88-.33,1.74.52.88.81,2.06-.17,3.01-.27.26-.33.59-.16.94.14.31.02.58-.21.77-1.21,1.06-1.71,2.67-2.96,3.73-.94.79-1.99,1.52-2.57,2.69-.16.32-.52.44-.84.57-.21.09-.56.13-.61.26-.59,1.85-2.55,2.3-3.64,3.63-.27.33-.71.63-.54,1.3.91-.15,1.89-.12,2.71-.63.87-.55,1.8-.4,2.66-.24.84.16,1.59.66,1.71,1.69.04.34.12.7.28.98,1.5,2.6-.11,4.74-1,6.98-.04.1-.14.2-.24.24-1.96.81-1.63,2.78-2.15,4.31-.14.41.02.94-.33,1.29-1.8,1.82-2.9,4.16-4.73,5.99-1.6,1.6-3.08,3.36-4.7,5.11,1.04.6,1.58,1.71,2.21,2.63.62.91.64,2.3-.12,3.38-.34.48-.63.97-.71,1.54-.2,1.32-1.02,2.16-2.17,2.63-1.07.43-1.48,1.38-2.03,2.21-.41.63.14,1.2.56,1.64,1.69,1.74,1.72,3.23.05,4.97-.04.04-.11.05-.14.1-1.18,1.89-2.79,3.37-4.42,4.86-.56.51-1.09.99-1.76,1.32-.46.22-.95.39-1.26.85-.43.65-.78,1.03-.04,1.95,1.44,1.81,2.27,4.01,2.39,6.4.04.84-.34,1.39-1.1,1.76-1.28.62-2.55,1.3-3.51,2.4-.73.83-.7.91.34,1.44,1.12.57,1.3.9,1.03,2.18-.1.45-.31.87.03,1.3.71.89.15,1.57-.51,2.01-.84.56-1.4,1.33-2.01,2.08-.25.31-.46.67-.75.93-.42.37-1.11.39-1.35,1-.3.78.66.83.81,1.35.23.79.27,1.58-.13,2.34-.74,1.39-1.5,2.76-2.25,4.15-.03.05-.04.13-.08.15-1.75.88-2.07,3.12-3.84,3.98-.46.22-.79.65-1.08,1.09-1.05,1.57-2.26,2.96-4.05,3.74-.42.18-.65.59-.43.99.41.74.15,1.59.48,2.34.3.68.24,1.34-.25,1.93-.37.45-.36.93-.16,1.45.25.64.35,1.36.71,1.92.56.87.68,1.67.18,2.57-.2.36-.32.72-.11,1.14.1.19.19.54.09.65-1.02,1.17-.38,2.78-1.1,4.04-.52.91-.24,1.37.72,1.91,1.22.68,2.46.38,3.64.05.8-.23,1.33-.14,1.77.52.52.78,1.74.91,1.85,2.09.09.96-.45,1.76-.55,2.66,0,.04.06.09.1.15.54.19.63-.3.87-.58.95-1.08,1.76-1.21,2.99-.48.44.26.85.69,1.32.78,1.5.26,1.69,1.36,1.78,2.53.06.8,0,1.6,0,2.41,0,0,.01,0,.01,0-.31.16-.32.45-.32.74-.1.14-.17.32-.3.41-1.63,1.1-1.87,3.17-3.18,4.51-.37.37-.28.96-.33,1.47-.18,1.62-.13,3.27-.67,4.84-.33.94-.4,1.86.01,2.79-.76.36-.65,1.26-1.12,1.81Z"/>
    <path class="cls-4" d="M459.01,412.63c-.06,1-.64,1.82-1.01,2.69-1.27,2.95-2,6.09-3.22,9.05-1.43,3.48-1.92,7.22-3.26,10.73-.82,2.13-1.35,4.4-2.21,6.48-.71,1.72-1.25,3.51-1.96,5.23-.65,1.59-.82,3.37-1.31,5.04-.75,2.57-.88,5.25-1.01,7.91-.02.35-.08.66-.28.96-.27.43-.58.88-.26,1.43.19.33.03.65-.27.64-1.11-.04-1.18.81-1.52,1.53-.75,1.62-1.58,3.21-2.4,4.8-1.18,2.3-2.67,4.43-3.75,6.79-.11.25-.37.43-.55.65-.96,1.2-1.95,2.39-2.6,3.8-.11.25-.22.55-.7.55-.11-.62-.41-1.29-.32-1.9.22-1.49-.41-2.78-.78-4.12-.42-1.57-1.46-2.14-3.04-1.89-.36.06-.4.35-.57.57-1.25,1.56-1.58,3.52-2.26,5.32-.82,2.18-1.5,4.4-2.39,6.56-.54,1.31-1.5,2.38-1.87,3.78-.15.58-.87,1.02-1.41,1.6-1.76-1.79-3.51-3.5-4.56-5.82-.43-.96-.86-1.99-1.66-2.75-.62-.59-.51-1.49-.95-2.18-1.36-2.16-2.49-4.45-3.88-6.59-.7-1.07-1.34-2.18-.98-3.63.16-.67-.04-1.51-.31-2.18-1.08-2.71-1.54-5.55-1.99-8.39-.18-1.13-.9-2.04-1.1-3.19-.66-3.77-1.69-7.47-2.47-11.23-.41-1.98-.95-3.97-1.47-5.94-.52-1.95-.87-3.97-1.25-5.97-.55-2.98-1.92-5.7-2.76-8.6-.73-2.51-1.77-4.92-1.97-7.57-.12-1.61-.1-1.56,1.41-2.2,1.47-.62,3-1,4.57-1.21.68-.09,1.24-.24,1.38-1.01.26,0,.52,0,.78,0,.08.22.09.42.03.66-.48,1.95.02,2.75,1.98,3.13.78.15,1.56.22,2.37.01.61-.16.92.06.9.8-.02,1.09-.3,2.13-.41,3.19-.18,1.68-.67,3.3-.54,5.03.09,1.17.19,2.38.12,3.52-.23,3.5.87,6.56,2.44,9.56.27.51.56.92,1.09.95.87.06,1.09.53,1.25,1.31.43,2.01.94,4,2.03,5.79.28.46.54.8,1.16.87,1.11.12,1.43-.03,2.07-1.31.7-1.39,1.21-2.97,3.12-3.18.2-.02.38-.23.57-.35,2.06-1.41,2.94-3.66,3.6-5.85.89-2.96,1.5-5.98,1.11-9.2-.37-2.98.17-6.04-.51-9.02.53-.62.64-1.38.4-2.1-.25-.74-.21-1.46-.23-2.2-.02-.87.17-1.79-.61-2.49.6-.27.91.09,1.28.18,1.16,2.61,2.53,5.09,4.57,7.12.3.3.61.52.51.97-.23.97-.07,1.96.08,2.87.48,2.9.74,6,4.08,7.33.35.14.34.41.34.69,0,1.3.1,2.52.58,3.8.34.92.78,1.6,1.57,1.72,1.68.24,3.37.33,4.57-1.37.65-.92,1.07-1.85,1.23-2.95.2-1.3.1-2.69,1.11-3.76.35-.37.26-.86.3-1.31.13-1.6.4-3.14,1.08-4.64.37-.81.86-1.6,1.02-2.52.32-1.79-.11-3.5-.54-5.19-.61-2.4-2.17-4.36-3.24-6.54,1.33-.26,2.39.4,3.4,1.09.47.32.91.42,1.44.36,2.11,2.05,4.76,2.57,7.55,2.46,1.05-.04,1.95.42,2.95.5.11.11.22.22.33.33ZM431.25,443.41c-.02,4.58-.38,8.84-.59,13.1-.06,1.14-.03,2.28-.05,3.42-.01.47.07.9.31,1.31.42.72.78.75,1.27.11.61-.79.52-1.73.6-2.63.23-2.73-.06-5.45-.18-8.17-.07-1.71.1-3.43-.25-5.13-.14-.67-.24-1.32-1.1-2.01Z"/>
    <path class="cls-11" d="M426.43,395.13c-1.72,0-3.22.58-4.57,1.65-1.36,1.07-1.41,1.03-2.39-.31-.37-.51-.75-1.02-1.26-1.4-.79-.6-1.67-.76-2.6-.48-.91.28-.98.75-.28,1.41,2.06,1.92,3.25,4.22,3.21,7.09-.02,1.2.03,2.41.02,3.61-.02,1.2.43,2.12,1.58,2.56.51.2.67.54.75,1.03.51,3.56,1.38,7.05,2.23,10.54.21.86.29,1.73.14,2.55-.32,1.71-.3,3.43-.21,5.13.1,1.82-.26,3.49-.98,5.13-.51,1.17-.45,2.55-1.43,3.7-.43-1.19-1.1-2.06-2.47-2.01-.35.01-.59-.31-.85-.54-1.23-1.1-2.48-.97-3.43.42-.57.83-.98,1.77-1.44,2.62-.94-2.7-1.74-5.47-1.49-8.46.21-2.47.18-4.96.36-7.43.08-1.13.55-2.23.64-3.36.23-2.99-.32-5.89-1.42-8.67-.25-.62-.73-1.16-1.16-1.69-.38-.47-.94-.81-1.51-.5-.58.32-.8.96-.64,1.64.15.66.4,1.31.55,1.97.37,1.65-.37,2.37-2.05,1.99-.38-.09-.73-.31-1.1-.46-.54-.22-.65-.6-.42-1.1.7-1.53.85-3.19,1.22-4.81.49-2.13,1.11-4.17,2.52-5.93,1.03-1.29,1.57-2.92,2.62-4.22.27-.33.37-.69.13-1.11-.25-.42-.58-.4-1.02-.38-.79.02-1.34.4-1.66,1.02-1.96,3.84-4.56,7.43-4.69,11.99-.02.68-.25,1.35-.38,2.02-.33-.31-.21-.72-.23-1.1-.42-.93-.34-1.85-.01-2.79.54-1.57.5-3.22.67-4.84.06-.51-.03-1.09.33-1.47,1.3-1.34,1.55-3.41,3.18-4.51.13-.09.2-.27.3-.41.27-.18.3-.46.32-.74,0,0-.01,0-.01,0,.72-.4,1.67-.46,2.03-1.39.03-.09.18-.21.26-.2,1.83.21,3.5-1.55,5.41-.43.3.17.61.25.98.1.25-.1.63-.22.81-.11,1.48.88,3.15.38,4.69.7,1.72.35,3.35.94,4.78,1.99Z"/>
    <path class="cls-12" d="M425.06,630.55c-.3,3.15-.98,6.24-1.57,9.33-.22,1.14-.8,2.22-1.22,3.33-.13.05-.27.1-.4.15-.62-.54-1.55-2.19-1.59-3.02-.03-.58-.15-1.12-.34-1.67-.68-1.99-.97-4.08-1.56-6.08-1.08-3.63-1.22-7.39-1.94-11.07-.6-3.05-.99-6.14-1.54-9.2-.37-2.08-.49-4.19-.73-6.28-.12-1.07-.35-2.32.11-3.46.06-.15.07-.35.03-.51-.56-2.36-.26-4.77-.37-7.15-.12-2.55-.53-5.07-.56-7.62-.02-1.9-.51-3.74-.97-5.56-.21-.84-.31-1.66-.37-2.52-.3-4.66-.49-9.33-1.35-13.94-.11-.61-.05-1.26-.09-1.88-.1-1.4-.41-2.71-1.58-3.7-1.54.98-1.28,2.64-1.4,4.02-.2,2.25-.03,4.52-.14,6.78-.07,1.35.13,2.69.17,4.03.02.68-.15,1.32-.12,2,.2,3.63.33,7.26.99,10.85.2,1.1,0,2.15-.71,3.06-.55-.6-.87-1.19-.82-2.11.05-.99-.08-2.05-.52-3-.16-.35-.23-.79-.72-.88-1.01-.17-1-.96-1.02-1.71-.04-1.37.14-2.78-.13-4.1-.45-2.21.17-4.53-.77-6.66-.04-.09-.03-.24.02-.33.38-.69.05-1.32-.13-1.98-.19-.65-.43-1.32-.16-2.02.11-.28.15-.58-.04-.82-.58-.75-.59-1.69-.44-2.48.41-2.13-1.07-3.64-1.56-5.47-1.11-.62-.83-1.93-1.41-2.81.55-1.41-.44-2.38-.86-3.57-.69-1.95-1.4-3.93-1.9-5.96-.21-.88.15-1.64-.03-2.51-.45-2.28-1.32-4.44-1.81-6.7-.19-.88-.66-1.66-1.4-2.23-.52-.4-.84-.95-1.03-1.55-.25-.76-.76-1.62-.58-2.28.33-1.23-.94-1.17-1.17-1.9-.54-1.7-1.2-3.37-1.74-5.07-.42-1.32-.38-2.85-1.87-3.61-.12-.06-.17-.29-.2-.46-.35-1.76-.9-3.45-1.53-5.13-.35-.94-.91-1.85-.83-2.94.02-.36-.33-.59-.56-.84-1.15-1.24-1.76-2.73-1.99-4.39-.96-.86-1.31-1.86-.97-3.18.42-1.65.65-3.34.97-5.02.05-.26,0-.62.37-.67.39-.05.62.18.8.51.68,1.26,1.44,2.44,2.4,3.53.72.82,1.38,1.54,2.4,2.04.78.39,1.35,1.21,2.34,1.21,1.42,0,2.81-.04,3.72-1.45.29-.46.47-.86.47-1.4.03-1.96-.29-3.86-.77-5.75-.68-2.65-1.47-5.27-1.96-7.96-.05-.27-.13-.55.17-.87.88,1.03,1.97,1.81,3.09,2.57,1.21.82,2.51,1.04,3.89,1.05.53,0,1.01-.17,1.4-.55,2.05-2,3.51-4.12,3.64-7.26.12-2.69.63-5.41.9-8.12.02-.23.04-.47.32-.53.23-.06.45,0,.59.22.31.48.75.92.9,1.45.69,2.31,1.96,4.35,3.03,6.46,1.08,2.12,1.82,4.44,3.33,6.33,1.09,1.37,2.17,2.76,3.36,4.05.82.89,2.07,1.27,3.16,1.49,1.16.24,2.4-.39,3.13-1.41,1.25-1.74,2.4-3.55,3.06-5.63.34-1.08.76-2.13,1.19-3.3.33.58.65,1.04.87,1.54,1.26,2.91,4.35,2.7,5.97,1.11,1.59-1.57,3.23-3.15,3.99-5.35.35-1.01,1.62-1.28,1.74-2.58.55.42.45.81.38,1.16-.59,2.62-1.18,5.23-1.82,7.84-.27,1.11-.4,2.24-.69,3.35-1.03,3.97-2.35,7.85-3.03,11.91-.34,2.01-1.18,3.9-1.58,5.92-.49,2.42-1.17,4.82-1.96,7.16-.74,2.21-1.01,4.56-1.98,6.71-.34.75-.49,1.61-.44,2.48.05.99-.54,1.84-.86,2.72-.91,2.51-1.44,5.1-2.14,7.66-.09.32-.31.6-.48.92-.1-.46-.15-.91-.3-1.32-.94-2.67-.95-5.47-1.21-8.24-.09-.97-.08-1.95-.54-2.83-.2-.38-.19-.76-.16-1.17.03-.4.09-.83-.03-1.2-.95-2.97-.63-6.08-.97-9.11-.2-1.73-.3-3.47-.39-5.21-.04-.82-.43-1.46-1.02-1.89-.59-.43-.59-.84-.42-1.46.2-.71.32-1.45.39-2.19.05-.51,0-1.03-.07-1.54-.05-.36-.28-.66-.68-.64-.43.02-.5.39-.56.73-.3,1.63-.67,3.25-.87,4.89-.37,2.95-1.12,5.82-1.69,8.73-.45,2.3-.68,4.62-.82,6.95-.22,3.47-.84,6.89-1.27,10.34-.26,2.04-.44,4.09-.57,6.14-.19,3.08-.69,6.1-1.84,9.1-.78-.61-.85-1.52-1.08-2.26-.34-1.07-.37-2.24-.51-3.37-.48-3.85-.55-7.74-1.14-11.58-.31-1.96-.23-3.99-.92-5.89-.27-.75-.5-1.52-.75-2.27-.2-.61-.63-.97-1.27-.95-.73.02-.93.62-1,1.19-.07.56-.12,1.18.02,1.71.69,2.54.34,5.19.94,7.73.33,1.39.28,2.84.53,4.22.18.98-.47,1.19-.95,1.59-.62.51-1.09-.03-1.48-.4-.91-.88-1.38-2.1-1.97-3.17-.63-1.15-1.43-2.29-1.73-3.66-.17-.76-.6-1.49-1.02-2.16-1.33-2.1-2.18-4.43-3.2-6.68-1.22-2.7-2.39-5.41-3.23-8.25-.55-1.86-1.13-3.71-1.64-5.58-.15-.55-.25-.99-.94-.97-.84.03-.81.66-.87,1.22-.13,1.11.28,2.15.41,3.22.3,2.37.98,4.68,1.49,7.01.54,2.47,1.06,4.98,1.79,7.41.48,1.6.96,3.22,1.87,4.71.66,1.07,1.17,2.33,1.57,3.56.99,2.98,2.36,5.75,4.46,8.09.77.86,1.62,1.88,2.64,2.22,1.12.37,2.54.9,3.62-.32.47.64.54,1.26.7,1.85.53,1.92,1.31,3.76,2.57,5.32.72.9,1.27.85,2.17.14.62-.49.86-1.2,1.14-1.88,1.3-3.13,1.91-6.43,2.08-9.79.2-3.98.69-7.92,1.2-11.87.16-1.24.17-2.51.25-3.76.54,3.11,1,6.23,1.29,9.38.21,2.32.77,4.57,1.54,6.79.35,1,.44,2.11.86,3.11.31.74.63,1.48,1.23,2.05.64.61,3,.91,3.42.35.54-.72,1.19-1.35,1.61-2.17,1.14-2.23,2.17-4.47,2.75-6.94.74-3.12,1.87-6.14,2.69-9.24.96-3.6,2.29-7.12,2.79-10.85,1.14-1.78.98-3.94,1.69-5.85.35.27.25.61.13.93-.25.67-.21,1.35-.06,2.02.28,1.32.64,2.62.31,4-.07.31-.04.73.12,1,.48.79.42,1.65.35,2.47-.08.95-.37,1.87.38,2.71.12.13.04.44.04.67-.01,1.63-.65,3.3.32,4.87.07.12.02.34-.02.51-.42,2.01-.32,4.12-1.54,5.99-.42.65-.8,1.73-.65,2.58.39,2.2.09,4.35-.22,6.51-.17,1.17-.31,2.32-.27,3.53.04,1.26.11,2.63-.39,3.81-.36.84-.43,1.7-.41,2.51.04,1.41-.26,2.79-.22,4.19.02.51-.05,1.03-.36,1.48-.16.23-.42.51-.26.77.77,1.21-.26,1.97-.61,2.95-.49,1.37-1.36,2.02-2.76,2.06.05,1.48.1,2.87.15,4.26,0,.11.02.24-.01.34-.57,1.73-.15,3.51-.26,5.26-.05.83-.13,1.58-.58,2.28-.44.68-.79,1.43-.79,2.22,0,1.99.11,3.98.17,5.98-.16-.23-.44-.4-.44-.71-.02-2.58-.93-5.01-1.28-7.53-.34-2.42-1.17-4.73-1.3-7.19-.05-1.01-.43-2.01-.71-2.97-.53-1.8-.66-3.68-1.28-5.45-.63-1.82-.9-3.75-1.73-5.51-.38-.81-.88-1.46-1.61-1.93-.63-.42-1.15-.3-1.34.41-.26.96-.54,1.89-.37,2.99.31,2.04.55,4.11,1,6.13.47,2.14.78,4.32,1.13,6.46.43,2.65,1.61,5.19,1.33,7.95-.04.37.24.74.34,1.13,1.5,5.91,1.19,11.96,1.44,17.96.17,3.93.17,7.87.22,11.8.06,4.96.03,9.92-.45,14.86-.06.66.19,1.38-.29,1.98-.5,1.25-1.03,2.5-.34,3.85ZM406.4,513.04c0-1.76.45-3.57-.91-5.06-.24-.26-.37-.78-.3-1.13.22-1.09-.2-2.14-.11-3.22.13-1.51-.49-2.9-.9-4.31-.15-.5-.4-.93-.78-1.31-.41-.42-.87-.52-1.4-.39-.63.16-.97.66-1.01,1.25-.04.56.05,1.15.2,1.68.56,1.94.74,3.92.76,5.92.02,1.61.48,3.04,1.58,4.22.43.46.56.95.61,1.54.09,1.14.2,2.28.4,3.4.11.58.25,1.31,1.07,1.36.57.03.93-.62.9-1.59-.02-.8-.07-1.59-.11-2.36Z"/>
    <path class="cls-4" d="M406.3,275.96c-.18,1.4-1.24,2.39-1.65,3.71-.58,1.88-1.65,3.57-2.5,5.34-.97,2.02-2.37,3.8-3.17,5.9-.79,2.07-1.84,4.04-2.8,6.02-1.84,3.78-3.33,7.7-5.05,11.53-1.13,2.51-2.19,5.08-3.31,7.61-.34.77-.82,1.5-1.36,2.15-2.28,2.77-3.66,6-4.86,9.32-.33.9-.73,1.66-1.67,2.23-1.23-1.06-1.67-2.61-2.05-4.07-.89-3.42-1.38-6.92-1.7-10.45-.19-2.14.61-4,1.17-5.95.3-1.03.51-2.09.69-3.15.11-.65-.24-1.23-.63-1.71-.45-.57-1.26-.47-1.96.18-1,.92-1.47,2.2-1.95,3.37-.64,1.57-1.37,3.1-1.87,4.74-1.21,3.92-2.99,7.66-3.7,11.75-.1.6-.48,1.16-.65,1.75-.71,2.5-1.41,5.01-2.07,7.53-.12.45-.35.8-.58,1.19-.63-2.06-.57-4.16-.55-6.24.01-1.24-.04-2.48-.04-3.72,0-2.16.4-4.28.4-6.42,0-.51.16-1.04-.22-1.48-.41-.48-.87-1.02-1.55-.95-.81.08-1.32.7-1.58,1.41-.49,1.33-.99,2.67-1.3,4.05-.25,1.12-.61,2.17-.97,3.25-.81,2.42-1.58,4.86-2.13,7.35-.59,2.64-1.68,5.07-2.73,7.52-.06.14-.25.22-.49.43-.49-.8-.76-1.63-.95-2.5-.76-3.49-1.17-7.02-1.09-10.6.01-.51,0-1-.21-1.51-.23-.54-.49-.88-1.11-.86-.64.02-1.3.01-1.53.8-.11.38-.23.76-.29,1.16-.36,2.18-.9,4.3-1.47,6.44-.7,2.58-1.13,5.23-1.59,7.87-.57,3.25-1.1,6.51-1.55,9.78-.31,2.26-.56,4.53-1.01,6.77-.45,2.25-1.26,4.38-2.04,6.53-.06.15-.19.28-.47.68-.57-1.42-1.08-2.58-1.51-3.78-1.58-4.38-2.41-8.9-2.69-13.55-.25-4.3-.76-8.58-.71-12.89.03-2.5.19-5,.32-7.49.1-2.05.16-4.11.38-6.14.17-1.61.56-3.21.92-4.8.09,1.49.25,2.96.48,4.42.08.5.2.96.55,1.4.84,1.04,1.37,1.05,1.91-.22.56-1.33.73-2.74.79-4.21.08-1.78.1-3.57.28-5.36.21-2.12.41-4.24.39-6.4-.02-1.81.03-3.63.1-5.44.12-3.27.55-6.54.8-9.81.12-1.55.66-3,.97-4.5.12-.58.53-.66.98-.79,2.89-.86,4.75-3.07,6.63-5.2,1.96-2.22,3.81-4.54,5.71-6.81.1-.11.27-.16.39-.23.68.44.07.95.14,1.4.32,1.93-.11,3.83-.08,5.75.01,1.21.23,2.36.6,3.52.38,1.2,1.2,1.93,2.15,2.54,1.46.94,3.21.15,4.4-1.12,2.53-2.71,4.29-5.94,6.18-9.09.07-.12.26-.18.38-.26.42.21.32.59.39.91.27,1.3.84,2.42,1.6,3.54,1.29,1.89,4.15,2.34,6.01.24,1.36-1.54,2.53-3.22,3.61-4.97.17-.28.24-.66.79-.74.25,1.54,1.25,2.69,2.14,3.91,1.16,1.6,3.09,2,4.92.53,1.2-.96,2.16-2.18,3.06-3.44,1.61-2.25,2.61-4.81,3.91-7.22.27-.49.45-1.04,1.11-1.52.23,1.18.35,2.28.65,3.33.9,3.05,2.95,4.86,6.12,5.34.4.06.79.13,1.18.2.07.08.15.16.24.23Z"/>
    <path class="cls-12" d="M374.4,320.21c.12,3.03.49,6.02,1.43,8.91.33,1.02.6,2.08,1.49,2.83,1.46,1.22,1.44,1.24,3.53,1.36-.46.68-.96,1.45-.39,2.12.5.59,1.37.22,2.38.35-1.49,1.3-2.48,2.76-3.96,3.75-.52.35-1.12.72-1.26,1.36-.24,1.13-1.06,1.74-1.89,2.32-.86.59-1.6,1.29-2.34,2.01-.7.68-1.14,1.33-1.12,2.48.02,1.04-.7,2.11-1.16,3.15-1.25,2.83-2.7,5.59-3.75,8.49-.92,2.54-2.5,4.66-3.81,6.95-.8,1.4-1.46,2.84-1.86,4.37-.2.77-.37,1.62-.74,2.25-.7,1.21-.39,2.7-1.32,3.82-1.63,1.97-2.52,4.35-3.39,6.72-.49,1.33-.35,2.83-1.13,4.08-.06.09-.04.24-.09.33-1.45,2.23-2.04,4.79-2.88,7.26-.28.83-.23,1.68-.53,2.49-.68,1.86-1.3,3.75-1.93,5.63-1.3,3.89-2.17,7.87-3.06,11.86-.62,2.78-.98,5.6-1.45,8.39-.81,4.83-2.27,9.53-2.72,14.42-.12,1.31-.61,2.6-.99,4.11-1.07-3.52-.7-6.9-.85-10.22-.06-1.43.11-2.95.3-4.43.2-1.55.25-3.13.43-4.7.3-2.63,1.21-5.08,1.82-7.62.72-3.04,1.63-6.02,2.47-9.03,1-3.56,1.78-7.17,2.88-10.71.77-2.44,1.27-4.97,1.8-7.49.18-.86.24-1.82-.55-2.69-.84.62-1.48,1.31-1.88,2.32-1.13,2.81-1.94,5.71-2.86,8.58-1,3.13-2.07,6.25-2.91,9.43-.86,3.29-2,6.49-2.79,9.8-.78,3.26-1.74,6.47-2.11,9.81-.47,4.28-1.13,8.54-2.09,12.73-.83,3.58-.77,7.24-1.45,10.82-.28,1.49-.28,3.06-.35,4.58-.11,2.35-.77,4.6-.95,6.94-.18,2.35-.99,4.65-1.39,7-.35,2.06-.68,4.12-1.43,6.1-.32-3.66-.91-7.28-.85-10.97.03-2.02-.48-4.04-.53-6.08-.09-3.73-.45-7.44-.35-11.2.1-3.38.75-6.8-.05-10.19.43-1.22.16-2.48.18-3.73.07-3.75.41-7.48.56-11.22.09-2.31.55-4.6.28-6.96-.15-1.34.16-2.81.34-4.21.16-1.23.18-2.48.2-3.69.04-2.35.29-4.69.52-7,.24-2.45.28-4.94.82-7.37.28-1.26.25-2.6.33-3.9.25-4.18.54-8.36.98-12.53.2-1.89.36-3.82.3-5.77-.07-2.48.48-4.98.74-7.47.21-1.97.39-3.94.89-5.94.35,1.2.77,2.38,1.04,3.59.54,2.36,1.58,4.51,2.7,6.63.27.52.67.92,1.11,1.3.8.68,1.87.67,2.6-.06.69-.7,1.14-1.53,1.51-2.45,1.32-3.37,2.02-6.89,2.6-10.45.18-1.12.61-2.21.8-3.28.22-1.24.53-2.49.61-3.78.2-3.13.86-6.19,1.7-9.21,0-.03.1-.04.18-.08.35.45.41.98.52,1.54.3,1.57.91,3.02,1.78,4.39,1.6,2.52,3.81,1.65,4.98-.1,1.13-1.67,2.02-3.56,2.64-5.53.41-1.31.91-2.6,1.49-3.88.33,1.2.81,2.28.88,3.56.09,1.63.63,3.25,2.25,4.21.61.36,1.05.39,1.71.04,2.04-1.1,2.89-3,3.57-5.01,1.05-3.05,2.05-6.11,3-9.19.49-1.57.81-3.18,1.23-4.77.25-.94.54-1.86,1.13-2.65.15.13.3.26.45.4Z"/>
    <path class="cls-5" d="M382.61,506.93c.22,1.66.83,3.15,1.99,4.39.23.25.58.48.56.84-.07,1.09.48,1.99.83,2.94.63,1.68,1.18,3.37,1.53,5.13.03.16.08.4.2.46,1.49.77,1.45,2.3,1.87,3.61.54,1.7,1.2,3.36,1.74,5.07.23.73,1.5.67,1.17,1.9-.18.66.33,1.52.58,2.28.2.6.51,1.15,1.03,1.55.74.57,1.2,1.35,1.4,2.23.5,2.26,1.36,4.42,1.81,6.7.17.87-.19,1.64.03,2.51.49,2.04,1.2,4.02,1.9,5.96.43,1.19,1.41,2.16.86,3.57.58.88.29,2.2,1.41,2.81.49,1.82,1.97,3.33,1.56,5.47-.15.78-.15,1.72.44,2.48.19.24.15.54.04.82-.27.7-.02,1.36.16,2.02.19.66.51,1.29.13,1.98-.05.09-.06.24-.02.33.94,2.14.32,4.45.77,6.66.27,1.32.09,2.73.13,4.1.02.75,0,1.54,1.02,1.71.49.08.56.53.72.88.43.95.57,2.01.52,3-.05.92.27,1.52.82,2.11-.02,1.63-.66,3.12-1.11,4.63-.95,3.18-1.49,6.44-2.23,9.66-.78,3.4-1.95,6.64-3.6,9.73-1.05,1.95-2.12,3.88-3.18,5.83-1.09,2-2.71,3.48-4.25,5.06-.73.75-2.16.59-2.94-.17-1.23-1.21-2.03-2.59-2.38-4.37-.28-1.41-.35-2.93-1.14-4.23-.08-.14-.13-.33-.13-.49.04-3.27-.89-6.41-1.44-9.59-.38-2.15-.55-4.43-1.62-6.41-.36-.66.08-1.19-.15-1.81-.45-1.22-.56-2.55-1.14-3.73-.25-.5-.15-1-.15-1.49-.54-.25-.64.46-.77.43-.44-.07-.5-.15-.5-.28.03-1.53-.12-3.09.13-4.58.19-1.14-.19-1.67-1.11-1.92-1-.28-1.29-.76-.87-1.71.11-.26.09-.57.18-.84.27-.8.02-1.32-.76-1.64-.82-.34-1.3.06-1.67.73-.39.69-.74,1.43-1.43,1.9-.06-.06-.11-.12-.16-.18-.04-1.52.62-2.91,1.03-4.31.45-1.53.8-3.09,1.19-4.63.44-1.72-.53-2.74-2.47-2.56,1.2-2.38,1.89-4.88,2.93-7.27.79-1.81,1.17-3.82,1.56-5.77.34-1.67-.55-2.52-2.29-2.68-.45-.04-.88.19-1.33-.01-.03-1.73.64-3.32,1.05-4.94.53-2.08.34-4.2.73-6.27.11-.59-.2-1.24-.18-1.86.13-4.28.43-8.56.42-12.84,0-3.98.67-7.89.95-11.83.19-2.73.56-5.51,1.11-8.23.16-.76.32-1.58.91-2.2.21-.22.34-.51.24-.79-.48-1.32.47-1.55,1.36-1.85Z"/>
    <path class="cls-4" d="M390.85,499.38c-1.66-2.2-3.04-4.15-4.09-6.33-.5-1.04-1.18-1.95-2.13-2.64-.13-.09-.4-.13-.42-.23-.3-1.79-1.78-2.95-2.43-4.57-.55-1.36-.85-2.92-2.1-3.95-.16-.13-.28-.36-.36-.56-1-2.78-2.45-5.35-3.66-8.03-.35-.78-.98-1.33-1.39-2.09-1.69-3.18-3.17-6.46-4.76-9.67-1.23-2.49-2.45-5.06-3.35-7.74-.73-2.2-1.42-4.42-2.58-6.46-.21-.38-.19-.88-.28-1.33-.32-1.62-.92-3.15-1.56-4.66-.68-1.61-.01-3.42-.72-5.04-.11-.25.05-.54.22-.79,2-2.98,4.05-5.86,7.44-7.54.91-.45,1.85-1.19,2.48-2.16.79-1.23,1.89-2.09,3.28-2.64.88-.35,1.66-.95,2.59-1.23.47-.14.72-.52.91-.97.5-1.2.5-1.12,1.78-.96,2.14.26,4.3.35,6.39-.39,2.13-.76,4.13-1.81,6.16-2.75.1.11.23.2.23.28.1,3.34,1.31,6.46,2.02,9.67.71,3.22,1.43,6.42,1.67,9.73.18,2.47.41,4.96.84,7.39.35,1.97.22,4.01,1.02,5.94.43,1.04.13,2.37.45,3.54.53,1.88.7,3.85,1.45,5.69.5,1.24.77,2.6,1.02,3.93.43,2.36,1.53,4.5,2.17,6.79.34,1.23.38,2.36.1,3.63-.83,3.72-1.69,7.45-2.01,11.25-.11,1.32-1.25,1.68-1.89,2.5-.15.19-.54-.02-.78-.19-.66-.45-1.3-.88-1.77-1.58-.99-1.48-2.24-2.7-3.9-3.44-.5-.22-.7-.68-.94-1.16-1.05-2.12-1.68-4.39-2.13-6.66-.45-2.26-1.34-4.34-2.05-6.49-1.33-4.05-2.91-8.01-3.78-12.21-.18-.89-.81-1.6-.99-2.54-1.08-5.47-2.19-10.92-3.38-16.37-.45-2.06-1.08-4.07-1.42-6.16-.12-.73-.27-1.46-.29-2.2,0-.28.02-.59-.08-.85-.15-.43-.36-.94-.88-.93-.57.01-.67.59-.7,1.02-.06.85-.11,1.73.01,2.57.27,1.92.5,3.84,1.05,5.71.69,2.36.8,4.82,1.23,7.23.79,4.53,1.49,9.07,3.09,13.42.81,2.19,1.17,4.52,2.04,6.71,1.11,2.8,2.06,5.67,3.06,8.52.11.32.1.67.16,1.01.4,2.66.91,5.3,1.92,7.79.73,1.78.79,3.59.87,5.44.08,1.81.2,3.62.5,5.42.34,2.02.59,4.05.83,6.08.07.6.12,1.23-.18,2.2Z"/>
    <path class="cls-5" d="M430.74,586.31c-.06-1.99-.17-3.98-.17-5.98,0-.8.35-1.54.79-2.22.45-.7.53-1.45.58-2.28.11-1.75-.31-3.54.26-5.26.03-.1.02-.23.01-.34-.05-1.39-.1-2.78-.15-4.26,1.39-.04,2.26-.69,2.76-2.06.35-.97,1.38-1.73.61-2.95-.16-.26.1-.54.26-.77.31-.45.38-.97.36-1.48-.04-1.4.26-2.78.22-4.19-.03-.81.05-1.67.41-2.51.5-1.19.43-2.55.39-3.81-.04-1.21.11-2.36.27-3.53.3-2.16.6-4.3.22-6.51-.15-.85.23-1.94.65-2.58,1.21-1.87,1.12-3.97,1.54-5.99.03-.17.09-.39.02-.51-.97-1.57-.33-3.24-.32-4.87,0-.23.08-.54-.04-.67-.75-.83-.46-1.76-.38-2.71.07-.82.13-1.68-.35-2.47-.16-.26-.19-.69-.12-1,.33-1.38-.03-2.68-.31-4-.15-.68-.19-1.35.06-2.02.12-.32.22-.66-.13-.93.09-2.12.72-4.15,1.06-6.22.39-2.36.55-4.74.96-7.1.25-1.46.5-2.91.7-4.38.35-2.6.68-5.2.96-7.81.27-2.5.45-5.01,1.21-7.42.09-.27.25-.58.18-.83-.41-1.55.44-2.73,1.01-4.03.52-1.17,1.25-2,2.63-2.35.32.58.11,1.22.05,1.78-.25,2.49-.59,4.97-.84,7.47-.06.56,0,1.16.13,1.7.42,1.72.46,3.5.39,5.22-.05,1.32-.6,2.64-.54,4.03.03.63-.03,1.26.21,1.86.2.49.15,1.01.08,1.53-.25,1.83-.65,3.62-.54,5.53.08,1.39-.12,2.72.35,4.14.33.98-.37,2.16-.3,3.32.11,1.67-.08,3.34.09,5.04.18,1.82.34,3.68.15,5.57-.13,1.35.08,2.82-.07,4.2-.17,1.58.89,3.01.32,4.62-.52,1.48-.26,3.06-.28,4.6,0,.57-.05,1.14.15,1.7.57,1.65.45,3.37.49,5.08.05,2.09,0,4.22.36,6.27.51,2.86-.01,5.67-.02,8.5-.01,3.71-.08,7.44.1,11.14.09,1.87.2,3.75.43,5.61.1.77-.23,1.44-.2,2.19.08,2.17.14,4.36-.04,6.51-.17,1.97-.02,3.99-.52,5.92-.18.7.34,1.35.05,2.02-1.42,3.29-.74,6.77-.84,10.17-.04,1.35-.68,2.51-.82,3.82-.17,1.53-.39,2.86.6,4.37,1.06,1.62,1.56,3.62,1.69,5.65.04.64-.03.93-.75,1-1.07.12-1.53.8-1.4,1.94.1.85.11,1.77.49,2.5.57,1.1.57,2.31.96,3.44.61,1.75.95,3.6,1.46,5.63-.93-.56-1.21-1.32-1.58-2-.36-.66-.8-1.26-1.37-1.75-1.05-.9-2.05-.52-2.33.85-.11.55.09,1.01.23,1.5.21.77.56,1.51.46,2.34l-.12.11c-.24-.15-.48-.31-.73-.45-.7-.38-1.3-.41-1.66.48-.13.32-.39.55-.87.68-.3-1.38-.06-2.8-.4-4.15-.79-3.14-1.38-6.32-3.01-9.22-1.02-1.82-1.29-3.98-1.76-6.01-.36-1.54-.75-3.07-1.13-4.58-.35-1.39-.74-2.81-1.02-4.23-.49-2.49-.87-4.98-1.61-7.43-.39-1.3-.55-2.77-.62-4.18Z"/>
    <path class="cls-5" d="M427.57,597.85c.79,2.18,1.3,4.32,1.62,6.51.02.17.03.35.09.51,1.5,4.51,2.12,9.26,3.74,13.72.85,2.33,1.71,4.79,3.32,6.64,1.19,1.37,1.56,2.79,1.9,4.38.24,1.11.66,2.19.86,3.3.25,1.39.66,2.78.17,4.23-.35,1.04.11,2.13,0,3.21-.21,2.23-.88,4.36-1.31,6.54-.96,4.79-1.96,9.57-2.87,14.36-.33,1.77-.58,3.57-1.35,5.25-.37.81-.42,1.76-.65,2.64-1.17,4.6-2.29,9.22-3.58,13.79-.35,1.24-.43,2.58-1.09,3.73-.15.25-.3.55-.61.53-.47-.04-.42-.47-.43-.79-.05-1.94-.45-3.86-.49-5.78-.07-3.35-.49-6.67-.57-10.02-.11-4.41-.32-8.82-1.13-13.2-.3-1.6-.72-3.21-.81-4.86-.04-.75-.39-1.52-.92-1.98-.75-.64-.4-.95.18-1.25.99-.5,1.36-1.36,1.79-2.34,2.06-4.63,2.29-9.57,2.79-14.48.61-5.86.79-11.73.52-17.61-.16-3.64-.48-7.28-.82-10.92-.18-1.98-.56-3.97-.34-6.12Z"/>
    <path class="cls-5" d="M420.78,740.76c-.47-1.42-1.22-2.75-1.72-4.25-1.23-3.7-1.53-7.56-2.47-11.3-1.23-4.89-1.85-9.93-2.93-14.87-.79-3.61-1.27-7.28-2.26-10.84-.09-.32-.22-.69.07-.97.33-.31.58-.02.89.14,1.33.67,3.2.29,4.39-.87,1.52-1.46,2.25-3.39,3.13-5.24.65-1.35.67-2.9,1.49-4.17.15-.23.27-.47.39-.67.29,0,.45.14.43.3-.26,2.46.56,4.66,1.93,6.58,1.46,2.06,4.54,2.36,6.12,0,.3-.46.81-.62,1.09-1.06.53-.83,1.1-1.63,1.29-2.66.28,1.07-.04,2.09-.17,3.08-.44,3.33-.93,6.65-1.58,9.94-.25,1.27-.58,2.54-.88,3.82-.22.94-.51,1.87-.43,2.85.09,1.08-.34,2.05-.77,2.95-.74,1.53-.69,3.22-1.13,4.8-.14.5-.32,1.04-.44,1.58-.49,2.22-.94,4.45-1.48,6.65-.35,1.43-.85,2.81-1.26,4.22-.3,1.02-.65,2.01-.65,3.14,0,.84-.62,1.66-1.02,2.4-.72,1.32-.94,2.79-1.59,4.12-.07.15-.08.34-.44.34Z"/>
    <path class="cls-2" d="M357.58,443.22c.43.15.58.42.56.59-.25,1.71.68,3.17.98,4.75.43,2.2,1.46,4.19,1.92,6.35.36,1.69,1.26,3.19,1.7,4.82.38,1.42,1.31,2.63,1.44,4.12,0,.11.02.26.09.33,1.2,1.22,1.33,2.96,2.06,4.41.7,1.39,1.62,2.72,1.93,4.3.04.22.05.5.19.65,1.7,1.87,1.95,4.5,3.38,6.47,2.02,2.8,3.13,6.13,5.44,8.77.91,1.04,1.73,2.24,2.43,3.48.43.76.46,1.47-.26,1.97-.65.44-.71,1.03-.93,1.69-.57,1.72-1.13,3.48-1.46,5.2-.54,2.88-1.39,5.69-1.77,8.63-.35,2.74-.36,5.58-1.32,8.23-.2.56-.18,1.13-.18,1.7,0,1.54.15,3.1-.53,4.56-.19.4-.02.77.05,1.17.21,1.11.12,2.24-.38,3.23-.27.53.29,1.12-.4,1.7-.42-2.32-1.08-4.41-1.17-6.63-.05-1.25-.63-2.41-.78-3.67-.16-1.4-.25-2.85-.62-4.21-.67-2.44-.53-4.98-1.17-7.4-.22-.84-.17-1.69-.35-2.54-.79-3.72-1.45-7.46-1.97-11.23-.23-1.65-.53-3.32-.91-4.96-.38-1.61-.82-3.2-.98-4.87-.19-2.04-.93-3.98-1.21-6.02-.41-2.93-.96-5.84-1.64-8.72-.9-3.76-1.44-7.59-2.22-11.37-.51-2.51-.79-5.06-1.2-7.59-.28-1.74-.63-3.47-.92-5.21-.14-.88-.35-1.79.19-2.71Z"/>
    <path class="cls-2" d="M371.65,418.23c-1.36,1.09-2.69,2.03-3.65,3.49-.78,1.2-1.74,2.34-3.01,3.2-2.58,1.75-4.44,4.22-6.31,6.67-.38.49-.76.98-1.32,1.71-.43-7.92.61-15.49,1.08-23.49,1.84,1.38,3.51,2.26,4.8,3.61,1.2,1.26,2.59,2.41,4.06,3.08,1.38.63,2.69,1.61,4.36,1.73Z"/>
    <path class="cls-5" d="M402.7,409.24c.02.38-.1.78.23,1.1.12.68.11,1.36-.05,2.04-.26,0-.52,0-.78,0-.16-.45-.15-.97-.53-1.34.47-.54.37-1.44,1.12-1.81Z"/>
    <path class="cls-10" d="M425.06,630.55c-.69-1.36-.17-2.6.34-3.85.25,1.32-.47,2.55-.34,3.85Z"/>
    <path class="cls-12" d="M384.74,337.06c.15.79-.37,1.09-.98,1.31-.36-.95.47-1.01.98-1.31Z"/>
    <path class="cls-5" d="M421.88,643.36c.13-.05.27-.1.4-.15.01.17.05.34.03.51-.05.33,0,.71-.34.92-.17.1-.29-.04-.4-.18-.41-.52-.06-.81.31-1.1Z"/>
    <path class="cls-11" d="M374.4,320.21c-.15-.13-.3-.26-.45-.4.22-.45.03-1.01.4-1.48.16.65.28,1.26.05,1.87Z"/>
    <path class="cls-5" d="M375.56,585.15c-.1.31-.1.68-.5.78-.04,0-.15-.13-.16-.22-.07-.4.15-.62.5-.74.05.06.1.12.16.18Z"/>
    <path class="cls-5" d="M443.68,625.31c.25.08.36.27.4.5,0,.02-.09.09-.13.09-.28-.03-.34-.26-.39-.49,0,0,.12-.11.12-.11Z"/>
    <path class="cls-4" d="M458.68,412.3c.18-.24.43-.38.62-.11.13.17-.08.36-.29.44-.11-.11-.22-.22-.33-.33Z"/>
    <path class="cls-4" d="M406.06,275.74c.08-.06.2-.18.24-.16.2.12.1.26,0,.39-.08-.07-.16-.15-.24-.23Z"/>
    <path class="cls-9" d="M440.63,153.82c.23-.37.39-.84.72-1.12,2.6-2.24,4.86-4.92,7.83-6.65,2.18-1.27,4.18-2.87,6.59-3.77.73-.27,1.33-.87,2.03-1.21,2.4-1.18,4.95-1.93,7.55-2.5.92-.2,1.76-.62,2.73-.79,1.55-.27,3.13-.34,4.68-.72,1.54-.38,3.14-.15,4.7-.02.96.08,1.93-.01,2.9.18,3.38.68,6.21,2.47,8.95,4.4,1.28.9,2.71,1.65,3.61,3.01-2.1,3.11-3.96,6.31-5.57,9.69-1.01,2.1-1.35,4.16-1.42,6.37-.02.77-.28,1.33-.81,1.95-1.25,1.47-2.2,3.19-2.57,5.1-.36,1.87-1.17,3.55-1.78,5.31-.46,1.34-.76,2.73-1.17,4.06-.62,2.02-.63,4.13-1.31,6.13-.52,1.51-.26,3.17-.28,4.76,0,.23.08.45.07.68-.04,1.14-.18,1.15-1.31.94-1.44-.27-2.85-.61-4.38-.44-1.32.15-2.7-.17-4.02.31-.69.25-1.4.47-2.1.7-1.41.48-2.82.14-4.18-.14-3.77-.79-7.03-2.52-9.45-5.61-.88-1.13-1.52-2.43-1.98-3.74-.78-2.24-1.98-4.37-2.12-6.81-.07-1.24-.05-2.46.11-3.72.23-1.77.69-3.5.79-5.3.08-1.44.48-2.86.77-4.28.2-.99-.5-2.75-1.43-3.03-.62-.19-.84-.73-1.35-.99-1.42-.72-2.86-1.41-4.48-1.5-.98-.05-1.76-.35-2.34-1.22ZM462.55,163.11c2.23-.15,4.25-.32,6.27-.43,1.31-.07,2.67,0,3.9-.45,3.27-1.18,6.32-2.82,9.38-4.46.64-.34.94-.99,1.29-1.58.29-.48.09-.88-.32-1.19-.42-.33-.88-.41-1.18.09-.42.69-1.1.99-1.76,1.29-1.44.66-2.89,1.36-4.4,1.82-2.32.71-4.69,1.24-7.14,1.42-1.5.1-2.96-.15-4.44-.07-1.4.07-2.7-.24-4.02-.63-1.47-.43-2.98-.7-4.49-.93-.42-.06-1.12-.16-1.32.49-.18.6-.14,1.14.43,1.68,1.19,1.12,2.82,1.11,4.13,1.81,1.25.67,2.56.91,3.68,1.13ZM474.81,140.94c-1.38-.03-2.47.54-3.24,1.7-.65.98-.45,2.16-.1,3.04.52,1.28,1.6,2.22,2.76,3.11,1.7,1.3,4.43-.23,4.82-2.07.59-2.77-1.4-5.47-4.24-5.78ZM462.11,183.12c.65-.07,1.28-.19,1.9-.18,2.12.03,4.04-.68,5.83-1.69,2.12-1.2,4.03-2.76,6.18-3.92.51-.27.8-.69.61-1.26-.19-.58-.77-.34-1.19-.41-.16-.03-.34.04-.5.1-1.38.52-2.75,1.03-4.01,1.83-2.7,1.72-5.53,3.18-8.82,3.37-.61.04-1.23.1-1.83.21-.5.09-.85.46-.79.96.04.38.32.73.8.78.62.07,1.24.15,1.83.22ZM453.86,169.17c.02.51.21.62.41.74,1.04.65,2.21.9,3.39,1.13,3.26.62,6.5,1.52,9.88.88.99-.19,2.04-.26,2.9-.85.42-.29.86-.65.7-1.26-.16-.65-.71-.65-1.24-.64-1.31.02-2.62,0-3.92.06-2.55.11-5.08.38-7.65.18-1.46-.11-2.95-.14-4.47-.23Z"/>
    <path class="cls-5" d="M510.71,213.79c1.94.31,3.78,1.01,5.42,2,2.62,1.59,5.21,3.29,7.16,5.73,1.63,2.05,3.24,4.11,4.75,6.25.67.95,1.18,1.95,1.58,3.01,1.34,3.51,2.31,7.13,3.26,10.76.48,1.85.48,3.83.88,5.71.38,1.81.39,3.63.41,5.44.04,3.07.04,6.15-.12,9.21-.1,1.93-.05,3.93-.45,5.78-.42,1.98-.82,3.99-1.32,5.96-1.24,4.97-2.59,9.91-3.57,14.94-.56,2.87-1.31,5.63-2.34,8.34-.31-.11-.46-.28-.45-.53.1-2.85-.5-5.67-.44-8.52.09-3.76.6-7.46,1.04-11.19.43-3.65,1.24-7.24,1.42-10.93.06-1.28.26-2.6.43-3.89.18-1.4-.36-2.27-1.42-2.98-.27-1.23-1.23-1.02-2.04-.91-1.12.14-2.21.44-3.32.64-1.76.32-1.93.55-1.64,2.31,0,.04-.15.1-.22.15-.39-.19-.27-.6-.41-.88-.48-.95-.07-2.2-1.03-2.97-.05-.31-.1-.63-.15-.94.22-1.02.25-1.97-.32-2.97-.38-.67-.73-1.39-1.06-2.09-.8-1.73-1.01-3.71-2.18-5.3-.06-.08-.09-.22-.07-.33.23-1.46-.86-2.17-1.75-2.93-.51-.43-.92-.86-.98-1.52-.14-1.47-.52-2.93-.35-4.42.09-.81-.09-1.4-.92-1.81-.99-.48-1.36-1.34-.98-2.44.23-.67.24-1.35,0-2.02-.22-.62-.19-1.23.02-1.85.24-.72.15-1.47.17-2.22.01-.43-.1-.88-.48-1.04-1.38-.57-1.07-1.65-.89-2.7.18-1.02.98-1.95.47-3.08-.03-.06.08-.21.15-.29.56-.64.61-1.43.8-2.21.27-1.09.33-2.26.95-3.26Z"/>
    <path class="cls-12" d="M516.58,297.93c-.17,1.73-.94,3.29-1.53,4.88-1.58,4.26-3.12,8.53-4.41,12.89-.66,2.23-1.52,4.4-2.06,6.67-.29,1.22-.18,1.66.63,1.93.61.2,1.38-.21,1.65-1.15.31-1.06.86-1.99,1.21-3.01,1.55-4.45,3.19-8.88,4.64-13.37,1.53-4.71,3.11-9.4,4.29-14.22.09-.38.3-.73.49-1.19.8.79.86,1.81,1.03,2.69.29,1.53.79,2.99,1.45,4.34.84,1.71.59,3.25-.17,4.81-1.06,2.19-1.93,4.48-3.32,6.51-.7,1.03-.9,2.3-1.6,3.38-.65,1,.21,2.23,1.42,2.28.32.01.63-.32,1.05.08-.49.76-.57,1.75-1.23,2.46-1.07,1.15-1.4,2.45-.81,3.92.19.48.13.78-.16,1.22-.93,1.4-1.74,2.88-2.63,4.3-.16.25-.33.48-.28.77.35,1.85-.68,3.27-1.77,4.43-2.79,2.98-4.46,6.6-6.44,10.07-1.29,2.27-2.67,4.5-4.02,6.74-1.72,2.86-3.74,5.55-5.05,8.66-.24.57-.68,1.05-1.03,1.57-1.02,1.55-2.03,3.1-3.06,4.65-.69,1.03-1.65,1.84-2.3,2.92-1.05,1.76-2.5,3.26-3.78,4.84-1.29,1.59-2.69,3.15-4.11,4.67-1.35,1.44-2.71,2.89-3.77,4.58-.26.42-.73.72-1.08,1.1-.96,1.03-1.91,2.07-2.85,3.09-.46-.19-.33-.5-.16-.69,1.22-1.45,2.12-3.13,3.06-4.75.73-1.25,1.67-2.42,2.16-3.81.8-2.27,2.49-4.01,3.51-6.14.52-1.07,1.2-2.09,1.46-3.28.05-.23.09-.46.31-.57,1.14-.57,1.29-1.87,1.8-2.81.44-.8.86-1.66,1.38-2.44.72-1.08.93-2.39,1.59-3.52.87-1.48,1.49-3.14,2.03-4.79.59-1.82,1.71-3.41,2.08-5.33.22-1.15,1.38-1.93,1.63-3.16.17-.83.55-1.61.74-2.44.52-2.28,1.7-4.29,2.5-6.45.73-1.95,1.76-3.79,2.08-5.89.02-.17.05-.36.15-.49,1.4-1.95,1.64-4.3,2.23-6.52.36-1.36.98-2.63,1.44-3.96.6-1.7,1.12-3.4,1.53-5.15.24-1.01.39-2.11.87-3.07.33.03.79.18.94-.17.27-.65.93-.95,1.2-1.63.73-1.82,1.54-3.6,2.36-5.38.81-1.74,1.51-3.54,2.69-5.08Z"/>
    <path class="cls-10" d="M510.71,213.79c-.62.99-.68,2.16-.95,3.26-.19.78-.24,1.58-.8,2.21-.07.08-.18.23-.15.29.51,1.13-.29,2.06-.47,3.08-.19,1.05-.49,2.13.89,2.7.38.16.49.61.48,1.04-.02.74.07,1.5-.17,2.22-.2.62-.24,1.23-.02,1.85.24.67.23,1.35,0,2.02-.38,1.1,0,1.96.98,2.44.83.4,1.01,1,.92,1.81-.17,1.49.21,2.95.35,4.42.06.67.47,1.09.98,1.52.89.76,1.98,1.47,1.75,2.93-.02.1.01.25.07.33,1.16,1.59,1.38,3.57,2.18,5.3.32.7.67,1.42,1.06,2.09.57,1,.54,1.95.32,2.97-1.52-1.52-1.54-1.51-3.01.32-1.04.11-1.49.93-2.02,1.67-.18-.22-.31-.55-.53-.64-1.27-.49-1.19-1.34-.86-2.43.17-.58.2-1.25.46-1.8.57-1.22.17-2.38-.19-3.48-.38-1.15-1.44-1.1-2.4-.83-.35-.34-.22-.67-.14-1,.32-1.35-.37-2.49-1.67-2.8-.57-.14-1.03.08-1.39.45-.27.28-.42.67-.83.82h0c.42-2.45.78-4.92,1.28-7.36.22-1.09-.29-1.82-.75-2.69-.61-1.14-1.51-1.14-2.47-.82-.78.25-.95-.25-1.06-.72-.3-1.27-.67-2.55-.73-3.85-.14-3.07-2.13-3.53-4.39-3.33-.74-3.44-2.26-6.66-3.06-10.1-.1-.44-.16-.9-.24-1.34-.12-.65-.94-1.3-.42-1.87.39-.43,1.24-.5,1.9-.64,3.28-.67,6.54-1.28,9.96-.8,1.48.21,3.01.26,4.51.49.24.03.44.1.61.27Z"/>
    <g>
      <path class="cls-8" d="M527.39,161.54c-.56-2.25-1.2-4.5-1.77-6.76-.47-1.88-1.66-3.39-2.68-4.9-1.15-1.71-2.44-3.45-4.15-4.73-1.96-1.46-3.97-2.79-6.41-3.46-2-.55-4-.64-5.92-.24-2.21.46-4.36,1.29-6.45,2.22-.27.12-.53.21-.62.52-.19.66-.76.95-1.24,1.36-.76.64-1.61,1.3-2.15,2.07-1.39,1.99-3.15,3.74-4.19,5.98-.14.3-.43.54-.58.84-.57,1.23-1.54,2.3-1.8,3.65-.27,1.43-.28,2.92-.42,4.38-.08.83.02,1.7.52,2.3,1.14,1.34,1.71,3.1,3.19,4.18.35.26.6.69.84,1.07,1.43,2.32,3.44,4.07,5.53,5.75.5.4,1.06.59,1.71.68.96.13,1.94.39,2.73.94.89.62,1.9.89,2.88,1.01,1.44.18,2.75.7,4.12,1.06,2.3.61,3.57,2.09,4.27,4.23.11.32.23.65.37.96,1.25,2.67,2,5.46,2.07,8.41.02.7.15,1.34.53,2.1.78-1.19,1.13-2.34,1.85-3.32.66-.91,1.07-2.01,1.98-2.77.33-.27.38-.67.47-1.07.12-.55.21-1.21.56-1.6.76-.82.91-1.81,1.14-2.8.09-.4.25-.75.4-1.13,1.06-2.69,2.31-5.28,2.57-8.29.17-1.94.48-3.95.92-5.87.54-2.34.24-4.63-.29-6.78Z"/>
      <path class="cls-8" d="M505.72,191.2c-1.39-.28-2.58-1.14-4.09-1.18-.85-.02-1.85-.01-2.67-.47-1.78-.98-3.67-1.68-5.22-3.18-4.19-4.07-7.23-8.72-8.39-14.79-.59.95-.43,1.81-.78,2.52-.34.7-.56,1.47-.82,2.2-.55,1.57-.35,3.18-.64,4.73-.5,2.66-.76,5.32-.59,8.01.24,3.74,1.27,7.16,4.09,9.87.79.76,1.65,1.29,2.67,1.44,2.59.38,5.19.73,7.78-.1.97-.31,2.14-.23,2.95-.74,1.96-1.25,4.07-2.33,5.58-4.21.42-.52,1.06-.83,1.02-1.67-.04-.7-.34-1.33-.43-2.01-.03-.26-.24-.38-.47-.43Z"/>
    </g>
    <path class="cls-4" d="M513.1,258.26c.52-.74.98-1.55,2.02-1.67.22,1.05-.29,2.03-.29,3.05,0,3.17-.12,6.35.64,9.48.31,1.28.9,2.47,1.06,3.78.42,3.44,2.39,6.23,3.85,9.23.81,1.67.68,3.12.06,4.75-1.19,3.09-3.28,5.44-5.79,7.51-.57.47-1.04,1.06-1.56,1.59-.51.54-.87,1.14-.3,1.81.55.66,1.14.43,1.81.02,1.05-.65,1.91-1.52,2.83-2.54.25,1.22-.99,1.69-.85,2.65-1.19,1.54-1.88,3.34-2.69,5.08-.83,1.78-1.64,3.56-2.36,5.38-.27.67-.93.98-1.2,1.63-.15.35-.6.2-.94.17.08-2.04.61-4.02.78-6.04.24-2.99.74-5.95.99-8.94.2-2.36.36-4.7.2-7.07-.33-4.88-.62-9.76-.94-14.63-.03-.51-.11-1.02-.22-1.52-.14-.64-.15-1.2.28-1.78.26-.34.4-.83.44-1.27.22-2.29,1.39-4.29,1.92-6.48.34-1.41.71-2.74.26-4.17Z"/>
    <path class="cls-10" d="M518.27,257.22c.96.77.55,2.02,1.03,2.97.14.28.02.69.41.88.08-.05.23-.11.22-.15-.29-1.77-.12-1.99,1.64-2.31,1.11-.2,2.21-.5,3.32-.64.81-.11,1.78-.31,2.04.91-1.2.21-1.66,1.22-2.05,2.13-1.15,2.66-1.62,5.52-2.21,8.35-.42,2-.58,4.03-1.12,5.99-.24.88.02,1.81-.45,2.88-.78-1.1-1.3-2.18-1.38-3.3-.22-3.13-1.05-6.16-1.37-9.26-.19-1.87-.15-3.77-.06-5.65.05-.94-.46-1.86-.04-2.79Z"/>
    <path class="cls-1" d="M510.71,261.01c-.06-.17-.02-.32.11-.44,0,0,.12.05.12.08.04.19-.05.31-.23.36h0Z"/>
    <path class="cls-1" d="M506.47,260.57c.08-.15.08-.49.32-.35.19.12.03.36-.16.48-.05-.04-.1-.09-.16-.13Z"/>
    <path class="cls-10" d="M505.55,246.56s-.06.14-.07.14c-.12-.03-.09-.08.08-.13,0,0,0,0,0,0Z"/>
    <path class="cls-1" d="M407.49,394.48c-.03.28-.06.56-.32.74,0-.29.01-.58.32-.74Z"/>
    <path class="cls-11" d="M425.26,418.29c-.7-1.45-.86-3.04-1.17-4.58-.15-.71-.31-1.43-.41-2.16-.09-.68.23-.97.88-.86.64.11,1.42.07,1.54,1.01-.37-.1-.68-.46-1.28-.18.78.7.58,1.62.61,2.49.02.74-.02,1.46.23,2.2.25.72.13,1.47-.4,2.1Z"/>
    <path class="cls-11" d="M420.92,398.6c1.95-.19,3.7-.39,5.46-.33.8.03,1.56.09,2.33.41,1.57.65,3.14,1.3,4.69,1.99,2.33,1.04,3.69,2.98,5.02,4.97,1.58,2.37,2.65,5.04,4.26,7.4,1.12,1.65,1.24,3.64,1.57,5.54.04.21,0,.48-.09.67-1.25,2.5-1.88,5.13-1.56,7.95-.65,0-1.15,0-1.65,0-.29,0-.58.03-.71.36-.12.31.05.51.26.74,1.24,1.3,1.32,1.78.56,3.28-.71,1.4-1.71,1.95-3.2,1.79-.37-.04-.73-.13-.71-.56.05-1-.31-2.01.34-2.99.53-.8.35-1.45-.59-1.73-1.98-.59-2.23-2.09-2.21-3.75.02-1.54.09-3.07.26-4.61.15-1.34.78-2.47,1.16-3.69.27-.86.16-1.46-.45-1.98-.69-.59-1.41-.22-2.09.09-.19.09-.36.28-.49.46-.38.51-.54,1.4-1.31,1.29-.66-.1-.66-.99-1.01-1.47-1.78-2.5-1.94-5.55-2.93-8.32-.21-.59-.3-1.23-.57-1.78-.18-.38-.49-.87-1.03-.75-.56.13-1.08.44-1.18,1.1-.05.34-.03.68-.03,1.03-.01,1.62-.04,1.52-1.6,2.02-.88.28-1.17-.08-1.41-.72-.16-.42-.37-.92-.28-1.32.53-2.44-.03-4.74-.81-7.09Z"/>
    <path class="cls-11" d="M415.86,444.31c-1.09-2.33-1.25-4.45-.45-6.64.23-.63.68-1.07,1.2-1.4.57-.36,1.12-.03,1.59.29.45.3.6.74.5,1.34-.38,2.3-1.42,4.3-2.84,6.42Z"/>
    <g>
      <path class="cls-6" d="M431.25,443.41c-.02,4.58-.38,8.84-.59,13.1-.06,1.14-.03,2.28-.05,3.42-.01.47.07.9.31,1.31.42.72.78.75,1.27.11.61-.79.52-1.73.6-2.63.23-2.73-.06-5.45-.18-8.17-.07-1.71.1-3.43-.25-5.13-.14-.67-.24-1.32-1.1-2.01Z"/>
      <path class="cls-6" d="M401.95,506.48c.02,1.61.48,3.04,1.58,4.22.43.46.56.95.61,1.54.09,1.14.2,2.28.4,3.4.11.58.25,1.31,1.07,1.36.57.03.93-.62.9-1.59-.02-.8-.07-1.59-.11-2.36,0-1.76.45-3.57-.91-5.06-.24-.26-.37-.78-.3-1.13.22-1.09-.2-2.14-.11-3.22.13-1.51-.49-2.9-.9-4.31-.15-.5-.4-.93-.78-1.31-.41-.42-.87-.53-1.4-.39-.63.16-.97.66-1.01,1.25-.04.56.05,1.15.2,1.68.56,1.94.74,3.92.76,5.92Z"/>
      <path class="cls-6" d="M478.02,405.8c-1.9,0-3.73.36-5.56.82-3.18.8-6.34,1.69-9.67,1.65-1.03-.01-2.01.41-3.06.3-2.43-.25-4.88-.42-7.31-.72-1.35-.16-2.05-1.15-1.92-2.56.08-.91.24-1.81.45-2.7.17-.72.04-1.33-.39-1.91-1.1.11-1.69.76-2.02,1.79-.71,2.21-1.5,4.4-.37,6.71.02.05.01.11.02.17,2.11,2.05,4.76,2.57,7.55,2.46,1.05-.04,1.95.42,2.95.5.18-.24.43-.38.62-.11.13.17-.08.36-.29.44-.05,1-.64,1.82-1.01,2.69-1.27,2.95-2,6.09-3.22,9.05-1.43,3.48-1.92,7.22-3.26,10.73-.82,2.13-1.35,4.4-2.21,6.48-.71,1.72-1.25,3.51-1.96,5.23-.65,1.59-.82,3.37-1.31,5.04-.75,2.57-.88,5.25-1.01,7.91-.02.35-.08.66-.28.96-.27.43-.58.88-.26,1.43.19.33.03.65-.27.64-1.11-.04-1.18.81-1.52,1.53-.75,1.62-1.58,3.21-2.4,4.8-1.18,2.3-2.67,4.43-3.75,6.79-.11.25-.37.43-.55.65-.96,1.2-1.95,2.39-2.6,3.8-.11.25-.22.55-.7.55-.11-.62-.41-1.29-.32-1.9.22-1.49-.41-2.78-.78-4.12-.42-1.57-1.46-2.14-3.04-1.89-.36.06-.4.35-.57.57-1.25,1.56-1.58,3.52-2.26,5.32-.82,2.18-1.5,4.4-2.39,6.56-.54,1.31-1.5,2.38-1.87,3.78-.15.58-.87,1.02-1.41,1.6-1.76-1.79-3.51-3.5-4.56-5.82-.43-.96-.86-1.99-1.66-2.75-.62-.59-.51-1.49-.95-2.18-1.36-2.16-2.49-4.45-3.88-6.59-.7-1.07-1.34-2.18-.98-3.63.16-.67-.04-1.51-.31-2.18-1.08-2.71-1.54-5.55-1.99-8.39-.18-1.13-.9-2.04-1.1-3.19-.66-3.77-1.69-7.47-2.47-11.23-.41-1.98-.95-3.97-1.47-5.94-.52-1.95-.87-3.97-1.25-5.97-.55-2.98-1.92-5.7-2.76-8.6-.73-2.51-1.77-4.92-1.97-7.57-.12-1.61-.1-1.56,1.41-2.2,1.47-.62,3-1,4.57-1.21.68-.09,1.24-.24,1.38-1.01-.16-.45-.15-.97-.53-1.34-2.7-.97-5.29-.38-7.79.66-1.78.74-3.46,1.73-5.17,2.61-4.02,2.09-8.28,2.96-12.48.21-.34-.23-.69-.34-1.08-.46-.72-.22-1.31-.32-1.71.51-.24.5-.61.55-1.12.21-.85-.56-1.76-1.04-2.68-1.5-1.21-.61-1.8-1.72-1.94-3.05-.07-.68-.28-1.28-.67-2.08-.62.93-.23,1.77-.48,2.61-1.61-.6-2.56-1.75-2.95-3.36-.12-.51-.26-.99-.48-1.45-.81-1.67-.82-1.69-2.41-.69-.72.45-1.28.18-1.62-.37-.85-1.41-2.05-2.59-2.65-4.15-.65-1.69-.38-3.32.27-4.98,1.16-2.97,2.97-5.63,4.02-8.64.45-1.28,1.03-2.51,1.45-3.8.17-.52.51-.89.78-1.31.5-.77.81-1.63,1.22-2.44.66-1.29,1.02-2.71,1.85-3.93.48-.71.55-1.6.8-2.39.76-2.41,1.87-4.61,3.13-6.78.92-1.6,1.34-3.44,1.46-5.24.08-1.29.41-2.47.87-3.59,1.02-2.48,1.63-5.08,2.52-7.59.45-1.27,1.2-2.16,2.02-3.1.74-.84,2-1.32,1.73-2.88-.08-.48.74-.96,1.23-1.35.98-.78,1.97-1.56,3.02-2.23.84-.53,1.18-1.19,1.05-2.15-.36-.95.47-1.01.98-1.31.49-1.21,1.74-1.78,2.4-2.85.3-.49.68-.93.74-1.52.04-.46.04-.91-.45-1.2-.59-.35-.56-.79-.14-1.27.24-.27.26-.62.28-.97.07-1.23-.07-1.44-1.28-1.84-.21-.07-.43-.12-.69-.19.18-1.65,1.24-2.83,1.98-4.13.75-1.31,1.77-2.46,2.63-3.72,1.32-1.93,2.37-4.03,3.14-6.22.98-2.78,2.09-5.51,3.16-8.26.51-1.32,1.14-2.6,1.83-3.83.61-1.09.91-2.3,1.56-3.39,1.03-1.74,1.94-3.57,2.8-5.4.76-1.62,1.98-2.92,2.97-4.36,1.69-2.48,2.87-5.15,3.88-7.93.31-.86.64-1.7,1.2-2.41.65-.82,1.08-1.76,1.47-2.7.26-.64.49-1.26.9-1.83.8-1.12.89-2.38.23-3.56-.4-.71-.26-1.12.22-1.65,1.32-1.43,2.38-3.04,3.28-4.77.46-.87,1.12-1.65,1.67-2.46,1.16-1.68,2.19-3.42,3.21-5.17,1-1.71,2.12-3.52,2.4-5.41.3-2.02,1.63-3.59,1.76-5.66.08-1.29.91-2.56,1.43-3.79.71-1.69.68-3.44,1.14-5.12.69-2.48.38-5.11.93-7.53.48-2.13.46-4.19.39-6.24-.07-2.22-.14-4.46-.8-6.69-.72-2.43-1.5-4.82-2.47-7.15-.4-.96-1.04-1.74-1.57-2.6-.19-.31-.25-.63-.29-.96-1.59-1.78-3.23-3.49-5.11-5-2.24-1.8-4.66-3.25-7.37-4.17-.8-.27-1.65-.25-2.52-.25-1.56,0-2.58,1.18-3.94,1.58-.56.17-.48.87.07,1.19.7.41,1.45.25,2.16.11,1.09-.21,2.12-.19,3.12.39.69.4,1.44.71,2.14,1.09,2.57,1.42,4.47,3.62,6.29,5.81,1.17,1.41,2.17,3.02,2.74,4.85.39,1.23,1.35,2.32,1.61,3.56.57,2.75,1.07,5.51,1.2,8.34.1,2.18-.34,4.3-.38,6.46-.03,1.64-.17,3.3-.48,4.91-.18.95-.14,1.91-.42,2.87-.74,2.5-1.34,5.05-2.23,7.51-.69,1.92-1.1,3.97-1.96,5.81-1.29,2.77-2.78,5.46-4.31,8.11-1.43,2.46-2.96,4.85-4.62,7.16-1.41,1.95-2.68,4-4.11,5.94-.65.88-1.41.94-2.25.75-.93-.21-1.42-1.03-1.52-1.86-.19-1.53-.58-3.07-.58-4.57,0-2.46.42-4.93.84-7.37.37-2.14.71-4.28.75-6.44.02-1.07.29-2.16-.12-3.2-.2-.52-.35-1.16-1-1.3-.72-.16-1.02.47-1.29.92-.26.43-.64.81-.7,1.36-.42,4.26-1.93,8.33-2.26,12.61-.06.82-.05,1.72-.54,2.49-2.15,3.38-3.84,7.03-6.23,10.26-.78,1.05-1.73,1.97-2.85,2.7-.57.37-.96.36-1.43-.25-.87-1.12-1.44-2.33-1.49-3.74-.06-1.58-.02-3.16-.02-4.74,0-1.17-.45-1.81-1.43-1.98-.83-.14-1.33.32-1.7,1.55-1.14,3.9-3.15,7.32-5.74,10.42-.37.44-.8.92-1.45.66-.61-.24-.98-.72-1.1-1.41-.51-2.82-.65-5.65-.13-8.48.11-.58-.05-1-.44-1.38-1.15-1.12-2.19-1.01-3.07.46-2.68,4.43-5.33,8.88-7.96,13.35-.21.35-.36.71-.71.92-.33.19-.61.59-1.07.39-.45-.2-.4-.67-.42-1.05-.12-3.02.32-6.01.23-9.04-.04-1.41.2-2.95.7-4.37.3-.85.38-1.77.55-2.66.31-1.67.51-3.37.92-5.01,1.37-5.49,3.43-10.75,5.29-16.07.72-2.04,1.12-4.16,1.66-6.25.12-.48.1-1.03.04-1.53-.15-1.14-.68-1.33-1.63-.63-.77.56-1.2,1.38-1.54,2.23-1.11,2.74-2.14,5.51-3.31,8.23-.7,1.63-.86,3.45-1.74,4.99-.57,1.01-.96,2.05-1.22,3.16-.36,1.49-.65,3.02-1.11,4.46-.93,2.94-1.37,5.97-1.93,8.98-.18.99-.3,2.03-1.11,2.82-3.06,3.01-5.9,6.25-9.12,9.1-1.1.97-2.22,2.06-3.95,2.17.14-.58.18-1.1.38-1.56,1.01-2.29,1.59-4.73,2.42-7.08,1.35-3.83,2.84-7.56,5.11-10.95.86-1.28,1.53-2.68,1.57-4.29,0-.36.03-.76-.27-.95-.53-.33-1.11-.58-1.68-.82-.58-.24-.92.34-1.38.49-.89.28-1.5.96-2.52,1.6.75-2.15,2.16-3.47,3.39-4.91,1.37-1.59,3.02-2.94,4.05-4.83.25-.46.32-.79.06-1.25-.27-.47-1.09-.77-.79-1.38.23-.46.85-.72,1.31-1.06.55-.41,1.15-.76,1.65-1.22.83-.77,1.82-1.34,2.41-2.39,1.1-1.92.66-3.05-1.55-3.51.19-.18.35-.34.51-.48,1.11-.98,2.31-1.86,3.39-2.9.89-.86.44-2.28-.64-2.58-.3-.08-.68.09-.92-.3.79-.54,1.6-1.05,2.37-1.61,1.6-1.18,3.05-2.55,4.77-3.58.81-.49,1.52-1.18,2.21-1.87.95-.96,1.72-2.08,2.79-2.95,1.75-1.43,3.38-3.02,4.96-4.63,1.54-1.56,2.86-3.37,4.39-4.96,1.3-1.35,2.51-2.82,3.97-3.96,1.44-1.14,2.68-2.46,4-3.7,1.08-1.02,2.05-2.25,3.3-2.95,2.26-1.27,4.66-2.28,6.84-3.71.59-.38,1.07-.87,1.4-1.49.33-.62-.09-1.07-.43-1.54-.23-.31-.04-.63.03-.97.36-1.81,1.14-3.51,1.31-5.37.1-1.05.18-2.11.67-3.14.91-1.9,2.13-3.58,3.27-5.32,1.38-2.11,1.01-4.21-1.04-5.57-.18-.12-.41-.19-.45-.45.57-1.12,1.38-2.07,2.33-2.87,1.93-1.64,3.9-3.24,5.9-4.8.8-.63,1.03-1.48,1.24-2.36.15-.6-.06-1.11-.69-1.41-.81-.39-1.61-.73-2.77-.21.5-.86.8-1.41,1.47-1.73.73-.35,1.22-1.02,1.79-1.59,1.49-1.48,2.49-3.38,4.15-4.72.31-.25.58-.57.77-.91,1.64-2.96,3.72-5.62,5.72-8.33.51-.69.99-1.4,1.43-2.14.37-.61.07-.96-.57-1.1-.83.13-1.19.84-1.68,1.38-1.06,1.17-1.79,2.62-3.19,3.52-.7.45-1.26,1.15-1.77,1.83-1.45,1.93-3.21,3.53-5.11,4.97-1.58,1.2-2.91,2.68-4.45,3.94-1.19.96-2.35,2.02-3.45,3.11-1.06,1.05-1.73,2.28-1.89,3.82-.14,1.28.75,1.99,1.36,2.89-1.5,1.55-3.07,3.02-4.46,4.64-1.52,1.76-1.38,3.58.15,5.09.35.35.76.63,1.09.89-1.32,2.06-2.56,4.05-3.53,6.19-.34.76-.55,1.64-.59,2.47-.09,1.9.03,3.8-.82,5.6-.31.65-.41,1.47-.13,2.18.28.71,0,1.09-.56,1.37-1.12.54-2.22,1.19-3.4,1.54-1.23.37-2.29.97-3.22,1.79-2.84,2.49-5.32,5.38-8.42,7.6-1.33.96-2.46,2.22-3.61,3.42-1.72,1.79-3.24,3.8-5.1,5.42-2.23,1.94-3.97,4.29-5.97,6.41-1.43,1.52-2.64,3.27-4.27,4.57-2.72,2.15-5.55,4.15-8.34,6.22-.84.62-1.51,1.4-2.1,2.25-.71,1.02-.27,2.23.91,2.64.23.08.42.16.4.55-.94.61-1.77,1.47-2.61,2.31-.88.88-.75,1.66.33,2.29.29.17.59.31,1.23.65-2.04.71-3.47,1.91-4.95,3.02-1.62,1.21-3.37,2.29-4.59,3.98-1.19,1.65-.6,3.42,1.36,3.89.11.03.23.02.34.02.7.02.85.49.43.87-1.36,1.23-1.61,2.95-2.16,4.53-.54,1.57.72,3.56,2.31,4.08.58.19,1.05-.66,1.65.05-.96,2.07-1.81,4.25-2.65,6.43-.8,2.06-1.38,4.17-2.04,6.27-.79,2.52-2,5-1.14,7.78.09.28-.15.65-.23.98-.38,1.48-1.1,2.85-1.32,4.38-.16,1.14-.38,2.28-.49,3.42-.15,1.46-.65,2.87-.81,4.3-.26,2.32-.15,4.69-.14,7.04,0,.85-.13,1.56-.79,2.17-.65.61-.91,1.41-.98,2.31-.21,2.73-.8,5.41-1.23,8.12-.24,1.47-.78,2.85-.88,4.36-.18,2.84-.58,5.66-.75,8.5-.17,2.95-.38,5.92-.18,8.86.12,1.82.21,3.65.37,5.47.25,2.77.1,5.46-.81,8.17-1.56,4.62-2.49,9.41-3.14,14.25-.25,1.89-.33,3.83-.86,5.64-.67,2.28-.6,4.63-.99,6.93-.52,3.04-.48,6.18-.78,9.27-.2,2.02-.1,4.11-.49,6.06-.58,2.91-.51,5.83-.79,8.73-.19,1.95-.18,3.94-.32,5.89-.14,1.92-.14,3.85-.36,5.77-.32,2.78-.11,5.6-.47,8.39-.17,1.35.02,2.78-.14,4.11-.33,2.65,0,5.28-.19,7.91-.09,1.28.39,2.63.17,3.87-.45,2.43-.04,4.84-.19,7.26-.2,3.31.07,6.61.37,9.91.09.97.37,1.92.38,2.88.02,2.95.47,5.85.77,8.77.3,2.88.78,5.74,1.33,8.58.19.99.33,2,.59,2.97.21.8,1.55,1.97,2.09,1.74.74-.3,1.25-.86,1.35-1.79.08-.71.38-1.41.64-2.11.65-1.73,1.41-3.48,1.71-5.29.76-4.58,1.9-9.07,2.66-13.64.36-2.12.73-4.24,1.08-6.37.31-1.89.54-3.8.66-5.71.11-1.85.96-3.61.64-5.51-.04-.26.05-.68.56-.87.32,1.74.64,3.46.96,5.19.13.7.97,1.66,1.49,1.71.75.08,1.74-.52,2-1.34.91-2.81,1.93-5.61,2.3-8.54.39-3.05,1.26-6,1.83-9.01.41-2.17.91-4.33,1.39-6.49.55-2.5.99-5.03,1.68-7.49.8-2.83,1.78-5.61,2.79-8.38.25-.7.11-1.58.91-2.12.48.96.83,2.09,1.64,2.75,1.56,1.27.98,2.66.55,4.11-.11.38-.26.76-.32,1.15-.38,2.28-.7,4.58-1.12,6.86-.54,2.92-.86,5.88-1.33,8.81-.17,1.08.18,2.14-.06,3.16-.26,1.08-.35,2.16-.22,3.23.29,2.43.2,4.87.25,7.3.02,1.07.28,2.14,1.08,2.99.31.33.48.72.55,1.21.52,3.87,1.11,7.74,1.66,11.61.2,1.4.27,2.83.57,4.2.69,3.23.99,6.52,1.28,9.78.3,3.43,1.11,6.79,1.26,10.25.09,2.16.47,4.37.77,6.55.39,2.87.79,5.75,1.18,8.62.28,2.04.66,4.09.93,6.13.37,2.74.83,5.47,1.07,8.22.08.93.57,1.7.6,2.59.07,2.57.73,5.07.97,7.62.19,2.07.95,4.07.86,6.18-.01.28-.06.64.08.84.91,1.36.1,3.01.79,4.39-.47.77.54,1.19.42,1.91-.17,1.01.19,2,.25,3,.12,1.79.83,3.47.79,5.29-.01.62-.06,1.35.23,2,.67,1.52.74,3.21.98,4.79.26,1.75.93,3.33,1.37,4.99.22.81.26,1.41.04,2.2-.34,1.22-1.29,2.27-1.29,3.48,0,1.44-.58,2.7-1.06,3.88-1.08,2.65-1.72,5.37-1.76,8.16-.05,3.13,1.36,4.06,3.74,3.99-.19,1.05-.48,2.1-.56,3.16-.13,1.76,1.04,2.71,2.7,2.31.16-.04.33-.08.48.2-.39.65-.23,1.47-.48,2.24-.72,2.13-1.36,4.29-2.04,6.44-.15.49-.23.99-.28,1.5-.07.73.19,1.3.74,1.58.56.29,1.17.13,1.76-.28.55-.39.87-1.12,1.75-1.31-.13.92-.53,1.65-.5,2.46.03.77.43,1.14,1.13,1.27,1.14.2,1.07.17.7,1.25-.55,1.63-.33,3.44.47,4.74.84,1.37,1.42,2.82,1.71,4.27.71,3.43,1.44,6.84,2.51,10.17.4,1.24.86,2.46,1.22,3.71.17.6.91.78.97,1.35.16,1.56.94,2.86,1.57,4.24,1.39,3.02,3.31,5.3,6.94,5.44.33.01.66.17.99.27.22-.36.54-.63.97-.62,2.06.03,3.07-1.45,4.12-2.87.14-.18.22-.41.38-.57,2.71-2.8,4.18-6.3,5.74-9.78,1.14-2.56,2.07-5.17,2.82-7.87.6-2.16.76-4.38,1.13-6.57.3-1.8.5-3.61.81-5.41.06-.36.15-.79.5-1.09.52,2.82.46,5.65.54,8.47.09,3.33.42,6.63,1.13,9.89.63,2.88,1,5.81,1.62,8.69.86,3.98,1.2,8.05,2.27,12,1.04,3.85,1.88,7.77,3.55,11.39.67,1.46,1.65,3.02,3.54,3.42-1.21,1.87-1.1,4.02-1.03,6.07.05,1.58.15,3.18.23,4.77.13,2.89-.15,5.79.28,8.67.3,2,.21,4,.07,6-.03.4-.06.82.03,1.2.78,3.38-.32,6.42-1.67,9.42-1.1,2.44-2.05,4.95-3.55,7.19-.22.33-.43.68-.7.97-.43.45-.99.5-1.3-.06-.94-1.65-2.69-2.83-2.91-4.91-.03-.27-.13-.6-.32-.78-1.17-1.16-1.06-2.83-1.74-4.16-.69-1.34-1.01-2.77-1.39-4.19-.93-3.45-1.68-6.96-2.19-10.49-.46-3.2-.81-6.42-1.47-9.6-.22-1.08-.15-2.26-.89-3.21-.1-.12-.13-.32-.13-.48,0-2.16-.87-4.15-1.25-6.23-.35-1.96-1.11-3.81-1.29-5.81-.08-.87-.65-1.75-.79-2.54-.4-2.18-1.42-4.15-1.83-6.31-.07-.39-.18-.78-.35-1.14-.57-1.19-1.83-1.58-3-1.02-.65.31-1.05.85-1.48,1.38.32,1.23.1,2.47.14,3.7.05,1.69.45,3.37.78,5.04.33,1.69.75,3.36,1.24,5,.28.95-.1,1.96.43,2.84.83,1.38.68,3.02,1.22,4.49.17.46.58.93.52,1.39-.26,2.07,1.13,3.87.89,5.92-.02.21.04.51.19.64.66.57.53,1.36.55,2.05.03,1.35.36,2.66.51,3.99.15,1.37.76,2.63,1.01,3.96.29,1.57.22,3.23,1.11,4.64.41.64-.23,1.35.16,1.95.72,1.12.67,2.52,1.32,3.63.54.93.44,2.05,1.06,2.92.44.61.67,1.3.89,2.02.46,1.53.7,3.06.73,4.68.03,1.67.45,3.33.75,4.98.33,1.81.62,3.62.87,5.45.24,1.75.98,3.43.83,5.25-.03.38.1.79.21,1.17.36,1.37.66,2.74.93,4.13.21,1.07.04,2.21.4,3.17.46,1.22.35,2.49.79,3.71.65,1.78.09,3.85,1.18,5.57.09.13.1.33.09.5-.02,2.04.42,4.02.72,6.02.29,2.01.77,4.02,1.43,5.9.61,1.75,1.5,3.47,2.4,5.16,1.18,2.21,3.28,2.82,5.16,3.88.17.1.54.12.65,0,.83-.84,2.06-1.05,2.85-2.04.73-.91,1.06-1.9,1.55-2.89,1.17-2.34,1.94-4.79,2.91-7.19.78-1.94,1.08-3.97,1.33-5.95.27-2.22,1.89-4.18,1.24-6.54-.01-.04.03-.12.07-.15.81-.8.63-1.9.82-2.88.28-1.43.69-2.85.89-4.28.15-1.05.21-2.11.56-3.13.47-1.39.36-2.88.66-4.3.37-1.73.83-3.46.94-5.22.23-3.54.82-7.05.71-10.61-.04-1.29-.08-2.6.08-3.88.36-2.86.14-5.74.25-8.6.1-2.71.38-5.37,1.08-7.96.82-3.03,1.33-6.1,1.85-9.18.34-2,.59-4.02.94-6.01.2-1.15-.11-2.63,1.39-3.29.13-.06.22-.26.28-.42.68-2.07.81-4.24.82-6.37,0-2.13-.25-4.26.25-6.38.57.17,1.1.39,1.65.48,1.04.17,2.03-.94,1.81-2.01-.14-.66-.19-1.34-.47-1.99-.37-.86-.41-1.79-.31-2.91.47.41.79.64,1.05.92.6.66,1.46.62,2.01.29.49-.29.78-1.07.6-1.81-.18-.74-.33-1.48-.52-2.33.44.31.78.51,1.07.76,1.02.88,1.63.87,2.55-.02.56-.54.54-1.21.55-1.9.02-.99-.64-1.93-.29-2.94.15-.01.21-.03.26-.02.11.03.21.07.32.11,1.24.47,1.18.42,1.74-.72.65-1.32.16-2.5-.35-3.61-.98-2.12-1.42-4.39-2.1-6.59-.33-1.08-.68-2.16-1-3.25-.72-2.43-1.62-4.81-1.95-7.37-.45-3.51.31-6.93.75-10.33.45-3.43.62-6.88,1.11-10.3.21-1.45-.04-2.96.14-4.4.46-3.57.37-7.17.57-10.74.1-1.88.04-3.84.06-5.75.04-5.02-.04-10.05.11-15.07.09-3.05-.03-6.1.11-9.13.1-2.16.23-4.35.17-6.47-.1-3.29.49-6.53.31-9.79-.12-2.25-.03-4.47.01-6.71.05-2.47-.31-4.94-.36-7.41-.02-.88-.45-1.73-.24-2.58.35-1.42.23-2.8-.18-4.15-.12-.38-.31-.7-.21-1.12.18-.75-.12-1.44-.23-2.16-.2-1.35-.43-2.74-.3-4.08.09-.91.16-1.78.06-2.7-.21-1.87-.62-3.77-.48-5.62.12-1.56.06-3.03-.3-4.52-.32-1.33-.72-2.66-.82-4.01-.16-2.02-.06-4.06-.12-6.09-.06-2.03.14-4.16-.41-6.06-.43-1.5-.18-2.72.11-4.08.11-.49.22-.99.3-1.5.25-1.69.04-3.47.93-5.05.1-.17.14-.51.04-.65-.49-.67,0-1.18.23-1.73.15-.36.52-.59.48-1.06-.08-1.09.47-2.05.69-3.09.51-2.47,1.85-4.71,1.96-7.31.02-.47.06-1.15.4-1.61,1.29-1.75,1.35-3.9,1.88-5.88.79-2.95,1.18-6,1.85-8.98.31-1.39.36-2.81.67-4.18.56-2.52,1.56-4.93,1.97-7.5.23-1.48,1.13-2.29,2.33-2.06,2.01.4,3.96-.1,5.88-.43,2.6-.45,5.13-1.3,7.68-1.99.89-.24,1.72-.64,2.44-1.22.6-.47,1.1-1.03.89-1.9-.58-.83-1.41-1.08-2.37-1.08ZM335.54,326.96c.1-2.05.16-4.11.38-6.14.17-1.62.56-3.21.92-4.8.09,1.49.25,2.96.48,4.42.08.5.2.96.55,1.4.84,1.04,1.37,1.05,1.91-.22.56-1.33.73-2.74.79-4.21.08-1.78.1-3.57.28-5.36.21-2.12.41-4.24.39-6.4-.02-1.81.03-3.63.1-5.44.12-3.27.55-6.54.8-9.81.12-1.55.66-3,.97-4.5.12-.58.53-.66.98-.79,2.89-.86,4.75-3.07,6.63-5.2,1.96-2.22,3.81-4.54,5.71-6.81.1-.11.27-.16.39-.23.68.44.07.95.14,1.4.32,1.93-.11,3.83-.08,5.75.01,1.21.23,2.36.6,3.52.38,1.2,1.2,1.93,2.15,2.54,1.46.94,3.21.15,4.4-1.12,2.53-2.71,4.29-5.94,6.18-9.09.07-.12.26-.18.38-.26.42.21.32.59.39.91.27,1.3.84,2.42,1.6,3.54,1.29,1.89,4.15,2.34,6.01.24,1.36-1.54,2.53-3.22,3.61-4.97.17-.28.24-.66.79-.74.25,1.54,1.25,2.69,2.14,3.91,1.16,1.6,3.09,2,4.92.53,1.2-.96,2.16-2.18,3.06-3.44,1.61-2.25,2.61-4.81,3.91-7.22.27-.49.45-1.04,1.11-1.52.23,1.18.35,2.28.65,3.33.9,3.05,2.95,4.86,6.12,5.34.4.06.79.13,1.18.2.08-.06.2-.18.24-.16.2.12.1.26,0,.39-.18,1.4-1.24,2.39-1.65,3.72-.58,1.88-1.65,3.57-2.5,5.34-.97,2.02-2.37,3.8-3.17,5.9-.79,2.07-1.84,4.04-2.8,6.02-1.84,3.78-3.33,7.7-5.05,11.53-1.13,2.51-2.19,5.08-3.31,7.61-.34.77-.82,1.5-1.36,2.15-2.28,2.77-3.66,6-4.86,9.32-.33.9-.73,1.66-1.67,2.23-1.23-1.06-1.67-2.61-2.05-4.07-.89-3.42-1.38-6.92-1.7-10.45-.19-2.14.61-4,1.17-5.95.3-1.03.51-2.09.69-3.15.11-.65-.24-1.23-.63-1.71-.45-.57-1.26-.47-1.96.18-1,.92-1.47,2.2-1.95,3.37-.64,1.57-1.37,3.1-1.87,4.74-1.21,3.92-2.99,7.66-3.7,11.75-.1.6-.48,1.15-.65,1.75-.71,2.5-1.41,5.01-2.07,7.53-.12.45-.35.8-.58,1.19-.63-2.06-.57-4.16-.55-6.24.01-1.24-.04-2.48-.04-3.72,0-2.16.4-4.28.4-6.42,0-.51.16-1.04-.22-1.48-.41-.48-.87-1.02-1.55-.95-.81.08-1.32.7-1.58,1.41-.49,1.33-.99,2.67-1.3,4.05-.25,1.12-.61,2.17-.97,3.25-.81,2.42-1.58,4.86-2.13,7.35-.59,2.64-1.68,5.07-2.73,7.52-.06.14-.25.22-.49.42-.49-.8-.76-1.63-.95-2.5-.76-3.49-1.17-7.02-1.09-10.6.01-.51,0-1-.21-1.51-.23-.54-.49-.88-1.11-.86-.64.02-1.3.01-1.53.8-.11.38-.23.76-.29,1.16-.36,2.18-.9,4.3-1.47,6.44-.7,2.58-1.13,5.23-1.59,7.87-.57,3.25-1.1,6.51-1.55,9.78-.31,2.26-.56,4.53-1.01,6.77-.45,2.25-1.26,4.38-2.04,6.53-.06.15-.19.28-.47.68-.57-1.42-1.08-2.58-1.51-3.78-1.58-4.38-2.41-8.9-2.69-13.55-.25-4.3-.76-8.58-.71-12.89.03-2.5.19-5,.32-7.49ZM355.12,387.53c-.06.09-.04.24-.09.33-1.45,2.23-2.04,4.79-2.88,7.26-.28.83-.23,1.68-.53,2.49-.68,1.86-1.3,3.75-1.93,5.63-1.3,3.89-2.17,7.87-3.06,11.86-.62,2.78-.98,5.6-1.45,8.39-.81,4.83-2.27,9.53-2.72,14.42-.12,1.31-.61,2.6-.99,4.11-1.07-3.52-.7-6.9-.85-10.22-.06-1.43.11-2.95.3-4.43.2-1.55.25-3.13.43-4.7.3-2.63,1.21-5.08,1.82-7.62.72-3.04,1.63-6.02,2.47-9.03,1-3.56,1.78-7.17,2.88-10.71.77-2.44,1.27-4.97,1.8-7.49.18-.86.24-1.82-.55-2.69-.84.62-1.48,1.31-1.88,2.32-1.13,2.81-1.94,5.71-2.86,8.58-1,3.13-2.07,6.25-2.91,9.43-.86,3.29-2,6.49-2.79,9.8-.78,3.26-1.74,6.47-2.11,9.81-.47,4.28-1.13,8.54-2.09,12.73-.83,3.58-.77,7.24-1.45,10.82-.28,1.49-.28,3.06-.35,4.58-.11,2.35-.77,4.6-.95,6.94-.18,2.35-.99,4.65-1.39,7-.35,2.06-.68,4.12-1.43,6.1-.32-3.66-.91-7.28-.85-10.97.03-2.02-.48-4.04-.53-6.08-.09-3.73-.45-7.44-.35-11.2.1-3.38.75-6.8-.05-10.19.43-1.22.16-2.48.18-3.73.07-3.75.41-7.48.56-11.22.09-2.31.55-4.6.28-6.96-.15-1.34.16-2.81.34-4.21.16-1.23.18-2.48.2-3.69.04-2.35.29-4.69.52-7,.24-2.45.28-4.94.82-7.37.28-1.26.25-2.6.33-3.9.25-4.18.54-8.36.98-12.53.2-1.89.36-3.82.31-5.77-.07-2.48.48-4.98.74-7.47.21-1.97.39-3.94.89-5.94.35,1.2.77,2.38,1.04,3.59.54,2.36,1.58,4.51,2.7,6.63.27.52.67.92,1.11,1.3.8.68,1.87.67,2.6-.06.69-.7,1.14-1.53,1.51-2.45,1.32-3.37,2.02-6.89,2.6-10.45.18-1.12.61-2.21.8-3.28.22-1.24.53-2.49.61-3.78.2-3.13.86-6.19,1.7-9.21,0-.03.1-.04.18-.08.35.45.41.98.52,1.53.3,1.57.91,3.02,1.78,4.39,1.6,2.52,3.81,1.65,4.98-.1,1.13-1.67,2.02-3.56,2.64-5.53.41-1.31.91-2.6,1.49-3.88.33,1.2.81,2.28.88,3.56.09,1.63.63,3.25,2.25,4.21.61.36,1.05.39,1.71.04,2.04-1.1,2.89-3,3.57-5.01,1.05-3.05,2.05-6.11,3-9.19.49-1.57.81-3.18,1.23-4.77.25-.94.54-1.86,1.13-2.65.22-.45.03-1.01.4-1.48.16.65.28,1.26.05,1.87.12,3.03.49,6.02,1.43,8.91.33,1.02.6,2.08,1.49,2.83,1.46,1.22,1.44,1.24,3.53,1.36-.46.68-.96,1.45-.39,2.12.5.59,1.37.22,2.38.35-1.49,1.3-2.48,2.76-3.96,3.75-.52.35-1.12.72-1.26,1.36-.24,1.13-1.06,1.74-1.89,2.32-.86.59-1.6,1.29-2.34,2.01-.7.68-1.14,1.33-1.12,2.48.02,1.04-.7,2.11-1.16,3.15-1.25,2.83-2.7,5.59-3.75,8.49-.92,2.54-2.5,4.66-3.81,6.95-.8,1.41-1.46,2.84-1.86,4.37-.2.77-.37,1.62-.74,2.25-.7,1.21-.39,2.7-1.32,3.82-1.63,1.97-2.52,4.35-3.39,6.72-.49,1.33-.35,2.83-1.13,4.08ZM374.45,422.95c.88-.35,1.66-.95,2.59-1.23.47-.14.72-.52.91-.97.5-1.2.5-1.12,1.78-.96,2.14.27,4.3.35,6.39-.39,2.13-.76,4.13-1.81,6.16-2.75.1.11.23.2.23.28.1,3.34,1.31,6.46,2.02,9.67.71,3.22,1.43,6.42,1.67,9.73.18,2.47.41,4.96.84,7.39.35,1.97.22,4.01,1.02,5.94.43,1.04.13,2.37.45,3.54.53,1.88.7,3.85,1.45,5.7.5,1.24.77,2.6,1.02,3.93.43,2.36,1.53,4.5,2.17,6.8.34,1.23.38,2.36.1,3.63-.83,3.72-1.69,7.45-2.01,11.25-.11,1.32-1.25,1.68-1.89,2.5-.15.19-.54-.02-.78-.19-.66-.45-1.3-.88-1.77-1.58-.99-1.48-2.24-2.7-3.9-3.44-.5-.22-.7-.68-.94-1.16-1.05-2.12-1.68-4.39-2.13-6.66-.45-2.26-1.34-4.34-2.05-6.49-1.33-4.05-2.91-8.01-3.78-12.21-.18-.89-.81-1.6-.99-2.54-1.08-5.47-2.19-10.92-3.38-16.37-.45-2.06-1.08-4.07-1.42-6.16-.12-.73-.27-1.46-.29-2.2,0-.28.02-.59-.08-.85-.15-.43-.36-.94-.88-.93-.57.01-.67.59-.7,1.02-.06.86-.11,1.73.01,2.57.27,1.92.5,3.84,1.05,5.71.69,2.36.8,4.82,1.23,7.23.79,4.53,1.49,9.07,3.09,13.42.81,2.19,1.17,4.52,2.04,6.71,1.11,2.8,2.06,5.67,3.06,8.52.11.32.1.67.16,1.01.4,2.66.91,5.3,1.92,7.79.73,1.78.79,3.59.87,5.44.08,1.81.2,3.62.5,5.42.34,2.02.59,4.05.83,6.08.07.6.12,1.23-.18,2.2-1.66-2.2-3.04-4.15-4.09-6.33-.5-1.04-1.18-1.95-2.13-2.64-.13-.1-.4-.13-.42-.23-.3-1.79-1.78-2.95-2.43-4.57-.55-1.36-.85-2.92-2.1-3.95-.16-.13-.28-.36-.36-.56-1-2.78-2.45-5.35-3.66-8.03-.35-.78-.98-1.33-1.39-2.09-1.69-3.17-3.17-6.46-4.76-9.67-1.23-2.49-2.45-5.06-3.35-7.74-.73-2.2-1.42-4.42-2.58-6.46-.21-.38-.19-.88-.28-1.33-.32-1.62-.92-3.15-1.56-4.66-.68-1.61-.01-3.42-.72-5.04-.11-.25.05-.54.22-.79,2-2.98,4.05-5.86,7.44-7.54.91-.45,1.85-1.19,2.48-2.16.79-1.23,1.89-2.09,3.28-2.64ZM358.43,409.81c1.84,1.38,3.51,2.26,4.8,3.61,1.2,1.26,2.59,2.41,4.06,3.08,1.38.63,2.69,1.61,4.36,1.73-1.36,1.09-2.69,2.03-3.65,3.49-.78,1.2-1.74,2.34-3.01,3.2-2.58,1.75-4.44,4.22-6.31,6.67-.38.49-.76.98-1.32,1.71-.43-7.92.61-15.49,1.08-23.49ZM373.97,517.99c-.2.56-.18,1.13-.18,1.7,0,1.54.15,3.1-.53,4.56-.19.4-.02.77.05,1.17.21,1.11.12,2.24-.38,3.23-.27.53.29,1.12-.4,1.7-.42-2.32-1.09-4.41-1.17-6.63-.05-1.25-.63-2.41-.78-3.67-.16-1.4-.25-2.85-.62-4.21-.67-2.44-.53-4.98-1.17-7.4-.22-.84-.17-1.69-.35-2.54-.79-3.72-1.44-7.46-1.97-11.23-.23-1.65-.53-3.32-.91-4.96-.38-1.61-.82-3.2-.98-4.87-.19-2.04-.93-3.98-1.21-6.02-.41-2.93-.96-5.84-1.64-8.72-.9-3.76-1.44-7.59-2.22-11.37-.51-2.51-.79-5.06-1.2-7.59-.28-1.74-.63-3.47-.92-5.21-.14-.88-.35-1.79.19-2.71.43.15.58.42.56.59-.25,1.71.68,3.17.98,4.75.43,2.2,1.46,4.19,1.92,6.35.36,1.69,1.26,3.19,1.7,4.82.38,1.42,1.31,2.63,1.44,4.12,0,.11.02.26.09.33,1.2,1.22,1.33,2.96,2.06,4.41.7,1.39,1.62,2.72,1.93,4.3.04.22.05.5.19.65,1.7,1.87,1.95,4.5,3.38,6.47,2.02,2.8,3.13,6.13,5.44,8.77.91,1.04,1.73,2.24,2.43,3.48.43.76.46,1.47-.26,1.97-.65.44-.71,1.03-.93,1.69-.57,1.72-1.13,3.48-1.46,5.2-.54,2.88-1.39,5.69-1.77,8.63-.35,2.74-.36,5.58-1.32,8.23ZM432.45,693.96c-.44,3.33-.93,6.65-1.58,9.94-.25,1.27-.58,2.54-.88,3.82-.22.94-.51,1.87-.43,2.85.09,1.08-.34,2.05-.77,2.95-.74,1.53-.69,3.22-1.13,4.8-.14.5-.32,1.04-.44,1.58-.49,2.22-.94,4.45-1.48,6.65-.35,1.43-.85,2.81-1.26,4.22-.3,1.02-.65,2.01-.65,3.14,0,.84-.62,1.66-1.02,2.4-.72,1.32-.94,2.79-1.59,4.12-.07.15-.08.34-.44.34-.47-1.42-1.22-2.75-1.72-4.25-1.23-3.7-1.53-7.56-2.47-11.3-1.23-4.89-1.85-9.93-2.93-14.87-.79-3.61-1.27-7.28-2.26-10.84-.09-.32-.22-.69.07-.97.33-.31.58-.02.89.14,1.33.67,3.2.29,4.39-.87,1.52-1.46,2.25-3.39,3.13-5.24.65-1.35.67-2.9,1.49-4.17.15-.23.27-.47.39-.67.29,0,.45.14.43.3-.26,2.46.56,4.65,1.93,6.58,1.46,2.06,4.54,2.36,6.12,0,.3-.45.81-.62,1.09-1.06.53-.83,1.1-1.63,1.29-2.66.28,1.07-.04,2.09-.17,3.08ZM439.27,640.34c-.21,2.23-.88,4.36-1.31,6.54-.96,4.79-1.96,9.57-2.87,14.36-.33,1.77-.58,3.57-1.35,5.25-.37.81-.42,1.76-.65,2.64-1.17,4.6-2.29,9.22-3.58,13.79-.35,1.24-.43,2.58-1.09,3.73-.15.25-.3.55-.61.53-.47-.04-.42-.47-.43-.79-.05-1.94-.45-3.86-.49-5.78-.07-3.35-.49-6.67-.57-10.02-.11-4.41-.32-8.82-1.13-13.2-.3-1.6-.72-3.21-.81-4.86-.04-.75-.39-1.52-.92-1.98-.75-.65-.4-.95.18-1.25.99-.5,1.36-1.36,1.79-2.34,2.06-4.63,2.29-9.57,2.79-14.48.61-5.86.79-11.73.52-17.61-.16-3.64-.48-7.28-.82-10.92-.18-1.98-.56-3.97-.34-6.12.79,2.18,1.3,4.32,1.62,6.51.02.17.03.34.09.51,1.5,4.51,2.12,9.26,3.74,13.72.85,2.33,1.71,4.79,3.32,6.64,1.19,1.37,1.56,2.79,1.9,4.38.24,1.11.66,2.19.86,3.3.25,1.39.66,2.78.17,4.23-.35,1.04.11,2.13,0,3.21ZM446.68,622.37c-.36-.66-.8-1.26-1.37-1.75-1.05-.9-2.05-.52-2.33.85-.11.55.09,1.01.23,1.5.21.77.56,1.51.46,2.34.25.08.36.27.4.5,0,.02-.09.09-.13.09-.28-.03-.34-.26-.38-.49-.24-.15-.48-.31-.73-.45-.7-.38-1.3-.41-1.66.48-.13.32-.39.55-.87.68-.3-1.38-.06-2.8-.4-4.15-.79-3.14-1.38-6.32-3.01-9.22-1.02-1.82-1.29-3.98-1.76-6.01-.36-1.54-.75-3.07-1.13-4.58-.35-1.39-.74-2.81-1.02-4.23-.49-2.49-.87-4.98-1.61-7.43-.39-1.3-.55-2.77-.62-4.18-.16-.23-.44-.4-.44-.71-.02-2.58-.93-5.01-1.28-7.53-.34-2.42-1.17-4.73-1.3-7.19-.05-1.01-.43-2.01-.71-2.97-.53-1.8-.66-3.69-1.28-5.45-.63-1.82-.9-3.75-1.73-5.51-.38-.81-.88-1.46-1.61-1.93-.63-.42-1.15-.3-1.34.41-.26.96-.54,1.88-.37,2.99.31,2.04.55,4.11,1,6.13.47,2.14.78,4.32,1.13,6.46.43,2.65,1.61,5.19,1.33,7.95-.04.37.24.74.34,1.13,1.5,5.91,1.19,11.96,1.44,17.96.17,3.93.17,7.87.22,11.8.06,4.96.03,9.92-.45,14.86-.06.66.19,1.38-.29,1.98.25,1.32-.47,2.55-.34,3.85-.3,3.15-.98,6.24-1.57,9.33-.22,1.14-.8,2.22-1.22,3.33.01.17.05.34.03.51-.05.33,0,.71-.34.92-.17.1-.29-.04-.4-.18-.41-.52-.06-.81.31-1.1-.62-.54-1.55-2.19-1.59-3.02-.03-.59-.15-1.12-.34-1.67-.68-1.99-.97-4.08-1.56-6.08-1.08-3.63-1.22-7.39-1.94-11.07-.6-3.05-.99-6.14-1.54-9.2-.37-2.08-.49-4.19-.73-6.28-.12-1.07-.35-2.32.11-3.45.06-.15.07-.35.03-.51-.56-2.36-.26-4.77-.37-7.15-.12-2.55-.53-5.07-.56-7.62-.02-1.9-.51-3.74-.97-5.56-.21-.84-.31-1.66-.37-2.52-.3-4.66-.49-9.33-1.35-13.94-.11-.61-.05-1.26-.09-1.88-.1-1.4-.41-2.71-1.58-3.7-1.54.98-1.28,2.64-1.4,4.02-.2,2.25-.03,4.52-.14,6.78-.07,1.35.13,2.69.17,4.03.02.68-.15,1.32-.12,2,.2,3.63.33,7.26.99,10.85.2,1.1,0,2.15-.71,3.06-.02,1.63-.66,3.12-1.11,4.63-.95,3.18-1.49,6.44-2.23,9.66-.78,3.4-1.95,6.64-3.6,9.73-1.05,1.95-2.12,3.88-3.18,5.83-1.09,2-2.71,3.48-4.25,5.06-.73.75-2.16.59-2.94-.17-1.23-1.21-2.03-2.59-2.38-4.37-.28-1.41-.35-2.93-1.14-4.23-.08-.14-.13-.33-.13-.49.04-3.27-.89-6.41-1.44-9.59-.38-2.15-.55-4.43-1.62-6.41-.36-.66.08-1.19-.15-1.81-.45-1.22-.56-2.55-1.14-3.73-.25-.5-.15-1-.15-1.49-.54-.25-.64.46-.77.43-.44-.07-.5-.15-.5-.28.03-1.53-.12-3.09.13-4.58.19-1.14-.19-1.67-1.11-1.92-1-.28-1.29-.76-.87-1.71.11-.26.09-.57.18-.84.27-.8.02-1.32-.76-1.64-.82-.34-1.3.06-1.67.73-.39.69-.74,1.43-1.43,1.9-.1.31-.1.68-.5.78-.04,0-.15-.13-.16-.22-.07-.4.15-.62.5-.74-.04-1.53.62-2.91,1.03-4.31.45-1.53.8-3.09,1.19-4.63.44-1.72-.53-2.74-2.47-2.56,1.2-2.38,1.89-4.88,2.93-7.27.79-1.81,1.17-3.82,1.56-5.77.34-1.67-.55-2.52-2.29-2.68-.45-.04-.88.19-1.33-.01-.03-1.73.64-3.32,1.05-4.94.53-2.08.34-4.2.73-6.27.11-.59-.2-1.24-.18-1.86.13-4.28.43-8.56.42-12.84,0-3.98.67-7.89.95-11.83.19-2.73.56-5.51,1.11-8.23.16-.76.32-1.58.91-2.2.21-.22.34-.51.24-.79-.48-1.32.47-1.55,1.36-1.85-.96-.86-1.31-1.86-.97-3.18.42-1.65.65-3.34.97-5.02.05-.26,0-.62.37-.67.39-.05.62.18.8.51.68,1.26,1.44,2.44,2.4,3.53.72.82,1.38,1.54,2.4,2.04.78.39,1.35,1.21,2.34,1.21,1.42,0,2.81-.04,3.72-1.45.29-.46.47-.86.47-1.4.03-1.96-.29-3.86-.77-5.75-.68-2.65-1.47-5.27-1.96-7.96-.05-.27-.13-.55.17-.87.88,1.03,1.97,1.81,3.09,2.57,1.21.82,2.51,1.04,3.89,1.05.53,0,1.01-.17,1.4-.55,2.05-2,3.51-4.12,3.64-7.26.12-2.69.63-5.41.9-8.12.02-.23.04-.47.32-.53.23-.06.45,0,.59.22.31.48.75.92.9,1.45.69,2.31,1.96,4.35,3.03,6.46,1.08,2.12,1.82,4.44,3.33,6.33,1.09,1.37,2.17,2.76,3.36,4.05.82.89,2.07,1.27,3.16,1.49,1.16.24,2.4-.39,3.13-1.41,1.25-1.74,2.4-3.55,3.06-5.63.34-1.08.76-2.13,1.19-3.3.33.58.65,1.04.87,1.55,1.26,2.91,4.35,2.7,5.97,1.11,1.59-1.57,3.23-3.15,3.99-5.35.35-1.01,1.62-1.28,1.74-2.58.55.42.45.81.38,1.16-.59,2.61-1.18,5.23-1.82,7.84-.27,1.11-.4,2.24-.69,3.35-1.03,3.97-2.35,7.85-3.03,11.91-.34,2.01-1.18,3.9-1.58,5.92-.49,2.42-1.17,4.82-1.96,7.16-.74,2.21-1.01,4.56-1.98,6.71-.34.75-.49,1.61-.44,2.48.05.99-.54,1.84-.86,2.72-.91,2.51-1.44,5.1-2.14,7.66-.09.32-.31.6-.48.92-.1-.46-.15-.91-.3-1.32-.94-2.67-.95-5.47-1.21-8.24-.09-.97-.08-1.95-.54-2.83-.2-.38-.19-.76-.16-1.17.03-.4.09-.83-.03-1.2-.95-2.97-.63-6.08-.97-9.11-.2-1.73-.3-3.47-.39-5.21-.04-.82-.43-1.46-1.02-1.89-.59-.43-.59-.84-.42-1.46.2-.71.32-1.45.39-2.19.05-.51,0-1.03-.07-1.54-.05-.36-.28-.66-.68-.64-.43.02-.5.39-.56.74-.3,1.63-.67,3.25-.87,4.89-.37,2.95-1.12,5.82-1.69,8.73-.45,2.3-.68,4.62-.82,6.95-.22,3.47-.84,6.89-1.27,10.34-.26,2.04-.44,4.09-.57,6.14-.19,3.08-.69,6.1-1.84,9.1-.78-.61-.85-1.53-1.08-2.26-.34-1.07-.37-2.24-.51-3.37-.48-3.85-.55-7.74-1.14-11.58-.31-1.96-.23-3.99-.92-5.89-.27-.75-.5-1.52-.75-2.27-.2-.61-.63-.97-1.27-.95-.73.02-.93.62-1,1.19-.07.56-.12,1.18.02,1.71.69,2.54.34,5.19.94,7.73.33,1.39.28,2.84.53,4.22.18.98-.47,1.19-.95,1.59-.62.51-1.09-.03-1.48-.4-.91-.88-1.38-2.1-1.97-3.17-.63-1.15-1.43-2.3-1.73-3.66-.17-.76-.6-1.49-1.02-2.16-1.33-2.1-2.18-4.43-3.2-6.68-1.22-2.7-2.39-5.41-3.23-8.25-.55-1.86-1.14-3.71-1.64-5.58-.15-.55-.25-.99-.94-.97-.84.03-.81.66-.87,1.22-.13,1.11.28,2.15.41,3.22.3,2.37.98,4.68,1.49,7.01.54,2.47,1.06,4.98,1.79,7.41.48,1.6.96,3.22,1.87,4.71.66,1.07,1.17,2.33,1.57,3.56.99,2.98,2.36,5.75,4.46,8.09.77.86,1.62,1.88,2.64,2.22,1.12.37,2.54.9,3.62-.32.47.64.54,1.25.7,1.85.53,1.92,1.31,3.76,2.57,5.32.72.9,1.27.85,2.17.14.62-.49.86-1.2,1.14-1.88,1.3-3.13,1.91-6.43,2.08-9.79.2-3.98.69-7.92,1.2-11.87.16-1.24.17-2.51.26-3.76.54,3.11,1,6.23,1.29,9.38.21,2.32.77,4.57,1.54,6.79.35,1,.44,2.11.86,3.11.31.74.63,1.48,1.23,2.05.64.61,3,.91,3.42.35.54-.72,1.19-1.35,1.61-2.17,1.14-2.23,2.17-4.47,2.75-6.94.74-3.12,1.87-6.14,2.69-9.24.96-3.6,2.29-7.12,2.79-10.85,1.14-1.78.98-3.94,1.69-5.85.09-2.12.72-4.15,1.06-6.22.39-2.36.55-4.74.96-7.1.25-1.46.5-2.91.7-4.38.35-2.6.68-5.2.96-7.81.27-2.5.45-5.01,1.21-7.42.09-.27.25-.58.18-.83-.41-1.55.44-2.73,1.01-4.03.52-1.17,1.25-2,2.63-2.35.32.58.11,1.22.05,1.78-.25,2.49-.59,4.97-.84,7.47-.06.56,0,1.16.13,1.7.42,1.72.46,3.5.39,5.22-.05,1.32-.6,2.64-.54,4.03.03.63-.03,1.26.21,1.86.2.49.15,1.01.08,1.53-.25,1.83-.65,3.62-.54,5.53.08,1.39-.12,2.72.35,4.14.33.98-.37,2.16-.3,3.32.11,1.67-.08,3.34.09,5.04.18,1.82.34,3.68.15,5.57-.13,1.35.08,2.82-.07,4.2-.17,1.58.89,3.01.32,4.62-.52,1.48-.26,3.06-.28,4.6,0,.57-.05,1.14.15,1.7.57,1.65.45,3.37.49,5.08.05,2.09,0,4.22.36,6.27.51,2.86-.01,5.67-.02,8.5-.01,3.71-.08,7.44.1,11.14.09,1.87.2,3.75.43,5.61.1.77-.23,1.44-.2,2.19.08,2.17.14,4.36-.04,6.51-.17,1.97-.02,3.99-.52,5.92-.18.7.34,1.35.05,2.03-1.42,3.29-.74,6.77-.84,10.17-.04,1.35-.68,2.51-.83,3.82-.17,1.53-.39,2.86.6,4.37,1.06,1.62,1.56,3.62,1.69,5.65.04.64-.03.93-.75,1-1.07.11-1.53.8-1.4,1.94.1.85.11,1.77.49,2.5.57,1.1.57,2.31.96,3.44.61,1.75.95,3.6,1.46,5.63-.93-.56-1.21-1.32-1.58-2Z"/>
      <path class="cls-6" d="M537.66,249.88c-.27-2.99-.86-5.91-1.34-8.86-.49-3.03-1.55-5.9-2.47-8.8-.46-1.44-1.02-2.92-1.78-4.3-.58-1.06-1.3-2-1.99-2.96-1.44-2.02-2.89-4.03-4.51-5.91-1.61-1.87-3.47-3.48-5.51-4.82-3.18-2.1-6.4-4.2-10.42-4.31-.17,0-.34-.08-.49-.14-2.11-.9-4.35-.63-6.49-.49-3.36.21-6.75.64-9.67,2.66-.68-1.99-1.03-4.4-.87-5.88.12-1.2.38-1.47,1.56-1.56.51-.04,1.06.18,1.52-.08,1.24-.7,2.65-.66,3.97-.8,1.49-.17,2.83-.62,3.94-1.53,1.76-1.44,3.68-2.7,5.25-4.38,1.15-1.23,1.83-2.66,1.25-4.31-.98-2.81-2.01-5.59-2.59-8.51-.2-.99-1.01-1.75-.98-2.82,1.28,0,2.4.55,3.58.93.6.19.98.59,1.22,1.11,1.14,2.45,2.55,4.73,3.27,7.42.77,2.91,1.19,5.77,1.04,8.76-.03.54-.38,1.11,0,1.66.45.64.99-.04,1.54.09,1.15.26,2.47-.1,3.27-.97,1.4-1.52,2.68-3.17,3.8-4.9,1.65-2.54,3.13-5.19,4.28-8.01.71-1.75,1.63-3.43,2.17-5.22.53-1.78,1.42-3.48,1.7-5.29.52-3.35.84-6.74,1.1-10.13.17-2.27-.2-4.46-.82-6.71-.66-2.38-1.59-4.67-2.18-7.07-.61-2.47-2.36-4.41-3.88-6.39-.52-.68-.71-1.1-.49-1.93.58-2.16.77-4.39.65-6.6-.2-3.81-1.62-7.24-3.48-10.55-2.15-3.83-5.62-6.27-9.06-8.63-1.72-1.18-3.28-2.86-5.52-3.23-1.99-1.87-4.66-2.18-7.06-3.12-.7-.28-1.29.28-1.96-.08-.84-.46-1.78-.28-2.69-.13-1.9.32-2.62,1.32-2.61,3.27,0,.63.29,1.18.33,1.89-.53-.2-1-.27-1.34-.52-1.76-1.25-3.73-2.13-5.59-3.2-1.18-.68-2.42-1.01-3.75-1.06-1.65-.07-2.66.72-3.11,2.29-.1.34.28.8-.3,1.05-2.1-1.29-4.3-2.47-6.73-3.14-1.39-.38-2.85.08-3.23,1.39-.33,1.12-1,1.03-1.55.64-.69-.49-1.48-.6-2.2-.79-1.62-.43-3.18-.33-4.53,1.03-.93.93-2.02,1.7-3.45,1.98-1.44.29-2.94.31-4.33.78-3.09,1.04-6.2,2.05-9.21,3.29-1.24.51-2.62.86-3.67,1.71-2.79,2.28-5.81,4.24-8.72,6.35-2.77,2.01-4.33,4.69-5.45,7.77,0,.11,0,.23,0,.34.03.61-.19,1.4.65,1.57.65.13,1.2-.27,1.56-.85.42-.68.85-1.35,1.28-2.03.66-1.07,1.32-2.15,2.36-2.87,1.31-.91,2.53-1.93,3.9-2.77.82-.51,1.71-.94,2.44-1.57,2.04-1.76,4.38-3.11,6.82-4.09,3.69-1.47,7.46-2.82,11.33-3.79,1.97-.49,4.09-.81,5.53-2.35,1.25-1.34,2.45-1.44,3.94-.67.51.26,1.05.47,1.57.67,1.33.49,2.53,1.29,3.96,1.56.97.18,1.56-.2,1.99-.95.43-.73.24-1.45-.26-2.07-.31-.38-.78-.66-.71-1.43,1.72.57,3.31,1.23,4.75,2.28,1.25.91,2.6,1.67,4.11,2.04,1.43.35,2.22-.49,1.88-1.9-.14-.57-.49-1.03-.75-1.53-.49-.95-.28-1.26.75-1.21.52.02,1.05.09,1.49.36,2.14,1.31,4.49,2.25,6.56,3.69.8.55,1.64,1.06,2.51,1.49,1.51.74,2.87-.1,2.97-1.76.04-.64,0-1.25-.24-1.85-.14-.36-.26-.77.17-1.15,1.45.33,2.98.43,4.46.93,3.15,1.05,5.85,2.92,8.64,4.62,1.62.99,3.17,2.09,4.68,3.26,1.58,1.22,3.03,2.55,4.27,4.09,1.37,1.7,2.24,3.69,2.96,5.75.81,2.31.88,4.69.77,7.09-.03.72-.41.86-1.02.45-.19-.13-.32-.33-.5-.46-1.62-1.15-3.29-2.23-5.09-3.04-3.01-1.35-6.22-1.25-9.42-.97-.38.03-.71.28-1.14.01-1.2-.73-2.47-.47-3.79-.3-1.14.15-1.91.98-2.99,1.18-1.27.23-2.27.91-3.05,2-.44.61-.9,1.31-1.67,1.61-1.83-2-3.85-3.65-6-5.17-2.85-2.03-5.82-3.78-9.32-4.48-3.18-.63-6.37-.73-9.56-.3-2.24.3-4.44.93-6.65,1.4-2.62.56-4.92,1.74-7.32,2.74-2.32.97-4.33,2.45-6.46,3.73-1.1.66-2.25,1.31-3.24,2.11-2.74,2.21-5.37,4.58-7.69,7.24-.75.86-1.59,1.94-1.35,3.21.47,2.52,2.25,4.51,4.82,4.81.89.1,1.65.41,2.41.76,1.05.49,1.3,1.17,1.08,2.34-.35,1.85-.81,3.68-.77,5.58.02.97-.12,1.92-.31,2.88-.35,1.8-.32,3.71.15,5.41.74,2.66,1.63,5.3,2.96,7.78.96,1.8,1.85,3.54,3.32,5.05,1.8,1.85,3.75,3.34,5.95,4.69,2.83,1.74,5.97,1.56,8.97,2.25.2.05.44-.16.66-.14,1.5.14,2.85-.65,4.36-.65.96,0,1.78.42,2.76.43,1.59.02,3.28.11,4.85.81.58.26.83.47,1.11,1.06.57,1.21,1.27,2.37,2.03,3.49.8,1.18,2.1,1.63,3.06,2.53,1.09,1.02,2.7,1.63,4.4,1.59.94-.02,1.23.37,1.09,1.31-.14.91-.19,1.8-.16,2.72.07,1.95.56,3.81.9,5.71.68,3.82,1.23,7.66,2.41,11.37.7,2.2,1.14,4.42,1.03,6.74-.07,1.47.77,2.73,1.06,4.12.07.32.38.43.64.51,1.76.57,1.93,1.96,1.72,3.45-.19,1.42-.02,2.81.08,4.21.09,1.34,1.4,2.31,2.71,2.15,1.13-.14,1.31.05,1.15,1.17-.05.34-.1.68-.17,1.02-.4,2.13-.67,4.28-.61,6.45.05,1.74.64,2.4,2.33,2.72.46.09.67.17.65.74-.07,2.02.86,2.65,2.7,1.89.08-.15.08-.49.32-.35.19.11.03.36-.16.48.03.46,0,.9-.21,1.33-.55,1.13-1.01,2.3-1.61,3.4-.36.66-.39,1.32-.27,1.99.18,1.01.98,1.31,1.9.89.95-.44,1.19-1.29,1.5-2.16.65-1.86,1.25-3.75,2.79-5.14-.06-.17-.02-.32.11-.44,0,0,.12.05.12.08.04.19-.05.31-.23.36-.15,2.16-1.09,4.07-2.06,5.92-.87,1.65-2.21,3.04-2.91,4.81-.19.48-.59,1.02-.37,1.45.48.97-.07,1.62-.43,2.39-.56,1.17-1.18,2.36-.65,3.77,1.86-.11,2.03-2.1,3.35-3.02-.11,2.05-.2,3.91-.3,5.77-.11,2.04-.21,4.08-.36,6.12-.17,2.27.09,4.55-.57,6.81-.34,1.16-.24,2.48-.37,3.72-.18,1.68-.37,3.37-.59,5.04-.27,2.08-.83,4.12-.98,6.22-.1,1.32-.42,2.6-.88,3.79-.77,1.98-1.35,4.02-2.26,5.96-.81,1.73-1.56,3.54-1.86,5.47-.06.38-.28.75-.48,1.09-.93,1.58-1.58,3.3-2.55,4.88-.77,1.24-1.66,2.53-2.05,3.98-.41,1.54-1.48,2.77-1.75,4.42-.21,1.28-.6,2.75-1.57,3.74-.73.74-1.09,1.57-1.38,2.49-.16.5-.33.99-.67,1.38-.8.93-1.11,2.11-1.58,3.19-1.13,2.59-2.17,5.22-3.36,7.78-.43.92-1.2,1.72-1.35,2.7-.34,2.15-2.21,3.61-2.49,5.76-1.32,1.42-1.77,3.28-2.52,4.98-.72,1.64-1.62,3.19-2.43,4.78-1.41,2.76-2.81,5.53-3.96,8.42-.33.83-.6,1.75-1.08,2.45-.77,1.12-1.14,2.34-1.57,3.58-.2.56-.18,1.29-.86,1.61-.14.48-.17.96.38,1.16.68.25,1.32.71,2.12.5,2.43-.62,4.86-.22,7.3-.07,1.75.11,3.5.08,5.25.39.78.14,1.76-.08,2.48-.46,1.91-1.03,4.03-1.34,6.07-1.67,3.33-.55,6.72-.53,9.84,1.2,1.44.8,2.92,1.54,4.4,2.28,1.8.89,3.14,2.24,4.12,3.98.22.4.48.79.77,1.14.33.41.73.72,1.33.55.62-.18.88-.73.76-1.18-.3-1.09.44-1.21,1.09-1.22,1.04-.03,1.99-.5,3.04-.46.66.02,1.3-.24,1.42-.98.12-.72-.6-.98-1.05-1.2-1.54-.79-3.14-.35-4.68.04-1.28.32-1.3.44-1.96-.64-.58-.94-1.57-1.34-2.41-1.84-2.89-1.71-5.9-3.22-9.08-4.37.23-.6.76-.58,1.21-.61,1.71-.1,3.42-.11,5.13-.22,2.35-.16,4.66.36,6.78,1.33,2.69,1.22,5.5,2.26,7.74,4.32.5.46,1.11.8,1.66,1.2.65.48,1.33.97,1.61,1.74.89,2.36,2.39,4.37,3.72,6.46,1.53,2.42,2.09,5.08,2.46,7.86.34,2.58.23,5.17-.13,7.66-.29,2.04-.66,4.3-2.23,5.97-1.55,1.65-3.35,2.52-5.67,1.82-.38-.12-.78-.18-1.17-.23-.6-.07-1.2,0-1.39.69-.18.67-.3,1.34.4,1.87,1.74,1.3,3.63,1.87,5.8,1.29.37-.1.71-.37,1.25-.19-.69.86-1.26,1.75-1.73,2.69-.47.94-.69,1-1.55.42-.48-.32-.83-.7-1.53-.42-1.32.53-1.59.93-1.25,2.34.08.33.27.64.13.99.56,1.69,2.12,1.88,3.5,2.3.43.13.95.06,1.3-.28.59-.6,1.28-1.05,1.81-1.78,1.21-1.68,1.81-3.6,2.54-5.48.23-.58.27-1.11-.04-1.6-.78-1.24-.29-2.24.61-3.1.35-.34.49-.75.74-1.1.83-1.13.56-2.52,1.01-3.75,1.02-2.8.85-5.79.91-8.7.03-1.59-.56-3.19-.67-4.83-.04-.63-.07-1.39-.41-1.98-1.09-1.85-2.03-3.8-3.33-5.53-.83-1.1-1.51-2.25-1.97-3.55-.32-.91-.78-1.8-1.54-2.42-1.45-1.19-2.96-2.3-4.44-3.46-1.76-1.39-3.95-1.97-5.83-3.12-2.04-1.25-4.24-1.85-6.62-2.05-1.69-.14-3.37-.09-5.06-.09-1.38,0-2.71.05-4.05.4-1.11.29-2.04.69-2.46,1.83-.18.5-.49.66-1.01.67-2.23.02-4.42.17-6.62.68-1.75.41-3.53.59-5.07,1.66-.38.26-.87.56-1.43.43-1.26-.29-2.49-.05-3.74.1-.62.07-1.32.37-2.02-.26,1.14-.8,2.26-1.59,3.19-2.5,1.34-1.33,2.87-2.45,4.09-3.94.44-.54.82-1.26,1.39-1.61,1.79-1.08,2.75-2.93,4.21-4.31,1.83-1.75,3.45-3.78,4.86-5.89,1.87-2.81,4-5.43,5.59-8.46,1.27-2.43,2.38-4.95,3.74-7.33,1-1.76,1.85-3.61,2.74-5.43,1.5-3.06,3.01-6.12,4.44-9.21.56-1.21.72-2.67,2.33-3.09.12-.03.16-.29.27-.4,1.64-1.49,3.02-3.23,4.18-5.08,1.37-2.2,3.36-4.17,3.33-7.07,0-.41.29-.86.54-1.23.79-1.17,1.72-2.26,2.43-3.48.81-1.4,1.69-2.78,1.93-4.48.09-.62-.07-1.29.29-1.94.65-1.18,1.5-2.29,2.35-3.23,1.26-1.39,1.71-3.04,2.37-4.63.45-1.09.11-1.7-.95-2.41-.56-.38-1.21-.65-1.59-1.25.24-.71,1.01-1.18.5-2.17-.44-.86,1.03-1.3.87-2.24-.03-.16-.11-.32-.14-.48-.09-.41.01-.8.23-1.15,1.13-1.81,1.44-3.93,2.1-5.91.74-2.23,1.09-4.58,1.66-6.87.77-3.13,1.73-6.21,2.33-9.37.6-3.18,1.19-6.36,1.62-9.59.39-2.91.54-5.82.66-8.72.11-2.71.02-5.45-.23-8.18ZM496,147.61c.54-.77,1.39-1.43,2.15-2.07.48-.41,1.05-.7,1.24-1.36.09-.31.35-.4.62-.52,2.09-.92,4.24-1.76,6.45-2.22,1.92-.4,3.92-.31,5.92.24,2.44.67,4.45,2,6.41,3.46,1.71,1.28,3,3.02,4.15,4.73,1.02,1.51,2.2,3.02,2.68,4.9.57,2.26,1.22,4.51,1.77,6.76.53,2.14.83,4.44.29,6.78-.45,1.92-.76,3.93-.92,5.87-.26,3.01-1.51,5.59-2.57,8.29-.15.37-.3.73-.4,1.13-.23.99-.39,1.98-1.14,2.8-.35.38-.44,1.04-.56,1.6-.09.4-.15.8-.47,1.07-.91.75-1.31,1.86-1.98,2.77-.72.98-1.07,2.13-1.85,3.32-.38-.76-.51-1.41-.53-2.1-.07-2.95-.81-5.75-2.07-8.41-.15-.31-.26-.63-.37-.96-.7-2.14-1.97-3.62-4.27-4.23-1.37-.36-2.68-.88-4.12-1.06-.99-.13-1.99-.39-2.88-1.01-.79-.55-1.78-.81-2.73-.94-.66-.09-1.21-.28-1.71-.68-2.09-1.68-4.1-3.44-5.53-5.75-.24-.39-.48-.82-.84-1.07-1.48-1.08-2.06-2.84-3.19-4.18-.5-.6-.6-1.47-.52-2.3.14-1.46.15-2.94.42-4.38.26-1.34,1.22-2.42,1.8-3.65.14-.3.43-.54.58-.84,1.04-2.24,2.8-3.98,4.19-5.98ZM480.78,173.04c-.46,1.34-.76,2.73-1.17,4.06-.62,2.02-.63,4.13-1.31,6.13-.52,1.51-.26,3.17-.28,4.76,0,.23.08.45.07.68-.04,1.14-.18,1.15-1.31.94-1.44-.27-2.85-.61-4.38-.44-1.32.15-2.7-.17-4.02.31-.69.25-1.4.47-2.1.7-1.41.48-2.82.14-4.18-.14-3.77-.79-7.03-2.52-9.45-5.61-.89-1.13-1.52-2.43-1.98-3.74-.78-2.24-1.98-4.37-2.12-6.81-.07-1.24-.05-2.46.11-3.72.23-1.77.69-3.5.79-5.3.08-1.44.48-2.86.77-4.28.2-.99-.5-2.75-1.43-3.03-.62-.19-.84-.73-1.35-.99-1.42-.72-2.86-1.41-4.48-1.5-.98-.05-1.76-.35-2.34-1.22.23-.36.39-.84.72-1.12,2.6-2.24,4.86-4.92,7.83-6.65,2.18-1.27,4.18-2.87,6.59-3.77.73-.27,1.33-.87,2.03-1.21,2.4-1.18,4.95-1.93,7.55-2.5.92-.2,1.76-.62,2.73-.79,1.55-.27,3.13-.34,4.68-.72,1.54-.38,3.14-.15,4.7-.02.96.08,1.93-.01,2.9.18,3.38.68,6.21,2.47,8.95,4.4,1.28.9,2.71,1.65,3.61,3.01-2.1,3.11-3.96,6.31-5.57,9.69-1.01,2.1-1.35,4.16-1.42,6.37-.02.77-.28,1.33-.81,1.95-1.25,1.47-2.2,3.19-2.57,5.1-.36,1.87-1.17,3.55-1.78,5.31ZM489.29,200.36c-1.02-.15-1.88-.68-2.67-1.44-2.82-2.71-3.85-6.13-4.09-9.87-.17-2.69.08-5.35.59-8.01.29-1.55.09-3.16.64-4.73.26-.73.47-1.5.82-2.2.35-.72.19-1.58.78-2.52,1.16,6.06,4.2,10.71,8.39,14.79,1.55,1.5,3.43,2.2,5.22,3.18.82.45,1.82.44,2.67.47,1.52.04,2.7.9,4.09,1.18.23.05.44.17.47.43.09.68.39,1.31.43,2.01.05.84-.6,1.15-1.02,1.67-1.51,1.88-3.62,2.96-5.58,4.21-.81.52-1.99.43-2.95.74-2.59.84-5.19.48-7.78.1ZM505.48,246.7c-.11-.03-.08-.08.07-.12-.02.05-.06.12-.07.12ZM534.05,261.91c-.1,1.93-.05,3.93-.45,5.78-.42,1.98-.82,3.99-1.32,5.96-1.24,4.97-2.59,9.92-3.57,14.94-.56,2.87-1.31,5.63-2.34,8.33-.31-.11-.46-.28-.45-.53.1-2.85-.5-5.67-.44-8.52.09-3.76.6-7.46,1.04-11.19.43-3.65,1.24-7.24,1.42-10.93.06-1.28.26-2.6.43-3.89.18-1.4-.36-2.27-1.42-2.98-1.2.21-1.66,1.22-2.05,2.13-1.15,2.66-1.62,5.52-2.21,8.35-.42,2-.58,4.03-1.12,5.99-.24.88.02,1.81-.45,2.88-.78-1.1-1.3-2.18-1.38-3.3-.22-3.13-1.05-6.16-1.37-9.26-.19-1.87-.15-3.77-.06-5.65.05-.94-.46-1.86-.04-2.79-.05-.31-.1-.63-.15-.94-1.52-1.52-1.54-1.51-3,.32.22,1.05-.29,2.03-.29,3.05,0,3.17-.12,6.35.64,9.48.31,1.28.9,2.47,1.06,3.78.42,3.44,2.39,6.23,3.85,9.23.81,1.67.68,3.12.06,4.75-1.19,3.09-3.28,5.44-5.78,7.51-.57.47-1.04,1.06-1.56,1.59-.51.54-.87,1.14-.3,1.81.55.66,1.14.43,1.81.02,1.05-.65,1.91-1.52,2.83-2.54.25,1.22-.99,1.69-.85,2.65-.17,1.73-.94,3.28-1.53,4.88-1.58,4.26-3.12,8.53-4.41,12.89-.66,2.23-1.52,4.4-2.06,6.67-.29,1.22-.18,1.66.63,1.93.61.2,1.38-.21,1.65-1.15.31-1.06.86-1.99,1.21-3.01,1.55-4.45,3.19-8.88,4.64-13.37,1.53-4.71,3.11-9.4,4.29-14.22.09-.38.3-.73.49-1.19.8.79.86,1.81,1.03,2.69.29,1.53.79,2.99,1.45,4.34.84,1.71.59,3.25-.17,4.81-1.06,2.19-1.93,4.48-3.32,6.51-.7,1.03-.9,2.3-1.6,3.38-.65,1,.21,2.23,1.42,2.28.32.01.63-.32,1.05.08-.49.76-.57,1.75-1.23,2.46-1.07,1.15-1.4,2.45-.81,3.92.19.48.13.78-.16,1.22-.93,1.4-1.74,2.88-2.63,4.3-.16.25-.33.48-.28.77.35,1.85-.68,3.27-1.77,4.43-2.79,2.98-4.46,6.6-6.44,10.07-1.29,2.27-2.67,4.5-4.02,6.74-1.72,2.86-3.74,5.55-5.05,8.66-.24.57-.68,1.05-1.03,1.57-1.02,1.55-2.03,3.1-3.06,4.65-.69,1.03-1.65,1.84-2.3,2.92-1.05,1.76-2.5,3.26-3.78,4.84-1.29,1.59-2.69,3.15-4.11,4.67-1.35,1.44-2.71,2.89-3.77,4.58-.26.42-.73.72-1.08,1.1-.96,1.03-1.91,2.07-2.85,3.09-.46-.19-.33-.5-.16-.69,1.22-1.45,2.12-3.13,3.06-4.75.73-1.25,1.67-2.42,2.16-3.81.8-2.27,2.49-4.01,3.51-6.14.52-1.07,1.2-2.09,1.46-3.28.05-.23.09-.46.31-.57,1.14-.57,1.29-1.87,1.8-2.81.44-.8.86-1.66,1.38-2.44.72-1.08.93-2.39,1.59-3.52.87-1.48,1.49-3.14,2.03-4.79.59-1.82,1.71-3.41,2.08-5.33.22-1.14,1.38-1.93,1.63-3.16.17-.83.55-1.61.74-2.44.52-2.28,1.7-4.29,2.5-6.45.73-1.95,1.76-3.79,2.08-5.89.02-.17.05-.36.15-.49,1.4-1.95,1.64-4.3,2.23-6.52.36-1.36.98-2.63,1.44-3.96.6-1.7,1.12-3.4,1.53-5.15.24-1.01.39-2.11.87-3.07.08-2.04.61-4.03.78-6.04.24-2.99.74-5.95.99-8.94.2-2.36.36-4.7.2-7.07-.33-4.88-.62-9.76-.94-14.63-.03-.51-.11-1.02-.22-1.52-.14-.64-.15-1.2.28-1.78.26-.34.4-.83.44-1.27.22-2.29,1.39-4.29,1.92-6.48.34-1.41.71-2.74.26-4.17-.18-.22-.31-.55-.53-.64-1.27-.49-1.19-1.34-.86-2.43.17-.58.2-1.25.46-1.8.57-1.22.17-2.38-.19-3.48-.38-1.15-1.44-1.1-2.4-.83-.35-.34-.22-.67-.14-1,.32-1.35-.37-2.49-1.67-2.8-.57-.14-1.03.08-1.39.45-.27.27-.42.66-.82.81.42-2.45.78-4.92,1.27-7.35.22-1.09-.29-1.82-.75-2.69-.61-1.14-1.51-1.14-2.47-.82-.78.25-.95-.25-1.06-.72-.3-1.27-.67-2.55-.73-3.85-.14-3.07-2.13-3.53-4.39-3.33-.74-3.44-2.26-6.66-3.06-10.1-.1-.44-.16-.9-.24-1.34-.12-.65-.94-1.3-.42-1.87.39-.43,1.24-.5,1.9-.64,3.28-.67,6.54-1.28,9.96-.8,1.48.21,3.01.27,4.51.49.24.03.44.1.61.26,1.94.31,3.78,1.01,5.42,2,2.62,1.59,5.21,3.29,7.16,5.73,1.63,2.05,3.24,4.11,4.75,6.25.67.95,1.18,1.95,1.58,3.01,1.34,3.51,2.31,7.13,3.26,10.76.48,1.85.48,3.83.88,5.71.38,1.81.39,3.63.41,5.44.04,3.07.04,6.15-.12,9.21Z"/>
      <path class="cls-6" d="M518.77,410.54c-.29-1.03.1-1.52,1.16-1.62.73-.07,1.47.02,2.19-.27,1.05-.43,1.53-2.09.67-2.86-.61-.55-1.33-1.14-2.28-1-.73.1-1.52,0-2.19.37-.78.43-1.14.06-1.44-.6-.16-.36-.34-.73-.57-1.06-.42-.61-.75-1.3-1.35-1.76-.49-.38-1.07-.51-1.57-.06-.46.4-.42.97-.08,1.4.84,1.06,1.15,2.35,1.65,3.56,1.32,3.18.24,5.91-1.56,8.48-.39.55-1.16,1.05-1.89.9-.98-.2-1.94-.11-2.9-.16-.47-.02-.93-.01-1.19-.49-.96-1.78-1.66-3.64-1.35-5.71.11-.74.49-1.58-.4-1.95-.76-.32-1.22.39-1.6.99-.05.08-.19.09-.33.15-1.85-1.44-2.98-3.36-3.6-5.61-.18-.65-.43-1.23-1.25-1.12-.72.1-1.07.64-1.21,1.28-.11.52-.11,1.06-.16,1.73-1.56-1.17-2.48-2.63-3.56-3.93-.82-.98-.88-1.03-1.53,0-.35.56-.77.92-1.4,1.14-2.64.92-5.3,1.76-8.12,1.85-.42.01-.79.14-1.14.33-1.07.54-1.12.72-.66,2.02,1.1,1.23,2.47,1.26,3.93.85,2.54-.71,4.9-1.82,6.91-3.54.57-.49.84-.39,1.2.14.91,1.33,2.08,2.41,3.38,3.35.32.23.68.46,1.06.52.43.07.68-.44,1.09-.66.73,1.93,2.12,3.19,3.59,4.32.78.6,1.28,1.27,1.51,2.18.18.72.33,1.44.49,2.16.55.53.71,1.29,1.08,1.93.77,1.33,1.84,2.13,3.42,2.21,1.02.05,2.03.23,2.99.6.34.13.76.27.58.66-.3.65-.46,1.47-1.28,1.7-.69.19-1.36.14-1.83-.54-.27-.39-.69-.58-1.08-.82-.89-.55-1.73-.88-2.57.07-.09.1-.32.08-.49.11-.04.2-.08.39-.12.59.38.52.21,1.13.25,1.7.32.95.73,1.81,1.6,2.42,2.11,1.47,4.3,1.91,6.67.66,1.66-1.38,2.35-3.22,2.79-5.29.42-1.97.76-3.95,1.75-5.83.84-1.6,1.31-3.52.75-5.47Z"/>
      <path class="cls-6" d="M435.33,429.99c.35.14.34.41.34.69,0,1.3.1,2.52.58,3.8.34.92.78,1.6,1.57,1.72,1.68.24,3.37.33,4.57-1.37.65-.92,1.07-1.85,1.23-2.95.2-1.3.1-2.69,1.11-3.76.35-.37.26-.86.3-1.31.13-1.6.4-3.14,1.08-4.64.37-.81.86-1.6,1.02-2.52.32-1.79-.11-3.5-.54-5.19-.61-2.4-2.17-4.36-3.24-6.54-.2-.34-.4-.69-.6-1.04-1.56-2.66-2.91-5.47-5.53-7.37-3.24-2.35-6.55-4.5-10.79-4.36-1.72,0-3.22.58-4.57,1.65-1.36,1.07-1.41,1.03-2.39-.31-.37-.51-.75-1.02-1.26-1.4-.79-.6-1.67-.76-2.6-.48-.91.28-.98.75-.28,1.41,2.06,1.92,3.25,4.22,3.21,7.09-.02,1.2.03,2.41.02,3.61-.02,1.2.43,2.12,1.58,2.56.51.2.67.54.75,1.03.51,3.56,1.38,7.05,2.23,10.54.21.86.29,1.73.14,2.55-.32,1.71-.3,3.43-.21,5.13.1,1.82-.26,3.49-.98,5.13-.51,1.17-.45,2.55-1.43,3.7-.43-1.19-1.1-2.06-2.47-2.01-.35.01-.59-.31-.85-.54-1.23-1.1-2.48-.97-3.43.42-.57.83-.98,1.77-1.44,2.62-.94-2.7-1.74-5.47-1.49-8.46.21-2.47.18-4.96.36-7.43.08-1.13.55-2.23.64-3.36.23-2.99-.32-5.89-1.42-8.67-.25-.62-.73-1.16-1.16-1.69-.38-.47-.94-.81-1.51-.5-.58.32-.8.96-.64,1.64.15.66.4,1.31.55,1.97.37,1.65-.37,2.37-2.05,1.99-.38-.09-.73-.31-1.1-.46-.54-.22-.65-.6-.42-1.1.7-1.53.85-3.19,1.22-4.81.49-2.13,1.11-4.17,2.52-5.93,1.03-1.29,1.57-2.92,2.62-4.22.27-.33.37-.69.13-1.11-.25-.42-.58-.4-1.02-.38-.79.02-1.34.4-1.66,1.02-1.96,3.84-4.56,7.43-4.69,11.99-.02.68-.25,1.35-.38,2.02.12.68.11,1.36-.05,2.04.08.22.09.42.03.66-.48,1.95.02,2.75,1.98,3.13.78.15,1.56.22,2.37.01.61-.16.92.06.9.8-.02,1.09-.3,2.13-.42,3.19-.18,1.68-.67,3.3-.54,5.03.09,1.17.19,2.38.12,3.52-.23,3.5.87,6.56,2.44,9.56.27.51.56.92,1.09.95.87.06,1.09.53,1.25,1.31.43,2.01.94,4,2.03,5.79.28.46.54.8,1.16.87,1.11.12,1.43-.03,2.07-1.3.7-1.39,1.21-2.97,3.12-3.18.2-.02.38-.23.57-.35,2.06-1.41,2.94-3.66,3.6-5.85.89-2.96,1.5-5.98,1.11-9.2-.37-2.98.17-6.04-.51-9.02-.7-1.45-.86-3.04-1.17-4.58-.15-.71-.31-1.43-.41-2.16-.09-.68.23-.98.88-.86.64.11,1.42.07,1.54,1.01,1.16,2.61,2.53,5.09,4.57,7.12.3.3.61.52.51.97-.23.97-.07,1.96.08,2.87.48,2.9.74,6,4.08,7.33ZM415.86,444.31c-1.09-2.33-1.25-4.45-.45-6.64.23-.63.68-1.07,1.2-1.4.57-.36,1.12-.03,1.59.29.45.3.6.74.5,1.34-.38,2.3-1.42,4.3-2.84,6.42ZM433.1,414.6c-.38.51-.54,1.4-1.31,1.29-.66-.1-.66-.99-1.01-1.48-1.78-2.5-1.94-5.55-2.93-8.32-.21-.59-.3-1.23-.57-1.78-.18-.38-.49-.87-1.03-.75-.56.13-1.08.44-1.18,1.1-.05.34-.03.68-.03,1.03-.01,1.62-.04,1.52-1.6,2.02-.88.28-1.17-.08-1.41-.72-.16-.42-.37-.92-.28-1.32.53-2.44-.03-4.74-.81-7.09,1.95-.19,3.7-.39,5.46-.33.8.03,1.56.09,2.33.41,1.57.65,3.14,1.3,4.69,1.99,2.33,1.04,3.69,2.98,5.02,4.97,1.58,2.37,2.65,5.04,4.26,7.4,1.12,1.65,1.24,3.64,1.57,5.54.04.21,0,.48-.09.67-1.25,2.5-1.88,5.13-1.56,7.95-.65,0-1.15,0-1.65,0-.29,0-.58.03-.71.36-.12.31.05.51.26.74,1.24,1.3,1.32,1.78.56,3.28-.71,1.4-1.71,1.95-3.2,1.79-.37-.04-.73-.13-.71-.56.05-1-.31-2.01.34-2.99.53-.8.35-1.45-.59-1.73-1.98-.59-2.23-2.09-2.21-3.75.02-1.54.09-3.07.26-4.61.15-1.34.78-2.47,1.16-3.69.27-.86.16-1.46-.45-1.98-.69-.59-1.41-.22-2.09.09-.19.09-.36.28-.49.46Z"/>
      <path class="cls-6" d="M483.39,156.2c.29-.48.09-.88-.32-1.19-.42-.33-.88-.41-1.18.09-.42.69-1.1.99-1.76,1.29-1.44.66-2.89,1.36-4.4,1.82-2.32.71-4.69,1.24-7.14,1.42-1.5.1-2.96-.15-4.44-.07-1.4.07-2.7-.24-4.02-.63-1.47-.42-2.98-.7-4.49-.92-.42-.06-1.12-.16-1.32.49-.18.6-.14,1.14.43,1.68,1.19,1.12,2.82,1.11,4.13,1.81,1.25.67,2.56.91,3.68,1.13,2.23-.15,4.25-.32,6.27-.43,1.31-.07,2.67,0,3.9-.45,3.27-1.18,6.32-2.82,9.38-4.46.64-.34.94-.99,1.29-1.58Z"/>
      <path class="cls-6" d="M474.23,148.79c1.7,1.3,4.43-.23,4.82-2.07.59-2.77-1.4-5.47-4.24-5.78-1.38-.03-2.47.54-3.24,1.7-.65.98-.45,2.16-.1,3.04.52,1.28,1.6,2.22,2.76,3.11Z"/>
      <path class="cls-6" d="M475.45,175.65c-.16-.03-.34.05-.5.1-1.38.52-2.75,1.03-4.01,1.83-2.7,1.72-5.53,3.18-8.82,3.37-.61.04-1.23.1-1.83.21-.5.09-.85.46-.79.96.04.38.32.73.8.78.62.07,1.24.15,1.83.22.65-.07,1.28-.19,1.9-.18,2.12.03,4.04-.68,5.83-1.69,2.12-1.2,4.03-2.76,6.18-3.92.51-.27.8-.69.61-1.26-.19-.58-.77-.34-1.19-.41Z"/>
      <path class="cls-6" d="M467.53,171.92c.99-.19,2.04-.26,2.9-.85.42-.29.86-.65.7-1.26-.16-.65-.71-.65-1.24-.64-1.31.02-2.62,0-3.92.06-2.55.11-5.08.38-7.65.18-1.46-.11-2.95-.14-4.47-.23.01.51.21.62.41.74,1.04.65,2.21.91,3.39,1.13,3.26.62,6.5,1.52,9.88.87Z"/>
    </g>
  </g>
</svg>