<svg width="320" height="482" viewBox="0 0 320 482" fill="none" xmlns="http://www.w3.org/2000/svg">
<path d="M-1 366.306C-1 297.586 -1 228.854 -1 160.133C0.01925 155.959 2.26538 152.842 4.98338 150.147C7.456 147.69 9.97581 145.302 12.2974 142.606C14.4586 140.104 15.2797 140.263 17.0634 143.084C19.083 146.291 19.687 150.101 20.2721 153.9C20.6024 156.027 20.7534 158.188 20.7251 160.361C20.7063 161.816 20.9328 163.261 21.348 164.58C21.8199 164.739 21.8954 164.376 21.9237 164.103C22.3673 159.439 24.4907 155.902 27.2653 152.888C29.8795 150.045 32.6919 147.451 35.3438 144.642C35.7779 144.187 36.2781 143.812 36.7783 143.482C38.4016 142.413 38.7696 142.583 39.5435 144.642C41.3083 149.328 41.6103 154.332 41.884 159.36C41.9312 160.304 41.5631 161.828 42.5163 161.964C43.4129 162.089 43.2241 160.531 43.3185 159.712C44.3566 151.25 48.6696 145.324 53.7847 140.036C55.6816 138.079 57.3709 135.793 59.6831 134.485C60.306 134.132 60.9761 133.518 61.665 134.064C62.3823 134.633 62.1369 135.588 62.0236 136.407C61.4385 140.684 60.7968 144.949 59.7492 149.1C59.3717 150.59 58.8432 151.989 58.0033 153.206C57.6352 153.741 57.2577 154.276 57.1539 155.003C57.0973 155.402 57.1539 155.8 57.4276 156.05C57.739 156.323 58.0316 156.13 58.2864 155.857C58.4374 155.709 58.5978 155.549 58.6733 155.345C59.8247 152.274 62.1746 151.705 64.5812 150.886C69.7246 149.146 74.1225 145.62 78.3411 141.787C81.5592 138.864 84.8718 136.1 87.9296 132.87C90.1946 130.481 93.4694 129.788 96.5083 129.151C97.6691 128.9 98.0749 129.765 97.5086 130.993C96.697 132.768 95.5173 134.212 94.3093 135.6C92.0254 138.238 89.4584 140.399 86.6933 142.265C86.0043 142.731 84.9756 143.118 85.5136 144.46C85.976 145.643 86.8726 145.37 87.7031 145.074C91.5347 143.743 95.4229 142.754 99.3206 141.753C99.7642 141.639 100.189 141.491 100.642 141.457C101.227 141.423 101.878 141.378 102.218 142.037C102.643 142.868 102.124 143.516 101.699 144.085C99.4433 147.076 97.6596 150.488 95.7155 153.752C95.2342 154.56 94.6019 155.413 95.2059 156.471C95.8571 157.608 96.7348 156.982 97.4614 156.618C100.293 155.197 103.294 154.867 106.285 154.401C109.117 153.968 111.438 155.549 113.618 157.29C117.205 160.156 120.574 163.375 123.735 166.9C125.387 168.743 125.368 169.3 123.5 170.961C121.376 172.849 119.356 174.851 117.469 177.08C115.6 179.275 114.515 181.925 113.826 184.86C113.213 187.464 113.845 188.135 116.044 187.965C121.376 187.567 126.029 189.523 129.738 194.323C130.578 195.403 130.257 196.609 129.993 197.826C128.36 205.276 128.954 212.885 128.992 220.448C128.992 220.892 129.077 221.381 129.587 221.768C132.427 214.625 138.156 212.236 143.649 209.495C146.083 208.278 146.678 208.915 146.376 212.043C146.017 215.785 146.329 219.447 147.386 222.996C147.612 223.747 147.848 224.873 148.717 224.691C149.509 224.532 149.736 223.394 149.632 222.609C149.245 219.709 150.717 217.992 152.18 216.217C154.445 213.476 156.72 210.747 158.985 208.006C160.202 206.527 160.73 206.607 161.325 208.449C163.156 214.159 163.986 220.073 163.477 226.192C163.382 227.364 162.958 228.422 162.552 229.468C162.071 230.696 162.325 231.8 163.137 232.607C164.128 233.597 164.779 232.527 165.421 231.811C169.677 227.045 174.122 222.632 179.832 220.574C180.143 220.46 180.436 220.323 180.747 220.232C182.55 219.721 183.031 220.221 182.691 222.405C182.031 226.738 181.153 231.026 180.681 235.405C180.483 237.248 180.379 239.101 180.162 240.933C180.058 241.797 179.898 242.775 180.672 243.719C182.04 240.978 184.069 239.352 186.495 238.408C191.119 236.622 195.328 237.043 198.867 241.604C200.755 244.038 202.642 246.46 204.209 249.213C205.511 251.499 205.483 251.726 203.567 253.182C199.811 256.049 196.319 259.301 193.233 263.18C192.695 263.851 192.167 264.522 191.789 265.341C191.431 266.126 191.223 266.945 191.695 267.741C192.252 268.685 192.941 268.128 193.601 267.889C197.895 266.342 202.255 265.785 206.719 266.706C208.597 267.093 209.824 268.082 210.447 270.425C211.202 273.291 211.938 273.553 214.137 272.108C218.252 269.413 222.707 267.547 226.623 264.363C227.869 263.35 228.605 263.783 229.039 265.58C229.492 267.434 229.822 269.333 229.813 271.29C229.813 272.836 229.785 274.383 229.822 275.93C229.86 277.181 229.888 278.557 230.964 279.171C232.002 279.774 232.55 278.489 233.248 277.898C237.844 273.951 243.092 271.983 248.509 270.505C249.669 270.186 250.302 270.823 250.698 272.097C252.369 277.397 250.83 284.904 247.244 288.726C246.81 289.192 246.376 289.647 246.008 290.181C245.432 290.989 245.3 291.865 245.942 292.672C246.649 293.559 247.235 292.877 247.754 292.297C249.962 289.863 252.52 288.134 255.2 286.587C258.522 284.665 262.089 284.244 265.685 283.96C266.308 283.914 267.119 283.858 267.402 284.665C267.695 285.484 267.053 286.098 266.61 286.621C264.42 289.158 262.401 291.842 261.098 295.186C260.825 295.891 260.504 296.562 260.315 297.301C260.088 298.245 259.494 299.531 260.315 300.077C261.117 300.623 261.438 299.133 261.91 298.507C264.6 294.958 268.167 294.492 271.8 294.492C272.942 294.492 274.603 293.969 275.16 295.447C275.745 297.017 274.33 298.234 273.546 299.371C271.678 302.135 269.583 304.638 267.214 306.799C266.695 307.276 265.76 307.743 266.261 308.743C266.723 309.687 267.553 309.107 268.176 308.778C273.159 306.127 278.341 304.501 283.795 304.148C284.116 304.126 284.428 304.001 284.749 303.989C285.324 303.989 286.013 303.864 286.287 304.603C286.57 305.354 286.042 305.934 285.617 306.355C283.871 308.072 282.285 309.983 280.709 311.917C280.304 312.417 279.888 312.895 279.501 313.407C278.775 314.373 278.19 315.409 278.916 316.716C279.681 318.115 280.672 317.604 281.653 317.092C284.758 315.477 288.052 314.885 291.393 314.555C293.818 314.317 296.243 313.896 298.688 314.101C299.424 314.157 300.377 313.907 300.698 314.999C301 316.034 300.245 316.728 299.698 317.319C296.98 320.277 294.12 323.018 291.308 325.838C290.166 326.976 289.128 328.238 288.099 329.512C287.618 330.115 286.966 330.775 287.495 331.707C288.042 332.674 288.76 332.094 289.392 331.741C293.233 329.649 297.178 329.262 301.227 330.661C303.067 331.298 304.69 332.299 305.341 334.744C305.917 336.928 305.624 337.895 303.822 338.713C300.302 340.317 297.187 342.751 294.111 345.288C293.101 346.118 292.251 347.187 291.43 348.279C290.751 349.166 290.204 350.156 290.751 351.407C291.355 352.783 292.431 352.737 293.45 352.396C295.46 351.725 297.499 351.589 299.556 351.714C300.226 351.759 301.123 351.532 301.359 352.555C301.547 353.374 300.887 353.943 300.387 354.409C299.009 355.695 297.829 357.23 296.612 358.709C295.885 359.596 295.271 360.585 294.913 361.78C294.309 363.793 294.686 365.055 296.319 365.908C297.31 366.42 297.857 366.739 297.065 368.183C296.395 369.411 296.98 370.572 298.197 370.947C298.442 371.027 298.716 371.106 298.962 371.027C304.379 369.275 308.295 373.574 312.665 375.997C313.995 376.736 315.128 377.953 316.289 379.057C316.997 379.739 317.638 380.49 318.035 381.491C318.79 383.401 318.346 384.891 316.638 385.437C311.06 387.257 306.191 390.942 301.019 393.831C300.169 394.309 300.103 395.003 300.443 395.912C300.887 397.107 301.727 397.823 302.604 398.483C304.567 399.95 306.587 401.315 308.408 403.044C310.371 404.898 311.91 407.139 312.627 410.073C313.193 412.405 312.863 413.201 310.891 413.769C306.955 414.895 303.057 416.192 299.056 416.943C297.376 417.25 297.027 418.035 298.037 419.684C299.443 421.981 301.066 424.086 302.727 426.133C304.303 428.066 305.841 430.034 307.257 432.138C307.738 432.866 308.352 433.639 308.069 434.618C307.748 435.71 306.814 435.516 306.068 435.55C304.397 435.63 302.727 435.493 301.066 435.721C300.009 435.869 299.273 435.027 298.49 434.356C295.838 432.093 292.846 431.092 289.637 430.933C289.08 430.91 288.316 430.751 288.08 431.49C287.788 432.411 288.561 432.809 289.08 433.219C289.949 433.912 290.958 434.219 291.978 434.401C296.527 435.243 299.962 437.905 302.066 443C303.152 445.628 304.624 448.005 305.87 450.53C306.568 451.951 307.04 453.464 307.191 455.102C307.37 457.092 306.908 457.65 305.275 457.445C302.831 457.149 300.5 456.262 298.169 455.42C297.187 455.068 296.225 454.624 295.253 454.215C294.554 453.919 293.677 453.271 293.157 454.272C292.723 455.113 293.488 455.819 293.96 456.421C295.102 457.889 296.319 459.253 297.301 460.914C298.395 462.768 299.169 464.792 299.613 466.999C300.151 469.683 299.65 470.548 297.414 470.331C295.498 470.15 293.573 470.024 291.666 469.808C287.117 469.296 282.578 469.24 278.039 469.831C276.755 470.002 275.472 469.956 274.188 469.911C271.244 469.797 268.45 470.434 265.836 472.14C265.194 472.561 264.401 473.3 263.722 472.504C263.061 471.73 263.609 470.752 263.854 469.899C265.647 463.655 268.214 457.854 271.017 452.202C271.178 451.872 271.366 451.553 271.498 451.201C271.866 450.234 272.574 449.21 271.97 448.187C271.404 447.242 270.432 447.698 269.63 447.857C267.733 448.232 265.789 448.061 263.901 448.642C261.589 449.347 259.305 450.063 257.323 451.781C256.823 452.213 256.247 453.02 255.634 452.497C254.964 451.929 255.332 450.928 255.492 450.12C256.644 444.16 258.135 438.326 259.702 432.502C259.947 431.581 260.579 430.591 259.9 429.67C259.164 428.681 258.21 429.215 257.38 429.568C254.171 430.955 251.038 432.57 248.093 434.64C244.894 436.892 242.582 440.111 240.959 444.115C239.911 446.685 239.618 446.651 237.769 444.774C234.871 441.84 231.757 439.19 228.529 436.847C225.349 434.538 221.621 434.777 218.035 434.675C217.657 434.675 217.204 434.731 217.044 435.22C216.846 435.846 217.28 436.21 217.61 436.562C217.941 436.926 218.328 437.222 218.705 437.518C223.65 441.362 227.51 446.481 230.672 452.395C230.879 452.782 231.106 453.168 231.266 453.589C231.833 455.159 231.502 455.864 230.106 455.693C227.605 455.386 225.104 455.523 222.603 455.534C217.431 455.557 213.25 458.434 209.419 462.279C208.739 462.961 208.777 463.678 209.145 464.542C209.749 465.952 210.825 466.362 211.986 466.635C216.289 467.67 220.366 469.558 224.462 471.355C224.82 471.514 225.189 471.674 225.528 471.89C226.189 472.322 227.227 472.629 227.057 473.675C226.878 474.79 225.811 474.517 225.085 474.517C215.072 474.551 205.049 474.733 195.045 474.437C191.138 474.324 187.231 474.13 183.324 474.062C182.748 474.062 182.163 474.062 181.672 473.596C181.304 472.788 181.719 472.106 181.937 471.401C182.295 470.275 182.456 469.126 181.937 468.045C181.342 466.817 181.691 465.987 182.588 465.35C184.202 464.201 184.796 462.176 185.532 460.311C186.089 458.889 185.74 457.616 184.485 456.808C178.699 453.066 172.603 450.632 165.987 450.405C164.76 450.359 163.562 450.177 162.363 449.915C161.042 449.62 160.985 448.88 161.712 447.686C164.081 443.796 166.912 440.418 170.026 437.45C175.368 432.343 181.172 428.1 187.42 424.768C188.08 424.415 188.675 423.994 189.081 423.255C189.987 421.64 189.704 420.446 188.175 419.911C183.229 418.205 178.218 416.92 173.075 416.545C170.97 416.397 168.875 417.011 166.761 417.182C166.195 417.227 165.496 417.5 165.185 416.772C164.845 415.987 165.525 415.555 165.921 415.1C167.922 412.757 169.375 410.152 168.903 406.558C170.14 405.956 171.102 406.979 172.15 407.423C172.867 407.73 173.518 408.276 174.236 408.606C174.915 408.913 175.736 409.868 176.302 409.027C176.812 408.264 175.991 407.343 175.679 406.524C175.293 405.523 174.575 404.83 174.047 403.954C173.245 402.634 173.443 402.066 174.821 401.872C175.972 401.713 177.133 401.85 178.284 401.793C179.285 401.747 180.483 402.02 180.946 400.542C181.389 399.109 180.426 398.256 179.7 397.414C177.85 395.264 176.151 392.955 174.471 390.612C174.056 390.032 173.377 389.429 173.632 388.656C173.943 387.689 174.896 387.553 175.632 387.632C177.982 387.917 180.36 387.814 182.663 388.736C185.032 389.691 185.4 389.191 184.824 386.256C184.664 385.414 184.588 384.561 184.73 383.72C185.334 380.228 186.165 376.827 187.288 373.529C187.505 372.892 187.769 372.118 188.467 372.255C189.024 372.357 189.166 373.108 189.307 373.699C190.015 376.679 190.128 379.796 190.647 382.821C190.798 383.72 190.836 384.664 191.563 385.858C192.922 382.901 195.149 381.468 197.452 380.16C198.679 379.466 199.972 379 201.302 378.749C201.878 378.647 202.51 378.601 202.878 379.273C203.265 379.989 202.85 380.615 202.51 381.161C200.538 384.402 198.556 387.644 196.584 390.885C195.593 392.512 194.705 394.206 193.95 396.004C193.639 396.754 193.195 397.641 193.79 398.369C194.451 399.177 195.121 398.449 195.668 397.983C198.065 395.958 200.764 395.583 203.577 395.787C205.36 395.912 205.634 396.493 204.596 398.108C203.36 400.041 202.586 402.225 201.859 404.466C201.415 405.83 201.038 407.229 200.283 408.424C199.934 408.981 199.519 409.618 200.047 410.278C200.651 411.017 201.236 410.471 201.755 410.027C202.491 409.413 203.228 408.788 203.973 408.185C205.379 407.07 206.852 406.149 208.579 406.024C209.164 405.978 209.853 405.922 209.796 404.955C209.749 404.045 209.069 403.999 208.484 403.954C207.021 403.863 205.738 404.591 204.454 405.307C203.831 405.648 203.105 406.297 202.501 405.569C201.897 404.852 202.435 403.965 202.661 403.192C203.312 400.962 204.36 399.063 205.71 397.346C206.701 396.083 206.559 395.583 205.143 395.287C202.699 394.775 200.292 395.23 197.886 395.822C197.235 395.981 196.404 396.629 195.961 395.685C195.574 394.866 196.215 394.093 196.631 393.422C199.745 388.315 202.68 383.049 206.436 378.556C206.757 378.181 207.154 377.76 206.993 377.168C206.785 376.406 206.172 376.543 205.681 376.531C201 376.44 196.621 377.487 192.997 381.422C191.497 383.049 190.883 382.787 190.515 380.41C190.109 377.828 189.873 375.212 189.222 372.687C189.052 372.028 188.958 371.174 188.279 371.118C187.59 371.061 187.363 371.902 187.193 372.539C186.042 376.952 184.381 381.217 184.145 385.915C184.06 387.519 183.352 387.462 182.456 387.121C179.643 386.063 176.746 386.245 173.867 386.267C173.679 386.267 173.48 386.268 173.292 386.302C172.537 386.427 171.659 386.393 171.3 387.405C170.923 388.451 171.621 389.134 172.14 389.793C173.783 391.852 175.566 393.763 176.972 396.083C177.34 396.697 178.048 397.255 177.765 398.062C177.435 398.972 176.557 398.767 175.878 398.79C174.018 398.847 172.159 398.745 170.3 398.847C169.658 398.881 168.922 398.938 168.686 399.814C168.45 400.69 169.007 401.27 169.517 401.736C170.895 402.998 172.395 404.068 173.613 405.58C174.028 406.092 174.717 406.706 174.198 407.525C173.801 408.139 173.094 407.866 172.593 407.525C170.602 406.183 168.29 406.115 166.195 405.159C164.439 404.363 163.373 405.273 162.854 407.571C162.316 408.196 161.608 408.344 160.929 408.549C154.832 410.346 149.151 413.337 143.856 417.386C143.328 417.796 142.705 418.524 142.129 418.103C141.393 417.568 141.837 416.545 141.988 415.76C143.516 408.162 145.083 400.587 147.829 393.456C148.065 392.83 148.415 392.148 147.952 391.511C147.442 390.794 146.772 391.045 146.168 391.306C142.875 392.705 139.902 394.832 137.09 397.3C131.04 402.623 125.406 408.424 121.499 416.283C120.961 417.375 120.31 417.739 119.281 417.557C115.157 416.818 111.042 416.09 106.871 415.828C103.435 415.623 100.095 415.987 96.8952 417.568C95.3003 418.353 95.0454 419.422 95.9703 421.208C96.8669 422.959 98.3297 423.778 99.8397 424.472C102.18 425.541 104.549 426.508 106.823 427.782C107.333 428.066 108.06 428.26 108.06 429.056C108.06 429.897 107.305 430 106.795 430.216C103.954 431.433 101.085 432.536 98.3108 433.969C94.9888 435.687 91.9782 438.03 88.9771 440.418C88.4958 440.805 88.0617 441.408 87.5238 441.521C85.2588 441.954 84.2867 444.012 83.2958 446.117C82.2765 448.289 82.7673 449.711 84.7963 450.086C89.5623 450.973 94.2432 452.258 98.8299 454.078C99.3206 454.272 99.8208 454.397 100.264 454.738C100.906 455.238 100.982 455.784 100.34 456.364C99.6132 457.024 98.7921 457.456 97.9805 457.911C95.2531 459.458 93.0541 461.767 91.1478 464.553C89.3169 467.238 87.4482 469.876 85.7967 472.731C84.8907 473.289 83.9092 473.118 82.956 473.118C73.8394 473.129 64.7322 473.118 55.6156 473.118C54.2094 473.118 52.7938 473.061 51.3876 473.368C50.7647 473.505 49.9059 473.675 49.6794 472.856C49.434 471.981 50.3022 471.617 50.8213 471.23C53.7281 469.08 56.3894 466.521 59.0319 463.951C59.9568 463.052 61.3913 462.108 60.9855 460.55C60.5608 458.912 58.9659 459.663 57.9089 459.708C53.6054 459.856 49.3208 459.367 45.0361 459.14C42.8466 459.026 40.7326 458.287 38.7508 457.115C38.2317 456.808 37.5994 456.41 37.6371 455.659C37.6843 454.715 38.4771 454.545 39.0905 454.431C41.3744 454.01 43.6866 454.169 45.9893 453.873C51.7462 453.146 57.4087 451.872 62.9957 450.063C66.5631 448.903 69.7435 446.674 73.0466 444.82C75.0379 443.705 75.2928 441.954 73.8677 439.929C70.5174 435.175 68.007 429.511 63.4204 426.11C63.0618 425.848 62.571 425.462 62.7126 424.859C62.9108 423.983 63.6563 423.892 64.2509 423.687C69.517 421.856 74.5283 419.24 79.3603 416.203C87.3539 411.187 94.1866 404.363 100.179 396.242C103.549 391.681 107.097 387.325 110.617 382.924C111.58 381.718 113.128 380.444 112.505 378.704C111.948 377.134 110.193 378.056 108.975 377.953C103.284 377.441 97.5747 377.487 91.865 377.441C84.9568 377.385 78.1901 378.579 71.4423 380.137C70.4796 380.353 69.0829 381.252 68.6016 380.035C68.0353 378.613 69.5925 377.953 70.3664 377.191C77.6804 369.98 84.7114 362.462 90.4871 353.34C95.4701 345.47 98.1126 336.78 97.7068 326.816C97.6502 325.452 97.1028 324.997 96.1024 325.213C83.3335 327.874 70.4985 330.229 58.7111 337.371C54.6435 339.84 50.3966 341.864 46.3574 344.4C42.9221 346.55 39.7417 349.143 36.9104 352.339C36.8161 352.442 36.7311 352.567 36.6273 352.658C35.8723 353.306 35.1173 354.671 34.1924 353.898C33.4846 353.295 34.2208 352.021 34.4944 351.111C35.7213 347.073 35.7685 342.922 35.391 338.736C35.2211 336.882 35.1362 335.051 35.3344 333.197C35.5703 331.013 35.0324 330.377 33.1826 330.718C31.5877 331.013 30.0494 331.571 28.6715 332.64C23.5469 336.621 18.5639 340.863 13.6753 345.242C11.5519 347.142 9.88144 349.655 8.4375 352.305C5.96488 356.843 2.83163 360.767 0.311813 365.249C0.038125 365.738 -0.254438 366.318 -0.905625 366.158L-1 366.306Z" fill="#098A6C"/>
<path d="M-0.999924 469.854C-0.999924 437.04 -0.999924 404.227 -0.999924 371.413C-0.329861 368.217 1.4727 365.863 3.19033 363.486C5.34208 360.517 7.54101 357.583 9.50401 354.432C11.618 351.054 14.1661 348.267 17.1295 346.027C21.0461 343.07 24.9249 340.044 28.832 337.076C29.4832 336.586 30.1533 336.12 30.88 335.79C32.692 334.96 33.0317 335.369 33.4281 337.599C34.8154 345.435 32.8241 352.419 29.8607 359.186C29.5965 359.8 29.2567 360.369 29.0302 361.347C30.1627 360.756 30.9743 359.937 31.7765 359.118C35.8441 354.967 39.9305 350.838 44.6493 347.767C47.5277 345.89 50.51 344.275 53.53 342.751C61.1083 338.929 68.6394 334.96 76.7179 332.833C82.0501 331.423 87.4672 330.604 92.8466 329.592C94.8096 329.228 95.2154 329.876 95.121 332.219C94.8001 340.499 91.3271 346.994 87.0897 353.067C79.7756 363.554 71.2158 372.38 61.8727 380.114C59.485 382.093 56.8236 383.481 54.3888 385.369C52.7183 386.665 51.0856 388.053 49.7266 389.839C49.1887 390.544 48.2544 391.283 49.066 392.352C49.8305 393.376 50.6515 392.5 51.265 391.909C57.9939 385.403 66.1196 383.424 74.2736 381.547C79.3321 380.387 84.4566 379.784 89.5623 379.727C95.121 379.67 100.699 380.057 106.257 380.592C106.757 380.637 107.361 380.637 107.55 381.342C107.73 382.014 107.295 382.514 106.965 382.957C105.757 384.561 104.549 386.176 103.303 387.723C97.8201 394.536 92.7522 401.895 86.1365 407.263C77.0954 414.599 67.488 420.377 56.5311 421.936C50.9913 422.72 45.376 422.061 39.5625 422.186C44.8003 424.631 49.972 426.03 55.408 425.257C58.3431 424.836 60.9384 425.257 63.3166 427.679C65.7515 430.159 67.8089 432.968 69.4699 436.221C70.1777 437.609 71.0082 438.894 71.7726 440.225C72.5371 441.555 72.2728 442.5 71.0554 443.148C66.5348 445.582 61.9293 447.629 57.003 448.641C50.0192 450.063 43.0071 450.757 35.9385 450.495C34.5134 450.438 33.1166 450.575 31.7576 451.121C30.2665 451.724 30.0023 452.406 30.795 454.044C32.0408 456.626 34.202 457.968 36.1838 459.503C39.5625 462.097 43.4224 462.461 47.2823 462.699C49.4624 462.836 51.6425 462.665 53.8225 462.768C54.3321 462.79 54.9645 462.802 55.1532 463.45C55.342 464.133 54.7851 464.553 54.3982 464.929C51.3688 467.875 47.8958 469.865 44.3284 471.651C42.1389 472.754 39.9683 473.971 37.7316 474.892C30.1816 478.009 22.5561 478.452 14.9211 475.177C13.1091 474.403 11.703 473.072 10.7592 470.957C9.11708 467.283 7.22014 463.769 6.21976 459.719C6.11595 459.299 6.04045 458.798 5.50251 458.525C4.61539 460.152 4.88908 461.835 5.30433 463.53C6.17258 467.09 6.12539 467.329 3.17145 468.523C1.81245 469.069 0.566701 470.297 -1.0188 469.831L-0.999924 469.854Z" fill="#DBCE02"/>
<path d="M-1 89.091C3.61494 85.9064 8.26762 82.7104 11.3065 77.2168C14.9305 70.6428 18.9509 64.3757 21.8671 57.2329C23.5186 53.1839 23.9056 48.6912 25.4816 44.608C27.4069 39.6149 28.9263 34.4172 29.6436 28.9122C29.8606 27.2403 29.6153 25.5683 29.9644 23.3276C31.7009 28.4004 33.2393 32.9613 34.0698 37.852C34.4378 40.0244 34.183 42.2651 34.7587 44.4034C34.9946 45.2678 34.9097 46.1548 34.0226 46.7008C33.6356 46.9396 32.9184 47.3946 33.5412 48.3159C34.0697 49.1121 34.5699 48.8278 35.1551 48.5093C40.5533 45.5862 44.5076 40.4452 48.8961 35.8842C53.2467 31.3575 56.1535 25.7958 59.0886 20.0861C60.5419 17.2654 62.2407 14.6266 63.9206 11.749C64.9304 18.1639 65.4306 24.4536 65.742 30.823C65.9496 35.1109 65.9496 39.4329 66.3083 43.7322C66.7329 48.8391 65.9779 53.9915 65.1758 59.0301C64.2603 64.7398 63.7696 70.6542 61.7122 75.9657C58.2109 84.9738 55.6061 94.6756 49.0188 101.489C48.1599 102.376 47.4333 103.502 46.7915 104.639C45.6779 106.618 44.5171 108.358 42.0916 107.551C42.4691 109.735 43.7149 110.121 44.9229 110.417C48.2449 111.213 51.5669 110.701 54.8039 109.917C65.5627 107.323 76.2176 104.207 86.6083 99.8508C92.771 97.2575 98.6978 94.1638 104.341 88.8636C101.595 97.5418 100.68 106.277 97.603 114.227C96.5932 116.832 95.1115 119.061 93.5166 121.131C91.0817 124.304 88.6563 127.535 86.0421 130.458C80.1342 137.066 73.3958 142.355 66.3838 147.132C65.2324 147.917 64.1659 148.883 62.873 149.316C62.0048 149.611 61.6367 149.293 61.9009 148.178C63.2033 142.776 63.6752 137.191 64.4585 131.675C64.685 130.094 64.1282 129.343 62.7503 129.684C59.8719 130.412 57.5314 132.312 55.3796 134.632C50.9629 139.409 46.4989 144.14 43.5544 151.033C42.8655 147.177 42.1011 143.879 40.6949 140.842C40.0154 139.386 39.3264 138.931 37.9297 139.591C36.7689 140.137 35.6836 140.831 34.8531 141.809C32.1445 144.993 29.2566 147.939 26.4348 150.965C25.0098 152.489 23.8867 154.343 22.6693 156.617C22.1879 152.625 22.0936 148.929 20.9611 145.505C19.9607 142.514 18.7149 139.739 16.6859 137.509C15.5439 136.258 14.4398 136.156 13.2129 136.952C12.4956 137.419 11.8161 138.021 11.2216 138.692C8.41862 141.866 5.67231 145.107 2.85994 148.258C1.40656 149.884 0.255188 151.818 -1 153.638C-1 132.118 -1 110.61 -1 89.091Z" fill="#EC497F"/>
<path d="M181.587 473.493C172.405 473.516 163.222 473.926 154.058 473.471C140.836 472.811 127.614 473.653 114.411 473.004C105.568 472.572 96.7253 473.038 87.9013 472.424C87.1746 472.379 86.4101 472.72 85.6457 472.561C86.2875 469.74 88.2599 468.057 89.5906 465.827C92.3463 461.198 96.0175 457.945 100.84 455.75C96.6404 453.919 92.8088 452.656 88.9016 451.758C87.2123 451.371 85.5041 451.121 83.8054 450.803C82.5408 450.564 81.4932 448.448 82.2199 447.152C83.4845 444.877 83.9658 441.999 86.9575 441.169C89.1753 440.555 91.0345 438.109 93.1013 436.585C97.1123 433.617 101.529 431.797 105.965 430.011C106.54 429.784 107.107 429.533 108.069 429.135C105.03 427.736 102.35 426.519 99.6793 425.257C97.6313 424.29 95.6589 423.244 94.8756 420.378C94.5075 419.024 94.6963 418.114 95.7721 417.557C97.7729 416.522 99.8208 415.76 102.02 415.498C107.918 414.793 113.675 416.169 119.451 417.159C120.291 417.307 120.461 417 120.866 416.26C127.057 404.886 135.372 396.504 145.668 390.942C146.678 390.396 147.716 390.078 148.528 391.101C149.33 392.125 148.452 393.114 148.103 394.047C145.215 401.656 143.667 409.754 141.95 418.148C148.499 413.11 155.247 409.277 162.731 407.628C164.024 407.582 164.789 408.754 165.657 409.595C166.582 410.482 166.242 411.29 165.176 411.392C161.674 411.711 158.701 413.656 155.747 415.703C155.323 415.999 154.653 416.044 154.672 416.829C154.69 417.693 155.342 417.898 155.898 418.046C157.031 418.353 158.173 418.626 159.003 419.695C159.39 420.196 159.862 420.776 159.551 421.515C159.296 422.129 158.683 422.152 158.182 422.118C156.974 422.015 155.776 421.936 154.615 422.459C156.455 421.651 158.239 422.209 160.032 422.732C160.513 422.869 161.089 423.221 161.448 422.595C161.778 422.027 161.476 421.39 161.221 420.855C160.646 419.65 159.975 418.501 159.107 417.58C157.965 416.351 158.371 415.487 159.485 414.736C161.353 413.485 163.373 412.837 165.478 412.393C167.431 411.984 167.563 411.165 166.299 409.334C165.817 408.628 164.496 408.196 165.327 406.831C166.1 405.557 167.469 405.614 168.856 406.775C169.989 408.048 169.564 409.436 169.026 410.79C168.129 413.064 167.054 415.203 164.751 416.84C166.553 416.84 167.827 416.601 169.026 416.385C174.471 415.384 179.653 417 184.872 418.364C185.872 418.626 186.872 418.876 187.835 419.286C188.713 419.661 190.128 419.456 190.119 421.151C190.119 422.914 189.515 424.563 188.014 425.223C182.975 427.429 178.577 431.035 174.141 434.515C169.196 438.405 164.958 443.285 161.334 449.165C164.081 450.12 166.865 449.972 169.592 450.302C175.33 450.985 180.427 453.748 185.4 456.944C186.778 457.832 186.448 459.765 185.825 461.05C184.9 462.995 184.296 465.338 182.333 466.339C182.04 466.487 181.54 466.737 181.984 467.352C183.598 469.581 182.342 471.514 181.568 473.505L181.587 473.493Z" fill="#00B49C"/>
<path d="M239.213 369.581C235.551 367.966 231.87 366.272 227.869 366.806C224.83 367.216 221.791 367.557 218.743 367.909C217.761 368.023 217.497 367.523 217.186 366.738C216.912 366.044 217.082 365.566 217.648 365.237C222.121 362.552 225.736 358.185 230.408 355.899C232.333 354.955 234.23 353.886 236.381 352.748C233.314 349.871 229.964 348.517 226.774 346.822C222.971 344.809 219.054 343.137 215.062 341.738C214.515 341.545 213.967 341.261 213.505 340.885C212.91 340.396 212.41 339.634 212.542 338.758C212.656 337.962 213.326 337.644 213.986 337.439C219.224 335.79 224.462 334.186 229.851 333.31C234.522 332.548 239.137 332.844 243.752 333.765C245.63 334.14 246.244 333.549 246.263 331.252C246.291 328.09 246.838 324.973 246.687 321.8C246.612 320.094 246.602 318.422 245.979 316.841C245.517 315.669 244.866 314.202 246.13 313.361C247.301 312.576 248.679 312.462 249.868 313.759C252.746 316.921 254.7 320.913 256.766 324.803C257.521 326.224 258.229 327.714 258.805 329.25C259.437 330.933 260.239 331.013 261.24 329.853C264.836 325.69 269.394 323.563 273.829 321.174C275.717 320.151 277.793 320.071 279.766 319.457C280.436 319.252 281.04 319.605 281.436 320.31C281.908 321.152 281.625 321.834 281.228 322.63C277.784 329.58 274.367 336.552 272.178 344.275C272.017 344.843 271.517 345.412 271.885 345.992C272.319 346.674 272.923 346.197 273.48 346.038C277.274 344.957 281.134 345.526 284.956 345.469C286.504 345.446 286.976 346.549 286.334 348.233C286.042 349.006 285.758 349.802 285.136 350.291C282.606 352.27 281.162 355.41 279.275 358.253C281.785 357.309 284.192 358.412 286.617 358.435C287.665 358.446 288.835 358.594 288.977 360.164C289.109 361.733 288.458 363.019 287.165 363.553C284.739 364.531 282.314 365.51 279.851 366.34C276.661 367.409 273.763 369.081 271.329 371.822C269.932 373.71 268.007 374.347 266.072 374.586C264.571 374.768 264.033 373.687 264.458 371.89C264.958 369.797 265.723 367.853 266.987 366.237C267.497 365.589 268.29 364.918 267.893 363.894C267.497 362.859 266.534 363.246 265.808 363.235C263.892 363.212 261.967 363.167 260.041 363.292C258.371 363.405 257.965 362.825 258.39 360.835C258.767 359.038 259.343 357.32 259.9 355.58C260.126 354.875 260.494 354.067 259.956 353.408C259.456 352.794 258.739 352.998 258.125 353.214C255.709 354.056 253.303 354.977 251.585 357.354C250.547 358.799 249.745 358.537 248.707 357.4C247.555 356.126 246.725 354.431 244.932 353.158C245.979 357.059 246.234 360.676 247.272 364.076C247.961 366.328 247.659 366.931 245.668 366.897C243.205 366.852 240.949 367.307 239.194 369.604L239.213 369.581Z" fill="#301902"/>
<path d="M63.713 226.545C62.6183 225.794 62.4956 224.679 62.958 223.394C63.798 221.074 64.2887 218.674 64.2227 215.899C63.1657 216.331 62.1653 216.74 61.1555 217.139C59.183 217.923 58.0128 217.104 57.9656 214.613C57.9278 212.748 57.5315 212.509 56.0215 212.919C53.6998 213.544 51.4537 214.17 49.453 215.808C48.5942 216.513 47.5466 216.854 46.7633 215.467C47.2635 214.784 47.188 214.5 46.3858 214.511C43.6206 214.511 40.8743 214.784 38.1468 215.262C37.892 215.307 38.2129 215.285 37.9581 215.296C36.9011 215.364 35.5893 216.354 34.8626 215.239C34.0415 213.988 34.9664 212.441 35.3439 211.088C35.6082 210.132 35.9668 209.131 36.7029 208.608C40.4213 205.981 43.5923 202.011 48.245 201.659C48.3677 201.659 48.4809 201.545 48.5942 201.397C48.6413 200.453 47.943 200.135 47.4711 199.714C45.7629 198.178 44.319 196.302 42.6957 194.675C41.3084 193.276 41.365 192.548 42.6957 191.161C44.8758 188.875 47.4428 188.806 49.972 189.602C53.4262 190.683 56.55 192.662 59.0887 195.79C60.3155 197.303 60.5609 197.246 60.9384 195.198C62.1936 188.329 66.7708 185.371 71.3102 182.403C72.3012 181.755 73.0373 182.426 72.8202 183.768C71.952 189.284 72.924 195.119 70.7817 200.419C70.5458 200.999 70.1966 201.829 70.7628 202.33C71.2536 202.762 71.6972 202.045 72.0935 201.727C74.6983 199.623 77.5767 198.77 80.6911 199.031C82.371 199.179 82.6635 199.828 81.6915 201.488C80.5118 203.513 78.7375 205.207 78.1996 207.55C77.3502 211.213 75.1041 213.021 72.7919 214.966C70.5647 216.831 68.6772 219.095 67.2804 221.984C66.4122 223.781 65.5911 225.817 63.713 226.545Z" fill="#00B49C"/>
<path d="M188.524 310.586C186.983 312.019 185.397 311.902 183.767 310.234C183.135 309.585 182.465 308.994 181.833 308.357C180.681 307.197 179.615 306.878 178.643 308.675C177.803 310.234 176.284 309.824 175.132 309.995C168.705 310.95 162.524 312.838 156.635 316.103C155.823 316.558 155.068 316.956 154.568 315.636C154.511 314.465 155.332 314.112 155.927 313.6C158.305 311.542 160.985 310.279 163.769 309.278C164.43 309.039 165.308 308.903 165.327 307.845C165.336 306.628 164.383 306.526 163.656 306.321C162.137 305.889 160.589 306.162 159.051 306.059C158.107 306.003 156.861 306.173 156.578 304.854C156.295 303.534 157.456 302.932 158.23 302.317C160.476 300.532 162.986 299.667 165.629 299.303C166.384 299.201 167.29 299.349 167.573 298.223C167.828 297.211 166.988 296.801 166.544 296.176C165.053 294.049 163.345 292.161 161.976 289.909C161.637 289.351 161.155 288.794 161.429 288.043C161.74 287.179 162.476 287.258 163.109 287.247C164.959 287.224 166.601 288.146 168.281 288.93C170.432 289.931 170.489 289.897 170.328 287.27C170.008 282.106 173.103 278.137 175.963 275.885C177.029 275.043 177.68 275.646 177.775 277.079C177.897 278.853 177.973 280.65 177.737 282.402C177.265 285.985 177.878 289.476 178.199 292.991C178.256 293.582 178.265 294.401 178.832 294.56C179.492 294.742 179.549 293.833 179.794 293.355C180.87 291.308 182.739 290.705 184.362 289.658C185.325 289.044 186.391 288.68 187.429 288.316C188.024 288.1 188.713 287.645 189.241 288.316C189.798 289.01 189.317 289.772 189.081 290.466C188.835 291.182 188.552 291.876 188.231 292.547C186.74 295.675 185.966 299.099 185.353 302.59C185.249 303.182 184.966 303.887 185.476 304.308C185.995 304.74 186.419 304.08 186.844 303.796C188.552 302.625 190.411 302.079 192.346 301.885C193.233 301.794 194.47 302.261 193.743 303.432C192.176 305.968 190.591 308.562 188.515 310.586H188.524Z" fill="#DBCE02"/>
<path d="M318.205 378.897C315.222 375.052 311.787 372.027 307.776 370.014C306.389 369.32 306.2 368.376 306.832 366.954C307.248 366.033 307.861 365.214 308.154 364.259C308.512 363.087 309.749 361.961 308.673 360.562C307.701 359.288 306.615 360.107 305.558 360.528C303.001 361.563 300.311 361.654 297.433 362.291C298.792 359.277 301.057 357.798 302.718 355.648C305.285 352.316 304.869 350.03 301.255 348.836C300.651 348.631 299.99 348.688 299.358 348.676C298.14 348.654 296.914 348.676 295.196 348.676C299.197 345.696 302.576 342.819 306.691 341.704C307.229 341.556 307.314 341.022 307.484 340.533C308.956 336.45 306.398 330.376 302.567 328.715C299.584 327.43 296.479 327.908 293.073 327.737C293.629 327.112 293.912 326.725 294.243 326.429C297.206 323.825 300.103 321.106 302.68 317.956C303.548 316.886 304.369 315.556 303.878 313.679C303.51 312.246 302.538 311.598 301.661 311.598C297.961 311.598 294.252 311.166 290.553 311.825C288.816 312.132 287.061 312.246 285.154 312.462C287.523 309.596 290.147 307.56 291.496 304.102C291.883 303.101 291.968 301.941 290.789 301.839C289.458 301.725 288.203 301.088 286.825 301.293C283.824 301.759 280.785 301.794 277.812 302.578C276.227 302.999 274.613 303.306 272.744 303.727C274.471 301.088 276.227 299.018 277.18 296.209C277.708 294.651 277.284 293.673 276.179 293.127C274.169 292.148 272.036 291.784 269.885 292.103C268.063 292.365 266.27 292.899 264.184 293.365C266.242 289.885 268.705 287.394 271.583 285.597C272.735 284.881 273.273 284.062 273.178 282.663C273.093 281.298 272.112 281.502 271.319 281.286C270.781 281.139 270.272 280.866 269.686 280.866C263.797 280.877 257.823 280.195 252.284 284.289C252.614 281.992 252.935 280.081 253.152 278.147C253.567 274.508 251.736 271.243 251.916 267.604C251.953 266.808 251.038 266.318 250.264 266.512C248.254 267.024 246.253 267.626 244.243 268.161C240.072 269.287 236.174 271.232 232.474 273.848C232.163 272.426 232.342 271.13 232.201 269.844C231.823 266.398 230.964 263.088 230.455 259.688C230.323 258.823 230.757 257.629 229.794 257.265C228.86 256.912 227.954 257.31 227.171 258.118C226.406 258.903 225.755 259.824 224.905 260.552C221.291 263.634 217.053 265.158 213.194 267.615C212.495 268.059 212.231 267.672 211.948 267.194C210.211 264.26 207.682 263.714 204.955 263.714C202.699 263.714 200.443 263.714 197.763 263.714C200.821 260.495 203.756 258.175 206.852 256.127C208.447 255.07 208.966 252.715 207.956 251.225C205.7 247.916 203.52 244.538 201.095 241.387C198.065 237.452 194.621 234.813 189.977 235.404C187.127 235.768 184.428 236.815 182.003 238.851C181.738 237.179 182.05 235.78 182.276 234.358C183.116 229.126 183.531 223.792 185.24 218.799C185.627 217.661 185.532 216.763 184.107 216.785C180.408 216.842 176.887 217.559 173.518 219.549C171.036 221.017 168.875 223.018 166.582 224.952C165.978 220.641 165.968 216.49 165.034 212.452C164.336 209.415 163.024 206.629 162.675 203.49C162.58 202.625 162.703 201.692 161.75 201.533C160.787 201.374 160.051 201.863 159.617 202.966C159.353 203.637 159.145 204.377 158.777 204.957C156.295 208.892 152.982 211.815 149.915 215.705C150 211.974 150.415 208.824 151.255 205.742C151.538 204.695 151.793 203.603 151.104 202.727C150.311 201.727 149.377 202.011 148.32 202.352C146.886 202.807 146.687 204.672 145.319 205.309C142.667 206.538 140.147 208.232 137.637 209.87C134.947 211.633 132.324 213.555 130.276 216.967C130.342 212.475 130.162 208.38 130.634 204.251C130.965 201.328 131.182 198.474 132.682 195.949C133.239 195.005 133.579 193.549 131.946 192.98C131.257 192.741 130.549 192.241 130.03 191.627C126.51 187.464 122.112 186.053 117.28 185.61C118.064 183.324 119.602 181.686 121.14 180.412C123.924 178.103 126.453 175.248 130.03 174.361C131.503 173.997 131.616 171.518 131.833 169.698C132.031 168.083 131.219 167.503 130.181 167.161C129.294 166.866 128.586 166.252 127.973 165.501C125.736 162.783 123.216 160.474 120.715 158.131C116.053 153.763 111.099 150.829 104.917 151.727C103.143 151.989 101.425 152.728 99.5283 152.705C99.6699 152.364 99.7359 152.148 99.8397 151.966C102.133 148.133 104.379 144.232 107.475 141.24C108.315 140.433 108.513 139.398 108.541 138.283C108.551 137.794 108.201 137.328 107.616 137.396C106.031 137.578 104.455 137.226 102.85 137.646C100.387 138.295 97.8767 138.693 95.0927 139.261C97.235 136.543 99.4717 134.348 100.274 130.879C100.68 129.139 101.123 127.581 99.3867 126.364C97.4898 125.033 95.8382 124.851 94.5642 126.454C94.0451 127.103 93.6865 127.364 92.8749 126.955C97.3011 122.519 100.67 117.139 102.048 110.565C103.841 101.978 107.192 93.8685 107.607 84.849C107.645 83.9846 108.286 83.1089 107.484 82.3582C106.682 81.6076 105.851 81.562 104.851 82.1079C103.398 82.8927 102.048 83.8254 100.793 84.9741C96.7537 88.6934 92.3464 91.6051 87.6087 93.8002C77.6144 98.418 67.488 102.478 57.0501 105.413C53.9357 106.289 50.9063 107.665 47.2351 107.699C51.4065 104.446 54.804 100.818 57.3238 96.3026C59.5794 92.2649 61.3819 87.8404 63.2317 83.4842C68.0637 72.099 69.2528 59.6788 70.1871 47.2017C70.3759 44.7222 69.7058 42.3109 69.8191 39.8655C70.0078 35.6913 69.3944 31.5741 69.3189 27.4226C69.2811 25.6255 69.1868 23.7602 68.9791 21.9517C68.2147 15.2867 66.4404 8.78087 66.7141 1.9452C66.7519 0.876063 66.3555 0.443885 65.4589 0.409764C64.0999 0.352895 63.1468 0.716896 62.8447 2.5822C62.2124 6.44931 60.5231 9.67948 58.6262 12.83C56.7009 16.0033 54.9644 19.3245 53.596 22.9186C52.6145 25.4891 51.3782 27.9117 49.5284 29.7201C46.8387 32.3589 44.6209 35.5207 42.422 38.7281C40.8931 40.9574 38.8924 42.5498 36.8256 44.1762C36.3631 40.3546 36.4197 36.7037 35.5798 33.1778C34.2491 27.5819 32.3899 22.3157 29.7474 17.4363C29.2001 16.4355 29.1529 15.0706 27.5485 15.628C25.9724 16.1739 26.7463 17.4592 26.6991 18.3691C26.4821 22.475 26.8973 26.6037 26.0857 30.721C25.057 35.9644 22.9996 40.6845 21.3858 45.6321C20.4326 48.5666 20.1684 51.8308 18.8094 54.5492C15.4685 61.2597 11.9389 67.8452 8.55081 74.5217C6.16312 79.2304 2.407 82.1421 -1.07544 85.4177C-1.07544 86.6575 -1.07544 87.8973 -1.07544 89.137C-0.462002 89.4896 0.0759355 89.1369 0.547811 88.773C3.36019 86.6233 6.34244 84.6784 8.63575 81.7099C12.6278 76.5461 15.7894 70.6204 18.8377 64.6377C20.7063 60.964 22.7826 57.3586 23.6697 53.0706C24.4247 49.3741 25.51 45.8368 26.7557 42.3337C28.6621 36.9766 30.1155 31.4717 30.2571 25.6824C30.342 26.0918 30.5024 26.5923 30.6723 27.0927C32.4277 32.518 33.9282 38.0116 34.0415 43.9147C34.0604 44.6994 34.1642 45.4501 33.7301 46.1325C33.211 46.94 32.607 47.759 33.3997 48.7827C34.1359 49.7381 34.9286 49.2035 35.6931 48.8055C36.0422 48.6235 36.382 48.396 36.7312 48.1912C43.932 43.7782 48.9244 36.2488 54.6624 29.7657C55.1721 29.197 55.5496 28.4235 55.8516 27.6614C57.9656 22.4294 60.9384 17.8799 63.6375 13.1825C63.6375 14.8659 64.0716 16.5037 64.2981 18.1757C65.0342 23.5327 65.1664 28.958 65.3457 34.3378C65.4967 38.8874 66.1196 43.4369 65.7609 47.9978C65.4212 52.3085 64.8172 56.5851 64.3925 60.8731C63.2034 72.9634 58.3902 83.2909 53.9546 93.8344C53.7187 94.3917 53.3412 94.8238 53.0297 95.3129C51.029 98.5545 48.3016 100.988 46.3669 104.298C45.4986 105.777 44.5454 106.994 42.875 107.255C41.7425 107.426 41.5537 108.575 42.3654 109.633C43.0449 110.52 43.9792 110.804 44.9418 111.066C47.8957 111.862 50.8308 111.407 53.7187 110.736C62.7315 108.632 71.6877 106.277 80.4551 102.933C88.3543 99.9194 96.1497 96.712 103.322 90.5701C101.472 96.6892 100.321 102.626 98.9054 108.473C97.6219 113.807 95.1965 118.288 91.95 122.178C90.3079 124.146 88.5525 125.977 87.118 128.161C85.3815 130.799 83.3336 132.983 81.0025 134.814C79.0678 136.338 77.1898 137.965 75.3589 139.66C71.8764 142.856 67.9976 145.301 64.2226 147.94C63.7885 148.247 63.2694 148.713 62.7976 148.338C62.2785 147.917 62.6371 147.2 62.7409 146.62C63.5903 141.855 64.2887 137.055 64.7417 132.21C64.9682 129.821 64.1188 128.854 62.1747 129.275C60.6269 129.617 59.2302 130.435 57.9844 131.539C52.8599 136.122 48.16 141.229 44.5926 147.689C44.3378 148.156 44.1868 148.747 43.6489 149.088C43.0826 145.995 42.271 143.242 41.0536 140.66C40.2608 138.989 39.1661 138.477 37.6466 139.136C36.0328 139.83 34.7116 141.024 33.5319 142.469C30.1532 146.62 26.0291 149.828 22.9713 154.787C22.792 153.388 22.6127 152.33 22.5183 151.249C22.1408 147.166 20.9894 143.424 19.0642 140.046C16.148 134.939 13.9113 134.689 10.2212 139C8.19219 141.366 6.19144 143.754 4.07744 146.029C2.03894 148.224 -0.112814 150.396 -1.066 153.695C-1.066 155.867 -1.066 158.028 -1.066 160.201C-0.301564 158.733 0.396811 157.221 1.24619 155.822C4.64369 150.214 9.72106 146.814 13.7414 142.025C14.6946 140.888 15.1948 141.366 15.8554 142.287C17.8373 145.028 18.6584 148.36 19.3662 151.795C20.2156 155.924 19.9324 160.178 20.4892 164.329C20.6214 165.285 20.9706 166.138 21.6784 166.104C22.4145 166.07 22.4711 165.046 22.4239 164.261C22.3107 162.225 23.0846 160.519 23.8773 158.87C26.8596 152.694 31.9747 149.179 36.2782 144.675C38.2506 142.605 38.4677 142.912 39.3737 145.836C40.8931 150.704 41.1951 155.788 41.2895 160.917C41.3084 162.111 41.5537 163.351 42.5541 163.408C43.5734 163.465 43.5073 162.134 43.63 161.145C44.1019 157.278 44.9512 153.524 46.7349 150.214C49.5851 144.914 53.6526 141.013 57.5597 136.964C58.73 135.747 60.0135 134.723 61.75 134.246C61.1743 138.363 60.6741 142.253 59.8625 146.074C59.2585 148.895 58.7206 151.67 56.9086 153.854C56.012 154.935 56.0403 156.334 57.1728 157.232C58.3242 158.142 58.5884 156.675 58.9376 155.913C60.089 153.388 61.75 151.943 64.1849 151.807C64.7983 151.773 65.3929 151.375 65.9874 151.113C73.4525 147.86 79.5114 141.843 85.5986 136.054C88.3543 133.427 91.1195 131.482 94.4321 130.492C95.4041 130.197 96.3196 129.366 97.6219 129.798C94.6302 135.554 90.3928 139.227 85.7024 142.275C85.004 142.73 84.0131 143.026 84.6265 144.437C85.1456 145.631 85.6363 146.643 87.1086 146.131C90.2984 145.005 93.5166 143.902 96.7726 143.163C98.4807 142.776 100.189 141.673 102.209 142.332C101.897 142.89 101.727 143.311 101.472 143.629C98.8299 146.973 96.8952 150.942 94.6302 154.627C93.9791 155.685 94.2811 156.311 94.7529 157.255C95.3192 158.392 95.9798 158.062 96.6782 157.789C97.4615 157.482 98.1976 157.005 98.9904 156.754C103.426 155.299 107.994 153.82 112.231 157.073C116.771 160.565 121.017 164.591 124.811 169.266C121.621 171.893 118.583 174.623 116.044 178.092C114.355 180.401 113.59 183.233 112.996 186.11C112.599 187.998 113.656 189.374 114.987 189.011C119.234 187.862 123.037 189.431 126.604 191.956C127.831 192.832 129.011 194.083 129.785 195.505C130.361 196.574 129.266 197.905 129.124 199.179C129.03 200.009 128.832 200.817 128.756 201.658C128.152 207.573 128.426 213.521 128.35 219.458C128.341 220.402 128.549 221.267 128.728 222.165C128.851 222.757 129.039 223.257 129.53 223.28C130.059 223.303 130.191 222.757 130.295 222.188C130.719 219.913 131.88 218.196 133.362 216.82C136.778 213.669 140.676 211.679 144.668 209.825C146.216 209.108 146.329 209.995 146.027 211.133C145.177 214.374 145.961 217.547 146.131 220.732C146.216 222.472 146.857 224.156 147.877 225.475C148.471 226.248 149.141 226.556 149.585 225.157C149.877 224.235 150.576 223.28 150.274 222.37C149.556 220.232 150.642 219.072 151.671 217.843C154.568 214.386 157.493 210.962 160.419 207.504C162.561 213.453 163.392 219.868 162.995 226.51C162.939 227.375 162.693 228.421 162.212 229.024C160.664 230.98 162.005 232.379 162.882 233.539C164.09 235.131 164.883 233.414 165.666 232.527C169.979 227.613 174.538 223.155 180.379 221.142C180.955 220.937 181.672 220.152 182.154 220.744C182.616 221.312 182.201 222.256 182.069 223.064C180.974 229.558 179.87 236.053 179.596 242.706C179.549 243.73 179.719 244.799 180.502 245.004C181.314 245.209 181.455 244.117 181.568 243.298C181.597 243.093 181.767 242.911 181.889 242.741C184.985 238.305 192.969 236.269 196.97 240.466C199.821 243.457 202.265 246.915 204.388 250.714C204.785 251.419 204.964 251.749 204.171 252.26C201.095 254.262 198.339 256.833 195.715 259.585C194.035 261.348 192.356 263.157 191.11 265.454C190.411 266.739 190.836 267.797 191.393 268.855C191.77 269.571 192.412 269.549 192.941 269.219C196.716 266.853 200.812 266.899 204.87 267.126C207.248 267.263 209.777 267.638 210.183 271.55C210.249 272.176 210.664 272.813 211.042 273.302C211.542 273.939 212.25 274.383 212.939 273.837C217.422 270.345 222.707 268.684 227.019 264.851C228.01 263.975 228.237 264.351 228.529 265.522C229.407 269.037 229.332 272.642 229.266 276.236C229.237 277.453 229.483 278.511 230.049 279.467C230.691 280.558 231.408 280.9 232.371 279.819C236.957 274.712 242.79 272.984 248.603 271.232C249.301 271.016 249.82 271.05 250.151 272.244C251.67 277.726 250.66 282.651 248.008 287.189C247.253 288.475 246.036 289.362 245.092 290.511C244.035 291.819 245.168 292.842 245.64 293.729C246.102 294.617 246.904 294.389 247.537 293.57C249.82 290.59 252.718 288.657 255.738 287.087C259.39 285.176 263.269 284.608 267.638 284.699C264.354 288.452 261.495 291.853 260.022 296.539C259.664 297.688 259.267 298.779 259.315 300.042C259.343 300.849 259.739 301.418 260.239 301.68C260.938 302.055 261.042 301.031 261.249 300.633C262.259 298.688 263.571 297.153 265.355 296.391C268.507 295.037 271.744 294.901 275.245 295.583C272.81 300.156 269.819 303.761 266.421 306.889C265.723 307.537 264.694 307.81 265.421 309.277C266.025 310.495 266.761 310.324 267.705 309.812C271.819 307.594 276.076 305.911 280.568 305.228C282.389 304.955 284.239 304.876 286.079 304.705C285.768 305.615 285.362 306.127 284.9 306.514C282.512 308.538 280.728 311.313 278.624 313.679C277.529 314.919 277.755 316.102 278.52 317.569C279.181 318.831 280.039 318.866 280.785 318.377C285.136 315.533 289.968 315.601 294.667 314.93C296.574 314.657 298.565 314.635 300.707 315.09C299.858 316.488 298.971 317.433 298.056 318.377C294.375 322.175 290.458 325.644 287.089 329.887C286.429 330.729 286.079 331.411 286.806 332.435C287.429 333.31 287.957 333.629 288.911 332.912C291.666 330.831 294.762 330.33 297.914 330.694C299.717 330.899 301.519 331.32 303.171 332.435C304.652 333.447 305.03 335.153 305.096 336.87C305.162 338.463 303.718 338.11 302.935 338.554C298.622 341.01 294.432 343.672 291.053 347.857C290.071 349.063 289.269 350.269 290.147 352.077C290.987 353.806 292.204 353.578 293.488 353.124C296.008 352.248 298.556 352.373 301.472 352.6C300.632 353.442 300.094 353.977 299.566 354.522C297.782 356.399 295.96 358.242 294.715 360.71C293.025 364.065 294.063 366.556 297.319 366.977C296.527 367.75 295.385 368.387 296.102 369.889C296.64 371.015 297.102 371.981 298.697 371.856C300.302 371.742 301.746 370.469 303.756 371.765C306.257 373.392 309.097 374.415 311.608 376.156C313.741 377.646 315.94 379.147 317.402 381.649C318.516 383.548 318.167 384.299 316.317 385.016C313.316 386.187 310.419 387.666 307.55 389.258C305.096 390.612 303.029 392.909 300.264 393.512C299.433 393.694 299.122 394.524 299.518 395.434C300.028 396.617 300.377 397.88 301.547 398.596C303.18 399.586 304.671 400.905 306.21 402.111C309.097 404.363 311.495 407.013 312.306 411.335C312.533 412.563 312.183 412.995 311.504 413.155C307.049 414.178 302.755 416.1 298.197 416.51C296.734 416.635 296.366 417.374 296.923 418.887C297.225 419.706 297.518 420.548 298.065 421.23C300.292 424.005 302.538 426.769 304.643 429.669C305.813 431.285 307.285 432.706 307.899 435.117C305.908 435.117 304.086 434.879 302.34 435.186C300.67 435.481 299.462 434.947 298.291 433.628C297.848 433.127 297.216 432.831 296.64 432.524C293.997 431.137 291.27 430.272 288.354 430.466C287.731 430.511 287.146 430.761 286.882 431.364C286.58 432.058 287.287 432.445 287.58 432.831C288.637 434.23 290.024 434.879 291.581 435.14C295.668 435.823 299.028 437.881 301.094 442.476C302.359 445.286 303.822 447.97 305.2 450.7C306.068 452.417 306.644 454.248 306.691 456.284C306.71 456.853 306.851 457.387 305.898 457.205C302.217 456.489 298.631 455.374 295.177 453.691C294.111 453.179 292.874 452.667 292.242 453.953C291.666 455.113 292.695 456.159 293.431 457.001C293.894 457.535 294.356 458.07 294.809 458.627C296.932 461.232 298.452 464.155 299.169 467.829C299.594 469.978 298.98 470.081 297.687 469.944C294.903 469.648 292.119 469.239 289.326 469.034C283.38 468.625 277.444 469.592 271.498 469.489C271.13 469.489 270.762 469.694 270.385 469.739C267.988 470.047 265.94 471.605 263.429 472.879C265.09 467.658 266.515 462.835 268.639 458.331C270.007 455.42 271.659 452.679 272.65 449.528C273.131 448.004 272.706 447.197 271.262 447.162C270.281 447.14 269.384 447.617 268.45 447.617C263.741 447.663 259.381 448.982 255.398 452.815C256.804 445.638 258.371 438.928 260.249 432.331C260.541 431.319 261.363 430.238 260.343 429.18C259.456 428.259 258.484 428.521 257.484 429.021C256.096 429.726 254.643 430.25 253.265 430.977C249.245 433.104 245.309 435.391 242.535 439.781C241.317 441.714 240.581 443.955 239.468 446.082C237.457 443.511 234.862 442.021 232.795 439.803C228.558 435.231 223.556 434.128 218.167 434.185C217.346 434.185 216.214 433.969 215.959 434.992C215.685 436.061 216.582 436.835 217.374 437.438C222.461 441.271 226.576 446.309 229.86 452.337C230.37 453.27 231.163 454.123 231.163 455.397C227.406 454.919 223.782 454.885 220.158 455.317C215.6 455.863 212.127 459.105 208.597 462.199C208.107 462.631 207.758 463.131 208.078 463.95C208.682 465.486 209.239 466.885 210.929 467.203C215.043 467.954 218.903 469.887 222.839 471.457C224.198 472.003 225.708 472.469 226.982 474.107C211.646 474.187 196.593 474.232 181.55 473.595C180.738 472.742 179.738 472.947 178.794 472.924C169.177 472.697 159.56 472.901 149.934 472.571C134.485 472.037 119.017 472.719 103.568 472.014C98.443 471.787 93.2996 472.071 88.175 471.9C87.269 471.866 86.3724 471.946 85.6174 472.662C73.6412 472.992 61.6462 472.355 49.6794 473.026C51.6613 471.389 53.7281 469.808 55.6628 468.022C57.5314 466.305 59.485 464.712 61.0988 462.608C61.6651 461.869 61.9576 460.993 61.6839 460.06C61.3819 459.014 60.542 459.264 59.8531 459.275C54.8606 459.366 49.8682 459.31 44.8946 458.764C42.3182 458.479 39.7701 457.854 37.4767 455.693C38.3544 455.443 38.9773 455.113 39.5907 455.124C45.3287 455.17 50.9346 453.941 56.5688 452.815C62.6937 451.587 68.243 448.561 73.7356 445.32C75.3777 444.353 75.7175 442.34 74.5189 440.554C70.8666 435.083 68.0354 428.703 62.4484 425.074C66.2234 424.017 69.451 422.333 72.7352 420.775C80.7854 416.931 88.0712 411.551 94.2811 404.374C100.434 397.277 106.125 389.599 112.024 382.184C112.571 381.501 112.797 380.637 113.099 379.795C113.647 378.237 113.184 377.52 111.891 377.589C108.56 377.771 105.257 377.202 101.944 377.122C97.9051 377.031 93.8564 377.088 89.8077 377.1C85.0323 377.122 80.3419 377.93 75.6326 378.84C73.2637 379.295 70.9327 380.17 68.3185 379.966C68.4978 379.477 68.8753 379.329 69.1868 379.056C73.2354 375.541 76.9161 371.492 80.625 367.511C84.5416 363.303 87.9391 358.446 91.0912 353.408C94.3943 348.142 96.782 342.353 97.6597 335.676C98.0372 332.81 97.6408 329.978 98.0372 327.169C98.3109 325.224 97.6031 324.279 95.9987 324.678C95.0172 324.916 94.064 325.36 93.0731 325.553C87.722 326.6 82.3804 327.635 77.0954 329.091C71.1781 330.717 65.5061 333.208 59.9852 336.233C53.6526 339.702 47.1974 342.864 41.3178 347.425C38.7603 349.416 36.6651 352.111 34.0321 354.147C35.9573 349.746 36.1649 345.037 35.8912 340.294C35.7686 338.156 35.3156 336.006 35.5987 333.879C36.0517 330.444 35.3061 329.693 32.4088 330.421C29.1246 331.252 26.5009 333.526 23.9339 335.824C19.1963 340.066 13.6376 343.183 9.96643 348.892C6.23862 354.682 2.52025 360.494 -1.04713 366.42C-1.04713 368.126 -1.04713 369.82 -1.04713 371.526C-0.414814 371.06 -0.301564 370.173 0.0570606 369.49C2.49194 364.873 5.81394 361.131 8.60744 356.877C10.3817 354.17 12.0427 351.383 14.3832 349.256C18.8188 345.23 23.7074 342.068 28.2846 338.303C29.6247 337.2 31.0498 336.222 32.4371 335.915C34.9286 345.731 31.6632 354.193 27.6334 362.905C29.0302 362.291 29.7852 361.836 30.5024 361.176C33.9471 358.048 37.0615 354.409 40.7044 351.588C50.1796 344.252 60.6741 339.68 71.2441 335.346C76.6046 333.151 82.2388 332.298 87.7975 331.161C89.7227 330.763 91.6669 330.49 93.611 330.239C94.0734 330.183 95.0361 329.932 94.7246 331.127C94.1584 333.322 94.366 335.608 93.8469 337.86C92.101 345.458 87.9391 351.099 83.7866 356.763C80.2664 361.574 76.2743 365.794 72.1784 369.9C67.79 374.302 63.4299 378.703 58.3525 381.979C54.9456 384.174 51.5481 386.46 48.8961 389.998C48.1883 390.942 47.3956 391.601 48.3959 393.046C49.3963 394.479 50.1985 393.649 51.0196 393.012C52.7561 391.647 54.3416 389.941 56.1724 388.826C64.8077 383.583 74.2264 382.059 83.6827 380.842C89.3736 380.114 95.0738 380.796 100.765 380.876C102.888 380.898 105.021 381.456 107.116 381.274C107.305 381.979 106.965 382.206 106.767 382.457C102.595 387.802 98.443 393.194 94.2056 398.46C92.6956 400.336 90.9874 401.974 89.3169 403.646C83.8621 409.083 77.7749 413.2 71.2441 416.498C66.2139 419.035 61.1177 421.275 55.6628 421.628C50.6043 421.958 45.5269 421.651 40.4496 421.742C39.6285 421.753 38.3167 420.582 38.0807 421.89C37.9014 422.902 39.5247 423.004 40.3363 423.346C45.3665 425.45 50.4627 426.962 55.9082 425.95C57.8429 425.586 59.8153 425.654 61.7311 427.19C66.2517 430.795 68.6488 436.437 71.7443 441.419C72.3294 442.363 71.6594 442.34 71.2158 442.601C61.8538 447.959 51.8689 449.699 41.6481 450.006C39.2699 450.074 36.9011 450.051 34.5228 450.006C33.1638 449.983 31.9275 450.518 30.6534 450.961C29.5209 451.359 29.4266 452.258 29.7569 453.452C30.4081 455.806 32.0879 457.012 33.5602 458.411C37.4484 462.085 42.0162 463.325 46.8387 463.461C49.5379 463.541 52.2464 463.472 55.1721 463.472C51.2177 467.59 46.7349 469.671 42.3843 472.094C34.7682 476.336 26.9445 478.167 18.6489 475.995C15.3269 475.131 12.1371 473.993 10.561 469.774C9.2775 466.339 7.41831 463.222 6.60669 459.503C6.4085 458.604 5.9555 457.786 5.52137 456.66C3.93587 459.617 4.03969 462.346 5.09669 465.076C5.62519 466.43 5.37037 467.089 4.20012 467.556C2.41644 468.272 0.679935 469.148 -1.07544 469.955C-1.07544 471.195 -1.07544 472.435 -1.07544 473.675C1.09519 472.526 3.32244 471.491 5.41756 470.172C6.60669 469.421 6.95587 469.626 7.49381 471.093C8.72069 474.425 10.2307 477.69 13.2696 479.077C21.5651 482.853 29.9173 482.273 38.2223 479.066C41.5254 477.792 44.2623 475.21 48.3016 475.802C55.5118 476.859 62.8542 476.279 70.1305 476.894C74.6511 477.269 79.1905 476.791 83.7394 477.303C88.7601 477.872 93.8281 477.303 98.896 477.758C105.342 478.338 111.825 477.712 118.299 478.236C125.708 478.827 133.154 478.122 140.6 478.702C148.462 479.305 156.351 478.577 164.241 479.18C171.782 479.76 179.36 479.066 186.938 479.635C194.8 480.215 202.699 479.544 210.589 480.101C216.799 480.533 223.037 480.192 229.266 480.192C231.068 480.192 232.927 477.041 231.804 475.472C230.398 473.516 229.671 470.968 227.68 469.489C223.518 466.396 218.903 464.758 214.298 462.665C214.609 462.324 214.892 461.891 215.251 461.618C220.215 457.876 225.764 458.297 231.257 458.457C231.899 458.479 232.597 459.241 233.163 458.422C233.824 457.456 233.503 456.386 233.059 455.442C229.568 448.072 225.358 441.453 219.054 436.607C222.046 436.391 224.868 436.073 227.029 438.029C231.389 441.965 236.844 444.535 239.071 451.325C239.317 452.076 239.854 452.781 240.647 452.77C241.534 452.758 241.421 451.792 241.657 451.12C242.79 447.856 243.979 444.615 246.064 442.033C248.735 438.712 252.142 436.914 256.162 435.14C255.219 436.255 255.36 437.279 255.172 438.188C253.822 444.649 252.784 451.189 252.359 457.842C252.303 458.684 252.303 459.526 252.727 460.265C253.01 460.754 253.256 461.402 253.803 461.3C254.266 461.22 254.464 460.583 254.605 460.083C256.238 454.51 262.552 450.347 267.374 451.735C267.091 452.485 266.855 453.247 266.525 453.953C263.193 461.038 261.174 468.704 259.73 476.62C259.56 477.565 259.89 478.213 260.447 478.748C260.806 479.089 261.098 479.111 261.542 478.668C265.1 475.096 268.799 473.436 273.839 473.857C281.125 474.471 288.476 475.051 295.819 475.074C296.876 475.074 297.914 475.028 298.999 475.449C300.519 476.041 302.189 474.607 302.359 472.606C302.51 470.786 302.538 468.932 302.274 467.078C301.859 464.166 300.66 461.653 299.405 458.957C301.878 459.457 304.067 460.163 306.361 460.242C308.003 460.299 308.475 459.275 308.578 457.649C308.805 454.294 308.097 451.234 306.672 448.334C305.03 444.99 303.52 441.544 301.953 438.143C302.019 437.961 302.085 437.79 302.151 437.608C304.294 438.734 306.549 437.995 308.71 438.677C309.937 439.064 310.74 438.905 311.042 437.096C311.532 434.173 310.371 431.956 309.022 429.908C307.163 427.088 305.086 424.494 303.123 421.776C302.491 420.9 301.547 420.15 303.558 419.672C306.285 419.012 308.928 417.772 311.598 416.76C314.071 415.816 315.194 413.814 314.713 410.778C314.071 406.694 312.476 403.282 309.815 400.473C308.286 398.869 306.436 397.766 305.077 395.787C309.031 392.625 313.316 390.327 317.686 388.212C318.686 387.723 319.601 387.097 319.715 385.778C319.922 383.31 319.686 380.989 318.12 378.988L318.205 378.897Z" fill="#301902"/>
<path d="M31.7387 217.684C31.852 219.697 32.8052 220.311 34.1642 219.219C34.8625 218.651 35.6459 218.389 36.4575 218.173C39.8927 217.274 43.394 216.683 46.7727 215.466C47.4994 215.364 48.2355 215.284 48.8395 214.135C44.0075 213.396 39.4681 214.533 35.0041 215.193C35.0891 210.507 37.4673 208.062 40.6006 206.31C41.3367 205.901 42.0634 205.377 42.6674 204.729C44.2151 203.046 46.0554 202.511 48.0467 202.386C48.6224 202.352 49.3491 202.727 49.5662 201.579C49.7455 200.634 49.1132 200.487 48.7168 200.077C46.3857 197.711 44.0641 195.346 41.733 192.969C43.8565 190.432 44.9796 189.682 47.3484 189.829C52.1804 190.114 56.0497 192.855 59.2679 197.052C59.6171 197.507 59.8908 198.223 60.4099 198.098C60.9856 197.95 61.1932 197.154 61.3631 196.494C61.5329 195.846 61.4102 195.164 61.5801 194.458C63.1562 188.191 67.5541 185.507 71.8198 182.687C72.9334 181.947 72.5087 183.21 72.4427 183.744C72.1501 185.928 71.716 188.089 71.8104 190.307C71.9614 193.662 71.5272 196.847 70.3287 199.895C70.0644 200.566 69.9984 201.351 69.8851 202.09C69.7907 202.739 69.904 203.376 70.4231 203.694C70.9799 204.035 71.1686 203.307 71.4895 203C74.6039 199.986 78.1429 199.156 82.1916 199.77C81.4555 200.862 80.8421 201.738 80.2664 202.648C78.9357 204.763 77.4446 206.845 76.8972 209.438C76.6424 210.632 76.246 211.246 75.5004 211.906C73.2449 213.896 70.7439 215.557 68.9414 218.184C67.1011 220.88 65.8081 224.065 63.713 226.544C63.6752 227.192 62.7032 227.374 63.26 228.671C64.6662 226.976 66.2706 225.6 67.2521 223.746C68.7998 220.823 70.9138 218.992 73.4147 217.593C74.8492 216.797 76.2366 215.932 77.5956 214.954C79.7756 213.385 82.1633 212.384 84.6359 211.747C85.7496 211.462 86.9009 211.303 86.1176 213.623C85.6835 214.92 85.8062 216.478 85.608 217.9C85.4664 218.935 85.7401 219.686 86.5706 219.106C90.2135 216.569 94.1395 217.445 97.9522 217.229C98.1032 217.991 97.7541 218.162 97.5653 218.457C95.6684 221.449 94.4226 224.747 94.5453 228.591C94.5925 230.15 94.9417 231.446 96.7537 230.798C98.3581 230.218 100.047 229.99 101.737 229.604C101.982 230.423 101.661 231.446 102.218 232.22C102.539 232.663 102.765 233.425 103.341 233.243C103.832 233.084 103.785 232.39 103.775 231.844C103.756 230.604 103.851 229.353 103.7 228.148C103.426 225.93 102.935 225.725 101.152 226.521C99.8303 227.113 98.4807 227.682 97.0274 227.386C97.1123 226.817 97.1312 226.339 97.2633 225.919C98.1127 223.177 99.0187 220.482 101.435 219.128C102.256 218.662 102.567 217.741 102.586 216.694C102.595 216.103 102.237 216.012 101.831 215.887C98.0844 214.761 94.3471 214.784 90.5532 215.671C89.4962 215.921 88.0712 217.058 87.3822 215.989C86.6556 214.863 87.9296 213.339 88.0806 211.917C88.0806 211.849 88.1467 211.792 88.175 211.724C89.4585 208.79 89.4113 208.539 86.7782 208.084C85.608 207.88 84.3811 207.811 83.1637 208.266C82.1822 208.63 81.1252 208.744 79.7095 209.051C81.4177 206.162 82.7296 203.512 84.7586 201.601C85.5231 200.873 85.6741 200.054 85.6646 199.042C85.6457 197.837 84.7397 197.996 84.1829 197.598C83.6356 197.2 83.0599 197.393 82.4936 197.336C79.266 197.029 76.1516 197.666 72.9712 199.304C74.1981 195.687 74.1131 192.218 74.5001 188.851C74.8021 186.247 74.8209 183.494 76.6329 181.515C77.0387 181.071 77.0576 180.412 77.2841 179.889C77.973 178.239 77.4068 177.807 76.1233 177.83C73.1788 177.887 70.5363 179.115 68.1675 181.094C64.5057 184.142 60.7591 187.122 59.4944 192.809C59.183 194.197 58.5507 193.003 58.1637 192.718C55.5401 190.739 52.8693 189.01 49.8399 187.975C46.2442 186.758 43.4696 188.601 40.5722 190.603C38.2034 192.241 38.1468 193.151 40.3741 195.084C42.4126 196.87 44.3756 198.792 46.6122 200.885C43.0732 201.851 40.3929 204.069 37.4956 205.696C34.5322 207.368 31.5217 213.76 31.7387 217.729V217.684Z" fill="#301902"/>
<path d="M207.069 378.931C207.635 378.351 207.842 377.532 207.739 376.622C207.682 376.11 207.361 376.03 207.05 376.042C205.257 376.087 203.454 375.973 201.689 376.258C197.716 376.906 194.139 378.726 191.27 382.718C191.214 381.331 190.893 380.443 190.761 379.465C190.411 376.781 190.213 374.04 189.269 371.515C189.062 370.958 189.081 370.014 188.297 370.048C187.58 370.082 187.184 370.742 186.957 371.492C186.051 374.563 185.013 377.589 184.343 380.728C183.909 382.786 183.088 384.857 183.692 387.256C180.077 385.346 176.425 385.766 172.82 385.869C171.999 385.892 170.791 385.892 170.432 387.291C170.092 388.61 170.866 389.417 171.565 390.248C173.679 392.75 175.812 395.229 177.605 398.346C175.104 398.346 172.801 398.369 170.498 398.346C169.451 398.334 168.177 398.312 167.837 399.574C167.478 400.894 168.413 401.838 169.375 402.634C171.083 404.033 172.924 405.295 174.037 407.695C171.716 406.08 168.951 406.251 166.61 404.727C165.176 403.794 163.864 404.647 162.665 405.42C161.863 405.944 162.373 406.888 162.731 407.627C163.817 408.605 164.902 409.583 166.28 410.812C162.948 410.846 160.211 411.915 157.673 413.712C156.748 414.372 155.88 415.168 154.823 415.498C154.407 415.634 153.898 415.463 153.822 416.248C153.737 417.101 154.049 417.818 154.577 418.216C155.04 418.568 155.662 418.728 156.219 418.751C157.795 418.819 158.767 419.763 159.428 421.469C157.541 421.799 155.729 421.173 153.983 421.992C153.558 422.185 152.973 422.174 153.152 422.902C153.313 423.539 153.813 422.982 154.096 422.925C156.257 422.492 158.371 422.515 160.419 423.539C160.976 423.812 161.523 424.13 161.995 423.493C162.486 422.834 162.335 422.117 162.014 421.366C161.155 419.342 160.07 417.545 158.494 416.157C160.957 413.996 163.684 413.371 166.412 412.722C168.101 412.324 168.375 411.323 167.318 409.731C166.714 408.833 166.129 407.923 165.581 407.104C166.365 406.501 167.507 405.716 168.856 406.774C171.3 407.115 173.131 409.276 175.453 409.993C175.963 410.152 176.434 410.869 176.963 410.061C177.435 409.344 176.953 408.764 176.765 408.161C176.104 406.069 174.943 404.385 173.311 402.52C175.396 402.52 177.105 402.497 178.803 402.52C179.851 402.531 180.946 402.52 181.417 401.178C181.899 399.813 181.417 398.721 180.502 397.732C177.982 395.002 175.859 391.817 173.471 388.689C174.679 388.485 175.679 388.303 176.793 388.417C179.077 388.655 181.323 388.86 183.503 389.884C184.06 390.145 184.909 390.384 185.438 389.508C185.947 388.655 185.957 387.745 185.372 386.961C184.966 386.426 184.985 385.823 185.032 385.22C185.372 380.728 186.74 376.61 188.222 371.89C188.533 373.278 188.75 374.029 188.864 374.802C189.392 378.317 189.93 381.831 190.383 385.368C190.487 386.164 190.817 386.813 191.308 386.961C191.77 387.097 192.176 386.381 192.289 385.789C192.629 383.992 193.894 383.241 194.989 382.434C197.329 380.716 199.773 379.226 202.963 379.397C202.17 380.671 201.548 381.615 200.972 382.593C198.329 387.074 195.319 391.249 193.205 396.173C192.742 397.243 192.355 398.346 193.205 399.335C194.092 400.382 194.894 399.461 195.555 398.835C198.32 396.196 201.491 396.378 205.011 396.617C203.35 398.733 202.406 400.939 201.604 403.271C200.915 405.272 200.651 407.559 199.113 409.06C198.735 409.435 198.867 409.993 199.132 410.527C199.99 412.245 200.868 411.71 201.916 410.755C204.124 408.73 206.285 406.535 209.381 406.853C210.089 406.922 210.438 406.16 210.447 405.25C210.447 404.306 210.343 403.555 209.371 403.475C207.757 403.35 206.229 403.623 204.766 404.533C204.039 404.988 203.36 405.693 202.255 405.727C203.265 402.839 203.992 400.086 205.842 398.039C206.417 397.402 207.522 396.822 207.201 395.775C206.88 394.729 205.644 395.025 204.832 394.672C204.549 394.547 204.2 394.672 203.879 394.638C201.189 394.445 198.565 394.968 195.47 396.173C199.603 390.111 202.454 383.685 207.059 378.953L207.069 378.931Z" fill="#301902"/>
<path d="M160.627 309.278C159.655 309.824 158.701 310.404 157.767 311.03C155.615 312.486 153.586 314.101 152.284 317.103C153.35 316.887 153.935 316.216 154.568 315.636C157.418 312.497 160.9 310.859 164.553 309.688C165.468 309.392 166.129 308.983 166.138 307.811C166.148 306.628 165.506 306.219 164.59 305.889C162.637 305.206 160.674 305.548 158.711 305.491C157.984 305.468 157.069 305.411 156.861 304.774C156.654 304.137 157.493 303.591 158.031 303.17C160.627 301.135 163.411 299.781 166.553 299.918C167.601 299.963 168.082 299.349 168.384 298.348C168.705 297.302 168.035 296.949 167.507 296.346C165.298 293.855 163.335 291.091 161.325 287.964C161.844 287.895 162.071 287.85 162.307 287.827C164.949 287.554 167.186 289.147 169.517 290.216C170.97 290.887 171.3 290.17 171.131 288.703C170.442 282.971 172.792 277.978 177.331 275.839C177.331 276.658 177.331 277.409 177.331 278.171C177.369 282.152 176.737 286.132 177.331 290.113C177.652 292.217 177.246 294.629 179.162 296.164C180.88 290.5 185.343 290.102 189.222 288.43C187.288 293.036 185.674 297.643 184.73 302.647C184.419 304.331 184.777 305.002 185.608 305.866C187.873 302.989 190.732 302.454 194.347 302.465C191.855 305.206 189.921 307.629 188.524 310.586C188.345 311.553 188.722 312.247 189.354 312.736C189.902 313.157 190.223 312.543 190.44 312.156C192.035 309.221 194.309 307.049 196.367 304.661C197.348 303.523 197.678 302.215 197.244 300.953C196.857 299.827 195.687 299.485 194.649 299.463C192.365 299.406 190.072 299.303 187.873 300.35C187.552 300.498 187.137 301.237 186.712 300.577C186.448 300.179 186.74 299.736 186.825 299.303C187.505 295.766 189.024 292.695 190.374 289.522C190.779 288.578 192.072 287.827 191.393 286.599C190.685 285.325 189.373 286.189 188.335 286.019C188.109 285.985 187.873 286.246 187.627 286.292C184.626 286.929 181.993 288.692 179.455 290.364C178.832 288.066 178.879 285.769 178.86 283.46C178.841 280.389 179.426 277.363 179.294 274.27C179.209 272.404 178.728 272.12 177.444 272.939C175.274 274.338 173.462 276.203 171.942 278.523C170.168 281.23 169.404 284.335 169.583 288.112C166.506 286.087 163.515 285.803 160.438 285.973C158.626 286.076 158.418 286.405 159.258 288.407C159.862 289.84 160.646 291.137 161.561 292.32C162.656 293.753 163.656 295.289 164.779 296.892C163.703 297.177 162.882 297.324 162.108 297.62C159.136 298.746 156.521 300.577 154.539 303.546C153.917 304.479 153.511 305.559 153.983 306.742C154.398 307.8 155.247 307.857 156.125 307.822C157.531 307.766 158.947 307.8 160.353 307.822C160.797 307.822 161.401 307.8 161.504 308.391C161.637 309.096 161.004 309.073 160.608 309.29L160.627 309.278Z" fill="#301902"/>
<path d="M231.804 382.127C231.389 382.514 231.059 382.969 231.427 383.708C231.823 384.516 232.427 384.049 232.776 383.879C233.767 383.412 234.758 382.844 235.627 382.104C238.731 379.42 242.025 377.521 245.989 377.896C246.904 377.987 247.924 377.748 248.131 376.452C248.386 374.927 248.329 373.335 247.074 372.311C246.13 371.538 245.14 370.878 244.045 370.446C243.318 370.162 242.506 369.923 241.921 369.002C243.828 367.728 245.762 368.308 247.622 368.16C248.169 368.114 248.896 368.501 249.235 367.853C249.603 367.136 249.15 366.477 248.801 365.783C247.725 363.645 247.112 361.313 247.103 358.458C248.188 359.505 249.094 360.335 249.953 361.233C251.019 362.348 251.916 362.143 251.972 360.471C252.038 358.731 252.897 358.06 253.888 357.355C255.445 356.252 257.059 355.342 258.843 354.921C259.079 355.433 258.881 355.808 258.72 356.24C257.899 358.538 257.163 360.881 257.059 363.417C257.002 364.771 257.144 365.487 258.701 365.135C260.73 364.668 262.863 364.077 265.015 365.1C263.533 367.603 262.976 370.594 262.231 373.483C261.778 375.212 262.363 375.963 263.807 375.667C264.647 375.496 265.317 375.928 265.949 376.452C266.874 377.225 267.761 378.055 268.78 378.976C269.158 377.759 269.045 376.986 268.233 376.269C267.318 375.462 267.45 375.03 268.611 374.598C270.772 373.801 272.857 372.732 275.198 371.675C273.66 370.958 272.537 372.209 271.319 371.822C269.875 372.562 268.412 373.267 266.978 374.063C266.147 374.529 265.383 374.052 264.807 373.642C264.128 373.165 264.836 372.346 264.996 371.697C265.553 369.445 266.44 367.443 267.978 365.908C268.62 365.271 268.809 364.384 268.696 363.417C268.611 362.757 268.224 362.598 267.714 362.598C265.081 362.621 262.42 362.314 259.834 362.735C258.059 363.019 258.522 362.212 258.833 361.142C259.475 358.913 260.183 356.707 260.796 354.466C261.164 353.124 260.966 352.168 259.503 352.384C255.813 352.93 252.605 354.602 250.198 358.276C248.952 356.581 247.395 355.308 246.432 353.329C246.046 352.532 245.347 352.066 244.63 352.532C244.13 352.851 244.309 353.624 244.517 354.204C245.923 358.049 245.668 362.439 247.565 366.317C246.017 366.317 244.809 366.272 243.592 366.317C241.374 366.408 239.515 367.819 239.203 369.582C240.638 372.198 243.063 373.085 245.347 374.404C244.715 374.825 244.29 375.075 243.743 375.143C239.081 375.746 235.381 378.806 231.795 382.127H231.804Z" fill="#301902"/>
<path d="M223.48 364.031C227.218 360.619 230.955 358.367 234.947 356.672C235.91 356.263 236.9 355.91 237.816 355.364C239.713 354.238 239.836 352.919 238.439 351.031C235.815 347.494 232.201 345.981 228.794 344.059C225.679 342.307 222.471 340.817 218.667 339.316C222.216 337.849 225.358 337.178 228.511 336.609C234.201 335.574 239.836 336.052 245.404 337.849C247.48 338.52 248.66 337.724 249.301 335.13C250.113 331.821 250.604 328.408 250.887 324.962C250.943 324.257 250.925 323.313 251.425 323.097C252.067 322.824 252.227 323.859 252.595 324.348C254.634 327.055 255.794 330.478 257.654 333.322C258.229 334.209 257.805 334.38 257.304 334.869C253.784 338.327 251.208 342.512 250.349 348.051C250.17 349.211 250 350.371 250.236 351.475C250.424 352.362 250.387 352.987 249.754 353.465C249.037 354.011 248.763 353.112 248.31 352.771C247.338 352.043 246.423 351.304 245.592 350.28C244.639 349.109 243.148 349.2 242.006 350.007C240.789 350.872 241.119 352.555 241.402 353.818C241.77 355.433 242.393 357.002 243.101 358.458C244.894 362.098 243.846 365.453 240.496 366.431C240.27 366.5 239.977 366.431 239.769 366.317C234.72 363.246 229.379 362.974 223.48 364.043V364.031Z" fill="#DBCE02"/>
</svg>
