<svg width="2003" height="500" viewBox="0 0 2003 500" fill="none" xmlns="http://www.w3.org/2000/svg">
<mask id="mask0_44_6289" style="mask-type:luminance" maskUnits="userSpaceOnUse" x="-1" y="44" width="2004" height="456">
<path d="M2002.17 44.6489H-0.826416V499.577H2002.17V44.6489Z" fill="white"/>
</mask>
<g mask="url(#mask0_44_6289)">
<path d="M1000.67 835.894C1553.79 835.894 2002.17 696.863 2002.17 525.36C2002.17 353.857 1553.79 214.826 1000.67 214.826C447.561 214.826 -0.826172 353.857 -0.826172 525.36C-0.826172 696.863 447.561 835.894 1000.67 835.894Z" fill="#097257"/>
</g>
<path d="M935.764 215.014C933.874 215.014 931.996 215.014 929.73 215.014C931.558 210.941 931.457 206.915 931.357 202.994C931.245 198.558 931.595 194.111 930.932 189.663C929.73 181.576 926.538 174.12 923.02 166.746C922.557 165.763 922.093 164.78 921.668 163.774C921.305 162.943 920.716 162.568 919.74 162.72C918.876 162.849 918.463 163.329 918.4 164.125C918.112 167.753 916.961 171.194 915.847 174.635C915.408 175.993 915.371 177.315 915.721 178.72C915.997 179.808 916.172 180.99 915.496 182.067C915.496 182.266 915.496 182.465 915.484 182.664C915.571 182.957 915.771 183.261 915.734 183.542C915.171 187.708 915.171 191.887 915.408 196.077C915.471 197.142 916.185 198.125 915.646 199.576C911.49 192.835 907.259 186.409 902.539 180.288C899.347 175.794 895.654 171.721 891.135 168.338C890.809 168.104 890.496 167.858 890.183 167.612C889.344 166.992 888.456 167.261 887.617 167.566C886.703 167.893 886.64 168.643 886.653 169.473C886.69 171.814 887.592 173.968 888.255 176.168C888.581 177.268 888.981 178.357 889.344 179.457C890.383 183.226 891.748 186.901 893.263 190.529C893.826 191.875 894.665 193.139 894.665 194.649C896.267 196.627 896.906 199.015 898.07 201.086C897.757 201.496 897.507 201.332 897.319 201.238C893.188 199.19 888.643 198.406 884.162 197.411C882.221 196.978 880.256 196.943 878.278 196.908C874.097 196.838 869.928 196.686 865.747 196.697C862.855 196.697 860.051 197.388 857.309 198.207C855.732 198.675 855.556 199.658 856.658 200.864C857.134 201.391 857.647 201.952 858.273 202.268C863.243 204.832 868.15 207.535 873.558 209.197C875.499 209.794 877.577 210.017 879.567 210.485C880.143 210.625 880.869 210.613 881.37 211.433C878.991 211.936 876.713 212.486 874.397 212.556C870.917 212.662 867.587 213.61 864.157 213.984C863.643 214.043 863.118 214.171 863.068 214.722C863.017 215.237 863.493 215.529 863.919 215.763C864.645 216.161 865.459 216.278 866.285 216.325C872.356 216.606 878.428 217.062 884.5 217.133C890.246 217.203 895.992 217.39 901.75 216.852C906.395 216.419 911.102 216.547 915.759 216.161C919.402 215.857 922.97 215.962 926.538 216.7C927.189 216.828 927.965 216.981 928.378 216.419C929.292 215.19 930.569 215.354 931.883 215.283C933.173 215.213 934.525 215.658 935.764 214.991V215.014Z" fill="#DBCE02" stroke="#301902" stroke-width="2" stroke-linecap="round" stroke-linejoin="round"/>
<path d="M932.171 156.377V156.364" stroke="#301902" stroke-width="2" stroke-linecap="round" stroke-linejoin="round"/>
<path d="M932.184 156.377C932.497 156.798 933.073 157.231 934.049 157.664C938.819 159.771 946.768 161.444 953.052 162.978C959.337 164.511 962.041 164.148 969.076 162.322C976.112 160.496 981.52 160.602 985.601 157.851C989.695 155.101 995.616 154.34 997.244 152.397C998.871 150.454 1002.5 145.644 1002.5 145.644C1002.5 145.644 1005.59 142.285 1005.38 140.518C1005.33 140.096 1005.09 139.768 1004.59 139.593C1001.96 138.668 984.174 134.396 977.301 133.308C970.428 132.219 960.451 130.347 958.01 132.746C958.01 132.746 953.14 137.662 949.485 140.529C945.829 143.397 940.847 144.813 939.582 147.142C938.318 149.471 938.03 149.623 935.827 151.578C934.262 152.971 931.633 154.399 931.933 155.862C931.971 156.037 932.046 156.201 932.171 156.377C932.171 156.377 932.171 156.377 932.171 156.388L932.184 156.377Z" fill="#EFDD37" stroke="#301902" stroke-width="2" stroke-linecap="round" stroke-linejoin="round"/>
<path d="M959.199 203.848C953.691 204.808 949.735 204.656 941.873 204.551C934.011 204.434 928.278 200.934 925.273 201.262C922.281 201.589 919.44 200.712 912.942 195.714C906.445 190.716 904.73 191.313 904.705 189.956C902.139 194.274 903.003 195.562 902.201 200.653C901.4 205.744 901.838 207.477 902.201 210.777C902.564 214.078 898.997 216.43 904.192 218.303C909.387 220.176 910.664 224.717 915.409 223.031C920.153 221.346 923.508 219.274 926.863 223.394C930.218 227.514 929.642 229.164 938.518 227.666C947.394 226.168 946.367 226.262 952.351 226.039C958.335 225.805 966.948 225.407 966.948 225.407C966.948 225.407 968.163 221.557 972.344 216.091C976.525 210.625 980.206 208.038 982.659 204.609C985.126 201.18 987.492 196.053 987.492 196.053C985.088 197.68 979.004 199.05 977.339 199.354C975.674 199.646 964.695 202.865 959.199 203.837V203.848Z" fill="#AD9700" stroke="#301902" stroke-width="2" stroke-linecap="round" stroke-linejoin="round"/>
<path d="M993.238 175.244C987.354 177.198 985.902 178.193 980.268 179.762C974.635 181.33 967.386 184.947 962.955 184.443C958.523 183.952 957.772 185.555 952.426 187.954C947.081 190.354 947.707 188.048 938.631 185.391C929.567 182.734 928.315 181.049 926.45 179.75C925.799 179.293 925.386 178.661 925.286 177.549C925.073 177.549 924.873 177.549 924.722 177.549C923.057 177.421 923.496 177.421 921.017 177.561C918.538 177.702 916.948 177.643 913.668 179.024C910.389 180.405 907.209 181.821 905.944 185.895C904.68 189.968 904.655 188.61 904.68 189.968C904.705 191.314 906.42 190.728 912.917 195.726C919.415 200.724 922.256 201.601 925.248 201.274C928.24 200.946 933.986 204.446 941.848 204.563C949.71 204.68 953.678 204.82 959.174 203.86C964.682 202.901 975.649 199.682 977.314 199.378C978.979 199.085 985.075 197.704 987.466 196.077C989.87 194.45 992.95 186.433 997.244 182.067C1001.55 177.702 1007.38 167.964 1007.38 167.964C1006.97 169.146 999.084 173.289 993.213 175.244H993.238Z" fill="#EFDD37" stroke="#301902" stroke-width="2" stroke-linecap="round" stroke-linejoin="round"/>
<path d="M1011.68 149.225C1010.3 146.487 1006.92 142.332 1005.39 140.494C1005.61 142.261 1002.51 145.621 1002.51 145.621C1002.51 145.621 998.884 150.431 997.256 152.374C995.629 154.317 989.707 155.077 985.614 157.828C981.52 160.578 976.112 160.473 969.089 162.299C962.053 164.125 959.349 164.488 953.065 162.954C946.78 161.421 938.831 159.747 934.061 157.641C933.085 157.208 932.509 156.786 932.196 156.353C932.196 156.353 932.196 156.353 932.196 156.341C932.071 156.166 931.996 155.99 931.958 155.827C931.608 155.967 930.719 157.547 928.516 164.242C926.049 171.732 925.148 175.478 925.323 177.538C925.424 178.649 925.824 179.282 926.488 179.738C928.353 181.037 929.605 182.723 938.668 185.379C947.732 188.036 947.119 190.342 952.464 187.943C957.797 185.543 958.561 183.94 962.992 184.431C967.424 184.923 974.672 181.306 980.306 179.75C985.939 178.181 987.391 177.187 993.275 175.232C999.159 173.277 1007.05 169.146 1007.45 167.952C1007.86 166.77 1009.77 160.075 1011.7 157.009C1013.63 153.942 1013.51 152.807 1011.7 149.214L1011.68 149.225Z" fill="#AD9700" stroke="#301902" stroke-width="2" stroke-linecap="round" stroke-linejoin="round"/>
<path d="M1016.08 163.996C1014.57 164.136 1008.77 162.322 1008.77 162.322C1008.77 162.322 1006.65 170.468 1003.89 173.933C1001.14 177.386 994.564 185.637 989.369 193.888C984.174 202.152 981.007 203.322 982.659 204.621C984.312 205.92 995.078 215.506 999.81 221.182C1004.54 226.859 1006.17 230.651 1010.4 232.149C1014.62 233.647 1013.99 232.453 1013.99 232.453C1013.99 232.453 1013.83 209.584 1015.48 206.096C1017.14 202.596 1018.22 197.095 1019.73 193.888C1021.23 190.681 1021.1 186.62 1021.71 185.379C1022.32 184.139 1021.19 178.731 1021.19 178.731L1016.07 163.996H1016.08Z" fill="#AD9700" stroke="#301902" stroke-width="2" stroke-linecap="round" stroke-linejoin="round"/>
<path d="M1041.75 169.239C1041.75 169.239 1056.82 171.229 1058.01 174.4C1059.21 177.56 1060.95 183.799 1061.44 185.039C1061.93 186.28 1059.75 191.664 1058.67 196.088C1057.6 200.501 1058.06 199.225 1056.52 203.86C1054.98 208.495 1056.31 209.407 1054.94 212.439C1053.58 215.47 1054.77 215.142 1052.54 218.314C1050.31 221.498 1052.69 224.787 1047.83 225.828C1042.97 226.882 1035.65 228.953 1033.7 229.972C1031.74 230.99 1014.02 232.465 1014.02 232.465C1014.02 232.465 1008.9 212.755 1009.84 210.309C1010.79 207.862 1012.84 192.788 1014.02 191.523C1015.2 190.259 1016.5 176.484 1022.91 175.781C1029.32 175.067 1041.76 169.239 1041.76 169.239H1041.75Z" fill="#917A00" stroke="#301902" stroke-width="2" stroke-linecap="round" stroke-linejoin="round"/>
<path d="M1038.68 141.29C1038.68 141.29 1014.48 148.067 1013.08 152.537C1011.68 157.008 1007.97 161.983 1008.55 164.464C1009.12 166.945 1011.46 177.76 1014.01 180.312C1016.55 182.863 1020.13 181.868 1028.14 180.312C1036.15 178.755 1039.61 178.556 1044.4 178.72C1049.2 178.883 1061.34 177.257 1058.15 169.836C1054.95 162.416 1052.56 155.464 1051.26 151.496C1049.96 147.516 1042.56 140.131 1038.69 141.29H1038.68Z" fill="#EFDD37" stroke="#301902" stroke-width="2" stroke-linecap="round" stroke-linejoin="round"/>
<path d="M1020.58 226.356C1018.17 226.941 1015.66 226.73 1013.23 227.187C1012.77 227.269 1012.24 227.187 1011.78 227.093C1011.25 226.976 1010.56 227.07 1010.33 226.414C1010.09 225.735 1010.74 225.525 1011.08 225.115C1013.24 222.435 1015.82 219.965 1016.53 216.477C1016.61 216.103 1016.72 215.728 1016.42 215.202C1014.88 215.787 1013.34 216.314 1011.85 217.133C1008.4 219.052 1004.82 220.785 1001.26 222.54C1000.44 222.95 999.76 222.493 999.86 221.639C999.922 221.112 1000.19 220.621 1000.36 220.106C1001.39 217.074 1001.98 214.008 1001.62 210.801C1001.45 209.127 1001.34 207.454 1001.35 205.768C1001.39 199.928 1000.49 194.275 997.732 188.973C995.128 189.09 993.688 191.009 992.161 192.472C988.255 196.206 985.113 200.536 981.946 204.844C980.568 206.716 979.642 208.718 979.079 210.918C978.603 212.767 977.94 214.546 976.575 216.349C974.334 212.615 971.129 209.97 968.125 207.173C965.909 205.113 963.318 203.427 961.252 201.215C960.501 200.408 959.537 200.244 958.573 200.7C957.434 201.25 957.672 202.269 957.997 203.146C959.199 206.412 960.451 209.654 961.74 212.896C962.316 214.336 963.055 215.717 963.706 217.121C964.094 217.94 964.532 218.736 964.57 219.79C963.017 219.649 961.778 219.064 960.488 218.631C955.356 216.934 950.098 215.857 944.627 215.787C943.375 215.775 941.861 215.705 941.335 216.864C940.784 218.081 942.123 218.9 942.937 219.708C945.716 222.482 949.046 224.588 952.376 226.707C954.392 227.983 954.392 227.971 953.328 229.996C955.055 231.716 957.158 232.582 959.712 232.43C960.038 232.407 960.451 232.337 960.676 232.477C962.967 233.999 965.634 233.32 968.075 233.425C971.593 233.577 975.135 233.156 978.666 232.957C981.457 232.805 984.249 232.711 987.053 232.734C990.583 232.77 994.114 232.699 997.657 232.547C1001.65 232.383 1005.68 232.489 1009.7 232.442C1013.69 232.395 1017.56 231.775 1021.27 230.358C1022.01 230.078 1022.79 229.855 1023.04 228.942C1023.52 227.187 1023.01 226.613 1020.55 226.321L1020.58 226.356Z" fill="#7D2F6D" stroke="#301902" stroke-width="2" stroke-linecap="round" stroke-linejoin="round"/>
<path d="M1046.32 227.14C1046.32 227.14 1041.69 221.721 1040.35 215.435C1039.01 209.15 1043.98 214.406 1048.46 217.378C1052.93 220.351 1050.25 217.343 1050.92 210.356C1051.6 203.369 1055.44 200.536 1055.44 200.536C1055.44 200.536 1061.11 207.617 1059.81 214.874C1058.51 222.13 1064.24 218.245 1069.05 217.87C1073.85 217.495 1076.93 218.537 1076.93 218.537C1076.93 218.537 1075.05 219.45 1072.23 221.99C1069.4 224.53 1072.31 225.337 1065.85 226.461L1059.39 227.584L1046.33 227.151L1046.32 227.14Z" fill="#DBCE02" stroke="#301902" stroke-width="2" stroke-linecap="round" stroke-linejoin="round"/>
<path d="M1051.61 182.442C1050.44 182.879 1049.47 182.559 1048.7 181.482C1048.4 181.061 1048.07 180.675 1047.77 180.253C1047.22 179.504 1046.6 179.177 1045.73 179.879C1044.98 180.499 1044.09 180.043 1043.35 179.937C1039.21 179.34 1035.06 179.223 1030.92 179.832C1030.34 179.914 1029.82 179.984 1029.69 179.259C1029.83 178.685 1030.39 178.65 1030.84 178.498C1032.62 177.889 1034.49 177.725 1036.36 177.702C1036.82 177.702 1037.38 177.772 1037.54 177.269C1037.73 176.684 1037.14 176.473 1036.73 176.251C1035.85 175.794 1034.84 175.665 1033.9 175.361C1033.32 175.174 1032.52 175.057 1032.53 174.366C1032.55 173.687 1033.36 173.582 1033.94 173.418C1035.6 172.927 1037.29 172.915 1038.99 173.184C1039.48 173.254 1040.02 173.488 1040.36 172.985C1040.67 172.54 1040.2 172.201 1040.02 171.826C1039.41 170.551 1038.62 169.357 1038.09 168.034C1037.97 167.706 1037.74 167.355 1038.03 167.039C1038.36 166.677 1038.81 166.829 1039.19 166.934C1040.35 167.227 1041.25 167.941 1042.17 168.596C1043.36 169.439 1043.41 169.427 1043.69 168.128C1044.24 165.576 1046.76 164.172 1048.87 163.552C1049.66 163.317 1049.97 163.715 1049.82 164.429C1049.63 165.307 1049.42 166.185 1049.02 167.004C1048.19 168.655 1048.07 170.445 1047.76 172.201C1047.71 172.494 1047.59 172.891 1047.92 173.067C1048.31 173.266 1048.47 172.833 1048.7 172.646C1049.67 171.838 1050.92 171.85 1052.09 171.616C1052.78 171.475 1053.49 171.475 1054.2 171.475C1054.6 171.475 1055.11 171.37 1055.33 171.78C1055.57 172.213 1055.17 172.494 1054.92 172.786C1054.65 173.09 1054.38 173.383 1054.08 173.652C1052.69 174.916 1051.71 176.45 1050.81 178.041C1050.66 178.31 1050.37 178.603 1050.64 178.896C1050.9 179.188 1051.26 178.942 1051.56 178.872C1052.8 178.591 1054.04 178.626 1055.28 178.861C1055.84 178.966 1056.54 179.387 1055.92 179.844C1054.57 180.815 1053.2 181.798 1051.61 182.442Z" fill="#7D2F6D"/>
<path d="M1034.4 177.198C1033.71 177.303 1033.03 177.42 1032.36 177.572C1030.81 177.924 1029.3 178.368 1028.05 179.597C1028.75 179.667 1029.22 179.445 1029.69 179.27C1031.93 178.216 1034.35 178.006 1036.79 178.041C1037.4 178.041 1037.88 177.959 1038.05 177.397C1038.23 176.823 1037.89 176.519 1037.37 176.215C1036.25 175.559 1034.98 175.395 1033.76 175.056C1033.31 174.927 1032.75 174.74 1032.71 174.401C1032.67 174.061 1033.29 173.933 1033.67 173.815C1035.59 173.254 1037.53 173.066 1039.47 173.652C1040.12 173.851 1040.51 173.628 1040.85 173.195C1041.2 172.739 1040.85 172.458 1040.6 172.083C1039.58 170.515 1038.77 168.853 1037.97 167.004C1038.31 167.05 1038.46 167.074 1038.59 167.097C1040.28 167.402 1041.43 168.549 1042.74 169.45C1043.54 170.012 1043.86 169.731 1043.96 168.982C1044.38 166.102 1046.57 164.066 1049.71 163.785C1049.58 164.183 1049.47 164.546 1049.37 164.909C1048.81 166.84 1047.83 168.666 1047.62 170.69C1047.51 171.756 1046.91 172.856 1047.87 173.921C1049.77 171.463 1052.61 172.013 1055.28 171.849C1053.4 173.757 1051.71 175.723 1050.4 177.982C1049.96 178.743 1050.09 179.129 1050.47 179.679C1052.31 178.661 1054.17 178.872 1056.42 179.48C1054.47 180.393 1052.9 181.248 1051.6 182.441C1051.35 182.886 1051.49 183.272 1051.8 183.612C1052.08 183.904 1052.38 183.659 1052.56 183.507C1053.99 182.348 1055.72 181.681 1057.36 180.861C1058.13 180.475 1058.54 179.902 1058.45 179.211C1058.37 178.602 1057.7 178.24 1057.05 178.052C1055.63 177.643 1054.22 177.221 1052.69 177.362C1052.46 177.385 1052.1 177.666 1051.93 177.28C1051.83 177.046 1052.06 176.882 1052.19 176.683C1053.13 175.091 1054.53 173.851 1055.84 172.54C1056.23 172.154 1057.16 172.001 1056.91 171.299C1056.66 170.562 1055.71 170.761 1055.08 170.515C1054.94 170.456 1054.75 170.55 1054.59 170.527C1052.63 170.339 1050.72 170.761 1048.9 171.147C1048.85 169.93 1049.21 168.83 1049.53 167.706C1049.97 166.22 1050.79 164.85 1051.15 163.329C1051.37 162.416 1051.11 162.193 1050.2 162.381C1048.65 162.697 1047.23 163.305 1045.94 164.171C1044.44 165.19 1043.5 166.559 1043.06 168.42C1041.45 166.933 1039.62 166.301 1037.67 165.88C1036.51 165.634 1036.34 165.751 1036.58 166.863C1036.74 167.659 1037.04 168.408 1037.44 169.146C1037.92 170.023 1038.32 170.925 1038.78 171.884C1038.07 171.849 1037.53 171.779 1037 171.791C1034.99 171.849 1033.08 172.294 1031.42 173.406C1030.89 173.757 1030.48 174.213 1030.61 174.857C1030.72 175.442 1031.23 175.606 1031.78 175.735C1032.67 175.946 1033.55 176.191 1034.42 176.437C1034.7 176.519 1035.08 176.601 1035.06 176.905C1035.04 177.268 1034.65 177.151 1034.37 177.198H1034.4Z" fill="#301902"/>
<path d="M1724.68 307.617C1717.63 234.138 1698.44 148.745 1698.22 147.738L1694.68 148.441C1694.9 149.435 1714 234.442 1721.05 307.617C1722.27 307.617 1723.47 307.617 1724.68 307.617Z" fill="#7D2F6D" stroke="#301902" stroke-miterlimit="10"/>
<path d="M1722.38 307.605C1711.35 230.065 1715.82 91.0907 1715.87 89.5574L1712.25 89.4521C1712.2 90.9854 1707.75 229.574 1718.74 307.582C1719.95 307.594 1721.17 307.582 1722.38 307.594V307.605Z" fill="#E883D8" stroke="#301902" stroke-miterlimit="10"/>
<path d="M1736.48 307.547C1750.75 237.427 1753.28 129.375 1753.3 128.158L1749.68 128.087C1749.66 129.305 1747.12 237.872 1732.78 307.605C1734.02 307.605 1735.25 307.559 1736.48 307.535V307.547Z" fill="#7D2F6D" stroke="#301902" stroke-miterlimit="10"/>
<path d="M1714.48 98.0901C1710.51 98.1252 1707.24 95.1406 1707.19 91.4538L1706.52 32.0319C1706.48 28.3334 1709.69 25.2786 1713.64 25.2435C1717.61 25.2084 1720.88 28.193 1720.93 31.8915L1721.6 91.3134C1721.65 95.0119 1718.44 98.0666 1714.48 98.1017V98.0901Z" fill="#EFDD37" stroke="#301902" stroke-width="2" stroke-miterlimit="10"/>
<g style="mix-blend-mode:screen">
<path d="M1714.08 31.2003C1713.9 29.7841 1713.42 28.2158 1711.73 27.853C1710.84 27.654 1710.15 28.0051 1709.72 28.5786C1708.13 29.433 1707.87 31.9727 1707.73 33.4357C1707.54 35.5308 1707.52 37.7429 1707.86 39.8263C1708.05 40.9499 1708.43 42.53 1709.51 43.2205C1710.81 44.0632 1712.09 42.5417 1712.67 41.6053C1714.52 38.5622 1714.49 34.5945 1714.08 31.212V31.2003Z" fill="#C96157"/>
</g>
<g style="mix-blend-mode:screen">
<path d="M1711.01 49.3059C1711.39 48.51 1711.34 47.5855 1710.76 46.8715C1710.67 46.7662 1710.47 46.8013 1710.36 46.8364C1710.26 46.8715 1710.16 46.93 1710.06 47.0002C1709.91 47.0705 1709.8 47.1758 1709.69 47.2928C1709.23 47.7844 1709.05 48.5217 1709.22 49.1538C1709.23 49.5517 1709.37 49.9379 1709.67 50.2656C1709.81 50.4295 1710.15 50.2891 1710.29 50.1954C1710.37 50.1369 1710.45 50.0549 1710.52 49.9847C1710.61 49.9262 1710.7 49.8443 1710.76 49.7741C1710.82 49.7039 1710.84 49.6219 1710.89 49.5517C1710.94 49.4697 1710.99 49.3878 1711.03 49.3059H1711.01Z" fill="#C96157"/>
</g>
<path d="M1697.53 159.9C1693.61 160.415 1689.94 157.851 1689.38 154.188L1680.43 95.3512C1679.88 91.6996 1682.63 88.282 1686.55 87.7553C1690.48 87.2403 1694.14 89.8035 1694.7 93.4669L1703.65 152.304C1704.21 155.955 1701.45 159.373 1697.53 159.9Z" fill="#EFDD37" stroke="#301902" stroke-width="2" stroke-miterlimit="10"/>
<g style="mix-blend-mode:screen">
<path d="M1687.82 93.6304C1687.45 92.2493 1686.74 90.7629 1685.01 90.5873C1684.11 90.5054 1683.46 90.9267 1683.12 91.547C1681.66 92.5887 1681.74 95.1402 1681.82 96.6033C1681.92 98.6983 1682.21 100.899 1682.83 102.923C1683.17 104.012 1683.78 105.533 1684.95 106.084C1686.35 106.751 1687.41 105.089 1687.85 104.094C1689.27 100.852 1688.69 96.9192 1687.82 93.6187V93.6304Z" fill="#C96157"/>
</g>
<g style="mix-blend-mode:screen">
<path d="M1687.29 111.947C1687.55 111.116 1687.38 110.203 1686.7 109.56C1686.6 109.454 1686.41 109.524 1686.3 109.56C1686.2 109.606 1686.11 109.677 1686.03 109.759C1685.89 109.852 1685.79 109.969 1685.69 110.098C1685.31 110.636 1685.24 111.385 1685.49 111.994C1685.56 112.38 1685.75 112.755 1686.09 113.036C1686.25 113.176 1686.56 113.012 1686.69 112.895C1686.76 112.825 1686.83 112.743 1686.89 112.661C1686.98 112.591 1687.05 112.509 1687.1 112.415C1687.14 112.345 1687.15 112.251 1687.19 112.181C1687.23 112.099 1687.26 112.006 1687.29 111.924V111.947Z" fill="#C96157"/>
</g>
<path d="M1750.56 133.495C1746.6 133.319 1743.52 130.148 1743.72 126.461L1746.88 67.109C1747.08 63.4222 1750.47 60.5547 1754.43 60.7303C1758.38 60.9176 1761.46 64.0777 1761.26 67.7645L1758.11 127.116C1757.91 130.803 1754.52 133.671 1750.56 133.495Z" fill="#EFDD37" stroke="#301902" stroke-width="2" stroke-miterlimit="10"/>
<g style="mix-blend-mode:screen">
<path d="M1754.48 66.6999C1754.4 65.272 1754.01 63.692 1752.35 63.2238C1751.49 62.978 1750.76 63.2824 1750.3 63.8324C1748.66 64.6049 1748.22 67.1212 1747.99 68.5725C1747.67 70.6442 1747.5 72.868 1747.71 74.9631C1747.82 76.0984 1748.11 77.6901 1749.13 78.4392C1750.38 79.3404 1751.76 77.9008 1752.39 76.9996C1754.44 74.0619 1754.67 70.1058 1754.48 66.6999Z" fill="#C96157"/>
</g>
<g style="mix-blend-mode:screen">
<path d="M1750.25 84.5958C1750.67 83.8233 1750.68 82.8986 1750.15 82.1496C1750.06 82.0325 1749.86 82.056 1749.75 82.0911C1749.63 82.1145 1749.53 82.1731 1749.45 82.2433C1749.28 82.3135 1749.17 82.4071 1749.04 82.5242C1748.57 82.9806 1748.33 83.7062 1748.47 84.3499C1748.47 84.7479 1748.57 85.1459 1748.84 85.4853C1748.98 85.6492 1749.31 85.5438 1749.46 85.4502C1749.55 85.3917 1749.62 85.3214 1749.71 85.2512C1749.81 85.1927 1749.9 85.1225 1749.96 85.0523C1750.02 84.9821 1750.05 84.9118 1750.1 84.8298C1750.15 84.7479 1750.2 84.6777 1750.25 84.5958Z" fill="#C96157"/>
</g>
<path d="M1745.81 307.383C1746.42 305.311 1746.98 303.239 1747.62 301.168C1751.42 288.82 1755.9 276.659 1761.15 264.768C1765.61 254.656 1770.5 244.672 1776.11 235.051C1781.56 225.711 1787.64 216.676 1794.63 208.26C1797.86 204.363 1801.3 200.606 1804.98 197.071C1790.64 206.575 1779.09 219.239 1769.68 233.061C1758.61 249.307 1749.88 266.957 1743.31 285.18C1741.18 291.102 1739.28 297.095 1737.59 303.122C1738.59 295.491 1739.33 287.825 1740.16 280.171C1740.83 273.874 1741.61 267.589 1742.11 261.28C1742.55 255.674 1742.92 250.068 1743.16 244.45C1743.36 239.803 1743.49 234.466 1741.06 230.252C1740.96 230.627 1740.87 230.99 1740.78 231.364C1738.87 239.534 1738.4 247.902 1737.06 256.154C1735.54 265.587 1734.92 275.126 1733.2 284.525C1733.17 284.665 1733.11 284.77 1733.02 284.852C1731.92 292.202 1730.88 299.553 1729.19 306.809C1729.13 307.067 1729.09 307.336 1729.03 307.593C1734.64 307.582 1740.24 307.511 1745.85 307.348L1745.81 307.383Z" fill="#E883D8" stroke="#301902" stroke-miterlimit="10"/>
<path d="M1703.61 226.542C1706.88 236.397 1709.21 246.556 1711.08 256.716C1712.99 267.109 1714.27 277.654 1714.38 288.2C1714.44 294.649 1714.09 301.074 1713.59 307.5C1718.02 307.57 1722.44 307.605 1726.87 307.605C1727.04 302.21 1727.1 296.802 1726.92 291.395C1726.56 280.662 1725.43 269.953 1723.26 259.408C1722.17 254.164 1720.83 248.967 1719.19 243.841C1717.56 238.761 1715.58 233.787 1713.63 228.813C1711.24 222.75 1708.72 216.699 1705.82 210.835C1704.7 209.068 1703.59 207.313 1702.45 205.557C1698.87 200.009 1695 194.649 1690.41 189.78C1688.15 187.392 1685.7 185.227 1683.26 183.003C1681.37 181.282 1679.59 179.48 1677.7 177.76C1677.62 177.701 1677.56 177.642 1677.5 177.572C1682.68 183.951 1687.88 190.342 1691.51 197.645C1696.17 207.032 1700.33 216.641 1703.61 226.531V226.542Z" fill="#E883D8" stroke="#301902" stroke-miterlimit="10"/>
<path d="M1652.61 193.361C1660.74 202.818 1668.39 212.661 1675.08 223.043C1681.77 233.401 1687.48 244.333 1692.66 255.405C1697.97 266.723 1702.6 278.38 1705.9 290.353C1707.47 296.007 1708.73 301.707 1709.86 307.442C1715.11 307.547 1720.35 307.605 1725.6 307.605C1724.26 301.941 1722.82 296.299 1721.13 290.705C1717.47 278.603 1712.98 266.699 1707.32 255.276C1704.5 249.6 1701.41 244.029 1697.99 238.645C1694.61 233.296 1690.87 228.158 1687.14 223.008C1682.59 216.746 1677.91 210.52 1672.84 204.597C1671.04 202.877 1669.24 201.168 1667.42 199.471C1661.69 194.099 1655.67 189.019 1648.98 184.677C1645.7 182.547 1642.26 180.733 1638.8 178.848C1636.14 177.385 1633.56 175.793 1630.91 174.342C1630.8 174.295 1630.72 174.237 1630.62 174.19C1638.43 180.089 1646.27 185.999 1652.6 193.35L1652.61 193.361Z" fill="#7D2F6D" stroke="#301902" stroke-miterlimit="10"/>
<path d="M1722.03 247.996C1723.14 259.115 1725.31 270.129 1726.17 281.271C1726.17 281.447 1726.15 281.576 1726.07 281.693C1727.04 290.319 1728.05 298.933 1728.33 307.605C1734.67 307.605 1741.01 307.5 1747.35 307.301C1747.39 303.661 1747.47 300.021 1747.62 296.393C1748.23 281.353 1749.67 266.348 1752.04 251.449C1754.05 238.773 1756.62 226.145 1760.1 213.738C1763.47 201.683 1767.67 189.815 1773.08 178.427C1775.58 173.148 1778.36 167.975 1781.48 162.989C1768.04 177.561 1758.72 194.977 1752.17 213.165C1744.48 234.537 1739.88 256.903 1737.89 279.352C1737.24 286.643 1736.89 293.947 1736.79 301.262C1735.62 292.32 1734.16 283.401 1732.8 274.483C1731.67 267.144 1730.67 259.794 1729.32 252.491C1728.13 246.007 1726.86 239.523 1725.45 233.074C1724.27 227.748 1722.82 221.639 1718.77 217.472C1718.77 217.917 1718.77 218.361 1718.8 218.806C1719.09 228.603 1721.08 238.247 1722.04 247.985L1722.03 247.996Z" fill="#7D2F6D" stroke="#301902" stroke-miterlimit="10"/>
<path d="M392.487 328.1C400.637 243.186 422.808 144.497 423.071 143.35L427.164 144.158C426.901 145.305 404.831 243.537 396.681 328.1C395.279 328.1 393.889 328.1 392.487 328.1Z" fill="#7D2F6D" stroke="#301902" stroke-miterlimit="10"/>
<path d="M395.154 328.1C407.898 238.493 402.74 77.8889 402.678 76.1216L406.859 76.0044C406.922 77.7717 412.067 237.943 399.36 328.088C397.958 328.1 396.544 328.1 395.142 328.111L395.154 328.1Z" fill="#E883D8" stroke="#301902" stroke-miterlimit="10"/>
<path d="M378.867 328.03C362.38 246.99 359.45 122.131 359.425 120.726L363.607 120.644C363.644 122.06 366.574 247.517 383.136 328.111C381.709 328.111 380.294 328.053 378.867 328.041V328.03Z" fill="#7D2F6D" stroke="#301902" stroke-miterlimit="10"/>
<path d="M404.28 85.9763C408.862 86.0231 412.643 82.5705 412.693 78.2985L413.481 9.63027C413.531 5.35826 409.826 1.83537 405.244 1.78856C400.662 1.74174 396.882 5.19438 396.831 9.46639L396.043 78.1346C395.993 82.4066 399.698 85.9295 404.28 85.9763Z" fill="#EFDD37" stroke="#301902" stroke-width="2" stroke-miterlimit="10"/>
<g style="mix-blend-mode:screen">
<path d="M406.396 20.6791C407.047 21.7559 408.536 23.5115 410.039 22.5517C411.291 21.7559 411.741 19.93 411.954 18.6309C412.342 16.2198 412.317 13.6566 412.104 11.2455C411.941 9.54842 411.641 6.62247 409.801 5.62762C409.313 4.96048 408.511 4.56244 407.485 4.79653C405.532 5.22958 404.969 7.03209 404.768 8.67066C404.293 12.5798 404.268 17.1679 406.408 20.6791H406.396Z" fill="#C96157"/>
</g>
<g style="mix-blend-mode:screen">
<path d="M408.299 29.5859C407.861 28.6729 407.923 27.5961 408.587 26.7768C408.687 26.6481 408.912 26.6949 409.05 26.7417C409.175 26.7768 409.288 26.8588 409.388 26.9407C409.563 27.0226 409.701 27.1514 409.826 27.2802C410.352 27.842 410.565 28.6963 410.352 29.422C410.327 29.8784 410.177 30.3232 409.839 30.7094C409.676 30.8967 409.3 30.7446 409.137 30.6393C409.037 30.569 408.95 30.4753 408.862 30.3934C408.762 30.3232 408.662 30.2413 408.587 30.1476C408.524 30.0657 408.499 29.9721 408.436 29.8902C408.374 29.7965 408.324 29.7029 408.274 29.6093L408.299 29.5859Z" fill="#C96157"/>
</g>
<path d="M423.872 157.407C428.404 158.004 432.648 155.043 433.286 150.806L443.627 82.8165C444.265 78.5913 441.085 74.647 436.553 74.0384C432.022 73.4415 427.778 76.4027 427.139 80.6396L416.799 148.629C416.16 152.854 419.34 156.798 423.872 157.407Z" fill="#EFDD37" stroke="#301902" stroke-width="2" stroke-miterlimit="10"/>
<g style="mix-blend-mode:screen">
<path d="M435.051 92.9162C435.552 94.0632 436.779 95.9826 438.406 95.2102C439.758 94.5664 440.459 92.8225 440.847 91.5585C441.574 89.2177 441.899 86.6779 442.024 84.2551C442.099 82.558 442.212 79.6086 440.522 78.4031C440.134 77.6891 439.383 77.1976 438.344 77.2912C436.353 77.4902 435.54 79.199 435.114 80.8025C434.1 84.618 433.436 89.1592 435.064 92.9162H435.051Z" fill="#C96157"/>
</g>
<g style="mix-blend-mode:screen">
<path d="M435.702 101.987C435.39 101.027 435.602 99.974 436.378 99.2366C436.504 99.1196 436.716 99.1898 436.842 99.2484C436.954 99.3069 437.067 99.3887 437.155 99.4824C437.317 99.5877 437.43 99.7164 437.543 99.8803C437.981 100.501 438.069 101.378 437.768 102.069C437.68 102.525 437.468 102.947 437.08 103.275C436.892 103.438 436.529 103.239 436.391 103.111C436.303 103.029 436.228 102.935 436.153 102.841C436.053 102.76 435.965 102.666 435.915 102.561C435.865 102.479 435.853 102.373 435.815 102.291C435.765 102.186 435.728 102.092 435.702 101.987Z" fill="#C96157"/>
</g>
<path d="M362.593 126.882C367.162 126.671 370.73 123.008 370.505 118.748L366.862 50.1615C366.636 45.9012 362.705 42.5889 358.136 42.7996C353.554 43.0102 349.999 46.6737 350.224 50.934L353.867 119.52C354.093 123.781 358.023 127.105 362.593 126.882Z" fill="#EFDD37" stroke="#301902" stroke-width="2" stroke-miterlimit="10"/>
<g style="mix-blend-mode:screen">
<path d="M360.477 61.5965C361.203 62.6382 362.793 64.312 364.233 63.2586C365.422 62.3925 365.76 60.5549 365.885 59.244C366.123 56.8212 365.935 54.2581 365.547 51.8588C365.284 50.1851 364.783 47.2707 362.881 46.3812C362.355 45.7491 361.516 45.3981 360.515 45.679C358.599 46.2173 358.149 48.0548 358.048 49.7051C357.823 53.6377 358.086 58.2141 360.464 61.6083L360.477 61.5965Z" fill="#C96157"/>
</g>
<g style="mix-blend-mode:screen">
<path d="M362.956 70.375C362.455 69.4854 362.442 68.4086 363.068 67.5542C363.168 67.4138 363.394 67.449 363.532 67.4841C363.657 67.5192 363.782 67.5777 363.882 67.6597C364.07 67.7299 364.208 67.8468 364.345 67.9756C364.896 68.5022 365.171 69.345 365.009 70.0824C365.009 70.5388 364.884 70.9953 364.571 71.3932C364.42 71.5922 364.032 71.4634 363.87 71.3581C363.757 71.2995 363.669 71.206 363.582 71.1358C363.469 71.0655 363.369 70.9835 363.294 70.9016C363.219 70.8314 363.194 70.7378 363.131 70.6441C363.068 70.5505 363.006 70.4686 362.956 70.375Z" fill="#C96157"/>
</g>
<path d="M368.076 327.83C367.388 325.431 366.737 323.031 365.998 320.655C361.591 306.388 356.409 292.332 350.362 278.591C345.217 266.898 339.546 255.37 333.086 244.251C326.802 233.46 319.766 223.008 311.692 213.293C307.961 208.799 303.98 204.457 299.736 200.36C316.299 211.351 329.644 225.969 340.535 241.945C353.329 260.719 363.407 281.119 371.006 302.186C373.472 309.022 375.663 315.95 377.616 322.926C376.464 314.101 375.612 305.241 374.649 296.405C373.86 289.125 372.971 281.868 372.395 274.576C371.894 268.104 371.456 261.62 371.181 255.124C370.956 249.764 370.805 243.595 373.622 238.715C373.735 239.148 373.835 239.569 373.935 240.002C376.138 249.448 376.689 259.115 378.229 268.654C379.982 279.551 380.708 290.576 382.698 301.437C382.723 301.601 382.798 301.718 382.898 301.812C384.163 310.309 385.377 318.795 387.33 327.186C387.393 327.491 387.455 327.795 387.518 328.099C381.033 328.076 374.561 328.006 368.076 327.818V327.83Z" fill="#E883D8" stroke="#301902" stroke-miterlimit="10"/>
<path d="M416.837 234.42C413.056 245.808 410.377 257.547 408.211 269.286C406.008 281.295 404.518 293.479 404.393 305.674C404.318 313.13 404.719 320.562 405.294 327.982C400.174 328.064 395.054 328.111 389.946 328.111C389.759 321.873 389.684 315.623 389.896 309.385C390.322 296.99 391.611 284.607 394.14 272.411C395.392 266.348 396.957 260.344 398.847 254.422C400.725 248.547 403.003 242.8 405.269 237.053C408.036 230.042 410.94 223.055 414.295 216.278C415.572 214.242 416.874 212.205 418.176 210.18C422.307 203.778 426.789 197.575 432.085 191.957C434.688 189.195 437.53 186.69 440.347 184.127C442.525 182.149 444.591 180.054 446.769 178.064C446.844 177.994 446.932 177.924 447.007 177.854C441.023 185.227 435.014 192.601 430.82 201.039C425.437 211.877 420.617 222.996 416.824 234.42H416.837Z" fill="#E883D8" stroke="#301902" stroke-miterlimit="10"/>
<path d="M475.775 196.066C466.386 206.986 457.548 218.362 449.811 230.359C442.074 242.332 435.49 254.973 429.493 267.753C423.359 280.839 418.001 294.31 414.183 308.144C412.38 314.675 410.915 321.265 409.613 327.889C403.542 328.018 397.483 328.076 391.424 328.088C392.976 321.546 394.628 315.015 396.581 308.566C400.8 294.579 406.008 280.827 412.543 267.625C415.798 261.059 419.378 254.633 423.321 248.395C427.227 242.215 431.546 236.269 435.865 230.324C441.123 223.079 446.531 215.892 452.39 209.057C454.468 207.068 456.546 205.09 458.649 203.135C465.284 196.932 472.245 191.056 479.956 186.047C483.749 183.589 487.73 181.482 491.711 179.305C494.791 177.62 497.77 175.782 500.837 174.097C500.95 174.038 501.063 173.98 501.175 173.921C492.137 180.745 483.086 187.557 475.775 196.066Z" fill="#7D2F6D" stroke="#301902" stroke-miterlimit="10"/>
<path d="M395.567 259.209C394.29 272.06 391.774 284.783 390.772 297.669C390.76 297.868 390.81 298.02 390.885 298.149C389.771 308.121 388.594 318.069 388.281 328.1C380.945 328.088 373.622 327.983 366.298 327.749C366.248 323.547 366.173 319.345 365.998 315.143C365.284 297.763 363.632 280.417 360.89 263.212C358.562 248.57 355.595 233.964 351.576 219.638C347.683 205.71 342.813 191.993 336.579 178.825C333.687 172.728 330.47 166.747 326.877 160.988C342.412 177.831 353.179 197.95 360.752 218.97C369.653 243.678 374.961 269.509 377.252 295.457C378.003 303.884 378.404 312.334 378.529 320.773C379.881 310.438 381.571 300.139 383.149 289.827C384.438 281.342 385.615 272.856 387.167 264.406C388.544 256.915 389.996 249.413 391.636 241.969C392.988 235.813 394.678 228.755 399.348 223.933C399.348 224.448 399.335 224.963 399.323 225.478C398.985 236.796 396.694 247.938 395.567 259.186V259.209Z" fill="#7D2F6D" stroke="#301902" stroke-miterlimit="10"/>
<path d="M1368.21 229.305C1368.21 229.305 1366.62 223.605 1360.83 216.501C1355.97 210.567 1359.24 210.988 1365.61 214.09C1371.97 217.191 1372.08 218.046 1372.08 218.046C1372.08 218.046 1371.58 209.431 1370.25 207.816C1368.92 206.201 1372.89 207.606 1375.4 209.771C1377.89 211.936 1378.89 213.224 1378.89 213.224C1378.89 213.224 1381.32 207.746 1383.02 205.347C1384.86 202.772 1386.23 203.228 1388.52 209.115C1390.82 215.003 1389.66 208.612 1393.56 202.011C1396.38 197.236 1401.8 193.748 1404.58 192.191C1405.12 191.887 1405.77 192.367 1405.58 192.929C1405.1 194.356 1404.6 196.732 1404.89 200.127C1405.39 206.154 1405.53 209.759 1405.53 209.759C1405.53 209.759 1409.76 206.201 1415.77 203.228C1419.55 201.356 1423.03 201.25 1425.1 201.426C1425.67 201.473 1425.86 202.187 1425.36 202.467C1423.82 203.334 1421.67 205.113 1420.89 208.507C1419.63 214.019 1414.46 217.87 1414.46 217.87C1414.46 217.87 1416.31 217.379 1419.76 217.379C1423.22 217.379 1416.97 219.368 1415.64 221.85C1414.32 224.331 1413.25 229.317 1413.25 229.317H1368.22L1368.21 229.305Z" fill="#EC497F" stroke="#301902" stroke-width="2" stroke-miterlimit="10"/>
<path d="M1498.61 222.048C1495.21 215.903 1497.81 219.438 1497.4 211.432C1497 203.427 1491.03 202.303 1487.82 199.506C1488.34 202.607 1486.8 206.61 1485.65 209.934C1483.86 215.154 1482.86 216.641 1481.87 217.577C1480.88 218.513 1473.31 222.797 1468.51 224.471C1463.73 226.145 1458.55 228.567 1449.98 227.081C1441.42 225.594 1436.63 228.017 1433.25 228.754C1429.85 229.504 1407.73 229.316 1402.16 228.754C1396.58 228.193 1396.78 224.658 1394.35 221.674C1392.76 219.719 1393.44 219.204 1393.99 217.507C1393.77 217.717 1393.56 217.928 1393.36 218.127C1386.95 224.834 1393.79 238.621 1393.36 239.37C1392.94 240.119 1400.57 240.669 1403.36 240.857C1406.16 241.044 1423.29 248.499 1428.48 249.342C1433.66 250.197 1441.83 252.596 1458.17 253.333C1474.51 254.082 1477.9 252.584 1489.86 251.847C1501.81 251.098 1502.41 245.328 1505 238.059C1507.59 230.791 1502.01 228.181 1498.63 222.036L1498.61 222.048Z" fill="#917A00" stroke="#301902" stroke-width="2" stroke-miterlimit="10"/>
<path d="M1394.35 221.685C1396.78 224.67 1396.58 228.205 1402.16 228.766C1407.75 229.328 1429.87 229.515 1433.25 228.766C1436.64 228.017 1441.42 225.595 1449.98 227.093C1458.55 228.579 1463.73 226.156 1468.51 224.483C1473.29 222.809 1480.87 218.525 1481.87 217.589C1482.87 216.653 1483.86 215.166 1485.65 209.946C1486.79 206.622 1488.34 202.608 1487.82 199.518C1487.51 197.762 1486.55 196.299 1484.46 195.421C1478.68 192.999 1470.51 189.464 1464.53 188.715C1458.55 187.966 1453.76 187.966 1447.39 184.806C1441.02 181.634 1428.26 178.848 1419.69 180.147C1416.58 180.616 1413.12 185.367 1411.13 186.479C1409.14 187.603 1408.33 187.966 1405.94 191.138C1403.55 194.309 1400.56 195.983 1398.57 200.829C1396.58 205.674 1393.99 207.91 1394.39 213.493C1394.53 215.424 1394.28 216.641 1393.99 217.53C1393.44 219.216 1392.76 219.743 1394.35 221.697V221.685Z" fill="#EFDD37" stroke="#301902" stroke-width="2" stroke-miterlimit="10"/>
<path d="M1428.5 244.216C1428.54 239.078 1427.65 241.418 1426.65 236.76C1425.65 232.102 1422.68 228.438 1422.48 228.052C1422.48 228.052 1422.48 228.052 1422.47 228.052C1424.41 231.505 1424.4 236.269 1424.68 239.382C1425.08 243.666 1423.29 243.478 1419.9 246.65C1416.51 249.822 1410.54 248.698 1407.95 248.511C1405.35 248.324 1400.57 249.26 1390.21 246.65C1379.84 244.04 1375.66 251.87 1366.7 248.511C1364.07 247.528 1362.67 246.416 1362.01 245.222C1362.44 247.856 1366.72 255.136 1369.43 257.664C1372.13 260.192 1371.7 259.256 1381.96 260.461C1392.21 261.655 1390.64 260.859 1404.32 259.934C1417.99 258.998 1419.84 259.536 1420.69 257.933C1421.54 256.341 1422.54 255.276 1426.81 252.338C1431.08 249.412 1428.48 249.354 1428.51 244.216H1428.5Z" fill="#AD9700" stroke="#301902" stroke-width="2" stroke-linecap="round" stroke-linejoin="round"/>
<path d="M1366.68 248.511C1375.65 251.87 1379.84 244.04 1390.19 246.65C1400.56 249.26 1405.34 248.324 1407.93 248.511C1410.52 248.699 1416.5 249.81 1419.89 246.65C1423.28 243.479 1425.07 243.666 1424.67 239.382C1424.38 236.281 1424.4 231.517 1422.46 228.052C1421.72 226.742 1420.71 225.618 1419.29 224.846C1414.1 222.048 1396.57 218.888 1396.57 218.888C1394.98 219.075 1391.78 219.45 1386.8 220.936C1381.82 222.423 1375.85 224.658 1372.66 227.081C1369.46 229.504 1365.28 230.99 1364.09 235.648C1363.24 238.937 1360.41 242.332 1362 245.222C1362.65 246.416 1364.07 247.528 1366.68 248.511Z" fill="#EFDD37" stroke="#301902" stroke-width="2" stroke-miterlimit="10"/>
<path d="M1470.9 192.695C1469.88 193.077 1469.04 192.8 1468.36 191.864C1468.1 191.501 1467.81 191.161 1467.55 190.798C1467.07 190.143 1466.53 189.862 1465.77 190.471C1465.11 191.009 1464.34 190.611 1463.69 190.518C1460.09 189.991 1456.48 189.897 1452.88 190.424C1452.38 190.494 1451.92 190.564 1451.81 189.932C1451.94 189.429 1452.43 189.406 1452.81 189.265C1454.37 188.738 1455.98 188.598 1457.62 188.575C1458.01 188.575 1458.51 188.633 1458.65 188.2C1458.81 187.697 1458.3 187.51 1457.93 187.322C1457.17 186.924 1456.29 186.807 1455.47 186.55C1454.97 186.386 1454.27 186.281 1454.28 185.684C1454.28 185.087 1455 185.005 1455.5 184.853C1456.94 184.42 1458.42 184.42 1459.91 184.654C1460.34 184.724 1460.81 184.911 1461.1 184.478C1461.36 184.092 1460.96 183.799 1460.8 183.472C1460.26 182.36 1459.57 181.318 1459.12 180.171C1459.01 179.89 1458.82 179.586 1459.06 179.305C1459.34 178.989 1459.74 179.129 1460.07 179.211C1461.08 179.469 1461.85 180.089 1462.67 180.663C1463.7 181.4 1463.74 181.388 1463.99 180.253C1464.48 178.029 1466.67 176.812 1468.51 176.262C1469.2 176.063 1469.48 176.414 1469.34 177.023C1469.18 177.783 1468.99 178.556 1468.64 179.258C1467.92 180.698 1467.81 182.254 1467.54 183.788C1467.49 184.045 1467.39 184.396 1467.67 184.537C1468.01 184.712 1468.15 184.338 1468.35 184.174C1469.2 183.472 1470.29 183.483 1471.3 183.273C1471.9 183.156 1472.53 183.156 1473.14 183.144C1473.49 183.144 1473.92 183.05 1474.13 183.401C1474.35 183.776 1474 184.022 1473.77 184.279C1473.54 184.548 1473.31 184.794 1473.04 185.04C1471.83 186.14 1470.98 187.474 1470.2 188.856C1470.06 189.09 1469.83 189.347 1470.05 189.593C1470.28 189.85 1470.59 189.64 1470.87 189.569C1471.94 189.324 1473.02 189.359 1474.1 189.558C1474.58 189.651 1475.2 190.026 1474.66 190.412C1473.48 191.255 1472.29 192.121 1470.9 192.671V192.695Z" fill="#DBCE02" stroke="#301902" stroke-width="2" stroke-miterlimit="10"/>
<path d="M1455.93 188.118C1455.33 188.212 1454.74 188.317 1454.15 188.446C1452.8 188.75 1451.5 189.137 1450.4 190.213C1451 190.272 1451.41 190.073 1451.82 189.921C1453.78 189.008 1455.87 188.821 1458.01 188.856C1458.55 188.856 1458.95 188.785 1459.11 188.294C1459.26 187.802 1458.97 187.533 1458.51 187.264C1457.53 186.69 1456.43 186.55 1455.37 186.246C1454.98 186.129 1454.49 185.976 1454.45 185.672C1454.43 185.38 1454.95 185.262 1455.29 185.169C1456.96 184.689 1458.65 184.513 1460.34 185.028C1460.9 185.192 1461.24 185.005 1461.54 184.63C1461.84 184.233 1461.54 183.987 1461.31 183.659C1460.44 182.29 1459.72 180.85 1459.03 179.235C1459.32 179.282 1459.46 179.293 1459.59 179.317C1461.06 179.586 1462.06 180.581 1463.19 181.365C1463.89 181.857 1464.17 181.611 1464.26 180.967C1464.62 178.451 1466.52 176.695 1469.26 176.438C1469.16 176.777 1469.06 177.105 1468.96 177.421C1468.47 179.106 1467.62 180.686 1467.43 182.454C1467.33 183.378 1466.81 184.338 1467.66 185.263C1469.31 183.121 1471.79 183.601 1474.11 183.46C1472.47 185.122 1471 186.831 1469.85 188.797C1469.46 189.464 1469.58 189.792 1469.91 190.272C1471.52 189.382 1473.13 189.57 1475.1 190.096C1473.39 190.892 1472.03 191.63 1470.9 192.683C1470.68 193.069 1470.8 193.409 1471.08 193.701C1471.32 193.959 1471.58 193.748 1471.74 193.608C1472.98 192.601 1474.5 192.016 1475.91 191.302C1476.59 190.962 1476.94 190.459 1476.86 189.862C1476.8 189.336 1476.21 189.02 1475.65 188.856C1474.41 188.505 1473.18 188.13 1471.85 188.247C1471.65 188.27 1471.34 188.516 1471.19 188.177C1471.1 187.966 1471.32 187.826 1471.42 187.662C1472.24 186.269 1473.46 185.192 1474.6 184.057C1474.93 183.718 1475.74 183.589 1475.52 182.968C1475.3 182.325 1474.48 182.5 1473.93 182.29C1473.82 182.243 1473.66 182.313 1473.51 182.301C1471.79 182.138 1470.14 182.5 1468.55 182.84C1468.5 181.786 1468.82 180.815 1469.11 179.844C1469.5 178.544 1470.2 177.362 1470.53 176.04C1470.73 175.244 1470.49 175.056 1469.7 175.209C1468.35 175.49 1467.12 176.016 1466 176.765C1464.69 177.655 1463.87 178.849 1463.49 180.464C1462.08 179.165 1460.49 178.615 1458.8 178.252C1457.8 178.029 1457.65 178.135 1457.85 179.106C1458 179.797 1458.25 180.452 1458.6 181.084C1459.01 181.845 1459.36 182.641 1459.76 183.472C1459.14 183.437 1458.67 183.378 1458.22 183.39C1456.47 183.437 1454.82 183.823 1453.35 184.794C1452.9 185.099 1452.54 185.497 1452.64 186.058C1452.73 186.562 1453.18 186.714 1453.66 186.819C1454.44 186.995 1455.2 187.217 1455.97 187.428C1456.21 187.498 1456.54 187.568 1456.52 187.837C1456.51 188.153 1456.16 188.048 1455.92 188.095L1455.93 188.118Z" fill="#301902"/>
<path d="M1542.08 251.18C1542.08 251.18 1543.67 245.48 1549.47 238.376C1554.33 232.442 1551.06 232.863 1544.69 235.965C1538.33 239.066 1538.22 239.921 1538.22 239.921C1538.22 239.921 1538.72 231.306 1540.04 229.691C1541.37 228.076 1537.4 229.481 1534.9 231.646C1532.41 233.811 1531.41 235.098 1531.41 235.098C1531.41 235.098 1528.98 229.621 1527.27 227.222C1525.43 224.647 1524.07 225.103 1521.78 230.99C1519.48 236.877 1520.64 230.487 1516.73 223.886C1513.92 219.111 1508.5 215.623 1505.72 214.066C1505.18 213.762 1504.53 214.242 1504.72 214.804C1505.19 216.231 1505.69 218.607 1505.4 222.002C1504.9 228.029 1504.77 231.634 1504.77 231.634C1504.77 231.634 1500.53 228.076 1494.53 225.103C1490.74 223.23 1487.26 223.125 1485.2 223.301C1484.62 223.348 1484.44 224.062 1484.94 224.342C1486.48 225.209 1488.63 226.987 1489.41 230.382C1490.67 235.894 1495.84 239.745 1495.84 239.745C1495.84 239.745 1493.99 239.254 1490.53 239.254C1487.08 239.254 1493.32 241.243 1494.65 243.724C1495.98 246.206 1497.04 251.192 1497.04 251.192H1542.07L1542.08 251.18Z" fill="#EC497F" stroke="#301902" stroke-width="2" stroke-miterlimit="10"/>
<path d="M1499.61 247.13C1495.16 250.244 1490.37 249.799 1484.76 249.693C1479.15 249.588 1476.92 249.038 1473.42 249.26C1469.91 249.483 1468.51 248.5 1466.87 245.106C1466.68 244.719 1466.58 244.31 1466.55 243.9C1466.55 243.982 1466.52 244.064 1466.52 244.146C1466.57 247.236 1469.34 255.698 1469.06 256.833C1468.79 257.98 1475.27 258.553 1481.14 258.893C1487.01 259.232 1495.21 257.172 1498.14 256.154C1501.07 255.124 1500.71 252.76 1503.4 251.086C1506.09 249.413 1506.39 242.051 1506.39 242.051C1505.45 244.45 1504.05 244.029 1499.61 247.142V247.13Z" fill="#AD9700" stroke="#301902" stroke-width="2" stroke-linecap="round" stroke-linejoin="round"/>
<path d="M1496.45 237.884C1494 237.662 1489.56 237.229 1484.76 236.047C1479.97 234.865 1480.08 235.696 1477.51 234.549C1474.95 233.413 1471.55 234.595 1469.91 237.112C1469.91 237.112 1466.26 240.705 1466.55 243.877C1466.58 244.286 1466.68 244.696 1466.87 245.082C1468.51 248.476 1469.91 249.46 1473.42 249.237C1476.92 249.015 1479.15 249.565 1484.76 249.67C1490.37 249.776 1495.16 250.22 1499.61 247.107C1504.05 243.994 1505.45 244.427 1506.39 242.016C1507.33 239.616 1498.91 238.083 1496.45 237.861V237.884Z" fill="#EFDD37" stroke="#301902" stroke-width="2" stroke-miterlimit="10"/>
<path d="M1550.72 254.984C1548.33 256.658 1545.75 256.424 1542.74 256.365C1539.72 256.306 1537.88 254.504 1537.87 254.282C1537.87 254.328 1537.87 254.364 1537.87 254.41C1537.89 256.072 1539.52 258.121 1539.37 258.729C1539.22 259.35 1542.71 259.654 1545.86 259.841C1549.02 260.028 1548.37 260.379 1549.95 259.841C1551.52 259.291 1551.32 258.015 1552.78 257.114C1554.23 256.213 1554.39 252.257 1554.39 252.257C1553.89 253.556 1553.14 253.322 1550.75 254.996L1550.72 254.984Z" fill="#AD9700" stroke="#301902" stroke-width="2" stroke-linecap="round" stroke-linejoin="round"/>
<path d="M1549.03 250.009C1547.72 249.892 1540.56 249.284 1539.68 250.63C1539.68 250.63 1537.71 252.561 1537.87 254.27C1537.89 254.492 1537.94 254.715 1538.04 254.925C1538.92 256.751 1548.33 256.646 1550.72 254.984C1553.11 253.31 1553.86 253.544 1554.36 252.245C1554.87 250.946 1550.35 250.127 1549.02 250.009H1549.03Z" fill="#EFDD37" stroke="#301902" stroke-width="2" stroke-miterlimit="10"/>
<path d="M1382.75 262.872C1382.81 262.017 1383.81 260.519 1381.99 258.81C1381.24 258.108 1380.83 257.839 1380.55 257.769C1381.04 258.377 1380.76 259.22 1380.81 259.852C1380.91 260.987 1380.35 260.905 1379.8 261.725C1379.25 262.544 1378.34 262.38 1376.76 262.544C1375.18 262.708 1374.71 262.602 1373.94 262.813C1373.18 263.024 1372.79 262.743 1371.77 262.298C1370.74 261.853 1370.68 262.591 1369.23 262.298C1368.55 262.158 1368.29 261.888 1368.26 261.537C1368.24 261.572 1368.2 261.608 1368.19 261.631C1367.67 262.333 1368.44 263.035 1368.71 263.539C1368.99 264.042 1372.81 264.557 1374.68 264.709C1376.56 264.861 1376.82 264.885 1379.14 265.072C1381.46 265.259 1380.17 264.885 1381.73 264.346C1383.3 263.808 1382.68 263.738 1382.75 262.883V262.872Z" fill="#AD9700" stroke="#301902" stroke-width="2" stroke-linecap="round" stroke-linejoin="round"/>
<path d="M1369.23 262.287C1370.68 262.591 1370.74 261.854 1371.77 262.287C1372.79 262.732 1373.18 263.001 1373.94 262.802C1374.71 262.603 1375.18 262.697 1376.76 262.533C1378.34 262.369 1379.24 262.533 1379.8 261.713C1380.35 260.894 1380.91 260.964 1380.81 259.841C1380.76 259.209 1381.04 258.366 1380.55 257.757C1380.17 257.277 1379.27 256.938 1377.29 257.008C1376.74 257.032 1374.26 256.973 1373.41 257.242C1372.56 257.512 1372.94 257.242 1371.77 257.909C1370.59 258.577 1369.98 258.951 1369.05 260.016C1368.56 260.59 1368.24 261.105 1368.26 261.514C1368.27 261.865 1368.55 262.135 1369.23 262.275V262.287Z" fill="#EFDD37" stroke="#301902" stroke-width="2" stroke-miterlimit="10"/>
<path d="M509.15 380.031C509.15 380.031 476.088 358.202 491.649 361C507.21 363.797 512.868 365.623 512.868 365.623C512.868 365.623 498.397 338.259 507.948 346.697C517.5 355.136 522.971 361.55 522.971 361.55C522.971 361.55 541.912 326.976 544.415 336.164C546.919 345.34 545.78 366.746 545.78 366.746C545.78 366.746 571.131 354.879 565.885 360.052C560.64 365.225 556.033 371.428 556.033 371.428C556.033 371.428 572.545 368.455 568.689 372.224C564.834 375.993 555.257 380.042 555.257 380.042H509.15V380.031Z" fill="#7D2F6D" stroke="#301902" stroke-linecap="round" stroke-linejoin="round"/>
<path d="M614.495 230.137C614.495 230.137 581.433 208.308 596.994 211.106C612.542 213.903 618.213 215.729 618.213 215.729C618.213 215.729 603.742 188.365 613.294 196.803C622.845 205.242 628.316 211.656 628.316 211.656C628.316 211.656 647.257 177.082 649.761 186.27C652.264 195.446 651.125 216.852 651.125 216.852C651.125 216.852 676.476 204.984 671.23 210.158C665.985 215.331 661.378 221.534 661.378 221.534C661.378 221.534 677.89 218.561 674.035 222.33C670.179 226.099 660.602 230.148 660.602 230.148H614.495V230.137Z" fill="#7D2F6D" stroke="#301902" stroke-width="2" stroke-linecap="round" stroke-linejoin="round"/>
<path d="M865.684 423.816C865.684 423.816 832.622 401.988 848.183 404.785C863.731 407.583 869.402 409.409 869.402 409.409C869.402 409.409 854.93 382.044 864.482 390.483C874.034 398.922 879.505 405.335 879.505 405.335C879.505 405.335 898.446 370.761 900.949 379.949C903.453 389.125 902.314 410.532 902.314 410.532C902.314 410.532 927.664 398.664 922.419 403.837C917.174 409.011 912.567 415.214 912.567 415.214C912.567 415.214 929.079 412.241 925.223 416.01C921.368 419.778 911.791 423.828 911.791 423.828H865.684V423.816Z" fill="#7D2F6D" stroke="#301902" stroke-width="2" stroke-linecap="round" stroke-linejoin="round"/>
<path d="M1478.25 343.163C1478.25 343.163 1445.19 321.335 1460.75 324.132C1476.3 326.929 1481.97 328.755 1481.97 328.755C1481.97 328.755 1467.5 301.391 1477.05 309.83C1486.6 318.268 1492.07 324.682 1492.07 324.682C1492.07 324.682 1511.01 290.108 1513.52 299.296C1516.02 308.472 1514.88 329.879 1514.88 329.879C1514.88 329.879 1540.23 318.011 1534.99 323.184C1529.74 328.357 1525.13 334.56 1525.13 334.56C1525.13 334.56 1541.65 331.588 1537.79 335.356C1533.94 339.125 1524.36 343.175 1524.36 343.175H1478.25V343.163Z" fill="#7D2F6D" stroke="#301902" stroke-width="2" stroke-linecap="round" stroke-linejoin="round"/>
<path d="M947.081 283.155C947.093 283.635 946.355 283.939 945.729 285.122C944.69 287.088 942.136 287.263 940.008 287.849C937.88 288.434 939.294 287.966 937.266 287.849C935.238 287.732 933.773 287.849 932.171 287.814C930.569 287.79 926.613 286.081 922.782 283.448C918.951 280.815 920.291 279.983 920.128 279.152C920.003 278.474 920.166 278.368 920.391 277.748C920.028 277.853 919.627 278.146 919.202 278.93C918.213 280.721 917.199 282.839 917.048 284.021C916.898 285.192 916.986 286.971 917.048 288.504C917.111 290.037 917.674 292.004 922.018 292.554C926.362 293.104 924.272 292.343 929.141 293.174C933.999 294.005 932.547 293.841 934.938 294.005C937.329 294.169 939.319 294.204 941.51 294.028C943.701 293.853 943.964 293.724 945.253 292.741C946.542 291.758 946.793 290.459 947.719 288.925C948.646 287.392 948.821 284.326 947.106 283.179L947.081 283.155Z" fill="#917A00" stroke="#301902" stroke-width="2" stroke-miterlimit="10"/>
<path d="M920.128 279.153C920.291 279.984 918.951 280.815 922.782 283.449C926.613 286.082 930.568 287.779 932.171 287.814C933.773 287.838 935.238 287.732 937.266 287.849C939.294 287.966 937.879 288.435 940.008 287.849C942.136 287.264 944.69 287.089 945.729 285.122C946.355 283.94 947.093 283.636 947.081 283.156C947.081 282.828 946.718 282.43 945.729 281.635C943.288 279.657 942.299 278.369 941.084 277.327C939.87 276.274 940.183 276.216 937.879 275.115C935.576 274.015 936.916 273.325 933.773 273.5C930.631 273.664 929.529 273.407 928.603 273.477C927.677 273.547 926.9 273.137 926.062 273.5C925.699 273.652 924.171 274.273 922.832 275.303C921.492 276.333 920.841 276.134 920.541 277.257C920.491 277.456 920.441 277.62 920.391 277.749C920.165 278.381 920.003 278.474 920.128 279.153Z" fill="#EFDD37" stroke="#301902" stroke-width="2" stroke-miterlimit="10"/>
<path d="M1122.98 258.962C1122.99 259.442 1122.32 259.747 1121.74 260.929C1120.79 262.895 1118.45 263.071 1116.51 263.656C1114.57 264.241 1115.86 263.773 1114.01 263.656C1112.14 263.539 1110.81 263.656 1109.34 263.621C1107.87 263.597 1104.25 261.889 1100.75 259.255C1097.24 256.622 1098.47 255.791 1098.32 254.96C1098.21 254.281 1098.35 254.175 1098.56 253.555C1098.22 253.661 1097.87 253.953 1097.47 254.737C1096.57 256.528 1095.64 258.646 1095.49 259.829C1095.35 260.999 1095.43 262.778 1095.49 264.311C1095.55 265.844 1096.07 267.811 1100.05 268.361C1104.03 268.911 1102.11 268.15 1106.56 268.981C1111 269.812 1109.67 269.648 1111.85 269.812C1114.04 269.976 1115.87 270.011 1117.86 269.836C1119.85 269.66 1120.12 269.531 1121.29 268.548C1122.47 267.565 1122.69 266.266 1123.55 264.733C1124.4 263.199 1124.56 260.133 1122.98 258.986V258.962Z" fill="#917A00" stroke="#301902" stroke-width="2" stroke-miterlimit="10"/>
<path d="M1098.32 254.96C1098.47 255.791 1097.24 256.622 1100.75 259.256C1104.25 261.889 1107.87 263.586 1109.34 263.621C1110.8 263.645 1112.14 263.54 1114.01 263.657C1115.87 263.774 1114.57 264.242 1116.51 263.657C1118.45 263.071 1120.79 262.896 1121.74 260.929C1122.31 259.747 1122.99 259.443 1122.98 258.963C1122.98 258.636 1122.64 258.238 1121.74 257.442C1119.5 255.464 1118.6 254.176 1117.5 253.135C1116.4 252.081 1116.67 252.023 1114.57 250.923C1112.47 249.822 1113.68 249.132 1110.81 249.307C1107.95 249.471 1106.93 249.214 1106.08 249.284C1105.23 249.354 1104.53 248.945 1103.75 249.307C1103.42 249.46 1102.03 250.08 1100.8 251.11C1099.57 252.14 1098.97 251.941 1098.71 253.064C1098.66 253.263 1098.61 253.427 1098.57 253.556C1098.37 254.188 1098.22 254.282 1098.33 254.96H1098.32Z" fill="#EFDD37" stroke="#301902" stroke-width="2" stroke-miterlimit="10"/>
<path d="M1097.41 269.24C1097.56 267.109 1100.05 263.399 1095.54 259.162C1093.69 257.418 1092.66 256.751 1091.96 256.576C1093.17 258.074 1092.46 260.181 1092.59 261.726C1092.82 264.523 1091.46 264.336 1090.09 266.384C1088.72 268.432 1086.46 268.011 1082.57 268.409C1078.68 268.806 1077.49 268.561 1075.6 269.064C1073.71 269.567 1072.73 268.877 1070.19 267.788C1067.65 266.7 1067.5 268.526 1063.91 267.777C1062.24 267.425 1061.56 266.758 1061.53 265.892C1061.45 265.974 1061.38 266.056 1061.33 266.126C1060.06 267.87 1061.95 269.614 1062.64 270.855C1063.33 272.095 1072.79 273.371 1077.45 273.757C1082.11 274.144 1082.75 274.19 1088.48 274.67C1094.21 275.139 1091.03 274.202 1094.9 272.868C1098.78 271.534 1097.26 271.358 1097.41 269.24Z" fill="#AD9700" stroke="#301902" stroke-width="2" stroke-miterlimit="10"/>
<path d="M1063.91 267.777C1067.5 268.526 1067.65 266.7 1070.19 267.788C1072.73 268.877 1073.71 269.567 1075.6 269.064C1077.49 268.561 1078.67 268.806 1082.57 268.408C1086.46 268.011 1088.73 268.432 1090.09 266.384C1091.47 264.335 1092.82 264.534 1092.59 261.725C1092.45 260.169 1093.17 258.074 1091.96 256.576C1090.98 255.37 1088.77 254.551 1083.86 254.715C1082.48 254.762 1076.36 254.633 1074.25 255.288C1072.14 255.955 1073.11 255.288 1070.19 256.95C1067.27 258.612 1065.75 259.513 1063.47 262.182C1062.25 263.61 1061.45 264.886 1061.5 265.892C1061.55 266.758 1062.22 267.425 1063.88 267.777H1063.91Z" fill="#EFDD37" stroke="#301902" stroke-width="2" stroke-miterlimit="10"/>
<path d="M892.261 253.299C892.349 251.988 893.889 249.706 891.109 247.096C889.97 246.019 889.332 245.609 888.906 245.504C889.657 246.429 889.207 247.716 889.294 248.676C889.444 250.396 888.606 250.279 887.754 251.543C886.903 252.796 885.526 252.538 883.122 252.784C880.719 253.03 879.993 252.877 878.829 253.193C877.664 253.509 877.063 253.077 875.499 252.409C873.934 251.742 873.846 252.854 871.63 252.409C870.604 252.199 870.191 251.789 870.166 251.251C870.128 251.297 870.078 251.356 870.04 251.391C869.264 252.468 870.428 253.533 870.854 254.294C871.28 255.054 877.101 255.85 879.968 256.084C882.835 256.319 883.223 256.354 886.753 256.646C890.283 256.939 888.318 256.354 890.709 255.534C893.087 254.715 892.161 254.61 892.249 253.299H892.261Z" fill="#AD9700" stroke="#301902" stroke-width="2" stroke-miterlimit="10"/>
<path d="M871.655 252.398C873.871 252.854 873.959 251.742 875.524 252.398C877.089 253.065 877.689 253.498 878.854 253.182C880.018 252.866 880.744 253.018 883.148 252.772C885.551 252.526 886.941 252.784 887.779 251.532C888.631 250.279 889.457 250.396 889.319 248.664C889.232 247.704 889.682 246.417 888.931 245.492C888.33 244.755 886.966 244.252 883.949 244.345C883.097 244.369 879.329 244.287 878.027 244.696C876.725 245.106 877.326 244.696 875.536 245.714C873.746 246.733 872.807 247.295 871.405 248.933C870.654 249.811 870.166 250.595 870.203 251.216C870.228 251.754 870.641 252.164 871.668 252.374L871.655 252.398Z" fill="#EFDD37" stroke="#301902" stroke-width="2" stroke-miterlimit="10"/>
<path d="M1419.05 317.145C1419.14 315.834 1420.68 313.552 1417.9 310.942C1416.76 309.865 1416.12 309.455 1415.7 309.35C1416.45 310.275 1416 311.562 1416.08 312.522C1416.23 314.242 1415.4 314.125 1414.54 315.389C1413.69 316.642 1412.32 316.384 1409.91 316.63C1407.51 316.876 1406.78 316.724 1405.62 317.04C1404.45 317.356 1403.85 316.923 1402.29 316.255C1400.72 315.588 1400.64 316.7 1398.42 316.255C1397.39 316.045 1396.98 315.635 1396.96 315.097C1396.92 315.144 1396.87 315.202 1396.83 315.237C1396.05 316.314 1397.22 317.379 1397.64 318.14C1398.07 318.901 1403.89 319.696 1406.76 319.931C1409.62 320.165 1410.01 320.2 1413.54 320.492C1417.07 320.785 1415.11 320.2 1417.5 319.38C1419.88 318.561 1418.95 318.456 1419.04 317.145H1419.05Z" fill="#AD9700" stroke="#301902" stroke-miterlimit="10"/>
<path d="M1398.44 316.244C1400.66 316.7 1400.75 315.588 1402.31 316.244C1403.88 316.899 1404.48 317.344 1405.64 317.028C1406.81 316.712 1407.53 316.864 1409.94 316.618C1412.34 316.373 1413.73 316.63 1414.57 315.378C1415.42 314.125 1416.25 314.242 1416.11 312.51C1416.02 311.551 1416.47 310.263 1415.72 309.338C1415.12 308.601 1413.76 308.098 1410.74 308.191C1409.89 308.215 1406.12 308.133 1404.82 308.543C1403.52 308.952 1404.12 308.543 1402.33 309.561C1400.54 310.579 1399.6 311.141 1398.19 312.779C1397.44 313.657 1396.96 314.441 1396.99 315.062C1397.02 315.6 1397.43 316.01 1398.46 316.221L1398.44 316.244Z" fill="#EFDD37" stroke="#301902" stroke-miterlimit="10"/>
<path d="M1083.36 390.319C1083.45 389.009 1084.99 386.726 1082.21 384.116C1081.07 383.039 1080.43 382.63 1080.01 382.524C1080.76 383.449 1080.31 384.737 1080.39 385.696C1080.54 387.417 1079.7 387.3 1078.85 388.564C1078 389.828 1076.63 389.559 1074.22 389.804C1071.82 390.05 1071.09 389.898 1069.93 390.214C1068.76 390.53 1068.16 390.097 1066.6 389.43C1065.03 388.763 1064.95 389.875 1062.73 389.43C1061.7 389.219 1061.29 388.81 1061.26 388.271C1061.23 388.318 1061.18 388.377 1061.14 388.412C1060.36 389.488 1061.53 390.553 1061.95 391.314C1062.38 392.075 1068.2 392.871 1071.07 393.105C1073.93 393.339 1074.32 393.374 1077.85 393.667C1081.38 393.959 1079.42 393.374 1081.81 392.555C1084.19 391.736 1083.26 391.63 1083.35 390.319H1083.36Z" fill="#AD9700" stroke="#301902" stroke-width="2" stroke-miterlimit="10"/>
<path d="M1062.74 389.429C1064.96 389.886 1065.05 388.774 1066.61 389.429C1068.17 390.097 1068.78 390.53 1069.94 390.214C1071.1 389.898 1071.83 390.05 1074.23 389.804C1076.64 389.558 1078.03 389.816 1078.87 388.563C1079.7 387.311 1080.54 387.428 1080.41 385.696C1080.32 384.736 1080.77 383.449 1080.02 382.524C1079.42 381.787 1078.05 381.283 1075.04 381.377C1074.18 381.4 1070.42 381.318 1069.11 381.728C1067.81 382.138 1068.41 381.728 1066.62 382.746C1064.83 383.765 1063.89 384.326 1062.49 385.965C1061.74 386.843 1061.25 387.627 1061.29 388.247C1061.31 388.786 1061.73 389.195 1062.75 389.406L1062.74 389.429Z" fill="#EFDD37" stroke="#301902" stroke-width="2" stroke-miterlimit="10"/>
<path d="M825.887 456.74C825.974 455.429 827.514 453.147 824.735 450.537C823.596 449.46 822.957 449.05 822.532 448.945C823.283 449.869 822.832 451.157 822.92 452.117C823.07 453.837 822.231 453.72 821.38 454.984C820.529 456.237 819.152 455.979 816.748 456.225C814.345 456.471 813.619 456.319 812.454 456.635C811.29 456.951 810.689 456.517 809.124 455.85C807.559 455.183 807.472 456.295 805.256 455.85C804.229 455.64 803.816 455.23 803.791 454.692C803.754 454.738 803.704 454.797 803.666 454.832C802.89 455.909 804.054 456.974 804.48 457.735C804.905 458.495 810.727 459.291 813.594 459.525C816.46 459.759 816.848 459.795 820.379 460.087C823.909 460.38 821.943 459.795 824.335 458.975C826.713 458.156 825.787 458.051 825.874 456.74H825.887Z" fill="#AD9700" stroke="#301902" stroke-width="2" stroke-miterlimit="10"/>
<path d="M805.268 455.85C807.484 456.307 807.572 455.195 809.137 455.85C810.702 456.517 811.302 456.951 812.467 456.634C813.631 456.318 814.357 456.471 816.761 456.225C819.164 455.979 820.554 456.237 821.393 454.984C822.244 453.732 823.07 453.849 822.932 452.117C822.845 451.157 823.295 449.869 822.544 448.945C821.943 448.207 820.579 447.704 817.562 447.798C816.711 447.821 812.942 447.739 811.64 448.149C810.339 448.559 810.939 448.149 809.149 449.167C807.359 450.186 806.42 450.747 805.018 452.386C804.267 453.264 803.779 454.048 803.816 454.668C803.841 455.207 804.254 455.616 805.281 455.827L805.268 455.85Z" fill="#EFDD37" stroke="#301902" stroke-width="2" stroke-miterlimit="10"/>
</svg>
