<?xml version="1.0" encoding="UTF-8"?>
<svg id="Layer_1" xmlns="http://www.w3.org/2000/svg" xmlns:xlink="http://www.w3.org/1999/xlink" viewBox="0 0 1195.73 172.78">
  <defs>
    <style>
      .cls-1 {
        fill: none;
      }

      .cls-2 {
        fill: gray;
      }

      .cls-3 {
        fill: #c8cacb;
      }

      .cls-4 {
        fill: #dc0041;
      }

      .cls-5 {
        fill: #303030;
      }

      .cls-6 {
        fill: #fff;
      }

      .cls-7 {
        fill: #084b79;
      }

      .cls-8 {
        fill: #241f20;
      }

      .cls-9 {
        fill: #fd8901;
      }

      .cls-10 {
        clip-path: url(#clippath);
      }
    </style>
    <clipPath id="clippath">
      <path class="cls-1" d="M117.78,102.43c-3.49,0-6.32-2.83-6.32-6.32s2.83-6.32,6.32-6.32,6.32,2.83,6.32,6.32-2.83,6.32-6.32,6.32ZM161.13,38.24h-56.21c-2.42,0-3.13,3.29-.93,4.29l29.58,13.46c.8.36,1.32,1.16,1.32,2.05v64.79l-.16,16.85c-.01,1.29-1.33,2.14-2.51,1.63l-24.56-8.68,25.88,14.55c.73.41,1.6.48,2.39.2l25.79-9.17c.89-.32,1.49-1.16,1.49-2.11l.17-95.6c0-1.24-1-2.25-2.25-2.25Z"/>
    </clipPath>
  </defs>
  <rect class="cls-6" x="0" y="0" width="1195.73" height="172.78" rx="86.3" ry="86.3"/>
  <g>
    <g>
      <g>
        <path class="cls-4" d="M242.33,115.58c-3.54,1.47-7.68,2.2-12.41,2.2-4.07,0-7.8-.71-11.21-2.13-3.4-1.42-6.31-3.4-8.72-5.96-2.41-2.56-4.3-5.62-5.68-9.22-1.37-3.59-2.05-7.65-2.05-12.2s.68-8.31,2.05-11.91c1.37-3.6,3.26-6.67,5.68-9.22,2.41-2.56,5.34-4.51,8.79-5.89,3.45-1.37,7.16-2.05,11.13-2.05,4.63,0,8.69.75,12.2,2.27,2.46,1.07,4.67,2.41,6.62,4.04,1.41,1.18,3.49,1.01,4.79-.29l11.77-11.87c1.57-1.58,1.32-4.14-.45-5.5-4.04-3.1-8.54-5.63-13.5-7.59-6.34-2.5-13.48-3.75-21.42-3.75s-14.73,1.32-21.21,3.97c-6.47,2.65-12.15,6.29-17.02,10.92-4.88,4.63-8.63,10.09-11.28,16.38-2.65,6.29-3.97,13.12-3.97,20.49s1.34,14.38,4.04,20.71c2.7,6.33,6.48,11.84,11.35,16.52,4.86,4.68,10.57,8.34,17.09,10.99,6.53,2.64,13.61,3.97,21.27,3.97,8.32,0,15.58-1.26,21.77-3.76,4.86-1.96,9.32-4.5,13.39-7.6,1.78-1.35,2.03-3.93.45-5.52l-11.79-11.79c-1.27-1.27-3.31-1.46-4.71-.34-2.09,1.68-4.42,3.05-6.99,4.11Z"/>
        <path class="cls-9" d="M303.25,113.76v-12.25c0-1.98,1.61-3.59,3.59-3.59h34.56c3.29,0,5.96-2.67,5.96-5.96v-8.92c0-3.29-2.67-5.96-5.96-5.96h-34.56c-1.98,0-3.59-1.61-3.59-3.59v-10.27c0-1.98,1.61-3.59,3.59-3.59h34.2c3.29,0,5.96-2.67,5.96-5.96v-9.48c0-3.29-2.67-5.96-5.96-5.96h-57.22c-3.29,0-5.96,2.67-5.96,5.96v88.63c0,3.29,2.67,5.96,5.96,5.96h57.92c3.29,0,5.96-2.67,5.96-5.96v-9.49c0-3.29-2.67-5.96-5.96-5.96h-34.91c-1.98,0-3.59-1.61-3.59-3.59Z"/>
        <g>
          <path class="cls-7" d="M124.09,96.11c0-3.49-2.83-6.32-6.32-6.32s-6.32,2.83-6.32,6.32,2.83,6.32,6.32,6.32,6.32-2.83,6.32-6.32Z"/>
          <path class="cls-7" d="M161.13,38.24h-56.21c-2.42,0-3.13,3.29-.93,4.29l29.58,13.46c.8.36,1.32,1.16,1.32,2.05v64.79l-.16,16.85c-.01,1.29-1.33,2.14-2.51,1.63l-24.56-8.68,25.88,14.55c.73.41,1.6.48,2.39.2l25.79-9.17c.89-.32,1.49-1.16,1.49-2.11l.17-95.6c0-1.24-1-2.25-2.25-2.25Z"/>
        </g>
      </g>
      <g>
        <path class="cls-8" d="M395.93,42.02v37.67h-5.69v-37.67h5.69Z"/>
        <path class="cls-8" d="M407.85,62.93v16.76h-5.46v-28.27h5.31v4.65h.38c.64-1.53,1.65-2.75,3.01-3.65,1.37-.9,3.12-1.35,5.26-1.35,1.92,0,3.6.4,5.05,1.2,1.44.8,2.56,1.99,3.36,3.58.8,1.58,1.2,3.55,1.2,5.89v17.95h-5.46v-17.3c0-2.04-.54-3.64-1.62-4.82-1.08-1.17-2.54-1.76-4.4-1.76-1.26,0-2.4.28-3.4.85-1,.57-1.79,1.37-2.36,2.42-.57,1.05-.86,2.33-.86,3.84Z"/>
        <path class="cls-8" d="M444.21,51.43v4.42h-15.42v-4.42h15.42ZM432.9,44.7h5.49v26.7c0,1.3.27,2.25.81,2.84s1.41.9,2.61.9c.28,0,.59-.02.92-.05.33-.03.66-.08,1-.15l1.04,4.55c-.56.18-1.17.33-1.82.43-.66.1-1.31.15-1.97.15-2.44,0-4.4-.69-5.86-2.06-1.47-1.37-2.2-3.21-2.2-5.5v-27.81Z"/>
        <path class="cls-8" d="M459.59,80.28c-2.76,0-5.16-.6-7.18-1.79-2.02-1.2-3.58-2.89-4.66-5.07-1.09-2.18-1.63-4.73-1.63-7.65s.54-5.45,1.61-7.66c1.07-2.21,2.58-3.93,4.52-5.17,1.95-1.24,4.23-1.86,6.86-1.86,1.6,0,3.15.26,4.65.78,1.5.52,2.85,1.35,4.05,2.48,1.2,1.13,2.14,2.59,2.85,4.4.7,1.8,1.05,3.98,1.05,6.52v1.97h-22.48v-4.12h19.65l-2.55,1.37c0-1.74-.27-3.27-.81-4.6-.54-1.33-1.34-2.37-2.42-3.12-1.07-.75-2.4-1.12-3.98-1.12s-2.94.38-4.06,1.14c-1.12.76-1.98,1.76-2.57,3.01-.59,1.25-.89,2.61-.89,4.09v2.81c0,1.94.34,3.58,1.01,4.93.68,1.35,1.62,2.38,2.82,3.09s2.61,1.06,4.21,1.06c1.05,0,1.99-.15,2.84-.46.85-.3,1.59-.76,2.22-1.36.62-.61,1.09-1.36,1.42-2.25l5.21.99c-.42,1.52-1.16,2.85-2.22,3.99-1.06,1.15-2.4,2.04-4.01,2.67-1.61.63-3.45.95-5.5.95Z"/>
        <path class="cls-8" d="M476.16,79.7v-28.27h5.28v4.52h.3c.52-1.52,1.44-2.72,2.74-3.6,1.31-.88,2.79-1.33,4.44-1.33.34,0,.74.01,1.2.04.46.03.84.05,1.13.09v5.26c-.22-.07-.61-.13-1.18-.2-.57-.07-1.13-.1-1.71-.1-1.3,0-2.46.27-3.48.82-1.02.55-1.82,1.3-2.4,2.25-.58.95-.87,2.05-.87,3.3v17.22h-5.46Z"/>
        <path class="cls-8" d="M499.86,62.93v16.76h-5.46v-28.27h5.31v4.65h.38c.64-1.53,1.65-2.75,3.01-3.65,1.37-.9,3.12-1.35,5.26-1.35,1.92,0,3.6.4,5.05,1.2,1.44.8,2.56,1.99,3.36,3.58.8,1.58,1.2,3.55,1.2,5.89v17.95h-5.46v-17.3c0-2.04-.54-3.64-1.62-4.82-1.08-1.17-2.54-1.76-4.4-1.76-1.26,0-2.4.28-3.4.85-1,.57-1.79,1.37-2.36,2.42-.57,1.05-.86,2.33-.86,3.84Z"/>
        <path class="cls-8" d="M531.7,80.3c-1.79,0-3.4-.33-4.86-1-1.45-.67-2.59-1.64-3.44-2.92-.84-1.28-1.26-2.84-1.26-4.68,0-1.6.31-2.91.92-3.93.62-1.02,1.45-1.83,2.49-2.44,1.05-.61,2.21-1.06,3.49-1.37,1.28-.3,2.6-.54,3.95-.71,1.7-.18,3.08-.35,4.12-.48,1.05-.13,1.81-.35,2.29-.64.48-.3.72-.77.72-1.43v-.13c0-1.6-.45-2.84-1.35-3.72-.9-.88-2.24-1.32-4.01-1.32s-3.29.4-4.36,1.2c-1.07.8-1.81,1.71-2.21,2.72l-5.19-1.19c.62-1.72,1.53-3.11,2.72-4.16s2.55-1.82,4.1-2.31c1.54-.49,3.15-.73,4.84-.73,1.13,0,2.32.13,3.59.39,1.26.26,2.46.74,3.58,1.44,1.12.7,2.04,1.7,2.74,3,.71,1.3,1.06,2.98,1.06,5.03v18.76h-5.39v-3.87h-.2c-.34.69-.86,1.38-1.58,2.07-.72.69-1.63,1.26-2.74,1.72-1.11.45-2.45.68-4.02.68ZM532.89,75.9c1.53,0,2.84-.3,3.92-.9,1.08-.6,1.91-1.38,2.48-2.36.57-.98.86-2.01.86-3.11v-3.67c-.2.19-.58.36-1.14.53-.55.17-1.19.31-1.89.43-.71.12-1.4.22-2.08.32-.67.09-1.24.16-1.69.22-1.06.15-2.03.38-2.91.69-.88.31-1.58.77-2.11,1.37-.53.6-.8,1.39-.8,2.36,0,1.36.51,2.39,1.52,3.09,1.01.69,2.29,1.04,3.85,1.04Z"/>
        <path class="cls-8" d="M563.96,51.43v4.42h-15.42v-4.42h15.42ZM552.66,44.7h5.49v26.7c0,1.3.27,2.25.81,2.84.54.6,1.41.9,2.6.9.29,0,.6-.02.92-.05.33-.03.66-.08,1-.15l1.04,4.55c-.55.18-1.16.33-1.82.43-.66.1-1.32.15-1.97.15-2.45,0-4.4-.69-5.86-2.06-1.47-1.37-2.2-3.21-2.2-5.5v-27.81Z"/>
        <path class="cls-8" d="M570.77,47.08c-.96,0-1.78-.32-2.45-.96-.68-.64-1.01-1.41-1.01-2.3s.34-1.68,1.01-2.33c.68-.64,1.49-.96,2.45-.96s1.76.32,2.44.96c.68.64,1.03,1.42,1.03,2.33s-.34,1.66-1.03,2.3c-.68.64-1.49.96-2.44.96ZM568.02,79.7v-28.27h5.46v28.27h-5.46Z"/>
        <path class="cls-8" d="M591.02,80.28c-2.65,0-4.96-.61-6.94-1.82-1.98-1.21-3.51-2.92-4.6-5.11-1.09-2.19-1.63-4.74-1.63-7.64s.54-5.5,1.63-7.7c1.09-2.2,2.62-3.91,4.6-5.12,1.98-1.21,4.29-1.82,6.94-1.82s4.98.61,6.96,1.82c1.97,1.21,3.51,2.92,4.6,5.12,1.1,2.2,1.65,4.77,1.65,7.7s-.55,5.44-1.65,7.64c-1.09,2.19-2.63,3.89-4.6,5.11-1.97,1.22-4.29,1.82-6.96,1.82ZM591.02,75.65c1.74,0,3.17-.45,4.3-1.37,1.13-.91,1.97-2.12,2.52-3.63.55-1.51.82-3.15.82-4.94s-.28-3.49-.82-5.01c-.55-1.52-1.38-2.73-2.52-3.64-1.13-.91-2.56-1.37-4.3-1.37s-3.14.45-4.26,1.37c-1.12.91-1.96,2.12-2.51,3.64-.56,1.52-.83,3.19-.83,5.01s.28,3.43.83,4.94c.55,1.51,1.39,2.72,2.51,3.63,1.12.91,2.54,1.37,4.26,1.37Z"/>
        <path class="cls-8" d="M614.18,62.93v16.76h-5.46v-28.27h5.31v4.65h.38c.64-1.53,1.65-2.75,3.01-3.65,1.37-.9,3.12-1.35,5.26-1.35,1.92,0,3.6.4,5.05,1.2,1.44.8,2.56,1.99,3.36,3.58.8,1.58,1.2,3.55,1.2,5.89v17.95h-5.46v-17.3c0-2.04-.54-3.64-1.62-4.82-1.08-1.17-2.54-1.76-4.4-1.76-1.26,0-2.4.28-3.4.85-1,.57-1.79,1.37-2.36,2.42-.57,1.05-.86,2.33-.86,3.84Z"/>
        <path class="cls-8" d="M646.02,80.3c-1.79,0-3.4-.33-4.86-1-1.45-.67-2.59-1.64-3.44-2.92-.84-1.28-1.26-2.84-1.26-4.68,0-1.6.31-2.91.92-3.93.62-1.02,1.45-1.83,2.49-2.44,1.05-.61,2.21-1.06,3.49-1.37,1.28-.3,2.6-.54,3.95-.71,1.7-.18,3.08-.35,4.12-.48,1.05-.13,1.81-.35,2.29-.64.48-.3.72-.77.72-1.43v-.13c0-1.6-.45-2.84-1.35-3.72-.9-.88-2.24-1.32-4.01-1.32s-3.29.4-4.36,1.2c-1.07.8-1.81,1.71-2.21,2.72l-5.19-1.19c.62-1.72,1.53-3.11,2.72-4.16,1.19-1.05,2.55-1.82,4.1-2.31,1.54-.49,3.15-.73,4.84-.73,1.13,0,2.32.13,3.59.39,1.26.26,2.46.74,3.58,1.44,1.12.7,2.04,1.7,2.74,3,.71,1.3,1.06,2.98,1.06,5.03v18.76h-5.39v-3.87h-.2c-.34.69-.86,1.38-1.58,2.07-.72.69-1.63,1.26-2.74,1.72-1.11.45-2.45.68-4.02.68ZM647.21,75.9c1.53,0,2.84-.3,3.92-.9,1.08-.6,1.91-1.38,2.48-2.36.57-.98.86-2.01.86-3.11v-3.67c-.2.19-.58.36-1.14.53-.55.17-1.19.31-1.89.43-.71.12-1.4.22-2.08.32-.67.09-1.24.16-1.69.22-1.06.15-2.03.38-2.91.69-.88.31-1.58.77-2.11,1.37-.53.6-.8,1.39-.8,2.36,0,1.36.51,2.39,1.52,3.09,1.01.69,2.29,1.04,3.85,1.04Z"/>
        <path class="cls-8" d="M671.19,42.02v37.67h-5.46v-37.67h5.46Z"/>
        <path class="cls-8" d="M405.97,136.35c-3.24,0-6.14-.78-8.7-2.33-2.56-1.55-4.58-3.77-6.04-6.66-1.47-2.89-2.2-6.34-2.2-10.33s.74-7.49,2.21-10.38c1.48-2.89,3.49-5.11,6.04-6.66,2.55-1.55,5.45-2.32,8.69-2.32,1.99,0,3.85.29,5.6.86,1.74.57,3.31,1.41,4.69,2.51,1.38,1.09,2.52,2.43,3.43,4.02.9,1.58,1.5,3.38,1.81,5.39h-5.72c-.22-1.23-.63-2.31-1.23-3.25-.6-.94-1.33-1.73-2.2-2.38-.87-.65-1.83-1.14-2.91-1.46-1.07-.33-2.2-.49-3.4-.49-2.16,0-4.1.54-5.83,1.63-1.72,1.09-3.08,2.69-4.07,4.8-.99,2.12-1.48,4.7-1.48,7.75s.49,5.65,1.49,7.75c1,2.1,2.35,3.69,4.07,4.77,1.72,1.08,3.65,1.62,5.79,1.62,1.2,0,2.33-.16,3.39-.48,1.06-.32,2.03-.8,2.91-1.44.88-.64,1.62-1.42,2.22-2.34.6-.92,1.02-1.98,1.25-3.2h5.72c-.29,1.87-.87,3.58-1.75,5.12-.88,1.54-2,2.88-3.36,4-1.37,1.12-2.92,1.99-4.68,2.6-1.75.62-3.67.92-5.74.92Z"/>
        <path class="cls-8" d="M426.22,135.84v-28.27h5.28v4.52h.31c.52-1.52,1.44-2.72,2.74-3.6,1.31-.89,2.79-1.33,4.44-1.33.34,0,.74.01,1.2.04.46.03.84.05,1.12.09v5.26c-.22-.07-.61-.14-1.18-.2-.56-.06-1.13-.1-1.71-.1-1.3,0-2.46.27-3.48.82-1.02.55-1.82,1.3-2.4,2.25-.58.95-.87,2.05-.87,3.3v17.22h-5.46Z"/>
        <path class="cls-8" d="M456.29,136.42c-2.76,0-5.16-.6-7.18-1.8-2.02-1.2-3.58-2.89-4.66-5.07-1.09-2.19-1.63-4.73-1.63-7.65s.54-5.45,1.61-7.66c1.07-2.21,2.58-3.93,4.52-5.17,1.95-1.24,4.23-1.86,6.86-1.86,1.6,0,3.15.26,4.65.78,1.5.52,2.85,1.35,4.05,2.48,1.2,1.13,2.14,2.59,2.85,4.4.7,1.8,1.05,3.98,1.05,6.52v1.97h-22.48v-4.12h19.65l-2.55,1.37c0-1.74-.27-3.27-.81-4.6-.54-1.33-1.34-2.37-2.42-3.12-1.07-.75-2.4-1.12-3.98-1.12s-2.94.38-4.06,1.14c-1.12.76-1.98,1.76-2.57,3.01-.59,1.25-.89,2.61-.89,4.09v2.81c0,1.94.34,3.58,1.01,4.93.68,1.35,1.62,2.38,2.82,3.08,1.2.71,2.61,1.06,4.21,1.06,1.05,0,1.99-.15,2.84-.46.85-.3,1.59-.76,2.22-1.37.62-.61,1.09-1.35,1.42-2.25l5.21.98c-.42,1.52-1.16,2.85-2.22,4-1.06,1.15-2.4,2.03-4.01,2.67-1.61.63-3.45.95-5.5.95Z"/>
        <path class="cls-8" d="M480.82,136.45c-1.79,0-3.4-.34-4.86-1-1.45-.67-2.59-1.64-3.44-2.92-.84-1.28-1.26-2.84-1.26-4.68,0-1.6.31-2.91.92-3.93.62-1.02,1.45-1.83,2.49-2.44,1.05-.61,2.21-1.06,3.49-1.37,1.28-.3,2.6-.54,3.95-.71,1.7-.18,3.08-.35,4.12-.48,1.05-.13,1.81-.35,2.29-.64.48-.3.72-.77.72-1.43v-.13c0-1.6-.45-2.84-1.35-3.71-.9-.88-2.24-1.32-4.01-1.32s-3.29.4-4.36,1.2c-1.07.8-1.81,1.71-2.21,2.72l-5.19-1.19c.62-1.72,1.53-3.11,2.72-4.16,1.19-1.05,2.55-1.83,4.1-2.31,1.54-.49,3.15-.74,4.84-.74,1.13,0,2.32.13,3.59.39,1.26.26,2.46.74,3.58,1.44,1.12.7,2.04,1.7,2.74,3,.71,1.3,1.06,2.97,1.06,5.03v18.76h-5.39v-3.87h-.2c-.34.69-.86,1.38-1.58,2.07-.72.69-1.63,1.26-2.74,1.72-1.11.45-2.45.68-4.02.68ZM482.01,132.05c1.53,0,2.84-.3,3.92-.9,1.08-.6,1.91-1.38,2.48-2.37.57-.98.86-2.01.86-3.11v-3.66c-.2.18-.58.36-1.14.53-.55.17-1.19.31-1.89.43-.71.12-1.4.23-2.08.32-.67.09-1.24.17-1.69.22-1.06.15-2.03.38-2.91.69-.88.31-1.58.77-2.11,1.37-.53.6-.8,1.39-.8,2.37,0,1.36.51,2.39,1.52,3.08,1.01.69,2.29,1.04,3.85,1.04Z"/>
        <path class="cls-8" d="M513.08,107.57v4.43h-15.42v-4.43h15.42ZM501.78,100.85h5.49v26.7c0,1.3.27,2.25.81,2.85.54.6,1.41.9,2.6.9.29,0,.6-.02.92-.05s.66-.08,1-.15l1.04,4.55c-.55.18-1.16.33-1.82.43-.66.1-1.32.15-1.97.15-2.45,0-4.4-.69-5.86-2.06-1.47-1.37-2.2-3.21-2.2-5.5v-27.81Z"/>
        <path class="cls-8" d="M519.9,103.22c-.96,0-1.78-.32-2.45-.96-.67-.64-1.01-1.41-1.01-2.3s.34-1.68,1.01-2.32c.68-.64,1.49-.96,2.45-.96s1.76.32,2.44.96c.68.64,1.02,1.42,1.02,2.32s-.34,1.66-1.02,2.3c-.68.64-1.5.96-2.44.96ZM517.14,135.84v-28.27h5.46v28.27h-5.46Z"/>
        <path class="cls-8" d="M552.29,107.57l-10.21,28.27h-5.92l-10.24-28.27h5.89l7.18,21.8h.31l7.13-21.8h5.86Z"/>
        <path class="cls-8" d="M566.67,136.42c-2.76,0-5.16-.6-7.18-1.8-2.02-1.2-3.58-2.89-4.66-5.07-1.09-2.19-1.63-4.73-1.63-7.65s.54-5.45,1.61-7.66c1.07-2.21,2.58-3.93,4.52-5.17,1.95-1.24,4.23-1.86,6.86-1.86,1.6,0,3.15.26,4.65.78,1.5.52,2.85,1.35,4.05,2.48,1.2,1.13,2.14,2.59,2.85,4.4.7,1.8,1.05,3.98,1.05,6.52v1.97h-22.48v-4.12h19.65l-2.55,1.37c0-1.74-.27-3.27-.81-4.6-.54-1.33-1.34-2.37-2.42-3.12-1.07-.75-2.4-1.12-3.98-1.12s-2.94.38-4.06,1.14c-1.12.76-1.98,1.76-2.57,3.01-.59,1.25-.89,2.61-.89,4.09v2.81c0,1.94.34,3.58,1.01,4.93.68,1.35,1.62,2.38,2.82,3.08,1.2.71,2.61,1.06,4.21,1.06,1.05,0,1.99-.15,2.84-.46.85-.3,1.59-.76,2.22-1.37.62-.61,1.09-1.35,1.42-2.25l5.21.98c-.42,1.52-1.16,2.85-2.22,4-1.06,1.15-2.4,2.03-4.01,2.67-1.61.63-3.45.95-5.5.95Z"/>
        <path class="cls-8" d="M595.6,135.84v-37.67h23.64v4.88h-17.95v11.35h16.69v4.85h-16.69v11.71h18.13v4.88h-23.82Z"/>
        <path class="cls-8" d="M647.31,107.57l-10.22,28.27h-5.92l-10.24-28.27h5.89l7.18,21.8h.3l7.13-21.8h5.86Z"/>
        <path class="cls-8" d="M661.69,136.42c-2.76,0-5.16-.6-7.18-1.8-2.02-1.2-3.58-2.89-4.66-5.07-1.09-2.19-1.63-4.73-1.63-7.65s.54-5.45,1.61-7.66c1.07-2.21,2.58-3.93,4.52-5.17,1.95-1.24,4.23-1.86,6.86-1.86,1.6,0,3.15.26,4.65.78,1.5.52,2.85,1.35,4.05,2.48,1.2,1.13,2.14,2.59,2.85,4.4.7,1.8,1.05,3.98,1.05,6.52v1.97h-22.48v-4.12h19.65l-2.55,1.37c0-1.74-.27-3.27-.81-4.6-.54-1.33-1.34-2.37-2.42-3.12-1.07-.75-2.4-1.12-3.98-1.12s-2.94.38-4.06,1.14-1.98,1.76-2.57,3.01c-.59,1.25-.89,2.61-.89,4.09v2.81c0,1.94.34,3.58,1.01,4.93.68,1.35,1.62,2.38,2.82,3.08,1.2.71,2.61,1.06,4.21,1.06,1.05,0,1.99-.15,2.84-.46.85-.3,1.59-.76,2.22-1.37.62-.61,1.09-1.35,1.42-2.25l5.21.98c-.42,1.52-1.16,2.85-2.22,4-1.06,1.15-2.4,2.03-4.01,2.67-1.61.63-3.45.95-5.5.95Z"/>
        <path class="cls-8" d="M683.71,119.08v16.76h-5.46v-28.27h5.31v4.65h.38c.64-1.54,1.65-2.75,3.01-3.65,1.37-.9,3.12-1.35,5.26-1.35,1.92,0,3.6.4,5.05,1.2,1.44.8,2.56,2,3.36,3.58.8,1.58,1.2,3.55,1.2,5.89v17.95h-5.46v-17.3c0-2.04-.54-3.65-1.62-4.82-1.08-1.17-2.54-1.76-4.4-1.76-1.26,0-2.4.28-3.4.85-1,.57-1.79,1.37-2.36,2.42-.57,1.05-.86,2.33-.86,3.85Z"/>
        <path class="cls-8" d="M720.07,107.57v4.43h-15.42v-4.43h15.42ZM708.77,100.85h5.49v26.7c0,1.3.27,2.25.81,2.85.54.6,1.41.9,2.6.9.29,0,.6-.02.92-.05s.66-.08,1-.15l1.04,4.55c-.55.18-1.16.33-1.82.43-.66.1-1.32.15-1.97.15-2.45,0-4.4-.69-5.86-2.06-1.47-1.37-2.2-3.21-2.2-5.5v-27.81Z"/>
        <path class="cls-8" d="M745.16,114.5l-4.98.86c-.32-.94-.91-1.81-1.78-2.6-.87-.79-2.16-1.19-3.88-1.19-1.55,0-2.85.35-3.88,1.05-1.04.7-1.55,1.59-1.55,2.67,0,.94.35,1.71,1.05,2.3.7.59,1.82,1.06,3.35,1.42l4.52,1.01c2.58.59,4.51,1.52,5.79,2.79,1.28,1.26,1.92,2.88,1.92,4.85,0,1.7-.49,3.22-1.47,4.54-.98,1.32-2.34,2.36-4.07,3.11-1.74.75-3.74,1.12-6.02,1.12-3.17,0-5.75-.68-7.74-2.05-1.99-1.37-3.21-3.29-3.67-5.76l5.28-.81c.34,1.38,1.03,2.43,2.06,3.14,1.04.71,2.38,1.06,4.03,1.06,1.79,0,3.22-.38,4.31-1.14,1.09-.76,1.63-1.68,1.63-2.75,0-1.79-1.33-2.99-4-3.62l-4.78-1.06c-2.65-.61-4.6-1.56-5.85-2.87-1.26-1.31-1.89-2.95-1.89-4.94,0-1.67.47-3.14,1.4-4.4.94-1.26,2.23-2.25,3.87-2.95,1.65-.7,3.52-1.05,5.63-1.05,3.07,0,5.48.67,7.22,2,1.74,1.33,2.9,3.09,3.48,5.28Z"/>
      </g>
      <g class="cls-10">
        <path class="cls-4" d="M140.77,91.75c-3.8-4.79-11.24-2.35-9.68,4,1.16,4.43,9.68,10.35,9.68,10.35,0,0,8.52-5.91,9.68-10.35,1.56-6.35-5.89-8.79-9.68-4"/>
        <path class="cls-9" d="M166.53,81.9c-.42,1.51-.78,2.8-1.14,4.08-.13.48-.26.96-.41,1.43-.27.85-.96,1.24-1.84,1.01-1.28-.34-2.55-.71-3.82-1.06-.5-.13-.65-.43-.43-.87.17-.32.38-.64.63-.9.92-.89,1.13-2.09.52-3.15-.61-1.07-1.8-1.53-2.98-1.16-1.18.37-1.89,1.46-1.8,2.72.03.45.11.91.07,1.35-.06.68-.3.81-.95.63-1.2-.33-2.39-.66-3.58-1-1.05-.3-1.43-.96-1.15-2.02.4-1.52.84-3.03,1.26-4.54.05-.2.11-.39.22-.78-.72,0-1.34-.05-1.95,0-.68.06-1.31.05-1.91-.32-1.25-.77-1.63-2.35-.84-3.56.81-1.23,2.54-1.53,3.72-.69.57.41,1.18.76,1.87,1.19.5-1.8.95-3.41,1.4-5.01.41-1.48.98-1.8,2.46-1.39,1.13.32,2.27.63,3.4.95.19.05.39.09.76.17-.02-.75,0-1.42-.06-2.08-.19-1.89,1.42-3.33,3.2-2.83,1.71.48,2.42,2.64,1.36,4.07-.4.54-.73,1.13-1.17,1.82.35.1.54.15.73.2,1.21.34,2.43.67,3.64,1.02,1.18.33,1.57,1.01,1.25,2.19-.46,1.67-.93,3.34-1.44,5.18.65.02,1.23.03,1.8.05.55.02,1.14-.06,1.64.11.96.33,1.5,1.09,1.57,2.11.06,1.09-.44,1.92-1.39,2.43-.94.5-1.87.42-2.75-.16-.58-.38-1.16-.74-1.87-1.2Z"/>
        <g id="_x32_qkZ3Y.tif">
          <g>
            <path class="cls-9" d="M137.54,115.86l2.87,8.42c.1.29.41.47.71.38.31-.09.47-.42.37-.72l-2.87-8.44,2.86-.97,2.87,8.42c.1.29.41.47.71.38s.47-.42.37-.72l-2.87-8.44,2.41-.82,3.88,9.95c.02.07.05.14.07.21.47,1.7-.33,3.48-1.87,4.27-.28.14-.41.47-.29.77,2.19,5.42,4.73,12.13,6.87,17.47.54,1.33.04,2.85-1.17,3.61-.18.11-.36.21-.54.32-.06.02-.12.03-.18.05-.05,0-.11,0-.16,0-1.84.31-3.17-.57-3.64-2.38-.22-.83-.46-1.65-.7-2.48-.88-3.14-1.77-6.28-2.65-9.42-.43-1.54-1.14-3.97-1.69-5.88-.08-.29-.37-.48-.67-.43-1.68.27-3.36-.65-4.02-2.26-.03-.07-.05-.14-.08-.21l-2.99-10.25,2.42-.82Z"/>
            <path class="cls-9" d="M149.6,120.4c-1.33-3.9-.31-8.88,2.69-9.9,3-1.02,6.84,2.31,8.17,6.21.83,2.44.48,4.52-.64,5.99-.17.35-.37.69-.62,1.02-.19.24-.23.42-.11.71.99,2.44,1.91,4.72,2.89,7.17,1.34,3.35,2.71,6.69,4.03,10.04.62,1.58-.23,3.33-1.83,3.86-1.6.54-3.32-.34-3.79-1.97-.99-3.47-1.95-6.94-2.93-10.41-.72-2.54-1.37-4.9-2.11-7.44-.05-.17-.23-.38-.39-.42-.45-.12-.88-.29-1.28-.5-1.75-.5-3.27-1.93-4.08-4.33Z"/>
          </g>
        </g>
      </g>
      <g>
        <g>
          <circle class="cls-9" cx="147.16" cy="38.25" r="5.58"/>
          <path class="cls-4" d="M150.05,30.2c2.55.9,5.09,1.8,7.64,2.7,1.06.38,1.67,1.24,1.6,2.28-.02.24-.08.48-.16.71-1.14,3.24-2.53,7.17-3.68,10.41-.46,1.3-1.67,1.88-2.99,1.43-.93-.32-1.86-.66-2.79-.99-4.17-1.47-8.34-2.95-12.51-4.42-1.09-.39-1.71-1.25-1.64-2.31.02-.25.08-.5.16-.74,1.13-3.22,2.52-7.14,3.66-10.36.47-1.33,1.68-1.91,3.02-1.44,2.56.9,5.12,1.81,7.69,2.72ZM148.64,34.12c-2.28-.81-4.8.38-5.61,2.66-.81,2.28.38,4.8,2.66,5.61,2.29.82,4.82-.38,5.63-2.67.81-2.28-.39-4.79-2.68-5.6ZM142.52,32.3c.35.12.7.25,1.05.37.43.14.8-.05.96-.46.08-.22.16-.44.24-.67.15-.44-.04-.83-.48-.99-.68-.25-1.37-.49-2.05-.73-.44-.15-.83.04-1,.48-.08.2-.15.41-.22.62-.15.46.03.85.48,1.02.34.13.68.24,1.03.36ZM154.54,36.54c.59.21,1.23-.1,1.43-.69.2-.58-.11-1.21-.68-1.42-.59-.21-1.22.09-1.43.68-.21.59.09,1.22.68,1.43ZM149.54,39.09c-.46,1.31-1.9,2-3.21,1.53-1.31-.46-2-1.9-1.53-3.21s1.9-2,3.21-1.53c1.31.46,2,1.9,1.53,3.21Z"/>
        </g>
        <path class="cls-9" d="M145.94,27.94c.47-.44.89-.87,1.37-1.25.4-.32.89-.33,1.37-.16,1.56.55,3.12,1.1,4.68,1.66.62.22.97.67,1.05,1.33.06.48.12.96.18,1.48-2.89-1.02-5.74-2.03-8.65-3.06Z"/>
        <path class="cls-9" d="M140.99,26.58c.25-1.1,1.11-1.59,2.14-1.22.3.11.61.21.88.37.6.34.86,1.15.58,1.75-.56-.2-1.12-.41-1.68-.59-.4-.13-.81-.23-1.22-.31-.22-.04-.45,0-.69,0Z"/>
      </g>
      <g id="HwfQCU.tif">
        <path class="cls-4" d="M125.47,75.51c-.23-.06-.46-.1-.68-.17-1.83-.56-2.93-2.4-2.58-4.32.34-1.81,2.07-3.14,3.93-3,.37.03.73.13,1.12.21v-.3c0-3.97,0-7.93,0-11.9,0-.78.29-1.16,1.05-1.35,4.66-1.19,9.32-2.37,13.97-3.55.91-.23,1.6.28,1.6,1.19,0,5.28,0,10.56,0,15.83,0,1.9-1.41,3.48-3.27,3.71-1.87.23-3.62-.94-4.09-2.78-.36-1.42,0-2.67,1.06-3.67,1.05-.98,2.29-1.24,3.68-.84.06.02.12.04.18.05,0,0,.02,0,.05,0v-7.85c-.59.15-1.16.29-1.74.44-3.28.83-6.57,1.67-9.85,2.49-.24.06-.28.17-.28.39,0,3.86,0,7.71,0,11.57,0,1.79-1.1,3.26-2.77,3.71-.19.05-.39.09-.58.13h-.81Z"/>
      </g>
    </g>
    <g>
      <path d="M790.21,97.61v-44.75h27.59v44.4c0,10.09,5.22,14.38,12.52,14.38s12.52-3.94,12.52-13.8v-44.98h27.59v44.17c0,27.71-16.12,38.6-40.34,38.6s-39.88-11.13-39.88-38.03"/>
      <path d="M874.73,121.95l14.49-17.27c8.81,6.72,18.9,9.51,28.4,9.51,4.87,0,6.96-1.28,6.96-3.48v-.23c0-2.32-2.55-3.6-11.25-5.34-18.2-3.71-34.2-8.93-34.2-26.08v-.23c0-15.42,12.06-27.36,34.43-27.36,15.65,0,27.24,3.71,36.63,11.13l-13.21,18.32c-7.65-5.56-16.81-7.99-24.35-7.99-4.06,0-5.91,1.39-5.91,3.36v.23c0,2.2,2.2,3.59,10.78,5.22,20.76,3.83,34.67,9.85,34.67,26.2v.23c0,17.04-14.03,27.48-35.82,27.48-16.46,0-31.3-4.64-41.62-13.68"/>
      <path d="M956.1,121.95l14.49-17.28c8.81,6.73,18.9,9.51,28.4,9.51,4.87,0,6.96-1.28,6.96-3.48v-.23c0-2.32-2.55-3.59-11.25-5.33-18.2-3.71-34.2-8.93-34.2-26.09v-.23c0-15.42,12.06-27.36,34.43-27.36,15.65,0,27.24,3.71,36.63,11.13l-13.21,18.32c-7.65-5.56-16.81-7.99-24.35-7.99-4.06,0-5.91,1.39-5.91,3.36v.23c0,2.2,2.2,3.59,10.78,5.22,20.75,3.82,34.67,9.85,34.67,26.2v.23c0,17.05-14.03,27.48-35.82,27.48-16.46,0-31.3-4.64-41.62-13.68"/>
      <path class="cls-5" d="M1077.06,93.68c0-5.07-2.6-9.52-6.53-12.12,2.29-1.52,5.04-2.41,8-2.41,8.03,0,14.54,6.51,14.54,14.54s-6.51,14.54-14.54,14.54c-2.96,0-5.71-.9-8-2.42,3.94-2.6,6.53-7.05,6.53-12.12"/>
      <path class="cls-3" d="M1062.52,79.15c2.96,0,5.71.9,8,2.41-3.93,2.6-6.54,7.05-6.54,12.12s2.6,9.52,6.54,12.12c-2.3,1.52-5.04,2.41-8,2.41-8.03,0-14.54-6.51-14.54-14.54s6.51-14.54,14.54-14.54"/>
      <path class="cls-2" d="M1063.99,93.68c0-5.07,2.6-9.52,6.53-12.12,3.94,2.6,6.54,7.05,6.54,12.12s-2.6,9.52-6.54,12.12c-3.94-2.6-6.53-7.05-6.53-12.12"/>
    </g>
  </g>
</svg>