<?xml version="1.0" encoding="UTF-8"?>
<svg id="Layer_1" xmlns="http://www.w3.org/2000/svg" viewBox="0 0 789.21 223.27">
  <defs>
    <style>
      .cls-1 {
        fill: #dc0;
      }

      .cls-2 {
        fill: #3d1300;
      }
    </style>
  </defs>
  <g>
    <path class="cls-2" d="M170.77,32.87c.04,3.7-.16,7.39-.59,11.08-1.68,14.1-3.41,28.2-5.06,42.29-.63,5.36-3.16,7.76-9.35,9.06-1.66.35-3.33.65-5,.93-4.01.69-7.18-.39-9.18-3.29-2.31-3.36-4.43-6.83-6.56-10.29-1.46-2.37-2.77-4.82-4.55-7.23-.18.51-.32,1.03-.43,1.55-.7,4.99-1.38,9.97-2.02,14.96-.8,6.22-3.19,8.47-10.34,9.73-6.94,1.23-10.46-.06-13.5-5.58-4-7.27-7.77-14.65-11.62-22-4.38-8.34-8.72-16.69-13.14-25.02-.07-.13-.17-.24-.23-.38-2.16-4.57-1.28-6.63,4.13-9.26,2.11-1.02,4.27-1.98,6.47-2.85,3.36-1.34,5.71-1.03,7.49,1.48,2.15,3.11,4.06,6.35,5.74,9.7,2.41,4.66,4.56,9.41,7.16,14.14.4-2.65.8-5.3,1.21-7.94.6-3.84,1.2-7.67,1.84-11.5,1.14-6.78,8.67-9.16,14.42-9.63,2.19-.18,3.72,1.04,4.65,2.48,2.27,3.51,4.47,7.07,6.45,10.71,1.95,3.6,3.6,7.32,5.37,10.99.12.26.3.49.46.74.12,0,.23,0,.35.01.43-5.57.85-11.14,1.33-16.71.22-2.55.42-5.1.84-7.63.89-5.37,3.1-6.97,9.68-6.97,2.5.02,5,.17,7.47.46,4.42.48,6.49,2.26,6.52,5.94Z"/>
    <path class="cls-2" d="M237.96,84.91c-4.33.71-8.7,1.2-13.08,1.44-2.24.12-3.67-1.83-4.31-4.84-.3-1.41-.55-2.83-.74-4.25-.2-1.49-.9-2.33-2.45-2.25-4.03.22-8.07.43-12.1.79-.46.04-1.2.9-1.21,1.4-.05,2.12.13,4.25.23,6.38.16,3.58-.94,5.17-4.43,5.68-3.74.55-7.52.9-11.29,1.18-2.79.2-4.48-.96-5.12-3.74-.83-3.58-1.38-7.23-1.94-10.86-.94-6.14-1.91-12.28-2.65-18.45-.75-6.23-1.2-12.5-1.83-18.74-.32-3.21-.82-6.4-1.14-9.61-.28-2.79.78-4.35,3.59-4.81,4.62-.76,9.27-1.33,13.93-1.81,2.14-.22,3.77.76,4.37,2.96.96,3.54,1.63,7.16,2.22,10.78.79,4.83,1.41,9.68,2.08,14.53.2,1.45.83,2.11,2.41,1.95,2.58-.27,5.17-.37,7.76-.5,1.52-.08,2.4-.81,2.38-2.35-.23-3.43-.47-6.87-.7-10.3-.41-4.41-.82-8.83-1.22-13.24-.36-4,.72-5.64,4.65-6.38,4.02-.75,8.09-1.31,12.16-1.77,3.13-.35,5.24,1.05,5.67,4.1.68,4.83,1.13,9.71,1.41,14.59.74,12.81.88,25.67,2.91,38.39.3,1.87.83,3.71,1.07,5.59.28,2.18-.58,3.84-2.62,4.16Z"/>
    <path class="cls-2" d="M268.72,77.45c.14,2.82-1.03,4.61-3.95,5.17-3.71.69-7.47,1.12-11.24,1.3-2.61.14-3.98-1.05-4.39-3.5-.56-3.28-.89-6.6-1.2-9.91-.66-7.18-1.17-14.37-1.86-21.54-.75-7.75-1.62-15.49-2.47-23.23-.4-3.62.85-5.19,4.84-5.63,3.42-.37,6.86-.67,10.3-.75,3.11-.07,4.58,1.13,5.05,3.97.55,3.4,1.01,6.82,1.3,10.24.28,5.08.57,10.16.85,15.24.69,7.6,1.4,15.2,2.11,22.79.18,1.95.58,3.88.67,5.83Z"/>
    <path class="cls-2" d="M328.69,69.04c.88,2.44-.65,4.32-2.87,5.36-2.87,1.36-5.85,2.5-8.91,3.42-5.75,1.68-11.61,2.91-17.69,2.05-12.51-1.78-23.12-10.85-26.2-22.43-5.28-19.68,8.56-34.71,24.7-39.24,2.21-.53,4.47-.93,6.74-1.19,6.56-.12,11.79.46,16.74,2.41,5.56,2.19,7.6,5.44,6.11,10.76-1.12,3.66-2.56,7.24-4.32,10.68-1.22,2.54-2.52,2.72-5.32,1.58-5.54-2.24-11.15-2.9-16.77-.09-4.43,2.22-6.57,6.79-5.09,10.74,1.26,3.36,4.88,5.43,9.62,5.19,2.07-.1,4.13-.74,6.16-1.23,1.49-.36,2.9-.99,4.39-1.33,3.8-.87,6.51-.08,8.28,3.08,1.77,3.29,3.25,6.71,4.43,10.23Z"/>
    <path class="cls-2" d="M391.03,78.74c-4.37.36-8.76.48-13.15.37-2.24-.07-3.5-2.13-3.89-5.17-.18-1.43-.32-2.86-.39-4.3-.07-1.5-.71-2.4-2.26-2.44-4.04-.11-8.07-.23-12.11-.2-.47,0-1.27.8-1.32,1.29-.22,2.11-.22,4.25-.3,6.37-.14,3.58-1.36,5.07-4.88,5.3-3.77.24-7.56.28-11.34.25-2.8-.02-4.38-1.32-4.79-4.15-.53-3.63-.78-7.32-1.04-10.98-.43-6.2-.89-12.4-1.12-18.6-.23-6.27-.17-12.55-.29-18.83-.06-3.22-.29-6.45-.34-9.67-.05-2.8,1.13-4.27,3.96-4.5,4.66-.38,9.34-.57,14.01-.67,2.15-.05,3.69,1.07,4.11,3.31.67,3.6,1.03,7.27,1.33,10.93.39,4.87.62,9.76.88,14.65.08,1.46.66,2.17,2.24,2.14,2.59-.05,5.18.06,7.77.14,1.52.05,2.46-.61,2.56-2.15.05-3.44.1-6.88.15-10.33-.04-4.43-.1-8.87-.13-13.3-.03-4.02,1.17-5.56,5.15-5.97,4.07-.42,8.16-.64,12.25-.76,3.14-.09,5.13,1.48,5.31,4.55.29,4.87.33,9.77.21,14.65-.32,12.83-1.22,25.66-.24,38.5.14,1.89.52,3.76.61,5.65.1,2.19-.89,3.78-2.95,3.93Z"/>
    <path class="cls-2" d="M485.4,55.01c-4.91,4.27-11.12,6.47-17.6,8.26-6.29,1.74-7.25,2.99-7.04,8.73.07,2.01.06,4.04-.06,6.05-.15,2.42-1.66,4.06-4.42,3.97-4.65-.14-9.29-.55-13.89-1.24-3.57-.55-5.16-3.08-5.4-6.06-.37-4.41-.79-8.84-.73-13.25.17-12.53.43-25.07.96-37.6.29-6.95,4.76-10.23,13.06-10.22,1.05,0,2.1.06,3.16.1,9.6.57,18.92,2.17,27.07,6.88,6.6,3.81,10.9,9.04,12.24,15.68,1.47,7.34-1.37,13.52-7.34,18.7ZM467.89,39.49c-.23-3.41-4.85-7.61-8.86-7.91-.64.08-1.19.45-1.47.99-.24.91-.32,1.84-.24,2.78.12,3.13.31,6.26.47,9.38.01,0,.02,0,.04,0,.07.83.11,1.66.22,2.49.1.76.58,1.1,1.53.99,3.93-.46,8.55-5.25,8.31-8.71Z"/>
    <path class="cls-2" d="M546.71,35.91c-.32,2.65-2,3.65-4.98,3.53-3.59-.14-7.16-.53-10.75-.68-2.19-.12-4.39-.09-6.58.08-2.5.22-3.69,1.43-4.12,4.06,2.47.17,4.84.21,7.17.54,3.12.44,4.53,1.6,4.73,4.43.21,3.22.13,6.45-.22,9.65-.25,2.38-1.76,3.45-4.32,3.78-.96.13-1.94.09-2.9.2-1.13.08-2.25.27-3.33.58-.58.2-.96.9-1.43,1.38.59.23,1.17.66,1.76.67,3.99.06,7.98.05,11.98.06,7,.03,9.03,1.4,8.78,7.4-.12,2.85-.2,5.71-.48,8.56-.21,2.2-1.52,3.56-3.9,3.68-3.77.24-7.55.25-11.33.04-7.78-.51-15.56-1.15-23.33-1.84-5.21-.46-7.04-2.48-6.89-7.45.21-6.88.6-13.74.83-20.62.25-7.67.35-15.35.62-23.03.11-2.11.38-4.22.78-6.3.61-3.47,2.62-5.23,6.47-5.54,2.49-.22,5-.27,7.51-.16,8.11.42,16.22.99,24.33,1.63,1.45.13,2.9.38,4.31.74,2.89.73,5.05,2.38,5.31,5.15.33,3.15.33,6.31-.01,9.45Z"/>
    <path class="cls-2" d="M607.93,38.66c-.21,1.74-1.85,2.64-4.29,2.48-3.88-.26-7.75-.64-11.63-.94-3.54-.28-3.48-.27-3.74,2.45-.85,6.62-1.69,13.25-2.53,19.87-.72,6.95-1.44,13.91-2.19,20.86-.12.89-.33,1.78-.61,2.63-.54,1.78-2.07,2.79-4.3,2.79-3.83,0-7.67-.13-11.5-.32-2.01-.1-2.9-.84-2.94-2.48-.07-2.93,0-5.87.15-8.79.68-12.52,1.39-25.05,2.13-37.57.06-1.04-.64-1.24-1.64-1.35-3.29-.36-6.58-.73-9.87-1.06-3.48-.35-4.98-1.24-5.23-3.92-.35-3.1-.34-6.22.05-9.31.45-3.13,2.49-4.09,6.64-3.82,4.08.27,8.15.58,12.23.94,11.55,1.02,23.1,2.16,34.63,3.42,4.01.44,5.35,1.44,5.37,4.58-.03,3.2-.27,6.39-.71,9.56Z"/>
    <path class="cls-2" d="M631.38,48.18c-1.7,1.8-1.49,3.67.93,4.93,2.42,1.2,4.93,2.24,7.51,3.09,4.97,1.72,9.75,3.68,13.39,7.19,9.06,8.73,8.59,20.35-.94,28.1-7.33,5.97-16.1,7.13-25.76,4.19-9.82-2.99-17.03-8.43-20.27-17.2-.48-1.37-.69-2.82-.61-4.25.11-2.41,1.63-4.02,4.41-4.22,3.11-.14,6.24-.08,9.35.17,1.9.1,2.91,1.24,3.42,2.71.75,2.22,2.14,4.22,4,5.79,2.68,2.37,6.6,2.99,9.9,1.58,3.09-1.4,3.67-4.33.91-6.35-2.05-1.4-4.28-2.58-6.62-3.5-3.36-1.44-6.98-2.44-10.25-4.01-6.12-2.94-10.15-7.3-11.3-13.24-.84-4.39.85-8.24,3.52-11.79,5.76-7.67,14.61-11.22,25.39-11.91,4.52-.31,9.09.26,13.4,1.68,8.07,2.68,12.9,8.46,13.07,15.54.04,1.48-.05,2.96-.08,4.53-.34,1.28-.6,2.65-1.07,3.96-.78,2.13-2.45,3.18-5.16,3.08-3.11-.12-6.23-.35-9.33-.7-3.23-.36-4.54-1.66-4.86-4.41-.14-1.17-.18-2.36-.43-3.52-.64-3.01-2.78-4.45-6.32-4.16-2.41.13-4.64,1.11-6.22,2.74Z"/>
    <path class="cls-2" d="M58.83,201.35c-2.43,2.7-5.04,5.23-7.82,7.58-2.52,2.16-4.5,1.69-6.77-1.09-.38-.4-.71-.84-.99-1.31-1.22-2.43-2.93-2.76-5.17-2.13-4.48,1.24-9.04,2.21-13.51,3.48-.74.21-1.43,1.13-1.82,1.93-.51,1.26-.95,2.56-1.3,3.88-.55,1.64-1.59,2.62-3.19,2.83-4.69.61-9.28-.24-13.82-1.86-1.45-.52-2.23-1.81-2.58-3.49,0-1.28-.08-2.56,0-3.83.46-7.21.93-14.43,1.53-21.63.8-9.6,1.77-19.18,2.7-28.78.35-3.66,1.97-6.41,5.24-7.53,3.66-1.21,7.37-2.24,11.14-3.08,2.57-.6,4.86.56,6.53,2.62,2.51,2.96,4.79,6.09,6.84,9.37,7.17,12.01,15.37,23.17,23.16,34.62,2.53,3.73,2.72,5.19-.17,8.44ZM28.6,183.8c-1.68-3.07-3.56-6.02-5.4-8.99-.41-.53-.87-1.03-1.36-1.5-.94,5.44-.73,10.45-.37,15.81,2.09-.58,4.02-1.03,5.89-1.66,1.97-.67,2.35-1.64,1.24-3.66Z"/>
    <path class="cls-2" d="M113.17,192.72c.57,3.89-.78,6.02-4.98,7.38-2.89.93-5.85,1.7-8.82,2.38-2.36.54-3.44-.14-4.27-2.12-1.22-2.9-2.27-5.9-3.85-8.63-.98-1.7-2.75-3.03-4.3-4.43-.41-.37-1.48-.67-1.84-.46-.55.4-.86,1.04-.84,1.71.47,3.21,1.09,6.38,1.66,9.57.18.99.41,1.97.5,2.96.17,1.88-.74,3.39-2.82,3.71-4.43.68-8.9,1.19-13.36,1.53-2.07.16-3.14-1.37-3.75-2.95-.44-1.16-.76-2.37-.98-3.59-2.03-11.18-4.07-22.36-6.1-33.53-1-5.5-2.07-10.98-2.99-16.49-.65-3.93,1.23-7.13,5.05-9.42,7.41-4.44,15.52-5.45,23.81-3.67,10.03,2.15,16.96,7.53,20.03,16.06,2.64,7.33.94,14-7.84,18.87-2.28,1.27-4.72,2.31-7.26,3.55,1.86.22,3.56.36,5.23.65,9.27,1.66,16.5,8.66,17.71,16.93ZM85.24,157.47c-1.15-.53-2.38-.87-3.65-1.02-3.37-.34-4.26.54-3.64,3.71.25.89.58,2.09.93,3.28.14.6.36,1.19.65,1.74.24.31.63.49,1.03.48,1.33-.3,2.64-.69,3.91-1.18,1.58-.52,2.72-1.89,2.91-3.49.2-1.52-.68-2.96-2.14-3.52Z"/>
    <path class="cls-2" d="M157.36,140.34c.25,2.66-1.11,3.98-3.91,4.46-3.36.59-6.77.93-10.14,1.5-2.06.33-4.1.8-6.1,1.41-2.28.72-3.14,2.14-3,4.8,2.33-.33,4.54-.77,6.77-.92,2.99-.2,4.54.65,5.31,3.38.85,3.11,1.45,6.28,1.77,9.48.25,2.38-.92,3.73-3.24,4.57-.86.32-1.79.48-2.66.78-1.04.3-2.04.72-2.98,1.24-.5.31-.71,1.08-1.05,1.64.59.11,1.22.41,1.77.3,3.72-.75,7.43-1.56,11.14-2.35,6.51-1.38,8.67-.46,9.67,5.47.48,2.82.98,5.63,1.31,8.47.25,2.2-.68,3.79-2.87,4.39-3.45.99-6.96,1.77-10.51,2.33-7.33,1.07-14.69,2.01-22.05,2.9-4.94.6-7.05-1.02-7.94-5.9-1.22-6.77-2.26-13.57-3.47-20.34-1.34-7.56-2.83-15.09-4.16-22.65-.33-2.09-.52-4.2-.57-6.32-.15-3.52,1.36-5.64,4.89-6.72,2.28-.71,4.6-1.27,6.96-1.66,7.64-1.22,15.3-2.3,22.97-3.32,1.38-.17,2.77-.22,4.16-.14,2.84.14,5.18,1.31,5.99,3.96.95,3.01,1.59,6.11,1.92,9.25Z"/>
    <path class="cls-2" d="M248.71,119.91c-.64,2.12-1.45,4.19-2.41,6.19-3.28,6.41-6.65,12.79-10,19.17-.99,1.83-1.43,3.88-1.3,5.93.57,8.66,1.14,17.32,1.7,25.97.07,1.08.16,2.16.12,3.23-.07,1.95-1.2,3.32-3.47,3.56-3.61.39-7.24.61-10.88.66-2.29.02-3.74-1.39-4.07-3.64-.45-3.06-.73-6.15-1.06-9.23-.52-4.82-.98-9.65-1.52-14.47-.38-3.14-1.92-6.04-4.35-8.14-4.85-4.42-9.78-8.78-14.68-13.17-1.42-1.25-2.76-2.57-4.03-3.95-1.76-1.96-1.84-3.71.08-5.7,2.21-2.31,4.59-4.47,7.11-6.48,2.33-1.85,5.09-1.99,7.33-.23,3.19,2.5,6.03,5.29,8.96,8,1.25,1.16,2.37,2.41,3.57,3.6.48.42.98.81,1.51,1.17.64-.96,1.21-1.95,1.74-2.96,1.7-3.85,3.31-7.72,5.01-11.56.49-1.17,1.07-2.31,1.74-3.4,1.3-2.04,3.04-2.82,5.66-2.12,3.74,1,7.41,2.2,10.98,3.53,1.96.73,2.85,2.23,2.24,4.03Z"/>
    <path class="cls-2" d="M311.25,149.51c.23,6.7-.79,13.09-4.92,18.79-9.19,12.62-26.75,16.08-40.63,7.78-11.64-6.98-18.39-16.8-18.38-30.11,0-4.23,1.75-8.18,3.43-12.07,2.54-5.88,6.2-11.15,11.62-15.26,12.76-9.7,30-7.68,39.74,4.6,4.62,5.81,6.94,12.46,8.22,19.46.41,2.25.62,4.54.91,6.82ZM285.17,136.9c-2.59-2.23-5.8-2.25-8.3.12-1.21,1.17-2.17,2.55-2.82,4.07-1.58,3.7-1.95,7.78-1.06,11.69.79,3.93,3.66,6.41,7.91,6.15,3.14-.22,5.96-1.97,7.51-4.65,3.36-5.6.86-13.84-3.24-17.37Z"/>
    <path class="cls-2" d="M373.56,127.05c-.36,7.11-.71,14.22-1.07,21.33-.95,8.45-3.96,16.12-10.6,22.16-8.49,7.71-21.47,9.64-30.93,4.41-6.05-3.35-9.53-8.67-11.82-14.84-2.11-5.51-3.35-11.31-3.65-17.19-.36-8.62-.39-17.26-.39-25.89,0-3.13,1.36-4.38,4.68-4.53,4.2-.19,8.42-.31,12.61-.09,2.94.15,4.34,1.78,4.35,4.57.01,5.3-.21,10.6-.21,15.91,0,5.67-.09,11.38,2.09,16.77.68,1.75,1.67,3.37,2.94,4.77,3.28,3.47,8.69,2.4,10.07-2.09.71-2.55,1.01-5.2.88-7.84-.27-9.41-.78-18.81-1.18-28.22,0-.83.05-1.66.16-2.48.23-2.19,1.54-3.5,3.82-3.95,4.32-.85,8.67-1.35,13.07-.75,3.28.45,4.82,1.72,4.99,4.83.24,4.36.13,8.74.17,13.11Z"/>
    <path class="cls-2" d="M428.4,171.47c-.13,3.93-1.83,5.79-6.2,6.38-3,.41-6.04.64-9.07.78-2.41.11-3.35-.75-3.81-2.85-.68-3.07-1.18-6.21-2.25-9.18-.66-1.85-2.17-3.47-3.43-5.12-.34-.44-1.33-.92-1.72-.77-.61.3-1.03.87-1.13,1.53-.11,3.24-.06,6.47-.06,9.71,0,1,.06,2.01-.03,3.01-.17,1.88-1.32,3.2-3.42,3.15-4.46-.11-8.93-.41-13.37-.87-2.06-.21-2.84-1.9-3.16-3.57-.22-1.22-.33-2.46-.32-3.71-.02-11.36-.04-22.72-.06-34.08,0-5.58-.09-11.17-.02-16.75.06-3.99,2.47-6.8,6.62-8.38,8.05-3.05,16.18-2.61,24,.61,9.46,3.9,15.31,10.41,16.81,19.36,1.29,7.68-1.55,13.94-11.03,17.19-2.46.84-5.04,1.43-7.75,2.2,1.78.55,3.43.98,5.01,1.57,8.8,3.27,14.66,11.44,14.38,19.8ZM407.23,131.83c-1.03-.72-2.18-1.28-3.4-1.65-3.24-.93-4.27-.22-4.22,3.01.09.92.2,2.16.33,3.39.03.62.14,1.23.33,1.83.18.35.53.59.93.65,1.36-.06,2.71-.22,4.04-.47,1.64-.23,3-1.37,3.47-2.92.46-1.46-.14-3.03-1.48-3.85Z"/>
    <path class="cls-2" d="M511.88,130.55c-.41,2.41-2.14,3.69-4.58,3.83-3.17.18-6.36.13-9.54.18-.82.01-1.65-.01-2.47.01-1.47.05-3.11-.16-3.95,1.35-1.13,1.85-1.42,4.06-.83,6.13.32.66.93,1.14,1.66,1.31,1.55.32,3.12.46,4.7.42,4.26-.14,5.98,1.1,6.08,5.19.04,3.34-.15,6.67-.56,9.98-.31,2.72-2.04,4.24-4.91,4.75-1.43.25-2.89.31-4.34.46-2.37.24-3.14.87-3.53,3.16-.38,2.24-.59,4.51-.96,6.75-.39,2.35-1.89,3.75-4.17,4.3-3.75.94-7.66,1.04-11.46.27-2.82-.59-4.39-2.61-4.97-5.26-.48-2.06-.73-4.17-.73-6.29-.03-5.3-.06-10.6-.09-15.9.31-7.25.55-14.51.97-21.75.13-3.54.52-7.07,1.19-10.55,1.05-4.9,4.18-7.54,9.39-7.67,5.59-.13,11.21.23,16.81.64,3.65.29,7.29.78,10.88,1.47,4.62.86,6.81,3.35,6.65,7.79-.2,3.16-.61,6.31-1.23,9.42Z"/>
    <path class="cls-2" d="M562.7,178.7c-3.08,1.91-6.29,3.61-9.6,5.08-3.02,1.36-4.78.35-6.17-2.95-.25-.49-.44-1.01-.58-1.54-.48-2.67-2.03-3.47-4.34-3.5-4.63-.06-9.26-.41-13.89-.45-.76,0-1.69.68-2.28,1.34-.85,1.07-1.62,2.19-2.32,3.36-.98,1.42-2.26,2.06-3.84,1.81-4.65-.73-8.79-2.84-12.67-5.67-1.24-.9-1.62-2.37-1.48-4.07.36-1.23.64-2.48,1.08-3.68,2.46-6.79,4.93-13.58,7.52-20.33,3.46-8.98,7.06-17.91,10.64-26.86,1.36-3.42,3.67-5.6,7.11-5.76,3.83-.14,7.67-.08,11.5.18,2.62.15,4.49,1.9,5.51,4.35,1.57,3.55,2.87,7.19,3.91,10.91,3.49,13.54,8.2,26.56,12.43,39.73,1.38,4.29,1.14,5.75-2.53,8.05ZM538.72,153.37c-.75-3.42-1.72-6.77-2.63-10.14-.24-.63-.54-1.23-.88-1.82-2.43,4.96-3.62,9.82-4.79,15.07,2.16.03,4.13.14,6.09.06,2.07-.09,2.7-.92,2.21-3.16Z"/>
    <path class="cls-2" d="M636.99,132.94c-1.08,1.63-2.26,3.19-3.53,4.69-11.67,14.12-22.59,28.64-31.99,43.99-.78,1.27-1.53,2.57-2.37,3.81-1.35,2.05-3.64,3.29-6.12,3.31-2.87.1-5.76.04-8.64-.09-2.35-.11-4.26-1.22-4.89-3.23-1.26-4.03-2.22-8.13-3.3-12.21-.68-2.55-1.41-5.09-1.99-7.66-2.92-12.95-5.95-25.9-8.92-38.86-.85-3.72.62-5.53,4.83-6.51,2.75-.64,5.57-1.1,8.39-1.53,2.52-.38,3.98.25,4.84,2.37,1,2.52,1.84,5.11,2.49,7.73,2.25,8.77,4.36,17.55,6.48,26.34.15.63.37,1.25.65,2.2.8-.89,1.45-1.49,1.96-2.18,5.72-7.63,11.45-15.26,17.32-22.82,1.75-2.25,3.62-4.42,5.56-6.55,1.54-1.69,3.62-2.17,6.06-1.24,3.9,1.49,7.81,2.96,11.65,4.55,2.14.89,2.62,2.15,1.51,3.88Z"/>
    <path class="cls-2" d="M685.1,149.58c-.52,2.62-2.21,3.49-5.03,3.15-3.39-.4-6.76-1.05-10.15-1.47-2.07-.28-4.16-.41-6.25-.4-2.39.04-3.63,1.15-4.25,3.74,2.33.35,4.58.57,6.76,1.06,2.93.66,4.17,1.92,4.12,4.76-.07,3.22-.42,6.43-1.02,9.6-.44,2.35-1.96,3.31-4.42,3.45-.92.06-1.85-.06-2.77-.01-1.08,0-2.16.11-3.21.34-.57.16-.99.83-1.47,1.27.54.28,1.06.74,1.62.79,3.78.35,7.57.64,11.36.94,6.64.54,8.45,2.05,7.7,8.02-.35,2.83-.68,5.68-1.18,8.49-.39,2.18-1.74,3.43-4.01,3.38-3.59-.04-7.18-.3-10.74-.79-7.34-1.08-14.66-2.29-21.96-3.55-4.9-.85-6.46-3-5.91-7.93.77-6.84,1.72-13.65,2.51-20.48.88-7.63,1.62-15.27,2.51-22.9.28-2.1.71-4.18,1.27-6.22.87-3.42,2.92-5.02,6.61-5.04,2.39-.03,4.77.1,7.14.4,7.67,1.02,15.32,2.19,22.97,3.41,1.37.23,2.72.59,4.03,1.06,2.68.94,4.59,2.74,4.61,5.52.05,3.16-.22,6.31-.81,9.41Z"/>
    <path class="cls-2" d="M709.45,157.19c-1.72,1.73-1.62,3.6.61,4.95,2.23,1.3,4.56,2.44,6.97,3.39,4.63,1.92,9.07,4.08,12.34,7.72,8.13,9.08,7.01,20.65-2.49,27.99-7.31,5.66-15.71,6.45-24.72,3.11-9.16-3.39-15.71-9.12-18.3-18.01-.38-1.39-.5-2.84-.34-4.27.24-2.4,1.77-3.94,4.43-4.03,2.97,0,5.94.18,8.88.56,1.8.18,2.7,1.36,3.1,2.85.59,2.25,1.79,4.3,3.48,5.95,2.41,2.47,6.11,3.26,9.33,1.99,3.01-1.27,3.73-4.16,1.23-6.3-1.87-1.48-3.92-2.75-6.1-3.77-3.11-1.58-6.5-2.72-9.52-4.42-5.66-3.19-9.25-7.7-10-13.69-.56-4.42,1.27-8.19,4-11.62,5.9-7.41,14.53-10.58,24.83-10.81,4.32-.12,8.64.64,12.66,2.23,7.54,3.01,11.81,8.97,11.57,16.04-.05,1.48-.22,2.95-.34,4.52-.4,1.26-.72,2.62-1.25,3.91-.86,2.1-2.51,3.07-5.09,2.86-2.95-.25-5.92-.6-8.84-1.08-3.05-.5-4.22-1.85-4.38-4.6-.07-1.18-.04-2.36-.21-3.53-.44-3.03-2.39-4.56-5.78-4.42-2.3.03-4.48.92-6.08,2.48Z"/>
    <path class="cls-2" d="M780.37,178.26c-2.88,2.24-6.08,4.07-9.5,5.44-5.28,1.98-7.32,5.71-7.73,10.77-.02.21-.02.42-.04.63-.39,3.46-2.23,4.82-5.77,4.2-1.55-.27-3.09-.64-4.63-.96,0,.02,0,.04-.01.06-1.27-.27-2.56-.5-3.83-.8-3.15-.74-4.89-2.5-4.62-5.61.44-4.99,1.26-9.94,2.07-14.89.38-1.97.92-3.91,1.63-5.78,1.34-3.82,3.28-4.77,7.53-4.25,2.45.28,4.92.35,7.37.21,1.96-.09,3.75-1.06,4.84-2.62.79-1.09.98-2.27.14-3.39-.8-1.09-2.26-1.54-3.55-1.1-1.99.54-3.97,1.14-5.93,1.77-3,.96-5.22.41-6.85-2.2-1.69-2.69-3.18-5.49-4.46-8.39-1.38-3.12-.36-5.33,2.76-6.99,3.99-2.12,8.4-2.58,12.87-2.29,7.08.46,13.39,2.92,18.34,8.02,3.65,3.64,5.89,8.34,6.33,13.31.56,6.22-2.07,11.18-6.97,14.84ZM763.25,215.03c-1.31,5.6-7.63,9.28-13.85,7.98-5.34-1.07-8.81-5.52-7.87-11.22.92-5.6,8.03-11,12.83-9.76,4.47,1.15,10.23,7.25,8.89,13Z"/>
  </g>
  <g>
    <g>
      <path class="cls-1" d="M170.67,22.89c.04,3.7-.16,7.39-.59,11.08-1.69,14.1-3.42,28.19-5.09,42.29-.63,5.36-3.17,7.75-9.36,9.06-1.66.35-3.33.64-5,.93-4.01.69-7.18-.39-9.18-3.29-2.31-3.36-4.43-6.83-6.55-10.29-1.46-2.37-2.77-4.82-4.55-7.23-.18.51-.33,1.03-.44,1.55-.71,4.99-1.38,9.97-2.03,14.96-.81,6.22-3.19,8.46-10.35,9.73-6.94,1.23-10.46-.06-13.5-5.59-4-7.27-7.76-14.66-11.61-22-4.37-8.34-8.71-16.7-13.13-25.02-.07-.13-.17-.24-.23-.38-2.16-4.57-1.28-6.63,4.14-9.25,2.11-1.02,4.28-1.97,6.48-2.85,3.37-1.33,5.72-1.03,7.49,1.49,2.14,3.11,4.06,6.35,5.74,9.7,2.41,4.66,4.56,9.42,7.15,14.14.4-2.65.8-5.29,1.22-7.94.6-3.84,1.2-7.67,1.85-11.5,1.14-6.78,8.68-9.16,14.43-9.63,2.19-.18,3.72,1.04,4.65,2.48,2.27,3.52,4.47,7.07,6.44,10.71,1.95,3.6,3.59,7.32,5.37,10.99.12.26.3.49.46.74.12,0,.23,0,.35.01.44-5.57.86-11.14,1.34-16.71.22-2.55.42-5.1.84-7.63.89-5.37,3.11-6.97,9.68-6.96,2.5.02,5,.18,7.47.46,4.42.49,6.5,2.26,6.52,5.94Z"/>
      <path class="cls-2" d="M113.34,93.59c-4.95,0-8.04-2.07-10.63-6.78-2.96-5.39-5.84-10.91-8.62-16.26-1-1.92-2-3.85-3.01-5.77l-3.8-7.27c-3.09-5.92-6.19-11.84-9.32-17.75-.11-.16-.2-.3-.26-.44-2.52-5.34-1.25-8.28,4.84-11.24,2.09-1.02,4.31-1.99,6.58-2.89,4.12-1.63,7.16-.98,9.27,2.02,2.19,3.18,4.15,6.5,5.85,9.9.97,1.87,1.91,3.8,2.83,5.67.71,1.45,1.44,2.93,2.18,4.41.18-1.14.35-2.29.53-3.43l.18-1.13c.54-3.47,1.09-6.93,1.67-10.39,1.03-6.09,6.93-10.15,15.79-10.87,2.45-.2,4.59.92,6.04,3.17,2.77,4.29,4.77,7.62,6.5,10.81,1.35,2.49,2.56,5.05,3.74,7.55.31-3.97.62-7.95.96-11.92l.06-.66c.2-2.32.4-4.72.8-7.09,1.02-6.15,3.84-8.24,11.17-8.22,2.55.02,5.12.18,7.64.47,5.25.58,7.82,3,7.85,7.42.04,3.72-.17,7.51-.6,11.26-.69,5.81-1.4,11.61-2.1,17.41-1,8.29-2.01,16.58-2.99,24.88-.71,6-3.66,8.9-10.54,10.35-1.72.37-3.44.67-5.06.94-4.66.8-8.35-.56-10.67-3.92-2.21-3.21-4.27-6.56-6.26-9.8l-.34-.56c-.41-.67-.82-1.35-1.22-2.04-.42-.71-.85-1.43-1.29-2.15-.59,4.22-1.17,8.54-1.74,12.88-.89,6.86-3.81,9.64-11.58,11.01-1.64.29-3.11.44-4.45.44ZM93.1,27.29c-.76,0-1.69.21-2.88.68-2.2.87-4.35,1.82-6.37,2.8-4.89,2.37-5.13,3.68-3.44,7.26.08.11.14.2.19.3,3.14,5.93,6.24,11.85,9.34,17.78l3.8,7.27c1.01,1.93,2.01,3.85,3.01,5.78,2.77,5.33,5.64,10.84,8.58,16.2,2.67,4.85,5.46,5.98,11.93,4.84,6.53-1.15,8.41-2.89,9.13-8.44.66-5.06,1.34-10.1,2.03-14.98l.02-.1c.12-.59.29-1.18.49-1.74l.94-2.66,1.68,2.27c1.32,1.79,2.39,3.6,3.43,5.34.4.67.79,1.33,1.2,1.99l.34.56c1.97,3.2,4,6.52,6.17,9.67,1.63,2.36,4.21,3.26,7.69,2.67,1.58-.27,3.27-.56,4.94-.92,5.64-1.19,7.62-3.08,8.18-7.77.98-8.29,1.98-16.59,2.99-24.88.7-5.8,1.41-11.6,2.1-17.41.42-3.63.62-7.29.58-10.88h0c-.02-2.41-.89-3.99-5.19-4.47-2.42-.28-4.88-.43-7.32-.45h-.05c-6.15,0-7.43,1.43-8.14,5.71-.37,2.26-.58,4.6-.77,6.86l-.06.66c-.38,4.4-.72,8.8-1.06,13.21l-.38,4.92-2.58-.1-.55-.87c-.15-.22-.29-.45-.41-.68-.53-1.1-1.05-2.2-1.57-3.3-1.19-2.53-2.42-5.14-3.77-7.63-1.69-3.12-3.66-6.39-6.38-10.62-.58-.9-1.62-1.94-3.27-1.8-2.77.23-11.91,1.5-13.07,8.38-.58,3.45-1.13,6.9-1.67,10.36l-.18,1.13c-.42,2.64-.82,5.29-1.22,7.93l-.66,4.39-2.14-3.9c-1.57-2.86-2.99-5.75-4.36-8.55-.93-1.89-1.85-3.76-2.81-5.63-1.65-3.29-3.54-6.49-5.64-9.54-.69-.98-1.49-1.62-2.82-1.62Z"/>
    </g>
    <g>
      <path class="cls-1" d="M237.87,74.94c-4.33.71-8.7,1.19-13.09,1.44-2.24.12-3.67-1.83-4.31-4.84-.3-1.41-.55-2.83-.74-4.25-.19-1.49-.9-2.33-2.45-2.25-4.04.22-8.08.43-12.11.79-.46.04-1.2.9-1.21,1.4-.05,2.12.13,4.25.22,6.38.16,3.58-.95,5.17-4.44,5.68-3.74.55-7.52.9-11.3,1.18-2.79.2-4.48-.96-5.13-3.74-.83-3.58-1.38-7.23-1.93-10.86-.94-6.14-1.9-12.28-2.64-18.45-.74-6.23-1.19-12.5-1.83-18.74-.32-3.21-.82-6.4-1.13-9.61-.28-2.79.78-4.35,3.59-4.81,4.62-.76,9.28-1.33,13.94-1.81,2.14-.22,3.77.76,4.37,2.97.96,3.54,1.63,7.16,2.22,10.78.79,4.83,1.41,9.68,2.08,14.53.2,1.45.83,2.11,2.41,1.95,2.58-.26,5.17-.37,7.76-.5,1.52-.08,2.4-.81,2.38-2.35-.23-3.43-.46-6.87-.69-10.3-.41-4.41-.82-8.83-1.22-13.24-.36-4,.72-5.64,4.65-6.38,4.02-.75,8.09-1.31,12.17-1.76,3.13-.35,5.24,1.05,5.67,4.1.68,4.83,1.12,9.71,1.41,14.59.73,12.81.88,25.67,2.9,38.39.3,1.87.83,3.71,1.07,5.59.28,2.18-.58,3.84-2.63,4.16Z"/>
      <path class="cls-2" d="M187.86,81.99c-3.18,0-5.24-1.69-5.99-4.93-.82-3.56-1.38-7.22-1.92-10.76l-.32-2.11c-.83-5.43-1.69-11.05-2.36-16.6-.46-3.88-.82-7.83-1.16-11.65-.21-2.37-.43-4.75-.67-7.12-.16-1.55-.35-3.09-.55-4.63-.21-1.63-.42-3.31-.58-4.98-.36-3.63,1.31-5.86,4.84-6.44,4.13-.68,8.59-1.26,14.03-1.82,2.96-.3,5.2,1.21,5.97,4.06,1.01,3.72,1.68,7.46,2.25,10.94.63,3.84,1.16,7.75,1.67,11.53l.41,3.03c.07.49.17.63.18.65,0,0,.08.03.3.03.08,0,.17,0,.29-.02,2.2-.23,4.43-.34,6.58-.44l1.26-.06c.97-.05.97-.33.96-.84l-.69-10.22-.39-4.22c-.28-3-.55-5.99-.82-8.99-.43-4.81,1.27-7.12,5.87-7.98,3.66-.68,7.67-1.27,12.28-1.78,3.98-.44,6.79,1.62,7.32,5.38.65,4.57,1.11,9.38,1.42,14.71.17,3.05.31,6.11.46,9.16.44,9.57.9,19.47,2.43,29.08.13.79.29,1.57.47,2.4.23,1.05.46,2.13.6,3.23.4,3.1-1.13,5.39-3.88,5.83-4.37.72-8.83,1.21-13.25,1.46-1.36.07-4.66-.37-5.86-6.03-.33-1.58-.58-3.01-.76-4.37-.13-.98-.37-.97-.88-.94l-1,.05c-3.55.19-7.21.39-10.8.71-.04.04-.08.09-.11.13-.02,1.44.05,2.87.14,4.37.03.58.06,1.15.09,1.73.19,4.45-1.51,6.61-5.72,7.23-3.3.48-6.92.86-11.41,1.19-.24.02-.47.03-.7.03ZM193.9,13.9c-.14,0-.28,0-.43.02-5.38.56-9.78,1.13-13.85,1.8-1.95.32-2.54,1.13-2.34,3.19.16,1.63.37,3.29.57,4.9.2,1.57.4,3.14.56,4.71.24,2.38.46,4.77.67,7.15.34,3.8.69,7.73,1.15,11.56.66,5.51,1.51,11.1,2.34,16.5l.32,2.11c.53,3.48,1.08,7.08,1.88,10.53.47,2.01,1.46,2.74,3.55,2.58,4.41-.32,7.97-.69,11.19-1.16,2.63-.39,3.28-1.24,3.15-4.13-.02-.56-.06-1.13-.09-1.69-.09-1.56-.17-3.17-.14-4.78.02-1.16,1.24-2.74,2.58-2.85,3.72-.33,7.5-.54,11.16-.74l1-.05c2.23-.12,3.71,1.17,4.02,3.55.17,1.28.4,2.63.72,4.13.3,1.4,1.05,3.75,2.76,3.65,4.31-.24,8.66-.72,12.93-1.42h0c.41-.07,1.66-.27,1.38-2.49-.12-.98-.33-1.95-.56-2.98-.18-.83-.36-1.69-.5-2.56-1.56-9.77-2.02-19.76-2.46-29.41-.14-3.04-.28-6.09-.45-9.13-.3-5.25-.76-9.98-1.39-14.46-.31-2.16-1.62-3.08-4.02-2.82-4.53.5-8.47,1.08-12.06,1.75-3.09.58-3.73,1.47-3.44,4.77.27,2.99.55,5.99.82,8.98l.39,4.26.7,10.34c.03,2.38-1.39,3.83-3.8,3.95l-1.26.06c-2.12.1-4.3.21-6.43.43-2.3.24-3.73-.91-4.05-3.24l-.41-3.04c-.51-3.76-1.04-7.65-1.66-11.45-.56-3.4-1.21-7.04-2.19-10.63-.34-1.27-1.11-1.89-2.34-1.89ZM205.46,67.26h0s0,0,0,0Z"/>
    </g>
    <g>
      <path class="cls-1" d="M268.65,67.49c.13,2.82-1.03,4.61-3.96,5.17-3.71.69-7.47,1.12-11.25,1.3-2.61.14-3.98-1.05-4.39-3.5-.56-3.28-.89-6.6-1.19-9.91-.66-7.18-1.17-14.37-1.86-21.54-.75-7.75-1.62-15.49-2.47-23.23-.4-3.62.85-5.19,4.84-5.62,3.42-.37,6.87-.67,10.3-.74,3.11-.07,4.58,1.13,5.05,3.97.55,3.4,1.01,6.82,1.3,10.24.28,5.08.56,10.16.85,15.24.69,7.6,1.39,15.2,2.11,22.79.18,1.95.58,3.88.67,5.83Z"/>
      <path class="cls-2" d="M253.06,75.47c-3.02,0-4.97-1.68-5.49-4.76-.59-3.46-.93-6.99-1.21-10.03-.3-3.23-.56-6.46-.83-9.69-.32-3.89-.65-7.9-1.03-11.84-.6-6.23-1.29-12.56-1.97-18.68l-.5-4.53c-.49-4.51,1.41-6.76,6.17-7.28,4.17-.46,7.38-.69,10.43-.75,3.84-.07,5.97,1.63,6.56,5.23.61,3.74,1.04,7.12,1.31,10.36l.85,15.29c.68,7.54,1.39,15.14,2.1,22.74.07.78.18,1.56.29,2.33.16,1.16.33,2.35.39,3.57h0c.18,3.71-1.61,6.03-5.17,6.71-3.78.7-7.63,1.14-11.46,1.32-.15,0-.31.01-.46.01ZM258.93,10.9c-.07,0-.14,0-.22,0-2.96.06-6.09.29-10.17.74-3.34.37-3.81,1.31-3.51,3.97l.5,4.53c.67,6.13,1.37,12.47,1.97,18.72.38,3.96.71,7.99,1.03,11.88.27,3.22.53,6.44.82,9.66.27,2.98.61,6.44,1.18,9.8.3,1.76,1.04,2.36,2.84,2.26,3.7-.17,7.42-.6,11.05-1.27,2.07-.4,2.83-1.41,2.73-3.62-.05-1.08-.2-2.16-.36-3.3-.11-.82-.23-1.64-.31-2.46-.72-7.6-1.42-15.2-2.11-22.8l-.85-15.3c-.27-3.11-.69-6.43-1.28-10.09-.29-1.79-.9-2.72-3.32-2.72Z"/>
    </g>
    <g>
      <path class="cls-1" d="M328.66,59.09c.88,2.44-.65,4.32-2.87,5.36-2.87,1.36-5.86,2.5-8.92,3.42-5.76,1.68-11.62,2.91-17.7,2.05-12.52-1.78-23.13-10.86-26.21-22.43-5.27-19.69,8.57-34.71,24.72-39.23,2.22-.53,4.47-.93,6.74-1.19,6.56-.12,11.8.47,16.75,2.41,5.56,2.19,7.6,5.44,6.12,10.76-1.12,3.66-2.57,7.23-4.33,10.68-1.22,2.54-2.53,2.72-5.33,1.58-5.54-2.24-11.16-2.9-16.78-.09-4.43,2.21-6.58,6.79-5.1,10.74,1.26,3.36,4.88,5.44,9.63,5.2,2.07-.1,4.13-.74,6.17-1.23,1.49-.36,2.9-.99,4.39-1.33,3.8-.87,6.51-.08,8.29,3.08,1.77,3.29,3.25,6.71,4.44,10.23Z"/>
      <path class="cls-2" d="M303.21,71.69c-1.41,0-2.83-.09-4.26-.29-13.17-1.87-24.2-11.33-27.45-23.53-2.56-9.57-.99-18.76,4.55-26.56,4.83-6.79,12.56-12.08,21.21-14.51,2.32-.56,4.65-.97,6.98-1.24h.14c7.34-.13,12.51.62,17.32,2.51,6.37,2.51,8.67,6.62,7.01,12.56-1.14,3.75-2.63,7.43-4.44,10.96-1.74,3.62-4.15,3.54-7.22,2.29-5.97-2.42-10.91-2.46-15.55-.14-3.69,1.85-5.57,5.66-4.36,8.87,1.05,2.81,4.16,4.43,8.15,4.23,1.5-.08,3.02-.46,4.62-.87.42-.11.84-.22,1.27-.32.65-.16,1.3-.38,1.99-.61.77-.26,1.58-.53,2.42-.73,4.64-1.06,7.89.18,9.93,3.81,1.81,3.38,3.34,6.89,4.54,10.47,1.04,2.91-.36,5.67-3.65,7.21-2.92,1.38-5.99,2.56-9.12,3.5-4.2,1.22-9.02,2.39-14.08,2.39ZM304.51,8.55c-2.18.25-4.37.64-6.49,1.15-20.52,5.75-27.43,23.16-23.62,37.39,2.94,11.06,12.98,19.63,24.98,21.34,6.02.85,11.77-.46,17.07-2,2.98-.89,5.91-2.01,8.7-3.33,1.32-.61,2.74-1.71,2.1-3.49v-.03c-1.16-3.43-2.62-6.79-4.34-10-1.36-2.41-3.28-3.1-6.63-2.33-.7.16-1.39.4-2.13.64-.72.24-1.46.5-2.25.68-.41.1-.82.2-1.23.31-1.68.43-3.42.87-5.22.96-5.32.26-9.58-2.09-11.11-6.17-1.75-4.65.76-10.08,5.83-12.61,5.39-2.7,11.28-2.68,18.01.04,2.42.98,2.69.66,3.41-.85,1.74-3.4,3.16-6.92,4.24-10.46,1.24-4.45-.22-6.96-5.23-8.93-4.4-1.74-9.23-2.43-16.1-2.31Z"/>
    </g>
    <g>
      <path class="cls-1" d="M391.03,68.79c-4.37.36-8.77.48-13.15.37-2.24-.07-3.5-2.13-3.89-5.17-.18-1.43-.32-2.86-.39-4.3-.07-1.5-.71-2.4-2.26-2.44-4.04-.11-8.08-.23-12.12-.2-.47,0-1.27.8-1.32,1.29-.22,2.11-.22,4.25-.3,6.37-.14,3.58-1.36,5.07-4.88,5.3-3.77.24-7.56.28-11.34.25-2.8-.03-4.38-1.32-4.8-4.15-.53-3.63-.78-7.32-1.04-10.99-.43-6.2-.89-12.4-1.12-18.6-.23-6.27-.17-12.55-.29-18.83-.06-3.22-.29-6.45-.34-9.67-.05-2.8,1.13-4.27,3.96-4.5,4.66-.38,9.34-.57,14.02-.66,2.15-.04,3.69,1.07,4.11,3.31.67,3.6,1.03,7.27,1.33,10.93.39,4.87.62,9.76.88,14.65.08,1.46.66,2.17,2.24,2.14,2.59-.05,5.18.06,7.77.14,1.52.05,2.46-.61,2.56-2.15.05-3.44.1-6.88.15-10.33-.04-4.43-.1-8.87-.13-13.3-.03-4.02,1.18-5.56,5.15-5.97,4.07-.42,8.17-.64,12.26-.76,3.14-.09,5.13,1.48,5.31,4.55.29,4.87.33,9.77.21,14.65-.32,12.83-1.22,25.66-.24,38.5.14,1.89.52,3.76.61,5.65.1,2.19-.89,3.78-2.96,3.93Z"/>
      <path class="cls-2" d="M343.55,71.77c-.71,0-1.43,0-2.18-.01-3.58-.03-5.75-1.91-6.27-5.43-.53-3.6-.79-7.27-1.03-10.83l-.16-2.26c-.38-5.46-.78-11.1-.99-16.67-.15-3.94-.18-7.93-.21-11.8-.02-2.35-.04-4.7-.08-7.06-.03-1.56-.1-3.12-.17-4.69-.07-1.63-.15-3.32-.18-4.99-.08-4.61,2.86-5.82,5.34-6.02,4.18-.34,8.66-.55,14.11-.67,2.99-.08,5.07,1.63,5.62,4.54.7,3.78,1.06,7.56,1.35,11.08.32,3.93.53,7.93.73,11.8l.15,2.89c.03.5.12.64.13.66,0,0,.12.06.52.06.02,0,.05,0,.07,0,2.2-.05,4.42.03,6.56.1l1.28.04c.96.04.99-.25,1.02-.75l.15-10.25-.05-4.63c-.03-2.88-.06-5.75-.08-8.63-.04-4.89,1.79-6.99,6.5-7.48,3.71-.38,7.76-.64,12.37-.77,4.02-.11,6.63,2.17,6.85,5.96.27,4.63.34,9.46.21,14.78-.08,3.06-.18,6.13-.29,9.19-.34,9.57-.69,19.46.05,29.15.06.8.16,1.58.27,2.42.14,1.06.28,2.16.33,3.28.14,3.12-1.56,5.28-4.33,5.5-4.41.36-8.89.49-13.31.37-1.37-.04-4.61-.75-5.34-6.48-.2-1.6-.33-3.04-.4-4.42-.05-.99-.28-1-.8-1.01l-1.02-.03c-3.54-.1-7.19-.2-10.78-.18-.04.04-.09.08-.12.12-.14,1.42-.18,2.84-.22,4.35-.02.58-.03,1.17-.05,1.75-.17,4.45-2.05,6.47-6.28,6.74-2.78.18-5.77.26-9.27.26ZM351.9,4.35s-.06,0-.09,0c-5.38.11-9.81.32-13.93.66-1.97.16-2.62.91-2.59,2.98.03,1.63.1,3.29.17,4.9.07,1.59.14,3.17.17,4.76.04,2.36.06,4.73.08,7.09.03,3.84.06,7.82.21,11.71.21,5.52.6,11.14.98,16.57l.16,2.26c.24,3.5.5,7.11,1.01,10.6.3,2.04,1.23,2.85,3.33,2.87,4.4.04,7.97-.04,11.23-.25,2.65-.17,3.37-.96,3.48-3.86.02-.57.04-1.15.05-1.72.04-1.55.09-3.16.25-4.75.12-1.15,1.46-2.62,2.8-2.64,3.73-.03,7.5.08,11.15.18l1.02.03c2.25.06,3.6,1.47,3.71,3.87.06,1.29.19,2.66.38,4.18.18,1.42.74,3.81,2.45,3.86,4.31.11,8.68-.01,12.99-.36h0c.41-.03,1.67-.13,1.57-2.37-.04-.99-.17-1.98-.31-3.02-.11-.84-.22-1.71-.29-2.58-.75-9.86-.4-19.84-.05-29.49.11-3.05.22-6.11.29-9.16.13-5.23.06-9.98-.21-14.53-.13-2.18-1.36-3.21-3.77-3.14-4.54.13-8.51.38-12.15.76-3.12.32-3.83,1.16-3.81,4.47.02,2.87.05,5.75.08,8.62l.05,4.67-.15,10.36c-.16,2.38-1.67,3.71-4.11,3.63l-1.29-.04c-2.11-.07-4.29-.14-6.41-.09-2.33.06-3.65-1.22-3.77-3.56l-.15-2.9c-.2-3.85-.41-7.82-.72-11.71-.28-3.44-.63-7.13-1.31-10.78-.26-1.4-1.08-2.09-2.51-2.09Z"/>
    </g>
    <g>
      <path class="cls-1" d="M485.45,45.05c-4.91,4.27-11.12,6.47-17.61,8.26-6.29,1.74-7.25,2.99-7.04,8.73.07,2.01.06,4.04-.06,6.05-.15,2.42-1.66,4.06-4.42,3.97-4.66-.14-9.3-.55-13.9-1.24-3.58-.55-5.16-3.08-5.41-6.06-.37-4.41-.79-8.84-.73-13.25.17-12.53.42-25.07.96-37.6.29-6.95,4.76-10.23,13.06-10.22,1.05,0,2.1.06,3.16.1,9.6.57,18.92,2.17,27.08,6.87,6.6,3.81,10.91,9.04,12.25,15.68,1.48,7.34-1.37,13.52-7.34,18.7ZM467.92,29.54c-.23-3.41-4.85-7.61-8.86-7.91-.64.08-1.19.45-1.47.99-.24.91-.32,1.84-.24,2.78.12,3.13.31,6.25.47,9.38.01,0,.02,0,.04,0,.07.83.11,1.66.22,2.49.1.76.58,1.1,1.53.99,3.94-.46,8.55-5.25,8.31-8.71Z"/>
      <path class="cls-2" d="M456.52,73.57c-.08,0-.17,0-.25,0-4.69-.14-9.43-.56-14.08-1.26-3.91-.6-6.34-3.3-6.68-7.42l-.12-1.37c-.33-3.93-.68-7.99-.62-12.02.15-11.09.39-24.23.96-37.64.22-5.32,2.93-11.66,14.53-11.66.74,0,1.51.03,2.27.06l.97.04c11.98.71,20.53,2.89,27.78,7.07,7.21,4.16,11.58,9.77,12.97,16.68,1.52,7.53-1.12,14.3-7.83,20.13h0c-5.27,4.58-11.86,6.83-18.19,8.58-5.8,1.61-6.12,2.33-5.94,7.23.08,2.17.06,4.25-.06,6.2-.2,3.29-2.43,5.38-5.71,5.38ZM450.27,5.2c-10.01,0-11.37,5.01-11.53,8.79-.57,13.37-.81,26.49-.96,37.55-.06,3.88.28,7.87.61,11.73l.12,1.37c.23,2.74,1.62,4.32,4.14,4.71,4.53.68,9.14,1.09,13.72,1.22,1.79.06,2.77-.81,2.88-2.57.11-1.84.13-3.83.06-5.9-.24-6.5,1.21-8.32,8.14-10.24,5.99-1.65,12.21-3.76,17.02-7.95h0c5.92-5.14,8.16-10.79,6.86-17.28-1.21-6.03-5.09-10.96-11.53-14.67-6.82-3.93-14.97-5.99-26.42-6.67l-.95-.04c-.72-.03-1.43-.06-2.15-.06ZM459.28,39.77c-1.75,0-2.53-1.16-2.69-2.31-.05-.41-.09-.83-.12-1.24h-.04s-.11-1.37-.11-1.37l-.15-2.79c-.12-2.2-.24-4.41-.32-6.61-.09-1.03,0-2.14.28-3.21l.12-.31c.5-.97,1.48-1.64,2.61-1.78l.15-.02h.15c4.69.36,9.96,5.15,10.25,9.32h0c.29,4.26-4.84,9.75-9.64,10.31-.18.02-.34.03-.5.03ZM459.29,34.05l.13,1.39c.03.44.07.88.11,1.31,3.1-.43,7.07-4.5,6.89-7.11h0c-.17-2.43-3.92-6.12-7.29-6.5-.06.02-.12.05-.15.09-.15.67-.2,1.35-.14,2.03.09,2.26.21,4.45.33,6.64l.11,2.15Z"/>
    </g>
    <g>
      <path class="cls-1" d="M546.78,25.95c-.32,2.65-2,3.65-4.98,3.53-3.59-.14-7.17-.53-10.76-.68-2.19-.12-4.4-.09-6.58.09-2.5.22-3.69,1.43-4.12,4.06,2.47.17,4.84.21,7.17.53,3.12.43,4.54,1.59,4.74,4.43.21,3.22.14,6.45-.21,9.65-.25,2.38-1.75,3.45-4.32,3.78-.96.13-1.94.09-2.9.2-1.13.08-2.25.27-3.33.58-.58.2-.96.9-1.43,1.38.59.23,1.17.66,1.76.67,3.99.06,7.99.05,11.98.06,7,.03,9.03,1.4,8.79,7.4-.12,2.85-.2,5.72-.47,8.56-.21,2.21-1.52,3.56-3.9,3.68-3.77.24-7.55.25-11.33.05-7.79-.51-15.57-1.15-23.34-1.84-5.22-.46-7.04-2.48-6.89-7.45.21-6.88.6-13.74.83-20.62.25-7.67.35-15.35.61-23.03.11-2.11.38-4.22.78-6.3.61-3.47,2.62-5.23,6.48-5.54,2.49-.22,5-.27,7.51-.16,8.12.42,16.23.99,24.34,1.62,1.46.13,2.9.37,4.31.74,2.89.73,5.05,2.38,5.32,5.15.33,3.15.33,6.31-.01,9.45Z"/>
      <path class="cls-2" d="M532.14,75.56c-1.79,0-3.58-.05-5.36-.15-6.85-.45-14.28-1.03-23.4-1.84-5.96-.53-8.43-3.21-8.26-8.99.11-3.59.27-7.24.43-10.77.15-3.28.29-6.57.4-9.86.12-3.72.21-7.45.29-11.17.09-3.95.18-7.91.32-11.86.12-2.19.39-4.38.81-6.54.73-4.17,3.29-6.39,7.83-6.75,2.54-.22,5.14-.27,7.7-.16,7.22.37,14.96.89,24.39,1.62,1.55.13,3.08.4,4.57.79,3.84.97,6.12,3.27,6.43,6.45.34,3.23.34,6.51-.01,9.75v.02c-.28,2.32-1.65,5.04-6.53,4.86-1.87-.07-3.75-.21-5.58-.35-1.7-.13-3.46-.26-5.18-.33-2.14-.11-4.29-.08-6.4.08-1.05.09-1.78.34-2.26,1.18.1,0,.2.01.29.02,1.75.09,3.4.18,5.1.42,2.64.37,5.71,1.36,6.03,5.81.22,3.29.14,6.62-.22,9.92-.29,2.74-1.95,4.42-4.93,5,.77,0,1.53,0,2.3,0h2.9c3.85.02,6.78.41,8.55,2.26,1.35,1.41,1.87,3.42,1.73,6.71l-.05,1.18c-.09,2.44-.19,4.97-.43,7.46-.29,2.99-2.28,4.88-5.32,5.04-2.03.13-4.08.19-6.13.19ZM510.28,10.43c-1.61,0-3.23.07-4.83.21-3.15.25-4.64,1.5-5.13,4.3-.4,2.05-.65,4.1-.76,6.12-.13,3.91-.22,7.85-.31,11.8-.09,3.73-.17,7.47-.3,11.2-.11,3.3-.25,6.59-.4,9.89-.16,3.52-.32,7.15-.43,10.72-.13,4.19,1.11,5.52,5.53,5.91,9.09.81,16.5,1.39,23.31,1.84,3.68.2,7.44.19,11.14-.05,1.59-.08,2.36-.8,2.5-2.33.23-2.41.33-4.89.42-7.29l.05-1.18c.1-2.37-.18-3.76-.9-4.52-.87-.91-2.78-1.31-6.39-1.32h-2.89c-3.04-.01-6.07-.02-9.1-.06-.75-.01-1.36-.32-1.86-.57-.15-.07-.29-.15-.44-.21l-2.1-.83,1.59-1.61c.11-.11.21-.25.32-.38.37-.46.88-1.09,1.69-1.37,1.26-.36,2.48-.58,3.72-.66.43-.05.93-.07,1.44-.09.48-.02.94-.04,1.37-.1,2.34-.3,2.89-1.16,3.03-2.45.34-3.13.41-6.29.21-9.39-.13-1.79-.66-2.65-3.45-3.04-1.57-.22-3.16-.3-4.84-.39-.73-.04-1.47-.08-2.22-.13l-1.64-.11.26-1.62c.54-3.34,2.28-5.03,5.47-5.31,2.26-.18,4.54-.21,6.79-.09,1.75.08,3.54.21,5.26.34,1.8.13,3.66.27,5.47.34,2.9.12,3.28-.98,3.43-2.21.33-3.03.33-6.1,0-9.12-.23-2.36-2.41-3.4-4.19-3.85-1.33-.35-2.7-.58-4.07-.7-9.38-.73-17.1-1.25-24.29-1.62-.82-.04-1.65-.05-2.47-.05Z"/>
    </g>
    <g>
      <path class="cls-1" d="M608.04,28.67c-.21,1.74-1.85,2.64-4.3,2.48-3.88-.25-7.76-.63-11.64-.94-3.54-.28-3.48-.26-3.74,2.45-.84,6.62-1.69,13.25-2.53,19.87-.72,6.95-1.43,13.91-2.18,20.86-.12.89-.33,1.78-.61,2.63-.54,1.78-2.07,2.79-4.3,2.79-3.83,0-7.68-.13-11.51-.32-2.01-.1-2.9-.84-2.94-2.48-.07-2.93-.01-5.87.15-8.79.68-12.52,1.38-25.05,2.11-37.57.06-1.04-.64-1.24-1.64-1.35-3.29-.36-6.58-.73-9.87-1.06-3.48-.35-4.98-1.24-5.23-3.92-.35-3.1-.34-6.22.05-9.31.45-3.13,2.49-4.09,6.65-3.82,4.08.26,8.16.57,12.23.93,11.56,1.02,23.11,2.15,34.65,3.4,4.01.44,5.35,1.44,5.37,4.58-.03,3.2-.27,6.39-.71,9.56Z"/>
      <path class="cls-2" d="M578.64,80.31c-3.37,0-7.02-.1-11.48-.32-3.54-.17-4.33-2.24-4.37-3.94-.07-2.84-.02-5.76.15-8.91.67-12.38,1.37-24.93,2.1-37.31-.08-.01-.17-.02-.29-.04l-1.44-.16c-2.8-.31-5.61-.62-8.41-.9-3.19-.32-6.19-1.18-6.58-5.27-.36-3.18-.35-6.43.05-9.63.71-4.98,4.77-5.35,8.23-5.14,4.04.26,8.17.58,12.27.94,11.55,1.01,23.22,2.16,34.68,3.41,4.12.45,6.68,1.62,6.71,6.06-.03,3.26-.28,6.54-.72,9.77-.31,2.51-2.62,4-5.88,3.78-2.44-.16-4.92-.37-7.31-.58-1.45-.12-2.9-.25-4.34-.36-.77-.06-1.56-.12-2-.11-.04.28-.09.7-.12,1.08v.13c-.86,6.67-1.7,13.29-2.54,19.91l-.52,5.01c-.54,5.28-1.09,10.55-1.66,15.83-.14,1.02-.37,2-.68,2.94-.71,2.38-2.86,3.82-5.73,3.82h-.11ZM555.25,11.65c-3.27,0-3.71,1.13-3.92,2.58-.36,2.93-.38,5.95-.04,8.92.14,1.43.38,2.25,3.89,2.6,2.82.28,5.63.59,8.44.9l1.44.16c2.08.23,3.08,1.21,2.98,2.93-.73,12.46-1.44,25.09-2.11,37.56-.17,3.07-.21,5.91-.15,8.67.01.59.02.95,1.52,1.02,4.45.22,8.09.33,11.43.32,1.56,0,2.52-.58,2.87-1.72.27-.81.45-1.61.56-2.41.56-5.23,1.11-10.5,1.65-15.77l.52-5.04c.84-6.66,1.69-13.28,2.53-19.9v-.09c.39-3.87,1.59-3.96,5.35-3.67,1.46.11,2.91.24,4.36.36,2.38.2,4.84.41,7.25.57.77.05,2.56.04,2.71-1.16v-.02c.43-3.1.67-6.26.7-9.37-.01-1.87-.17-2.65-4.03-3.07-11.44-1.24-23.09-2.39-34.62-3.4-4.08-.36-8.18-.67-12.2-.93-.42-.03-.8-.04-1.15-.04Z"/>
    </g>
    <g>
      <path class="cls-1" d="M631.5,38.19c-1.7,1.8-1.49,3.67.93,4.93,2.42,1.2,4.93,2.23,7.52,3.08,4.97,1.72,9.76,3.68,13.4,7.18,9.07,8.72,8.61,20.35-.92,28.1-7.33,5.98-16.1,7.14-25.77,4.2-9.82-2.98-17.05-8.42-20.29-17.19-.48-1.38-.69-2.82-.61-4.25.11-2.41,1.63-4.02,4.41-4.23,3.11-.14,6.24-.09,9.36.16,1.91.1,2.91,1.24,3.43,2.71.75,2.22,2.14,4.22,4.01,5.79,2.68,2.37,6.61,2.99,9.91,1.57,3.09-1.4,3.67-4.33.91-6.35-2.06-1.4-4.28-2.57-6.62-3.5-3.36-1.44-6.99-2.43-10.26-4-6.13-2.94-10.16-7.29-11.31-13.24-.85-4.39.85-8.24,3.52-11.79,5.75-7.67,14.61-11.23,25.4-11.92,4.52-.31,9.1.26,13.41,1.68,8.08,2.68,12.91,8.45,13.09,15.53.04,1.48-.05,2.96-.08,4.53-.34,1.28-.59,2.65-1.07,3.96-.78,2.13-2.45,3.18-5.16,3.08-3.11-.12-6.24-.34-9.34-.69-3.23-.36-4.54-1.66-4.87-4.41-.14-1.17-.18-2.36-.43-3.52-.64-3.01-2.78-4.45-6.32-4.16-2.41.13-4.64,1.11-6.23,2.75Z"/>
      <path class="cls-2" d="M636.44,88.73c-3.24,0-6.65-.54-10.21-1.62-10.89-3.31-18.04-9.4-21.26-18.11-.56-1.59-.79-3.21-.7-4.86.15-3.22,2.37-5.39,5.8-5.64,3.2-.15,6.41-.09,9.58.16,1.57.08,3.7.79,4.72,3.71.67,1.97,1.9,3.75,3.56,5.14,2.26,1.99,5.6,2.53,8.35,1.35,1.02-.46,1.69-1.17,1.77-1.87.06-.63-.34-1.3-1.15-1.89-1.92-1.31-4.05-2.43-6.28-3.31-1.47-.63-2.99-1.18-4.46-1.7-1.96-.7-3.98-1.43-5.89-2.34-6.86-3.29-10.94-8.1-12.13-14.31-.83-4.31.37-8.43,3.79-12.98,5.66-7.54,14.57-11.75,26.5-12.51,4.68-.32,9.51.28,13.97,1.75,8.65,2.87,13.93,9.19,14.12,16.92.03,1.07,0,2.09-.04,3.18-.01.47-.03.94-.04,1.42l-.05.35c-.1.38-.19.77-.29,1.16-.23.95-.46,1.94-.83,2.93-.71,1.94-2.4,4.23-6.63,4.06-2.89-.11-5.7-.31-8.35-.58,1.46.9,2.85,1.94,4.12,3.15,4.72,4.54,7.2,10.1,6.97,15.66-.23,5.47-3.06,10.68-7.98,14.69-4.98,4.06-10.65,6.09-16.94,6.09ZM613.54,61.43c-1.1,0-2.2.02-3.29.07-1.91.14-2.9,1.06-2.98,2.8-.07,1.26.11,2.5.53,3.69,2.87,7.76,9.37,13.24,19.31,16.25,9.46,2.87,17.66,1.55,24.38-3.93,4.31-3.51,6.69-7.82,6.88-12.49.19-4.69-1.96-9.43-6.05-13.37-3.24-3.11-7.48-4.98-12.85-6.84-2.62-.86-5.22-1.93-7.7-3.16-2.05-1.06-2.66-2.4-2.82-3.35-.16-.93-.03-2.36,1.46-3.95v-.02c1.87-1.92,4.44-3.05,7.24-3.2,4.25-.35,7.06,1.55,7.87,5.35.18.86.26,1.71.34,2.53.03.37.07.75.11,1.12.22,1.86.81,2.79,3.55,3.1,2.9.33,6.01.56,9.23.68,2.55.1,3.3-1,3.69-2.09.3-.83.52-1.73.73-2.6.08-.36.17-.71.26-1.05,0-.43.02-.85.04-1.27.03-1.04.06-2.03.04-3.01-.16-6.5-4.56-11.66-12.06-14.14-4.09-1.34-8.53-1.9-12.83-1.6-11.17.71-19.12,4.41-24.3,11.32-2.87,3.82-3.9,7.2-3.24,10.61,1,5.22,4.53,9.31,10.49,12.17,1.77.85,3.63,1.52,5.61,2.22,1.52.54,3.08,1.1,4.59,1.75,2.4.94,4.73,2.17,6.88,3.64,1.72,1.26,2.58,2.95,2.4,4.65-.19,1.8-1.48,3.37-3.54,4.31-3.88,1.67-8.39.95-11.52-1.82-2.05-1.72-3.59-3.96-4.43-6.44-.4-1.13-1.02-1.64-2.08-1.7-1.98-.16-3.96-.24-5.92-.24ZM632.59,39.22c-.49.53-.74,1.03-.68,1.38.06.38.51.8,1.22,1.17,2.32,1.16,4.79,2.17,7.3,2.99,1.09.38,2.22.78,3.36,1.22-.4-.75-.66-1.64-.79-2.7-.05-.4-.09-.8-.12-1.2-.07-.77-.14-1.49-.29-2.19-.33-1.54-1.16-3.27-4.73-2.98-2.08.11-3.94.92-5.26,2.29Z"/>
    </g>
    <g>
      <path class="cls-1" d="M58.55,191.3c-2.43,2.7-5.05,5.23-7.83,7.57-2.53,2.16-4.51,1.68-6.77-1.1-.38-.4-.71-.84-.99-1.31-1.21-2.43-2.93-2.76-5.17-2.14-4.49,1.24-9.04,2.21-13.52,3.48-.74.21-1.43,1.13-1.82,1.93-.52,1.26-.95,2.56-1.3,3.87-.55,1.64-1.6,2.62-3.2,2.82-4.69.6-9.29-.25-13.83-1.87-1.45-.52-2.22-1.82-2.58-3.49,0-1.28-.08-2.56.01-3.83.47-7.21.94-14.43,1.56-21.63.82-9.6,1.79-19.18,2.72-28.78.36-3.66,1.97-6.41,5.25-7.53,3.66-1.21,7.38-2.24,11.15-3.07,2.57-.59,4.86.56,6.53,2.62,2.51,2.96,4.79,6.1,6.83,9.37,7.17,12.02,15.36,23.18,23.14,34.63,2.53,3.73,2.71,5.2-.18,8.44ZM28.31,173.74c-1.68-3.07-3.56-6.02-5.39-9-.41-.53-.87-1.03-1.36-1.5-.95,5.44-.74,10.45-.39,15.81,2.09-.58,4.02-1.02,5.89-1.66,1.97-.67,2.35-1.64,1.25-3.66Z"/>
      <path class="cls-2" d="M14.89,208.13c-3.53,0-7.25-.71-11.29-2.15-1.27-.45-2.91-1.62-3.54-4.59l-.03-.31c0-.4,0-.79-.02-1.19-.02-.89-.03-1.81.03-2.75.43-6.66.93-14.21,1.56-21.65.67-7.94,1.47-16,2.23-23.79l.49-5.01c.44-4.51,2.6-7.55,6.26-8.8,3.72-1.23,7.52-2.28,11.31-3.11,2.92-.67,5.85.47,8.02,3.14,2.53,2.99,4.87,6.2,6.94,9.52,5.2,8.72,11.03,17.12,16.67,25.25,2.16,3.11,4.31,6.21,6.43,9.33,2.71,3.98,3.26,6.29-.3,10.28h0c-2.46,2.74-5.15,5.34-7.98,7.72-1.48,1.26-2.9,1.82-4.33,1.68-1.57-.14-3.01-1.08-4.54-2.94-.44-.47-.83-.99-1.15-1.54l-.05-.09c-.77-1.54-1.6-1.87-3.43-1.36-2.16.6-4.35,1.14-6.48,1.66-2.32.57-4.71,1.16-7.03,1.81-.12.05-.54.45-.86,1.1-.48,1.18-.89,2.41-1.22,3.65-.97,2.91-2.96,3.73-4.46,3.92-1.06.14-2.14.21-3.24.21ZM3.03,200.91c.43,1.83,1.29,2.14,1.58,2.24,4.83,1.73,9.13,2.31,13.14,1.8.66-.09,1.49-.37,1.97-1.81.34-1.29.8-2.65,1.33-3.96l.04-.09c.26-.52,1.21-2.27,2.76-2.71,2.38-.67,4.8-1.27,7.14-1.84,2.11-.52,4.28-1.05,6.4-1.64,3.21-.89,5.46.05,6.89,2.86.22.36.47.7.77,1.01l.07.08c.97,1.19,1.82,1.82,2.52,1.89.58.05,1.28-.27,2.12-.98,2.73-2.3,5.31-4.8,7.68-7.43,2.31-2.59,2.31-3.27.05-6.59-2.12-3.12-4.27-6.21-6.42-9.31-5.67-8.17-11.53-16.61-16.77-25.4-1.98-3.17-4.23-6.27-6.69-9.17-1.04-1.28-2.74-2.66-5.05-2.13-3.71.82-7.41,1.84-11.01,3.03-2.51.86-3.9,2.91-4.23,6.25l-.49,5.01c-.77,7.78-1.56,15.83-2.23,23.75-.63,7.41-1.12,14.95-1.55,21.6-.05.81-.04,1.62-.02,2.49,0,.36.01.72.02,1.08ZM19.8,181l-.12-1.84c-.35-5.3-.58-10.53.41-16.17l.48-2.73,2.03,1.9c.55.51,1.06,1.08,1.52,1.67l.09.13.98,1.58c1.5,2.42,3.05,4.92,4.45,7.48h0c.5.92,1.12,2.3.6,3.64-.5,1.29-1.77,1.85-2.67,2.16-1.32.45-2.62.79-4.01,1.16-.64.17-1.29.34-1.96.53l-1.78.5ZM22.57,167.03c-.31,3.39-.22,6.67-.02,10.1.07-.02.15-.04.22-.06,1.33-.35,2.59-.68,3.81-1.1.65-.22.83-.4.85-.43-.01,0-.02-.31-.44-1.09h0c-1.36-2.49-2.89-4.96-4.37-7.34l-.06-.09Z"/>
    </g>
    <g>
      <path class="cls-1" d="M112.94,182.71c.57,3.89-.78,6.02-4.99,7.38-2.89.93-5.85,1.7-8.82,2.38-2.37.54-3.44-.14-4.27-2.13-1.21-2.91-2.27-5.9-3.85-8.63-.98-1.7-2.75-3.04-4.29-4.43-.41-.37-1.48-.67-1.84-.46-.55.4-.86,1.04-.84,1.71.47,3.21,1.09,6.38,1.66,9.57.18.99.41,1.97.5,2.96.17,1.88-.74,3.39-2.83,3.71-4.43.68-8.9,1.18-13.38,1.52-2.07.16-3.14-1.37-3.75-2.95-.44-1.16-.76-2.37-.98-3.59-2.03-11.18-4.05-22.36-6.08-33.54-.99-5.5-2.07-10.98-2.98-16.49-.65-3.93,1.24-7.13,5.07-9.42,7.42-4.44,15.53-5.44,23.83-3.66,10.03,2.16,16.96,7.54,20.03,16.07,2.64,7.33.93,14-7.86,18.87-2.28,1.27-4.73,2.31-7.27,3.54,1.86.23,3.57.36,5.23.66,9.28,1.66,16.51,8.66,17.71,16.94ZM85.01,147.44c-1.15-.53-2.38-.87-3.66-1.02-3.37-.34-4.26.54-3.64,3.71.25.89.58,2.09.93,3.28.14.6.36,1.19.65,1.74.24.31.63.49,1.04.48,1.33-.3,2.64-.69,3.91-1.18,1.58-.52,2.72-1.88,2.91-3.49.2-1.52-.68-2.96-2.14-3.53Z"/>
      <path class="cls-2" d="M69.68,197.8c-1.61,0-3.63-.74-4.85-3.93-.47-1.25-.82-2.55-1.05-3.87l-6.07-33.53c-.32-1.77-.65-3.53-.98-5.3-.68-3.67-1.38-7.46-2-11.21-.73-4.4,1.32-8.29,5.78-10.95,7.51-4.49,15.89-5.78,24.91-3.84,10.64,2.29,17.95,8.18,21.13,17.03,3.13,8.7.17,15.86-8.55,20.69-.88.49-1.77.94-2.68,1.38.06.01.12.02.19.03,9.85,1.76,17.63,9.25,18.93,18.2.68,4.68-1.17,7.46-6.02,9.02-2.63.85-5.56,1.64-8.95,2.41-2.99.68-4.83-.24-5.99-3.01-.29-.7-.57-1.4-.85-2.1-.9-2.25-1.76-4.37-2.91-6.37-.66-1.15-1.82-2.16-3.05-3.23-.32-.28-.64-.56-.95-.84-.03-.02-.09-.04-.15-.06,0,.03-.02.07-.02.1.34,2.31.77,4.65,1.18,6.91.15.83.3,1.66.45,2.5.05.28.1.55.16.83.14.73.29,1.48.36,2.26.25,2.81-1.35,4.9-4.09,5.32-4.36.67-8.9,1.18-13.49,1.53-.13.01-.27.02-.41.02ZM77.48,127.3c-5.5,0-10.67,1.43-15.44,4.29-3.42,2.04-4.88,4.7-4.35,7.89.61,3.72,1.31,7.5,1.99,11.15.33,1.77.66,3.54.98,5.31l6.08,33.54c.2,1.15.5,2.26.9,3.33.81,2.1,1.77,2.02,2.24,1.99,4.51-.34,8.97-.85,13.26-1.51.74-.11,1.71-.45,1.56-2.09-.06-.63-.18-1.27-.31-1.95-.06-.29-.12-.59-.17-.88-.15-.83-.3-1.66-.45-2.49-.42-2.33-.86-4.73-1.21-7.13l-.02-.17c-.03-1.16.51-2.27,1.45-2.96l.11-.07c1.17-.71,2.95.02,3.62.63.3.27.6.53.91.8,1.36,1.18,2.77,2.41,3.68,3.99,1.26,2.18,2.19,4.5,3.09,6.75.28.69.55,1.38.84,2.06.56,1.33.92,1.62,2.55,1.24,3.31-.75,6.15-1.52,8.7-2.34,3.48-1.12,4.44-2.51,3.97-5.73h0c-1.12-7.69-7.9-14.14-16.49-15.68-1.09-.2-2.22-.32-3.42-.45-.56-.06-1.14-.12-1.73-.2l-5.04-.61,4.56-2.22c.86-.42,1.72-.82,2.55-1.21,1.63-.76,3.17-1.48,4.64-2.3,7.47-4.14,9.81-9.72,7.18-17.05-2.86-7.94-9.23-13.02-18.94-15.11-2.49-.54-4.93-.8-7.3-.8ZM80.3,157.13c-.85,0-1.66-.39-2.18-1.05l-.15-.22c-.35-.67-.62-1.38-.79-2.1-.23-.76-.47-1.61-.68-2.36l-.27-.97c-.28-1.43-.45-3.22.66-4.43,1.13-1.23,2.96-1.23,4.61-1.06,1.43.16,2.8.54,4.09,1.13,2.08.83,3.33,2.92,3.04,5.1-.25,2.15-1.79,4.01-3.93,4.72-1.26.48-2.65.9-4.05,1.22l-.29.04s-.05,0-.07,0ZM79.18,149.79l.22.8c.2.73.44,1.57.68,2.4.1.4.21.75.36,1.08,1.11-.27,2.21-.61,3.27-1.01,1.09-.36,1.84-1.24,1.96-2.26.11-.86-.37-1.63-1.19-1.95l-.09-.04c-1.01-.46-2.08-.76-3.2-.89-1.74-.18-2.07.09-2.08.1h0s-.21.32.07,1.78Z"/>
    </g>
    <g>
      <path class="cls-1" d="M157.2,130.34c.25,2.66-1.11,3.98-3.91,4.46-3.36.59-6.77.93-10.14,1.5-2.07.33-4.11.8-6.11,1.41-2.28.72-3.15,2.14-3.01,4.8,2.33-.33,4.55-.77,6.78-.92,3-.2,4.54.65,5.31,3.38.85,3.11,1.44,6.28,1.77,9.49.25,2.38-.93,3.73-3.25,4.57-.87.32-1.79.48-2.66.78-1.04.3-2.04.72-2.98,1.24-.5.31-.71,1.08-1.05,1.64.59.11,1.23.41,1.78.3,3.73-.75,7.44-1.56,11.15-2.35,6.52-1.38,8.68-.45,9.67,5.47.47,2.82.98,5.63,1.3,8.47.25,2.2-.69,3.79-2.88,4.39-3.45.99-6.97,1.77-10.52,2.32-7.34,1.06-14.7,2-22.07,2.89-4.94.59-7.06-1.02-7.94-5.91-1.21-6.77-2.26-13.57-3.46-20.34-1.34-7.56-2.82-15.1-4.15-22.66-.33-2.09-.52-4.2-.56-6.32-.15-3.52,1.37-5.64,4.9-6.72,2.28-.71,4.61-1.27,6.96-1.66,7.65-1.22,15.31-2.29,22.99-3.31,1.38-.17,2.77-.22,4.16-.14,2.84.14,5.19,1.31,6,3.96.95,3.01,1.59,6.11,1.91,9.25Z"/>
      <path class="cls-2" d="M124.64,185.8c-4.44,0-6.77-2.25-7.67-7.25-.63-3.53-1.23-7.13-1.8-10.6-.54-3.25-1.08-6.5-1.65-9.75-.65-3.65-1.33-7.3-2.01-10.95-.73-3.9-1.46-7.8-2.14-11.71-.34-2.17-.54-4.36-.59-6.55-.17-4.23,1.77-6.91,5.96-8.19,2.33-.73,4.74-1.3,7.15-1.71,6.79-1.08,14.11-2.14,23.04-3.31,1.48-.18,2.97-.23,4.44-.15,3.8.18,6.41,1.97,7.35,5.02.97,3.08,1.64,6.3,1.97,9.53h0c.22,2.35-.5,5.29-5.15,6.09-1.76.31-3.55.55-5.28.79-1.6.22-3.26.44-4.87.72-2.01.32-3.99.78-5.92,1.36-.94.3-1.55.68-1.82,1.6l.21-.03c1.58-.25,3.21-.51,4.84-.62,3.8-.26,5.92,1.12,6.86,4.47.87,3.19,1.48,6.46,1.82,9.74.29,2.74-.92,4.72-3.62,5.89.71-.15,1.41-.3,2.12-.45l2.69-.57c3.56-.75,6.34-.97,8.38.42,1.61,1.09,2.53,2.97,3.08,6.27l.19,1.12c.41,2.42.84,4.93,1.12,7.43.34,2.98-1.14,5.23-3.97,6.01-3.48,1-7.08,1.79-10.68,2.36-6.5.94-13.53,1.86-22.13,2.89-.68.08-1.32.12-1.93.12ZM148,118.59c-.9,0-1.8.05-2.69.16-8.89,1.17-16.18,2.22-22.94,3.3-2.27.38-4.55.92-6.75,1.61-2.85.87-3.96,2.38-3.85,5.23.05,2.08.23,4.14.55,6.15.68,3.87,1.41,7.76,2.13,11.65.68,3.66,1.37,7.32,2.01,10.98.58,3.26,1.12,6.52,1.66,9.78.57,3.47,1.17,7.05,1.8,10.56.74,4.13,2.15,5.18,6.28,4.68,8.57-1.03,15.58-1.94,22.04-2.88,3.47-.54,6.94-1.31,10.32-2.28,1.43-.39,1.98-1.25,1.8-2.77-.28-2.42-.7-4.89-1.1-7.27l-.19-1.12c-.4-2.39-.96-3.71-1.81-4.29-.98-.67-2.8-.66-6.07.04l-2.68.57c-2.83.61-5.65,1.21-8.49,1.78-.73.15-1.38-.04-1.91-.18-.15-.04-.29-.08-.44-.11l-2.13-.4,1.12-1.85c.08-.13.15-.28.22-.43.25-.53.6-1.25,1.32-1.7,1.11-.61,2.22-1.07,3.36-1.41.38-.14.85-.26,1.32-.38.44-.12.87-.23,1.25-.37,2.08-.76,2.41-1.71,2.27-3-.32-3.12-.9-6.23-1.72-9.25-.49-1.75-1.12-2.46-3.76-2.28-1.49.1-2.99.34-4.57.59-.69.11-1.39.22-2.1.32l-1.62.23-.09-1.64c-.18-3.38,1.11-5.38,4.05-6.31,2.07-.63,4.2-1.12,6.32-1.46,1.64-.28,3.32-.51,4.95-.73,1.7-.23,3.47-.47,5.17-.77,2.43-.42,2.82-1.32,2.68-2.84-.31-3.03-.94-6.04-1.85-8.94-.56-1.82-2.12-2.8-4.64-2.92-.41-.02-.81-.03-1.22-.03Z"/>
    </g>
    <g>
      <path class="cls-1" d="M248.61,109.95c-.64,2.12-1.45,4.19-2.42,6.19-3.29,6.41-6.65,12.79-10.02,19.17-.99,1.83-1.44,3.88-1.3,5.93.57,8.66,1.13,17.32,1.69,25.98.07,1.08.16,2.16.12,3.23-.07,1.95-1.21,3.32-3.47,3.56-3.62.39-7.25.61-10.89.66-2.29.02-3.74-1.39-4.07-3.64-.45-3.06-.73-6.15-1.05-9.23-.51-4.82-.98-9.65-1.52-14.47-.37-3.14-1.92-6.04-4.35-8.14-4.85-4.42-9.78-8.79-14.68-13.17-1.42-1.25-2.76-2.57-4.03-3.96-1.76-1.96-1.84-3.71.08-5.7,2.22-2.31,4.6-4.47,7.12-6.48,2.33-1.85,5.09-1.99,7.33-.23,3.19,2.5,6.04,5.29,8.97,8,1.25,1.16,2.37,2.41,3.57,3.6.48.42.99.81,1.51,1.17.64-.96,1.22-1.94,1.74-2.96,1.7-3.85,3.32-7.71,5.02-11.56.49-1.17,1.07-2.31,1.74-3.4,1.3-2.04,3.04-2.82,5.67-2.12,3.75,1,7.41,2.2,10.99,3.53,1.96.73,2.85,2.23,2.24,4.04Z"/>
      <path class="cls-2" d="M222.27,176.17c-2.95,0-5.05-1.88-5.49-4.92-.35-2.42-.61-4.88-.85-7.26l-.21-2.03c-.2-1.86-.39-3.73-.58-5.59-.3-2.96-.61-5.92-.94-8.88-.33-2.77-1.69-5.32-3.84-7.17-3.61-3.28-7.29-6.57-10.85-9.75l-3.85-3.44c-1.44-1.27-2.84-2.64-4.14-4.06-2.36-2.63-2.32-5.23.11-7.75,2.25-2.34,4.7-4.57,7.27-6.61,2.91-2.31,6.44-2.4,9.19-.24,2.58,2.03,4.96,4.25,7.26,6.41.6.56,1.2,1.12,1.8,1.68.79.73,1.52,1.49,2.22,2.22.46.47.91.95,1.38,1.41.02.02.04.03.06.05.28-.48.55-.97.81-1.46.79-1.79,1.59-3.66,2.4-5.54.85-1.98,1.71-3.97,2.58-5.94.51-1.21,1.13-2.42,1.83-3.58,1.71-2.7,4.18-3.63,7.33-2.79,3.54.94,7.18,2.11,11.12,3.57,2.76,1.02,4,3.34,3.15,5.9-.66,2.17-1.5,4.32-2.49,6.39-3.25,6.34-6.62,12.73-9.87,18.9l-.17.32c-.86,1.59-1.25,3.36-1.13,5.13.57,8.66,1.13,17.32,1.69,25.98l.02.38c.06.98.13,1.98.09,3.01-.11,2.82-1.9,4.68-4.81,5-3.64.4-7.36.62-11.03.67-.02,0-.05,0-.08,0ZM203.72,109.91c-.98,0-1.99.38-2.95,1.15-2.47,1.96-4.81,4.1-6.97,6.34-1.32,1.37-1.33,2.23-.05,3.66,1.22,1.33,2.53,2.63,3.91,3.83l3.85,3.44c3.57,3.19,7.26,6.48,10.85,9.75,2.68,2.32,4.4,5.55,4.83,9.07.33,2.98.64,5.95.94,8.92.19,1.86.38,3.72.58,5.58l.21,2.04c.24,2.35.49,4.77.83,7.13.23,1.58,1.08,2.4,2.57,2.36,3.57-.04,7.19-.26,10.74-.65,1.41-.15,2.09-.83,2.14-2.13.03-.87-.03-1.76-.09-2.7l-.02-.38c-.56-8.66-1.13-17.32-1.69-25.97-.16-2.34.35-4.67,1.48-6.75l.16-.31c3.25-6.17,6.61-12.54,9.84-18.83.91-1.9,1.7-3.91,2.32-5.94v-.04c.13-.36.5-1.47-1.33-2.15-3.85-1.43-7.4-2.57-10.85-3.48-1.9-.5-3.02-.09-4.02,1.47-.61,1-1.16,2.08-1.62,3.18-.88,1.99-1.73,3.97-2.58,5.94-.81,1.88-1.62,3.77-2.45,5.64-.59,1.15-1.2,2.19-1.86,3.19l-.85,1.28-1.26-.88c-.58-.4-1.12-.83-1.63-1.27-.56-.55-1.03-1.04-1.51-1.54-.71-.74-1.38-1.43-2.1-2.1-.61-.56-1.21-1.12-1.81-1.69-2.25-2.11-4.58-4.29-7.06-6.24-.78-.61-1.64-.92-2.52-.92Z"/>
    </g>
    <g>
      <path class="cls-1" d="M311.19,139.56c.23,6.7-.79,13.09-4.93,18.78-9.2,12.62-26.78,16.07-40.66,7.77-11.65-6.98-18.4-16.8-18.38-30.12,0-4.23,1.76-8.18,3.44-12.07,2.55-5.88,6.21-11.15,11.63-15.26,12.77-9.7,30.02-7.67,39.77,4.61,4.62,5.81,6.94,12.46,8.22,19.47.41,2.25.62,4.54.91,6.82ZM285.1,126.94c-2.59-2.23-5.8-2.25-8.31.12-1.21,1.17-2.17,2.55-2.83,4.07-1.58,3.7-1.95,7.78-1.07,11.69.79,3.93,3.66,6.41,7.92,6.15,3.14-.22,5.97-1.97,7.52-4.65,3.37-5.6.86-13.84-3.23-17.37Z"/>
      <path class="cls-2" d="M281.9,172.17c-5.79,0-11.68-1.55-17.06-4.77-12.7-7.61-19.13-18.18-19.11-31.4,0-4.46,1.77-8.52,3.47-12.44l.1-.22c2.89-6.69,6.85-11.88,12.1-15.86,13.51-10.26,31.5-8.17,41.85,4.87,4.29,5.39,7,11.78,8.52,20.13.29,1.6.48,3.22.67,4.79.08.7.17,1.4.26,2.1v.14c.3,8.16-1.36,14.43-5.2,19.72-6.15,8.43-15.71,12.94-25.58,12.94ZM280.11,104c-5.81,0-11.73,1.92-16.92,5.86-4.83,3.66-8.48,8.46-11.16,14.66l-.1.22c-1.58,3.65-3.21,7.41-3.22,11.26-.02,12.1,5.92,21.8,17.65,28.83,13.22,7.91,29.85,4.74,38.68-7.37,3.42-4.7,4.89-10.35,4.64-17.78-.09-.69-.17-1.38-.25-2.07-.18-1.52-.36-3.09-.64-4.6-1.44-7.84-3.95-13.81-7.92-18.8-5.34-6.73-12.95-10.21-20.77-10.21ZM280.22,150.48c-4.54,0-7.87-2.77-8.79-7.38-.95-4.21-.55-8.57,1.16-12.57.75-1.72,1.81-3.25,3.16-4.56,3.05-2.89,7.1-2.95,10.33-.17,4.71,4.05,7.22,13.16,3.54,19.28-1.79,3.1-5.05,5.12-8.7,5.38-.23.01-.47.02-.7.02ZM280.96,126.78c-1.1,0-2.18.46-3.14,1.37-1.06,1.02-1.9,2.23-2.48,3.58-1.46,3.41-1.8,7.13-.98,10.76.68,3.39,3,5.18,6.36,4.99,2.64-.19,5.01-1.64,6.31-3.9,2.9-4.83.81-12.28-2.91-15.48h0c-1.01-.87-2.09-1.3-3.16-1.3Z"/>
    </g>
    <g>
      <path class="cls-1" d="M373.55,117.1c-.36,7.11-.72,14.22-1.07,21.33-.95,8.45-3.97,16.12-10.61,22.16-8.49,7.71-21.49,9.64-30.96,4.41-6.06-3.35-9.54-8.67-11.83-14.85-2.11-5.51-3.35-11.31-3.65-17.19-.36-8.62-.39-17.26-.39-25.89,0-3.13,1.36-4.38,4.68-4.53,4.2-.19,8.43-.31,12.62-.09,2.94.15,4.35,1.78,4.35,4.57.01,5.3-.21,10.61-.21,15.91,0,5.67-.1,11.38,2.09,16.77.68,1.75,1.67,3.37,2.94,4.77,3.28,3.47,8.7,2.4,10.07-2.08.71-2.55,1.01-5.2.89-7.84-.27-9.41-.78-18.81-1.18-28.22,0-.83.05-1.66.16-2.48.23-2.19,1.54-3.5,3.83-3.95,4.32-.85,8.67-1.35,13.08-.75,3.28.45,4.82,1.72,4.99,4.83.24,4.36.13,8.74.17,13.11Z"/>
      <path class="cls-2" d="M342.75,169.42c-4.42,0-8.77-1.01-12.56-3.11-5.69-3.14-9.78-8.26-12.51-15.64-2.17-5.68-3.43-11.62-3.74-17.64-.36-8.61-.39-17.2-.39-25.97,0-3.92,1.94-5.84,6.11-6.03,4.05-.18,8.41-.31,12.77-.09,3.66.19,5.76,2.4,5.77,6.07,0,2.7-.05,5.44-.1,8.08-.05,2.57-.11,5.23-.1,7.83v.73c0,5.45,0,10.59,1.98,15.48.62,1.61,1.51,3.05,2.66,4.33,1.2,1.27,2.87,1.82,4.46,1.45,1.48-.35,2.6-1.43,3.07-2.97.66-2.37.94-4.85.82-7.33-.19-6.46-.49-13-.78-19.33-.14-2.97-.27-5.93-.4-8.9,0-.95.05-1.86.18-2.76.29-2.76,2.08-4.63,5.02-5.22,3.66-.72,8.51-1.45,13.57-.76,2.79.38,6.03,1.43,6.29,6.24.17,3.08.17,6.2.16,9.22,0,1.32,0,2.64,0,3.95v.04s0,.04,0,.04c-.36,7.11-.72,14.22-1.07,21.33-1.11,9.85-4.73,17.41-11.1,23.2-5.57,5.05-12.95,7.72-20.13,7.72ZM327.51,103.85c-2.63,0-5.23.09-7.72.2-2.8.13-3.25,1-3.25,3.03,0,8.74.03,17.29.39,25.83.29,5.69,1.49,11.32,3.55,16.72,2.51,6.78,6.06,11.25,11.15,14.07,8.85,4.89,21.15,3.12,29.22-4.21,5.8-5.27,9.11-12.21,10.13-21.22.34-7,.7-14.1,1.06-21.19-.01-1.31-.01-2.63,0-3.94,0-2.98,0-6.05-.16-9.05-.11-2-.69-3.02-3.7-3.43-4.63-.63-9.16.06-12.59.73-1.68.33-2.46,1.12-2.62,2.64-.11.8-.16,1.56-.16,2.31.12,2.91.26,5.87.4,8.84.29,6.34.59,12.9.78,19.35.13,2.78-.18,5.58-.94,8.29-.8,2.59-2.76,4.46-5.27,5.05-2.63.61-5.38-.26-7.34-2.33-1.42-1.58-2.51-3.34-3.25-5.26-2.2-5.41-2.2-11.09-2.19-16.59v-.73c0-2.64.05-5.31.1-7.89.05-2.63.11-5.35.1-8.01,0-2.08-.85-2.97-2.93-3.08-1.59-.08-3.18-.12-4.76-.12Z"/>
    </g>
    <g>
      <path class="cls-1" d="M428.43,161.53c-.13,3.93-1.83,5.79-6.2,6.38-3,.41-6.04.64-9.08.78-2.42.11-3.35-.75-3.82-2.85-.68-3.07-1.18-6.21-2.25-9.18-.66-1.84-2.17-3.47-3.43-5.12-.34-.44-1.33-.92-1.72-.77-.61.3-1.03.87-1.13,1.53-.11,3.24-.05,6.47-.06,9.71,0,1,.06,2.01-.03,3-.17,1.88-1.32,3.2-3.42,3.15-4.47-.11-8.94-.41-13.38-.87-2.06-.21-2.84-1.9-3.16-3.57-.22-1.22-.33-2.46-.32-3.71-.02-11.36-.04-22.72-.06-34.08,0-5.58-.09-11.17-.02-16.75.06-3.99,2.47-6.8,6.62-8.38,8.06-3.05,16.19-2.61,24.01.6,9.46,3.9,15.32,10.41,16.83,19.35,1.29,7.68-1.55,13.94-11.04,17.19-2.46.84-5.04,1.44-7.75,2.2,1.78.55,3.44.98,5.02,1.57,8.81,3.27,14.67,11.44,14.39,19.8ZM407.24,121.89c-1.03-.72-2.19-1.28-3.41-1.65-3.24-.93-4.27-.22-4.23,3.01.09.92.2,2.16.34,3.39.03.62.15,1.23.33,1.83.18.35.53.59.93.65,1.36-.06,2.71-.22,4.04-.47,1.65-.23,3-1.37,3.47-2.92.46-1.46-.14-3.03-1.48-3.85Z"/>
      <path class="cls-2" d="M412.76,170.2c-2.76,0-4.27-1.26-4.89-4.03-.16-.74-.31-1.47-.47-2.21-.49-2.37-.95-4.61-1.73-6.78-.45-1.24-1.4-2.44-2.42-3.71-.27-.33-.53-.67-.79-1-.02-.02-.07-.05-.13-.08-.01.03-.03.06-.03.09-.07,2.32-.07,4.68-.06,6.97,0,.86,0,1.72,0,2.58,0,.28,0,.56,0,.84.01.74.02,1.5-.04,2.29-.25,2.82-2.19,4.6-4.96,4.52-4.4-.11-8.94-.41-13.5-.88-1.66-.17-3.78-1.14-4.48-4.78-.24-1.33-.36-2.67-.35-4l-.06-34.07c0-1.78-.01-3.55-.02-5.33-.02-3.75-.04-7.63,0-11.45.06-4.46,2.76-7.93,7.59-9.76,8.15-3.09,16.6-2.88,25.11.62,10.04,4.13,16.17,11.22,17.73,20.49,1.54,9.12-2.62,15.64-12.03,18.86-.95.33-1.91.61-2.88.88.06.02.12.04.18.07,9.35,3.47,15.67,12.21,15.37,21.25h0c-.15,4.72-2.47,7.13-7.5,7.82-2.73.37-5.75.63-9.21.79-.16,0-.31.01-.46.01ZM402.11,149.24c1.11,0,2.28.8,2.73,1.38.25.32.5.64.76.96,1.12,1.4,2.28,2.85,2.9,4.57.85,2.37,1.36,4.82,1.85,7.19.15.72.3,1.45.46,2.17.31,1.41.61,1.76,2.28,1.67,3.37-.16,6.3-.41,8.95-.77,3.6-.49,4.8-1.69,4.9-4.94h0c.26-7.77-5.26-15.31-13.42-18.34-1.04-.39-2.13-.71-3.29-1.05-.54-.16-1.09-.32-1.65-.5l-4.84-1.5,4.87-1.38c.92-.26,1.82-.5,2.7-.73,1.74-.46,3.39-.9,4.98-1.45,8.06-2.76,11.34-7.83,10.05-15.52-1.4-8.32-6.76-14.45-15.92-18.22-7.78-3.2-15.49-3.4-22.91-.59-3.71,1.41-5.61,3.76-5.65,7-.05,3.79-.03,7.65,0,11.39.01,1.78.02,3.56.02,5.34l.06,34.08c0,1.15.09,2.31.3,3.44.42,2.2,1.38,2.3,1.84,2.35,4.48.46,8.94.75,13.27.86.74.02,1.75-.15,1.89-1.78.06-.63.04-1.28.03-1.98,0-.3,0-.6,0-.89,0-.86,0-1.71,0-2.57,0-2.35-.01-4.79.06-7.19l.02-.17c.17-1.15.9-2.14,1.95-2.66l.13-.05c.23-.09.47-.13.71-.13ZM401.13,130.63l-.15-.02c-.86-.13-1.62-.67-2.03-1.43l-.1-.25c-.23-.71-.36-1.45-.4-2.2-.1-.85-.19-1.79-.26-2.59l-.08-.86c-.02-1.46.12-3.25,1.43-4.25,1.32-1.01,3.13-.68,4.71-.22,1.38.41,2.66,1.03,3.81,1.83,1.89,1.18,2.75,3.45,2.09,5.55-.63,2.08-2.47,3.64-4.69,3.95-1.33.25-2.76.42-4.19.48h-.15ZM401.11,123.17l.06.68c.07.79.16,1.7.26,2.62.02.41.08.78.16,1.12,1.14-.07,2.27-.21,3.38-.42,1.13-.16,2.02-.9,2.31-1.88.26-.83-.07-1.68-.82-2.13l-.08-.05c-.9-.63-1.91-1.12-2.98-1.44-1.67-.48-2.03-.28-2.05-.27h0s-.26.28-.25,1.76Z"/>
    </g>
    <g>
      <path class="cls-1" d="M511.97,120.59c-.41,2.41-2.14,3.69-4.58,3.83-3.18.18-6.37.13-9.55.19-.82.01-1.65-.01-2.47.01-1.47.05-3.11-.15-3.96,1.35-1.13,1.85-1.42,4.06-.83,6.13.32.66.93,1.14,1.66,1.31,1.55.32,3.13.46,4.7.42,4.27-.14,5.98,1.1,6.09,5.19.04,3.34-.14,6.67-.56,9.99-.31,2.72-2.04,4.24-4.92,4.75-1.43.25-2.9.31-4.35.46-2.37.24-3.14.87-3.53,3.16-.38,2.24-.59,4.51-.96,6.75-.39,2.34-1.89,3.75-4.18,4.3-3.75.94-7.67,1.04-11.47.28-2.82-.59-4.4-2.61-4.97-5.26-.48-2.06-.73-4.17-.73-6.29-.03-5.3-.06-10.6-.1-15.9.31-7.25.55-14.51.97-21.75.13-3.54.52-7.07,1.19-10.55,1.05-4.9,4.18-7.55,9.39-7.67,5.6-.13,11.22.23,16.82.63,3.66.29,7.29.78,10.89,1.47,4.63.86,6.81,3.34,6.66,7.79-.2,3.16-.61,6.31-1.23,9.42Z"/>
      <path class="cls-2" d="M478.2,170.71c-1.82,0-3.64-.18-5.41-.53-3.21-.67-5.39-2.95-6.15-6.42-.5-2.15-.76-4.38-.76-6.6-.03-5.29-.06-10.59-.1-15.89.09-2.18.18-4.29.26-6.4.2-5.06.41-10.3.71-15.45.13-3.59.54-7.22,1.21-10.75,1.22-5.69,4.96-8.75,10.83-8.89,5.66-.14,11.25.22,16.96.64,3.71.29,7.43.8,11.07,1.49,5.4,1,8.06,4.14,7.88,9.31-.21,3.24-.63,6.47-1.25,9.64-.52,2.99-2.75,4.88-5.97,5.05-2.21.12-4.45.14-6.61.16-1,0-2,.01-2.99.03-.37,0-.74,0-1.11,0-.45,0-.89,0-1.34,0-.2,0-.4,0-.61.01-1.38.02-1.82.09-2.09.58-.9,1.48-1.15,3.21-.73,4.83.13.21.35.35.6.41,1.39.28,2.86.42,4.33.38,2.79-.09,4.59.39,5.83,1.56,1.16,1.1,1.73,2.72,1.79,5.1.05,3.4-.15,6.83-.57,10.21-.26,2.3-1.55,5.22-6.14,6.04-1.04.19-2.09.27-3.1.36-.45.04-.91.07-1.36.12-1.81.18-1.95.39-2.21,1.92-.19,1.13-.34,2.29-.49,3.42-.14,1.11-.29,2.22-.47,3.32-.47,2.85-2.36,4.81-5.31,5.51-2.18.55-4.44.82-6.7.82ZM481.28,102.75c-.81,0-1.61,0-2.41.03-4.45.11-7.05,2.23-7.96,6.49-.64,3.35-1.03,6.82-1.16,10.29-.29,5.16-.5,10.38-.71,15.43-.08,2.11-.17,4.22-.26,6.33.04,5.23.07,10.53.1,15.83,0,2,.23,4,.69,5.96.51,2.33,1.79,3.71,3.82,4.14,3.54.71,7.28.62,10.79-.26,1.82-.43,2.78-1.42,3.06-3.09.18-1.07.32-2.14.45-3.22.15-1.16.3-2.36.51-3.54.5-2.94,1.77-4.09,4.86-4.4.47-.05.94-.09,1.42-.13.98-.08,1.91-.16,2.82-.32,2.98-.53,3.54-2.12,3.69-3.44.41-3.25.59-6.54.55-9.79-.04-1.49-.32-2.47-.85-2.97-.6-.57-1.77-.8-3.69-.74-1.71.04-3.4-.12-5.05-.45-1.21-.29-2.19-1.05-2.71-2.12l-.1-.25c-.71-2.47-.35-5.14.99-7.33,1.13-2.02,3.25-2.04,4.65-2.06.18,0,.36,0,.54,0,.48-.02.97-.01,1.46-.01.35,0,.69,0,1.04,0,1.01-.02,2.01-.02,3.02-.03,2.13-.02,4.33-.03,6.47-.15,1.84-.1,2.91-.97,3.18-2.58v-.04c.61-3.05,1.02-6.15,1.21-9.22.13-3.61-1.5-5.48-5.44-6.22-3.54-.68-7.15-1.17-10.74-1.45-4.8-.35-9.53-.66-14.25-.66Z"/>
    </g>
    <g>
      <path class="cls-1" d="M562.84,168.73c-3.08,1.91-6.29,3.61-9.61,5.08-3.02,1.36-4.78.35-6.17-2.95-.25-.49-.44-1.01-.58-1.54-.48-2.67-2.03-3.47-4.35-3.5-4.63-.06-9.26-.41-13.9-.45-.76,0-1.69.68-2.28,1.34-.84,1.07-1.62,2.19-2.32,3.36-.98,1.42-2.26,2.06-3.85,1.81-4.65-.73-8.8-2.84-12.69-5.67-1.24-.9-1.62-2.37-1.49-4.07.35-1.23.65-2.48,1.08-3.68,2.46-6.79,4.93-13.58,7.52-20.33,3.46-8.99,7.06-17.91,10.63-26.86,1.36-3.42,3.67-5.6,7.12-5.76,3.83-.14,7.68-.08,11.51.17,2.62.15,4.49,1.9,5.51,4.35,1.57,3.55,2.88,7.19,3.92,10.91,3.49,13.54,8.21,26.55,12.46,39.72,1.38,4.29,1.14,5.75-2.53,8.05ZM538.83,143.41c-.75-3.42-1.72-6.77-2.64-10.14-.25-.63-.54-1.24-.88-1.82-2.42,4.96-3.62,9.82-4.78,15.07,2.16.02,4.13.14,6.1.06,2.07-.09,2.71-.92,2.21-3.16Z"/>
      <path class="cls-2" d="M550.91,175.9c-.59,0-1.15-.1-1.68-.31-1.46-.58-2.58-1.88-3.53-4.1-.29-.58-.51-1.18-.67-1.8l-.02-.1c-.31-1.71-.99-2.24-2.89-2.27-2.23-.03-4.48-.13-6.66-.22-2.37-.1-4.83-.21-7.23-.23-.13.02-.63.28-1.12.81-.79,1-1.52,2.07-2.18,3.16-1.74,2.52-3.87,2.76-5.36,2.52-4.45-.7-8.81-2.64-13.34-5.94-1.08-.79-2.33-2.36-2.1-5.39l.05-.3c.11-.38.21-.75.31-1.13.23-.87.48-1.76.8-2.64,2.4-6.63,4.89-13.48,7.53-20.35,2.86-7.42,5.86-14.93,8.77-22.19l1.88-4.69c1.68-4.21,4.6-6.52,8.44-6.7,3.89-.14,7.82-.08,11.68.18,2.99.17,5.47,2.09,6.8,5.27,1.58,3.56,2.92,7.3,3.98,11.08,2.54,9.84,5.77,19.54,8.9,28.93,1.19,3.58,2.38,7.15,3.54,10.74,1.48,4.57,1.36,6.94-3.16,9.78h0c-3.12,1.94-6.42,3.68-9.79,5.18-1.06.48-2.04.72-2.93.72ZM547.95,169c.11.41.26.81.45,1.19l.04.1c.59,1.41,1.23,2.26,1.88,2.52.55.21,1.29.1,2.29-.35,3.25-1.45,6.42-3.12,9.43-4.99,2.93-1.84,3.13-2.49,1.89-6.32-1.15-3.58-2.34-7.14-3.53-10.71-3.14-9.44-6.4-19.19-8.95-29.1-1.01-3.62-2.3-7.22-3.83-10.68-.64-1.52-1.87-3.33-4.23-3.46-3.77-.25-7.6-.31-11.37-.17-2.64.12-4.53,1.7-5.78,4.82l-1.88,4.69c-2.9,7.25-5.9,14.75-8.75,22.16-2.63,6.84-5.11,13.68-7.51,20.3-.28.76-.49,1.56-.72,2.4-.09.34-.19.68-.28,1.02-.1,1.88.64,2.42.88,2.59,4.13,3.01,8.07,4.78,12.04,5.4.66.1,1.52.06,2.38-1.19.68-1.14,1.5-2.32,2.38-3.43l.06-.08c.39-.43,1.79-1.84,3.39-1.84h.01c2.46.02,4.94.13,7.34.23,2.16.09,4.39.19,6.57.22,3.32.05,5.21,1.57,5.79,4.68ZM535.06,148.1c-.83,0-1.67-.02-2.54-.04-.66-.02-1.33-.04-2.02-.04l-1.85-.02.4-1.8c1.15-5.19,2.39-10.27,4.9-15.41l1.23-2.51,1.41,2.41c.38.65.71,1.33.99,2.03l.05.15.5,1.82c.75,2.73,1.53,5.56,2.16,8.4h0c.23,1.03.42,2.53-.45,3.66-.84,1.09-2.21,1.28-3.16,1.32-.54.02-1.08.03-1.62.03ZM532.38,145.05c.07,0,.15,0,.22,0,1.37.04,2.67.07,3.95.01.68-.03.9-.15.93-.17-.01,0,.07-.3-.12-1.17-.61-2.76-1.38-5.55-2.12-8.25l-.03-.1c-1.23,3.16-2.06,6.33-2.83,9.67Z"/>
    </g>
    <g>
      <path class="cls-1" d="M637.16,122.94c-1.08,1.63-2.26,3.19-3.53,4.69-11.67,14.12-22.59,28.65-31.98,44-.78,1.28-1.53,2.57-2.37,3.82-1.35,2.05-3.64,3.29-6.12,3.32-2.87.1-5.77.04-8.65-.09-2.35-.11-4.27-1.22-4.9-3.23-1.26-4.03-2.22-8.13-3.31-12.21-.68-2.55-1.42-5.09-2-7.66-2.93-12.95-5.97-25.9-8.94-38.86-.85-3.72.61-5.53,4.83-6.51,2.75-.64,5.57-1.1,8.39-1.53,2.52-.38,3.98.24,4.84,2.37,1.01,2.52,1.84,5.11,2.5,7.73,2.26,8.77,4.38,17.55,6.5,26.34.15.63.37,1.25.65,2.2.8-.89,1.45-1.49,1.96-2.18,5.72-7.63,11.45-15.26,17.32-22.82,1.75-2.25,3.62-4.42,5.56-6.55,1.54-1.69,3.62-2.18,6.06-1.25,3.9,1.49,7.81,2.95,11.66,4.54,2.14.89,2.63,2.15,1.51,3.88Z"/>
      <path class="cls-2" d="M590.15,180.32c-1.72,0-3.59-.05-5.7-.14-3.12-.14-5.46-1.74-6.26-4.28-.9-2.88-1.66-5.83-2.39-8.68-.31-1.2-.61-2.39-.93-3.59-.19-.69-.37-1.39-.56-2.08-.5-1.84-1.02-3.74-1.45-5.63-1.81-7.99-3.66-15.98-5.51-23.97-1.15-4.96-2.3-9.92-3.43-14.88-1.35-5.9,2.75-7.57,5.95-8.31,2.85-.66,5.77-1.14,8.51-1.55,2.07-.31,4.99-.32,6.46,3.29,1.03,2.58,1.89,5.25,2.56,7.93,2.21,8.58,4.32,17.33,6.37,25.79l.03.11s.04-.05.06-.08c5.77-7.7,11.44-15.24,17.34-22.84,1.59-2.04,3.43-4.22,5.63-6.64,1.99-2.19,4.73-2.77,7.71-1.64l1.53.58c3.35,1.27,6.81,2.59,10.17,3.98,1.58.65,2.52,1.53,2.87,2.67.33,1.06.1,2.2-.67,3.41v.02c-1.12,1.66-2.34,3.29-3.64,4.83-13.26,16.05-23.38,29.98-31.85,43.82-.22.36-.44.73-.66,1.09-.55.92-1.12,1.86-1.74,2.78-1.61,2.45-4.36,3.94-7.35,3.97-.97.04-1.97.05-3.03.05ZM579.88,110.07c-.3,0-.65.03-1.05.09-2.68.41-5.53.87-8.28,1.51-3.86.9-4.27,2.24-3.71,4.72,1.14,4.96,2.29,9.92,3.43,14.88,1.85,8,3.7,15.99,5.51,23.99.41,1.83.92,3.7,1.42,5.51.19.7.38,1.4.57,2.1.32,1.2.63,2.41.94,3.61.72,2.81,1.47,5.72,2.35,8.53.58,1.85,2.67,2.14,3.53,2.18,3.32.15,6.03.18,8.53.09,2.02-.02,3.85-1.01,4.92-2.64.59-.87,1.11-1.74,1.67-2.66.22-.37.45-.74.68-1.12,8.54-13.96,18.74-28,32.1-44.18,1.24-1.46,2.39-2.99,3.43-4.55.3-.47.36-.77.33-.88-.04-.13-.33-.45-1.16-.79-3.32-1.37-6.76-2.68-10.09-3.95l-1.53-.58c-1.82-.69-3.27-.41-4.42.85-2.15,2.37-3.94,4.48-5.48,6.46-5.88,7.58-11.54,15.11-17.3,22.8-.39.52-.81.96-1.3,1.48-.23.24-.48.51-.75.8l-1.79,1.97-.76-2.55c-.09-.32-.18-.6-.26-.85-.17-.54-.3-.98-.41-1.42l-.13-.56c-2.04-8.45-4.15-17.19-6.36-25.76-.64-2.56-1.46-5.1-2.44-7.55-.41-1-.89-1.54-2.17-1.54Z"/>
    </g>
    <g>
      <path class="cls-1" d="M685.32,139.56c-.52,2.62-2.2,3.5-5.03,3.16-3.39-.4-6.76-1.05-10.16-1.46-2.08-.28-4.17-.41-6.26-.4-2.39.04-3.63,1.15-4.25,3.74,2.33.35,4.58.57,6.76,1.06,2.93.66,4.17,1.92,4.13,4.76-.07,3.22-.41,6.43-1.01,9.6-.44,2.35-1.96,3.31-4.42,3.45-.92.06-1.85-.06-2.77-.01-1.08,0-2.16.11-3.21.34-.57.16-.99.83-1.47,1.27.54.28,1.06.74,1.62.79,3.78.35,7.58.63,11.37.94,6.64.54,8.46,2.05,7.72,8.01-.35,2.83-.67,5.68-1.17,8.49-.39,2.18-1.74,3.43-4.01,3.38-3.6-.04-7.19-.3-10.75-.78-7.34-1.08-14.67-2.29-21.98-3.54-4.91-.84-6.47-2.99-5.92-7.93.77-6.84,1.71-13.65,2.5-20.48.88-7.63,1.61-15.27,2.5-22.9.28-2.1.71-4.18,1.27-6.22.87-3.42,2.92-5.02,6.61-5.04,2.39-.03,4.78.1,7.15.4,7.68,1.02,15.34,2.18,22.98,3.4,1.37.23,2.72.59,4.03,1.05,2.68.94,4.6,2.74,4.62,5.51.05,3.16-.22,6.31-.81,9.41Z"/>
      <path class="cls-2" d="M673.25,188.17c-.05,0-.11,0-.16,0-3.62-.04-7.3-.31-10.92-.79-6.5-.95-13.5-2.08-22.04-3.55-5.66-.97-7.8-3.84-7.15-9.57.4-3.59.86-7.24,1.31-10.76.41-3.24.82-6.48,1.19-9.73.42-3.67.81-7.34,1.2-11.01.42-3.96.84-7.93,1.3-11.89.29-2.18.73-4.34,1.31-6.44,1.04-4.1,3.67-6.12,8.05-6.15,2.45-.03,4.92.11,7.34.41,6.84.9,14.15,1.99,23.04,3.41,1.46.25,2.9.62,4.3,1.12,3.59,1.26,5.59,3.72,5.61,6.92.05,3.23-.23,6.5-.83,9.7h0c-.46,2.31-1.99,4.93-6.68,4.37-1.77-.21-3.56-.49-5.28-.76-1.6-.25-3.26-.51-4.88-.71-2.01-.27-4.04-.4-6.07-.39-.98.02-1.69.21-2.2,1.02.07,0,.14.02.22.03,1.58.21,3.22.43,4.81.79,3.72.84,5.35,2.77,5.3,6.25-.07,3.29-.42,6.6-1.04,9.85-.5,2.7-2.23,4.26-5.15,4.61.75.06,1.51.12,2.27.18l2.63.21c3.63.29,6.36.88,7.92,2.8,1.23,1.51,1.57,3.57,1.16,6.89l-.15,1.22c-.29,2.41-.6,4.9-1.03,7.35-.52,2.9-2.52,4.62-5.37,4.62ZM648,121.27c-.21,0-.43,0-.64,0-2.98.02-4.48,1.15-5.18,3.91-.55,2-.96,4.03-1.23,6.05-.46,3.92-.87,7.88-1.29,11.83-.39,3.68-.78,7.36-1.2,11.04-.38,3.26-.79,6.51-1.2,9.76-.44,3.51-.9,7.14-1.3,10.72-.47,4.17.58,5.58,4.68,6.28,8.51,1.46,15.49,2.59,21.95,3.54,3.48.47,7.04.73,10.55.77,1.47.04,2.25-.63,2.52-2.14.42-2.37.72-4.82,1.01-7.19l.15-1.23c.3-2.4.14-3.83-.51-4.63-.75-.92-2.5-1.43-5.84-1.7l-2.63-.21c-2.92-.23-5.84-.46-8.75-.73-.74-.07-1.31-.43-1.77-.72-.13-.08-.26-.17-.39-.23l-1.93-.99,1.61-1.46c.12-.1.22-.23.34-.35.39-.43.93-1.03,1.74-1.25,1.23-.27,2.4-.39,3.62-.39.41-.02.89,0,1.37.01.46.02.89.03,1.3,0,2.21-.13,2.8-.95,3.04-2.23.59-3.09.92-6.24.99-9.36.03-1.82-.37-2.68-2.96-3.26-1.46-.33-2.96-.53-4.55-.74-.69-.09-1.4-.19-2.1-.29l-1.62-.24.39-1.59c.8-3.29,2.6-4.84,5.69-4.89,2.18,0,4.35.13,6.48.41,1.66.2,3.34.46,4.96.72,1.7.26,3.45.54,5.17.74,2.45.29,3.08-.46,3.38-1.95.57-3,.83-6.06.78-9.1-.01-1.9-1.23-3.29-3.62-4.12-1.24-.44-2.51-.78-3.78-.99-8.84-1.42-16.13-2.5-22.93-3.4-2.07-.26-4.19-.39-6.29-.39Z"/>
    </g>
    <g>
      <path class="cls-1" d="M709.69,147.15c-1.72,1.73-1.62,3.6.61,4.95,2.24,1.3,4.57,2.43,6.98,3.39,4.63,1.92,9.08,4.07,12.35,7.72,8.14,9.07,7.03,20.65-2.47,27.99-7.31,5.66-15.71,6.46-24.74,3.13-9.17-3.38-15.73-9.11-18.33-18-.38-1.39-.5-2.84-.34-4.27.24-2.4,1.77-3.94,4.43-4.03,2.97,0,5.94.18,8.89.55,1.81.18,2.7,1.36,3.11,2.85.59,2.25,1.8,4.3,3.49,5.94,2.42,2.47,6.12,3.26,9.33,1.98,3.02-1.27,3.73-4.17,1.22-6.3-1.88-1.48-3.92-2.75-6.1-3.76-3.11-1.58-6.51-2.72-9.53-4.42-5.66-3.19-9.26-7.7-10.02-13.68-.56-4.42,1.26-8.19,4-11.62,5.9-7.41,14.53-10.59,24.84-10.83,4.32-.12,8.65.64,12.67,2.23,7.54,3,11.82,8.96,11.59,16.03-.05,1.48-.21,2.95-.33,4.52-.4,1.26-.72,2.62-1.25,3.91-.86,2.1-2.51,3.08-5.09,2.86-2.96-.25-5.92-.6-8.85-1.07-3.05-.5-4.23-1.84-4.39-4.6-.07-1.18-.04-2.36-.21-3.53-.44-3.03-2.4-4.55-5.78-4.41-2.3.03-4.48.92-6.08,2.48Z"/>
      <path class="cls-2" d="M712.7,197.81c-3.44,0-7.04-.69-10.79-2.07-10.19-3.76-16.66-10.14-19.25-18.98-.44-1.6-.57-3.23-.4-4.85.32-3.2,2.57-5.26,5.87-5.37,3.07-.01,6.12.18,9.13.56,2.16.21,3.73,1.61,4.36,3.94.53,2,1.59,3.81,3.08,5.27,2.03,2.08,5.06,2.72,7.73,1.66,1-.42,1.67-1.1,1.78-1.82.1-.63-.25-1.32-.98-1.94-1.74-1.38-3.7-2.58-5.77-3.55-1.36-.69-2.78-1.3-4.15-1.88-1.83-.78-3.72-1.59-5.49-2.59-6.36-3.58-9.98-8.56-10.77-14.8-.55-4.32.82-8.37,4.31-12.74,5.81-7.3,14.55-11.13,25.98-11.39,4.55-.13,9.01.65,13.26,2.33,8.11,3.23,12.79,9.76,12.54,17.48-.03,1.06-.12,2.07-.22,3.15-.04.47-.08.95-.12,1.43l-.06.33c-.12.38-.23.77-.34,1.16-.27.93-.55,1.9-.94,2.87-.78,1.91-2.58,4.12-6.6,3.79-2.73-.23-5.39-.54-7.9-.92,1.35.96,2.63,2.06,3.78,3.34,4.21,4.69,6.26,10.3,5.76,15.79-.5,5.46-3.49,10.57-8.43,14.39-4.67,3.61-9.82,5.42-15.38,5.42ZM688.41,169.53c-.07,0-.14,0-.21,0-1.79.06-2.77.94-2.94,2.68-.14,1.26-.04,2.51.3,3.72,2.33,7.97,8.02,13.53,17.4,16.99,8.78,3.24,16.62,2.26,23.3-2.91,4.27-3.3,6.85-7.67,7.27-12.29.43-4.72-1.3-9.39-5-13.51-2.89-3.22-6.81-5.26-11.81-7.33-2.45-.97-4.87-2.14-7.16-3.48-1.88-1.14-2.4-2.48-2.52-3.41-.11-.93.07-2.36,1.6-3.9h.01c1.89-1.86,4.41-2.89,7.11-2.92,4.08-.17,6.73,1.91,7.29,5.7.13.87.15,1.72.18,2.54.01.37.02.74.05,1.11.11,1.89.59,2.8,3.13,3.21,2.75.45,5.69.8,8.74,1.06,1.89.16,2.96-.42,3.58-1.93.33-.81.59-1.7.84-2.56.1-.36.21-.71.31-1.06.03-.44.07-.87.11-1.29.09-1.03.18-2.01.21-2.99.22-6.49-3.66-11.81-10.64-14.59-3.86-1.53-7.92-2.23-12.08-2.12-10.65.24-18.41,3.6-23.71,10.26-2.95,3.7-4.12,7.04-3.68,10.5.67,5.25,3.78,9.47,9.27,12.56,1.63.92,3.36,1.66,5.2,2.45,1.41.6,2.87,1.23,4.28,1.94,2.24,1.04,4.39,2.37,6.35,3.92,1.57,1.33,2.3,3.04,2.04,4.72-.27,1.78-1.59,3.29-3.61,4.14-3.83,1.52-8.13.61-10.99-2.32-1.86-1.81-3.2-4.1-3.86-6.61-.39-1.41-1.1-1.67-1.8-1.74-2.85-.36-5.71-.55-8.52-.55ZM710.75,148.22c-.52.52-.79,1.04-.74,1.41.05.38.43.81,1.07,1.2,2.14,1.25,4.42,2.35,6.76,3.28.99.41,2,.84,3.03,1.31-.34-.76-.53-1.66-.6-2.71-.02-.4-.04-.79-.05-1.19-.02-.77-.05-1.5-.15-2.21-.22-1.53-.9-3.27-4.24-3.13-1.97.02-3.75.75-5.08,2.05Z"/>
    </g>
    <g>
      <path class="cls-1" d="M780.67,168.18c-2.88,2.24-6.08,4.08-9.5,5.45-5.29,1.98-7.31,5.72-7.73,10.78-.02.21-.02.42-.04.63-.38,3.46-2.23,4.82-5.77,4.21-1.55-.27-3.09-.64-4.63-.96,0,.02,0,.04-.01.06-1.28-.26-2.56-.5-3.83-.79-3.16-.74-4.9-2.49-4.63-5.6.44-4.99,1.25-9.95,2.06-14.89.37-1.97.92-3.91,1.63-5.79,1.34-3.82,3.28-4.77,7.54-4.25,2.45.28,4.92.35,7.38.21,1.97-.09,3.76-1.06,4.84-2.62.79-1.09.98-2.27.14-3.39-.8-1.09-2.26-1.54-3.55-1.09-1.99.54-3.97,1.14-5.93,1.77-3,.96-5.22.42-6.86-2.2-1.69-2.69-3.19-5.49-4.47-8.38-1.38-3.12-.37-5.33,2.76-6.99,3.99-2.12,8.41-2.58,12.88-2.3,7.09.45,13.39,2.91,18.35,8.01,3.66,3.64,5.9,8.34,6.35,13.3.56,6.21-2.06,11.18-6.96,14.85ZM763.57,204.96c-1.3,5.6-7.63,9.28-13.85,7.99-5.35-1.06-8.83-5.52-7.89-11.22.91-5.6,8.03-11.01,12.83-9.76,4.48,1.15,10.25,7.24,8.91,12.99Z"/>
      <path class="cls-2" d="M752.22,214.71c-.93,0-1.87-.09-2.81-.29-6.37-1.27-10.11-6.58-9.06-12.93.55-3.34,3.04-6.82,6.5-9.08,2.8-1.83,5.78-2.52,8.19-1.9,5.1,1.31,11.55,8.1,9.99,14.78h0c-1.29,5.53-6.82,9.41-12.81,9.41ZM753.21,193.29c-1.41,0-3.1.57-4.72,1.63-2.73,1.78-4.77,4.55-5.17,7.05-.78,4.73,1.91,8.55,6.7,9.5,5.44,1.12,10.97-2.01,12.1-6.86h0c1.12-4.79-3.93-10.2-7.82-11.2-.34-.09-.7-.13-1.08-.13ZM759.17,190.89c-.56,0-1.15-.06-1.79-.17-1.08-.19-2.15-.42-3.18-.64-.08-.02-.15-.03-.23-.05l-1.28-.21c-.42-.09-.83-.17-1.25-.25-.88-.17-1.75-.35-2.62-.55-4.05-.95-6.1-3.5-5.78-7.19.43-4.95,1.24-9.91,2.03-14.71l.05-.29c.4-2.09.97-4.12,1.71-6.07,1.75-5.02,4.91-5.72,9.12-5.21,2.35.27,4.74.34,7.11.2,1.51-.07,2.88-.81,3.69-1.98.63-.88.42-1.31.17-1.64-.42-.57-1.2-.81-1.87-.58l-.1.03c-1.75.47-3.61,1.03-5.86,1.75-3.77,1.21-6.66.26-8.59-2.83-1.72-2.74-3.26-5.62-4.57-8.57-1.16-2.63-1.51-6.3,3.42-8.93,3.78-2.01,8.26-2.82,13.68-2.47,7.85.5,14.36,3.34,19.33,8.46,3.87,3.85,6.28,8.9,6.77,14.21.59,6.45-2.02,12.04-7.54,16.18-2.98,2.32-6.3,4.22-9.85,5.65-4.36,1.64-6.38,4.48-6.79,9.51v.22c-.02.15-.03.3-.05.46-.24,2.13-1,3.7-2.26,4.64-.93.7-2.08,1.05-3.47,1.05ZM751.82,186.58l1.48.25c.51.11,1.02.22,1.53.33,1,.22,2.04.44,3.06.62,1.36.24,2.35.13,2.95-.32.57-.43.94-1.3,1.08-2.57,0-.09.01-.19.02-.28l.02-.31c.5-6.19,3.27-10.03,8.7-12.06,3.27-1.31,6.34-3.07,9.11-5.23l.02-.02c4.72-3.53,6.86-8.08,6.37-13.51-.42-4.61-2.52-9-5.91-12.37-4.46-4.58-10.3-7.12-17.39-7.57-4.85-.31-8.81.39-12.08,2.13-2.91,1.54-2.94,3.14-2.09,5.06,1.25,2.81,2.72,5.57,4.37,8.19,1.21,1.93,2.64,2.37,5.13,1.57,2.27-.73,4.17-1.3,5.95-1.78,1.89-.62,4.02.05,5.19,1.64,1.16,1.54,1.12,3.43-.13,5.16-1.33,1.91-3.57,3.13-5.99,3.24-2.52.14-5.09.07-7.62-.22-3.71-.45-4.88.19-5.95,3.26-.69,1.83-1.21,3.69-1.57,5.57l-.04.25c-.78,4.75-1.58,9.65-2,14.49-.13,1.55.17,3.24,3.48,4.01.77.18,1.54.34,2.32.49h0Z"/>
    </g>
  </g>
</svg>